<?xml version="1.0" encoding="utf-8"?>
<!-- Generator: Adobe Illustrator 16.0.0, SVG Export Plug-In . SVG Version: 6.00 Build 0)  -->
<!DOCTYPE svg PUBLIC "-//W3C//DTD SVG 1.1//EN" "http://www.w3.org/Graphics/SVG/1.1/DTD/svg11.dtd">
<svg version="1.1" id="Layer_1" xmlns="http://www.w3.org/2000/svg" xmlns:xlink="http://www.w3.org/1999/xlink" x="0px" y="0px"
	 width="1400px" height="980px" viewBox="0 0 1400 980" enable-background="new 0 0 1400 980" xml:space="preserve">
<g>
	<g>
		<g>
			<rect fill="#FFFFFF" width="1400" height="980"/>
		</g>
	</g>
	<g>
		<polygon fill="#E6E7E8" points="820.1,168.1 1065.4,168.1 1065.4,381.6 1018.6,381.6 1018.6,437.7 962.7,381.9 820.1,381.9 		"/>
		<path d="M1018.6,439c-0.3,0-0.6-0.1-0.9-0.4l-55.5-55.5H820.1c-0.7,0-1.2-0.6-1.2-1.2V168.1c0-0.7,0.6-1.2,1.2-1.2h245.3
			c0.7,0,1.2,0.6,1.2,1.2v213.5c0,0.7-0.6,1.2-1.2,1.2h-45.6v54.9c0,0.5-0.3,0.9-0.8,1.1C1018.9,438.9,1018.7,439,1018.6,439z
			 M821.4,380.6h141.4c0.3,0,0.6,0.1,0.9,0.4l53.8,53.8v-53.1c0-0.7,0.6-1.2,1.2-1.2h45.6v-211H821.4V380.6z"/>
	</g>
	<g>
		<g>
			<path d="M710.5,473.5H199.6c-0.7,0-1.2-0.6-1.2-1.2V187.9c0-17,13.8-30.8,30.8-30.8h451.7c17,0,30.8,13.8,30.8,30.8v284.4
				C711.7,473,711.1,473.5,710.5,473.5z M200.8,471.1h508.4V187.9c0-15.6-12.7-28.4-28.4-28.4H229.2c-15.6,0-28.4,12.7-28.4,28.4
				V471.1z"/>
		</g>
		<g>
			<path fill="#E6E7E8" d="M199.6,472.3v31.3c0,16.3,13.2,29.6,29.6,29.6h451.7c16.3,0,29.6-13.2,29.6-29.6v-31.3H199.6z"/>
			<path d="M680.9,534.4H229.2c-17,0-30.8-13.8-30.8-30.8v-31.3c0-0.7,0.6-1.2,1.2-1.2h510.9c0.7,0,1.2,0.6,1.2,1.2v31.3
				C711.7,520.5,697.9,534.4,680.9,534.4z M200.8,473.5v30c0,15.6,12.7,28.4,28.4,28.4h451.7c15.6,0,28.4-12.7,28.4-28.4v-30H200.8z
				"/>
		</g>
	</g>
	<g>
		<rect x="323.9" y="226.5" fill="#6CC7CB" width="262.2" height="245.8"/>
		<path fill="#231F20" d="M586.1,473.5H323.9c-0.7,0-1.2-0.6-1.2-1.2V226.5c0-0.7,0.6-1.2,1.2-1.2h262.2c0.7,0,1.2,0.6,1.2,1.2
			v245.8C587.4,473,586.8,473.5,586.1,473.5z M325.1,471.1h259.7V227.8H325.1V471.1z"/>
	</g>
	<g>
		<path fill="#FFAC9A" d="M535.2,312.1l62.9-34.5c19.1,13.9,42.5,22.1,67.9,22.1c63.9,0,115.6-51.8,115.6-115.6
			c0-63.9-51.8-115.6-115.6-115.6c-63.9,0-115.6,51.8-115.6,115.6c0,23.9,7.3,46.1,19.7,64.6L535.2,312.1z"/>
		<path fill="#231F20" d="M535.2,313.3c-0.3,0-0.6-0.1-0.9-0.4c-0.4-0.4-0.5-1-0.2-1.5l34.5-62.8c-12.8-19.2-19.5-41.5-19.5-64.6
			c0-64.4,52.4-116.8,116.8-116.8c64.4,0,116.8,52.4,116.8,116.8c0,64.4-52.4,116.8-116.8,116.8c-24.6,0-48.1-7.6-68-21.8
			l-62.2,34.2C535.6,313.3,535.4,313.3,535.2,313.3z M666,69.6c-63.1,0-114.4,51.3-114.4,114.4c0,22.9,6.7,45,19.5,63.9
			c0.3,0.4,0.3,0.9,0.1,1.3L538.3,309l59.2-32.5c0.4-0.2,0.9-0.2,1.3,0.1c19.6,14.3,42.9,21.8,67.2,21.8
			c63.1,0,114.4-51.3,114.4-114.4C780.3,121,729,69.6,666,69.6z"/>
	</g>
	<g>
		<polygon fill="#7BC688" points="61.4,190.3 61.4,340.4 231.2,340.4 286.3,384.3 286.3,340.4 286.3,190.3 		"/>
		<path d="M286.3,385.5c-0.3,0-0.5-0.1-0.8-0.3l-54.7-43.6H61.4c-0.7,0-1.2-0.6-1.2-1.2V190.3c0-0.7,0.6-1.2,1.2-1.2h224.9
			c0.7,0,1.2,0.6,1.2,1.2v194c0,0.5-0.3,0.9-0.7,1.1C286.7,385.4,286.5,385.5,286.3,385.5z M62.7,339.2h168.6c0.3,0,0.5,0.1,0.8,0.3
			l53.1,42.3V191.5H62.7V339.2z"/>
	</g>
	<g>
		<rect x="395.4" y="533.1" fill="#C8C8C9" width="119.3" height="57.5"/>
		<path d="M514.7,591.9H395.4c-0.7,0-1.2-0.6-1.2-1.2v-57.5c0-0.7,0.6-1.2,1.2-1.2h119.3c0.7,0,1.2,0.6,1.2,1.2v57.5
			C515.9,591.4,515.4,591.9,514.7,591.9z M396.6,589.4h116.8v-55.1H396.6V589.4z"/>
	</g>
	<g>
		<path d="M544.4,591.9H365.6c-0.7,0-1.2-0.6-1.2-1.2s0.6-1.2,1.2-1.2h178.8c0.7,0,1.2,0.6,1.2,1.2S545.1,591.9,544.4,591.9z"/>
	</g>
	<g>
		<path d="M733.4,127H605.1c-0.7,0-1.2-0.6-1.2-1.2c0-0.7,0.6-1.2,1.2-1.2h128.2c0.7,0,1.2,0.6,1.2,1.2
			C734.6,126.5,734,127,733.4,127z"/>
	</g>
	<g>
		<path d="M746.1,159.5H592.4c-0.7,0-1.2-0.6-1.2-1.2s0.6-1.2,1.2-1.2h153.7c0.7,0,1.2,0.6,1.2,1.2S746.8,159.5,746.1,159.5z"/>
	</g>
	<g>
		<rect x="592.4" y="190.3" fill="#FFEEB8" width="44" height="44"/>
		<path fill="#231F20" d="M636.4,235.5h-44c-0.7,0-1.2-0.6-1.2-1.2v-44c0-0.7,0.6-1.2,1.2-1.2h44c0.7,0,1.2,0.6,1.2,1.2v44
			C637.6,234.9,637,235.5,636.4,235.5z M593.6,233h41.5v-41.5h-41.5V233z"/>
	</g>
	<g>
		<path d="M746.1,191.5H653c-0.7,0-1.2-0.6-1.2-1.2s0.6-1.2,1.2-1.2h93.1c0.7,0,1.2,0.6,1.2,1.2S746.8,191.5,746.1,191.5z"/>
	</g>
	<g>
		<path d="M746.1,221.5H653c-0.7,0-1.2-0.6-1.2-1.2s0.6-1.2,1.2-1.2h93.1c0.7,0,1.2,0.6,1.2,1.2S746.8,221.5,746.1,221.5z"/>
	</g>
	<g>
		<path d="M696,252h-59.6c-0.7,0-1.2-0.6-1.2-1.2c0-0.7,0.6-1.2,1.2-1.2H696c0.7,0,1.2,0.6,1.2,1.2C697.2,251.4,696.6,252,696,252z"
			/>
	</g>
	<g>
		<polygon fill="#FFFFFF" points="90.9,235.5 142.5,265.3 90.9,295.1 		"/>
		<path d="M90.9,296.4c-0.2,0-0.4-0.1-0.6-0.2c-0.4-0.2-0.6-0.6-0.6-1.1v-59.6c0-0.4,0.2-0.8,0.6-1.1c0.4-0.2,0.9-0.2,1.2,0
			l51.6,29.8c0.4,0.2,0.6,0.6,0.6,1.1c0,0.4-0.2,0.8-0.6,1.1l-51.6,29.8C91.4,296.3,91.1,296.4,90.9,296.4z M92.2,237.7V293
			l47.9-27.7L92.2,237.7z"/>
	</g>
	<g>
		<path d="M261.5,218.9h-99.3c-0.7,0-1.2-0.6-1.2-1.2s0.6-1.2,1.2-1.2h99.3c0.7,0,1.2,0.6,1.2,1.2S262.2,218.9,261.5,218.9z"/>
	</g>
	<g>
		<path d="M261.5,266.6h-99.3c-0.7,0-1.2-0.6-1.2-1.2c0-0.7,0.6-1.2,1.2-1.2h99.3c0.7,0,1.2,0.6,1.2,1.2
			C262.8,266,262.2,266.6,261.5,266.6z"/>
	</g>
	<g>
		<path d="M261.5,243.3h-99.3c-0.7,0-1.2-0.6-1.2-1.2s0.6-1.2,1.2-1.2h99.3c0.7,0,1.2,0.6,1.2,1.2S262.2,243.3,261.5,243.3z"/>
	</g>
	<g>
		<path d="M192.9,314.3h-30.6c-0.7,0-1.2-0.6-1.2-1.2s0.6-1.2,1.2-1.2h30.6c0.7,0,1.2,0.6,1.2,1.2S193.6,314.3,192.9,314.3z"/>
	</g>
	<g>
		<path d="M261.5,291h-99.3c-0.7,0-1.2-0.6-1.2-1.2c0-0.7,0.6-1.2,1.2-1.2h99.3c0.7,0,1.2,0.6,1.2,1.2
			C262.8,290.5,262.2,291,261.5,291z"/>
	</g>
	<g>
		<polygon fill="#FFEEB8" points="668.4,615.2 577.2,615.2 577.2,747.8 710.5,747.8 710.5,615.2 710.5,576.9 		"/>
		<path fill="#231F20" d="M710.5,749.1H577.2c-0.7,0-1.2-0.6-1.2-1.2V615.2c0-0.7,0.6-1.2,1.2-1.2h90.8l41.7-37.9
			c0.4-0.3,0.9-0.4,1.3-0.2c0.4,0.2,0.7,0.6,0.7,1.1v170.9C711.7,748.5,711.1,749.1,710.5,749.1z M578.4,746.6h130.8V579.7l-40,36.3
			c-0.2,0.2-0.5,0.3-0.8,0.3h-90V746.6z"/>
	</g>
	<g>
		<g>
			<path fill="#6CC7CB" d="M259.4,649.1c0-39.7-32.2-71.9-71.9-71.9c-39.7,0-71.9,32.2-71.9,71.9c0,23.4,11.2,44.3,28.6,57.4v-20.2
				c0-9.6,7.8-17.3,17.3-17.3h16.2v-9.2c-7.3-1.5-12.9-7.9-12.9-15.7v-17.3h-8.4c0.6-11.7,10.3-21,22.2-21h31.6v13.5v7.6V644
				c0,7.8-5.5,14.2-12.9,15.7v9.2h16.2c9.6,0,17.3,7.8,17.3,17.3v20.2C248.2,693.3,259.4,672.5,259.4,649.1z"/>
			<path fill="#231F20" d="M144.1,707.7c-0.3,0-0.5-0.1-0.7-0.2c-18.5-14-29.1-35.2-29.1-58.4c0-40.3,32.8-73.2,73.2-73.2
				c40.3,0,73.2,32.8,73.2,73.2c0,23.1-10.6,44.4-29.1,58.4c-0.4,0.3-0.9,0.3-1.3,0.1c-0.4-0.2-0.7-0.6-0.7-1.1v-20.2
				c0-8.9-7.2-16.1-16.1-16.1h-16.2c-0.7,0-1.2-0.6-1.2-1.2v-9.2c0-0.6,0.4-1.1,1-1.2c6.9-1.4,11.9-7.5,11.9-14.5v-37.1h-30.3
				c-10.7,0-19.6,8.1-20.9,18.6h7.1c0.7,0,1.2,0.6,1.2,1.2V644c0,7,5,13.1,11.9,14.5c0.6,0.1,1,0.6,1,1.2v9.2c0,0.7-0.6,1.2-1.2,1.2
				h-16.2c-8.9,0-16.1,7.2-16.1,16.1v20.2c0,0.5-0.3,0.9-0.7,1.1C144.5,707.7,144.3,707.7,144.1,707.7z M198.5,667.7h15
				c10.2,0,18.6,8.3,18.6,18.6v17.7c16.6-13.5,26.1-33.3,26.1-54.9c0-39-31.7-70.7-70.7-70.7c-39,0-70.7,31.7-70.7,70.7
				c0,21.5,9.5,41.4,26.1,54.9v-17.7c0-10.2,8.3-18.6,18.6-18.6h15v-7c-7.5-2-12.9-8.8-12.9-16.7v-16.1h-7.2c-0.3,0-0.7-0.1-0.9-0.4
				c-0.2-0.2-0.4-0.6-0.3-0.9c0.7-12.4,11-22.2,23.4-22.2h31.6c0.7,0,1.2,0.6,1.2,1.2V644c0,7.9-5.4,14.7-12.9,16.7V667.7z"/>
		</g>
		<g>
			<path d="M187.4,722.2c-0.7,0-1.4,0-2.1,0l-0.4,0c-0.7,0-1.2-0.6-1.2-1.3c0-0.7,0.6-1.2,1.2-1.2h4.9c0.7,0,1.2,0.5,1.2,1.2
				c0,0.7-0.5,1.2-1.2,1.3l-0.4,0C188.8,722.2,188.1,722.2,187.4,722.2z"/>
		</g>
		<g>
			<path d="M210.1,627.9h-53.8c-0.3,0-0.7-0.1-0.9-0.4c-0.2-0.2-0.4-0.6-0.3-0.9c0.7-12.4,11-22.2,23.4-22.2h31.6
				c0.7,0,1.2,0.6,1.2,1.2v21C211.4,627.4,210.8,627.9,210.1,627.9z M157.7,625.4h51.2v-18.6h-30.3
				C167.9,606.9,158.9,614.9,157.7,625.4z"/>
		</g>
		<g>
			<path d="M197.2,670.1h-19.6c-0.7,0-1.2-0.6-1.2-1.2v-9.2c0-0.4,0.2-0.7,0.5-1c0.3-0.2,0.7-0.3,1-0.3c1,0.2,1.9,0.3,2.9,0.3h13.3
				c1,0,1.9-0.1,2.9-0.3c0.4-0.1,0.7,0,1,0.3c0.3,0.2,0.5,0.6,0.5,1v9.2C198.5,669.6,197.9,670.1,197.2,670.1z M178.9,667.7H196
				v-6.5c-0.6,0.1-1.3,0.1-1.9,0.1h-13.3c-0.6,0-1.3,0-1.9-0.1V667.7z"/>
		</g>
		<g>
			<path d="M194.1,661.3h-13.3c-1.1,0-2.2-0.1-3.4-0.3c-8-1.6-13.9-8.7-13.9-16.9v-17.3c0-0.7,0.6-1.2,1.2-1.2h45.4
				c0.7,0,1.2,0.6,1.2,1.2V644c0,8.2-5.8,15.3-13.9,16.9C196.4,661.1,195.2,661.3,194.1,661.3z M166,627.9V644c0,7,5,13.1,11.9,14.5
				c1,0.2,1.9,0.3,2.9,0.3h13.3c1,0,1.9-0.1,2.9-0.3c6.9-1.4,11.9-7.5,11.9-14.5v-16.1H166z"/>
		</g>
		<g>
			<path d="M189.9,722.2H185c-7.3-0.2-14.5-1.6-21.3-3.9c0,0,0,0,0,0c-7.3-2.5-14.2-6.2-20.3-10.8c-0.3-0.2-0.5-0.6-0.5-1v-20.2
				c0-10.2,8.3-18.6,18.6-18.6h52c10.2,0,18.6,8.3,18.6,18.6v20.2c0,0.4-0.2,0.8-0.5,1c-6.1,4.6-12.9,8.2-20.1,10.7
				c-0.1,0.1-0.2,0.1-0.4,0.1C204.3,720.6,197.2,721.9,189.9,722.2C189.9,722.2,189.9,722.2,189.9,722.2z M165.3,716.2
				c6.3,2.1,13,3.3,19.7,3.5l4.9,0c6.7-0.2,13.3-1.4,19.7-3.5v-24c0-0.7,0.6-1.2,1.2-1.2s1.2,0.6,1.2,1.2v23.1
				c6.3-2.3,12.2-5.5,17.5-9.5v-19.6c0-8.9-7.2-16.1-16.1-16.1h-52c-8.9,0-16.1,7.2-16.1,16.1v19.6c5.4,4,11.3,7.2,17.5,9.5v-23.1
				c0-0.7,0.6-1.2,1.2-1.2s1.2,0.6,1.2,1.2V716.2z"/>
		</g>
	</g>
	<g>
		<g>
			<path fill="#7BC688" d="M556.1,825c0-29.8-24.2-54-54-54c-29.8,0-54,24.2-54,54c0,17.6,8.4,33.2,21.5,43.1v-15.2
				c0-7.2,5.8-13,13-13h12.2V833c-5.5-1.1-9.7-6-9.7-11.8v-13h-6.3c0.5-8.8,7.8-15.8,16.7-15.8h23.7v10.1v5.7v13
				c0,5.8-4.2,10.7-9.7,11.8v6.9h12.2c7.2,0,13,5.8,13,13v15.2C547.6,858.2,556.1,842.6,556.1,825z"/>
			<path d="M469.5,869.3c-0.3,0-0.5-0.1-0.7-0.3c-13.9-10.6-21.9-26.6-21.9-44.1c0-30.5,24.8-55.2,55.2-55.2
				c30.5,0,55.2,24.8,55.2,55.2c0,17.5-8,33.5-21.9,44.1c-0.4,0.3-0.9,0.3-1.3,0.1c-0.4-0.2-0.7-0.6-0.7-1.1v-15.2
				c0-6.5-5.3-11.8-11.8-11.8h-12.2c-0.7,0-1.2-0.6-1.2-1.2V833c0-0.6,0.4-1.1,1-1.2c5-1,8.7-5.4,8.7-10.6v-27.6h-22.5
				c-7.8,0-14.3,5.8-15.3,13.3h5c0.7,0,1.2,0.6,1.2,1.2v13c0,5.1,3.7,9.6,8.7,10.6c0.6,0.1,1,0.6,1,1.2v6.9c0,0.7-0.6,1.2-1.2,1.2
				h-12.2c-6.5,0-11.8,5.3-11.8,11.8v15.2c0,0.5-0.3,0.9-0.7,1.1C469.9,869.3,469.7,869.3,469.5,869.3z M510.6,838.7h11
				c7.9,0,14.3,6.4,14.3,14.3v12.6c12.1-10.1,19-24.7,19-40.5c0-29.1-23.7-52.8-52.8-52.8s-52.8,23.7-52.8,52.8
				c0,15.8,6.9,30.5,19,40.5v-12.6c0-7.9,6.4-14.3,14.3-14.3h11V834c-5.7-1.6-9.7-6.8-9.7-12.8v-11.8h-5.1c-0.3,0-0.7-0.1-0.9-0.4
				c-0.2-0.2-0.4-0.6-0.3-0.9c0.5-9.5,8.4-17,17.9-17h23.7c0.7,0,1.2,0.6,1.2,1.2v28.8c0,6-4,11.2-9.7,12.8V838.7z"/>
		</g>
		<g>
			<path d="M502.1,880.2c-0.5,0-1,0-1.6,0l-0.3,0c-0.7,0-1.2-0.6-1.2-1.3c0-0.7,0.6-1.2,1.2-1.2h3.7c0.7,0,1.2,0.5,1.2,1.2
				c0,0.7-0.5,1.2-1.2,1.3l-0.3,0C503.1,880.2,502.6,880.2,502.1,880.2z"/>
		</g>
		<g>
			<path d="M519.1,809.4h-40.4c-0.3,0-0.7-0.1-0.9-0.4c-0.2-0.2-0.4-0.6-0.3-0.9c0.5-9.5,8.4-17,17.9-17h23.7c0.7,0,1.2,0.6,1.2,1.2
				v15.8C520.3,808.9,519.8,809.4,519.1,809.4z M480.1,806.9h37.8v-13.3h-22.5C487.6,793.6,481.1,799.4,480.1,806.9z"/>
		</g>
		<g>
			<path d="M509.4,841.1h-14.7c-0.7,0-1.2-0.6-1.2-1.2V833c0-0.4,0.2-0.7,0.5-1c0.3-0.2,0.7-0.3,1-0.3c0.7,0.1,1.4,0.2,2.1,0.2h10
				c0.7,0,1.4-0.1,2.1-0.2c0.4-0.1,0.7,0,1,0.3c0.3,0.2,0.5,0.6,0.5,1v6.9C510.6,840.6,510.1,841.1,509.4,841.1z M495.9,838.7h12.2
				v-4.3c-0.4,0-0.7,0-1.1,0h-10c-0.4,0-0.7,0-1.1,0V838.7z"/>
		</g>
		<g>
			<path d="M507.1,834.5h-10c-0.9,0-1.7-0.1-2.6-0.3c-6.2-1.2-10.7-6.7-10.7-13v-13c0-0.7,0.6-1.2,1.2-1.2h34.1
				c0.7,0,1.2,0.6,1.2,1.2v13c0,6.3-4.5,11.8-10.7,13C508.8,834.4,507.9,834.5,507.1,834.5z M486.3,809.4v11.8
				c0,5.1,3.7,9.6,8.7,10.6c0.7,0.1,1.4,0.2,2.1,0.2h10c0.7,0,1.4-0.1,2.1-0.2c5-1,8.7-5.4,8.7-10.6v-11.8H486.3z"/>
		</g>
		<g>
			<path d="M503.9,880.2h-3.7c-5.5-0.2-10.9-1.2-16.1-2.9c0,0,0,0,0,0c-5.5-1.9-10.7-4.7-15.4-8.2c-0.3-0.2-0.5-0.6-0.5-1v-15.2
				c0-7.9,6.4-14.3,14.3-14.3h39.1c7.9,0,14.3,6.4,14.3,14.3v15.2c0,0.4-0.2,0.8-0.5,1c-4.6,3.5-9.7,6.2-15.1,8.1
				c-0.1,0.1-0.2,0.1-0.4,0.1C514.7,879,509.4,880,503.9,880.2C503.9,880.2,503.9,880.2,503.9,880.2z M485.8,875.2
				c4.7,1.5,9.5,2.4,14.5,2.5l3.6,0c4.9-0.2,9.8-1,14.5-2.5v-17.8c0-0.7,0.6-1.2,1.2-1.2c0.7,0,1.2,0.6,1.2,1.2v16.9
				c4.5-1.7,8.7-4,12.6-6.9v-14.6c0-6.5-5.3-11.8-11.8-11.8h-39.1c-6.5,0-11.8,5.3-11.8,11.8v14.6c3.9,2.8,8.1,5.1,12.6,6.9v-16.9
				c0-0.7,0.6-1.2,1.2-1.2s1.2,0.6,1.2,1.2V875.2z"/>
		</g>
	</g>
	<g>
		<g>
			<path fill="#FFAC9A" d="M305.3,839.9c0-29.8-24.2-54-54-54c-29.8,0-54,24.2-54,54c0,17.6,8.4,33.2,21.5,43.1v-15.2
				c0-7.2,5.8-13,13-13h12.2v-6.9c-5.5-1.1-9.7-6-9.7-11.8v-13h-6.3c0.5-8.8,7.8-15.8,16.7-15.8h23.7v10.1v5.7v13
				c0,5.8-4.2,10.7-9.7,11.8v6.9h12.2c7.2,0,13,5.8,13,13V883C296.8,873.1,305.3,857.5,305.3,839.9z"/>
			<path fill="#231F20" d="M218.7,884.2c-0.3,0-0.5-0.1-0.7-0.2C204,873.4,196,857.4,196,839.9c0-30.5,24.8-55.2,55.2-55.2
				c30.5,0,55.2,24.8,55.2,55.2c0,17.5-8,33.5-21.9,44.1c-0.4,0.3-0.9,0.3-1.3,0.1c-0.4-0.2-0.7-0.6-0.7-1.1v-15.2
				c0-6.5-5.3-11.8-11.8-11.8h-12.2c-0.7,0-1.2-0.6-1.2-1.2v-6.9c0-0.6,0.4-1.1,1-1.2c5-1,8.7-5.4,8.7-10.6v-27.6h-22.5
				c-7.8,0-14.3,5.8-15.3,13.3h5c0.7,0,1.2,0.6,1.2,1.2v13c0,5.1,3.7,9.6,8.7,10.6c0.6,0.1,1,0.6,1,1.2v6.9c0,0.7-0.6,1.2-1.2,1.2
				h-12.2c-6.5,0-11.8,5.3-11.8,11.8V883c0,0.5-0.3,0.9-0.7,1.1C219.1,884.2,218.9,884.2,218.7,884.2z M259.8,853.6h11
				c7.9,0,14.3,6.4,14.3,14.3v12.6c12.1-10.1,19-24.7,19-40.5c0-29.1-23.7-52.8-52.8-52.8c-29.1,0-52.8,23.7-52.8,52.8
				c0,15.8,6.9,30.5,19,40.5v-12.6c0-7.9,6.4-14.3,14.3-14.3h11v-4.7c-5.7-1.6-9.7-6.8-9.7-12.8v-11.8h-5.1c-0.3,0-0.7-0.1-0.9-0.4
				c-0.2-0.2-0.4-0.6-0.3-0.9c0.5-9.5,8.4-17,17.9-17h23.7c0.7,0,1.2,0.6,1.2,1.2v28.8c0,6-4,11.2-9.7,12.8V853.6z"/>
		</g>
		<g>
			<path d="M251.2,895.1c-0.5,0-1,0-1.5,0l-0.3,0c-0.7,0-1.2-0.6-1.2-1.3c0-0.7,0.6-1.2,1.2-1.2h3.7c0.7,0,1.2,0.5,1.2,1.2
				c0,0.7-0.5,1.2-1.2,1.3l-0.3,0C252.3,895.1,251.8,895.1,251.2,895.1z"/>
		</g>
		<g>
			<path d="M268.3,824.3h-40.4c-0.3,0-0.7-0.1-0.9-0.4c-0.2-0.2-0.4-0.6-0.3-0.9c0.5-9.5,8.4-17,17.9-17h23.7c0.7,0,1.2,0.6,1.2,1.2
				v15.8C269.5,823.8,269,824.3,268.3,824.3z M229.3,821.8H267v-13.3h-22.5C236.8,808.5,230.3,814.3,229.3,821.8z"/>
		</g>
		<g>
			<path d="M258.6,856h-14.7c-0.7,0-1.2-0.6-1.2-1.2v-6.9c0-0.4,0.2-0.7,0.5-1c0.3-0.2,0.7-0.3,1-0.3c0.7,0.1,1.4,0.2,2.1,0.2h10
				c0.7,0,1.4-0.1,2.1-0.2c0.4-0.1,0.7,0,1,0.3c0.3,0.2,0.5,0.6,0.5,1v6.9C259.8,855.5,259.3,856,258.6,856z M245.1,853.6h12.2v-4.3
				c-0.4,0-0.7,0-1.1,0h-10c-0.4,0-0.7,0-1.1,0V853.6z"/>
		</g>
		<g>
			<path d="M256.2,849.4h-10c-0.9,0-1.7-0.1-2.6-0.3c-6.2-1.2-10.7-6.7-10.7-13v-13c0-0.7,0.6-1.2,1.2-1.2h34.1
				c0.7,0,1.2,0.6,1.2,1.2v13c0,6.3-4.5,11.8-10.7,13C258,849.3,257.1,849.4,256.2,849.4z M235.4,824.3v11.8c0,5.1,3.7,9.6,8.7,10.6
				c0.7,0.1,1.4,0.2,2.1,0.2h10c0.7,0,1.4-0.1,2.1-0.2c5-1,8.7-5.4,8.7-10.6v-11.8H235.4z"/>
		</g>
		<g>
			<path d="M253.1,895.1h-3.7c-5.5-0.2-10.9-1.2-16.1-2.9c0,0,0,0,0,0c-5.5-1.9-10.7-4.7-15.4-8.2c-0.3-0.2-0.5-0.6-0.5-1v-15.2
				c0-7.9,6.4-14.3,14.3-14.3h39.1c7.9,0,14.3,6.4,14.3,14.3V883c0,0.4-0.2,0.8-0.5,1c-4.6,3.5-9.7,6.2-15.1,8.1
				c-0.1,0.1-0.2,0.1-0.4,0.1C263.9,893.9,258.6,894.9,253.1,895.1C253.1,895.1,253.1,895.1,253.1,895.1z M234.9,890.1
				c4.7,1.5,9.5,2.4,14.5,2.5l3.6,0c4.9-0.2,9.8-1,14.5-2.5v-17.8c0-0.7,0.6-1.2,1.2-1.2s1.2,0.6,1.2,1.2v16.9
				c4.5-1.7,8.7-4,12.6-6.9v-14.6c0-6.5-5.3-11.8-11.8-11.8h-39.1c-6.5,0-11.8,5.3-11.8,11.8v14.6c3.9,2.8,8.1,5.1,12.6,6.9v-16.9
				c0-0.7,0.6-1.2,1.2-1.2c0.7,0,1.2,0.6,1.2,1.2V890.1z"/>
		</g>
	</g>
	<g>
		<path d="M230.8,791.1c-0.5,0-0.9-0.3-1.1-0.8L200.8,720c-0.3-0.6,0-1.4,0.7-1.6c0.6-0.3,1.3,0,1.6,0.7l28.9,70.4
			c0.3,0.6,0,1.4-0.7,1.6C231.1,791.1,231,791.1,230.8,791.1z"/>
	</g>
	<g>
		<path d="M305.3,841.1c-0.6,0-1.2-0.5-1.2-1.1c-0.1-0.7,0.5-1.3,1.1-1.3L448,828c0.6-0.1,1.3,0.5,1.3,1.1c0.1,0.7-0.5,1.3-1.1,1.3
			L305.3,841.1C305.3,841.1,305.3,841.1,305.3,841.1z"/>
	</g>
	<g>
		<path d="M454,801.5c-0.2,0-0.4-0.1-0.6-0.2L248.8,686.7c-0.6-0.3-0.8-1.1-0.5-1.7s1.1-0.8,1.7-0.5l204.6,114.7
			c0.6,0.3,0.8,1.1,0.5,1.7C454.9,801.3,454.5,801.5,454,801.5z"/>
	</g>
	<g>
		<path d="M538.6,644.6H374.1c-0.7,0-1.2-0.6-1.2-1.2s0.6-1.2,1.2-1.2h164.5c0.7,0,1.2,0.6,1.2,1.2S539.3,644.6,538.6,644.6z"/>
	</g>
	<g>
		<path d="M538.6,664.3H374.1c-0.7,0-1.2-0.6-1.2-1.2s0.6-1.2,1.2-1.2h164.5c0.7,0,1.2,0.6,1.2,1.2S539.3,664.3,538.6,664.3z"/>
	</g>
	<g>
		<path d="M538.6,684H374.1c-0.7,0-1.2-0.6-1.2-1.2s0.6-1.2,1.2-1.2h164.5c0.7,0,1.2,0.6,1.2,1.2S539.3,684,538.6,684z"/>
	</g>
	<g>
		<path d="M446.6,703.6h-72.5c-0.7,0-1.2-0.6-1.2-1.2c0-0.7,0.6-1.2,1.2-1.2h72.5c0.7,0,1.2,0.6,1.2,1.2
			C447.8,703.1,447.2,703.6,446.6,703.6z"/>
	</g>
	<g>
		<polygon fill="#EBDAA8" points="915.3,351.8 915.3,372.7 800.1,372.7 767.9,472.4 767.9,351.8 		"/>
		<path fill="#231F20" d="M767.9,473.6c-0.1,0-0.1,0-0.2,0c-0.6-0.1-1-0.6-1-1.2V351.8c0-0.7,0.6-1.2,1.2-1.2h147.4
			c0.7,0,1.2,0.6,1.2,1.2v20.9c0,0.7-0.6,1.2-1.2,1.2H801l-31.8,98.8C768.9,473.3,768.5,473.6,767.9,473.6z M769.2,353v111.5
			l29.7-92.2c0.2-0.5,0.6-0.9,1.2-0.9h114V353H769.2z"/>
	</g>
	<g>
		<polygon fill="#FFEEB8" points="800.1,372.7 915.3,372.7 947.4,372.7 915.3,472.4 767.9,472.4 		"/>
		<path fill="#231F20" d="M915.3,473.6H767.9c-0.4,0-0.8-0.2-1-0.5c-0.2-0.3-0.3-0.7-0.2-1.1l32.1-99.7c0.2-0.5,0.6-0.9,1.2-0.9
			h147.4c0.4,0,0.8,0.2,1,0.5c0.2,0.3,0.3,0.7,0.2,1.1l-32.1,99.7C916.3,473.3,915.8,473.6,915.3,473.6z M769.6,471.2h144.8
			l31.3-97.2H801L769.6,471.2z"/>
	</g>
	<g>
		<rect x="779.1" y="338.9" fill="#FFAC9A" width="24.6" height="12.9"/>
		<path fill="#231F20" d="M803.7,353h-24.6c-0.7,0-1.2-0.6-1.2-1.2v-12.9c0-0.7,0.6-1.2,1.2-1.2h24.6c0.7,0,1.2,0.6,1.2,1.2v12.9
			C805,352.5,804.4,353,803.7,353z M780.3,350.6h22.1v-10.4h-22.1V350.6z"/>
	</g>
	<g>
		<rect x="814.9" y="338.9" fill="#6CC7CB" width="24.6" height="12.9"/>
		<path fill="#231F20" d="M839.5,353h-24.6c-0.7,0-1.2-0.6-1.2-1.2v-12.9c0-0.7,0.6-1.2,1.2-1.2h24.6c0.7,0,1.2,0.6,1.2,1.2v12.9
			C840.7,352.5,840.2,353,839.5,353z M816.1,350.6h22.1v-10.4h-22.1V350.6z"/>
	</g>
	<g>
		<polygon fill="#FFFFFF" points="907.3,438.4 921.3,400.1 865.7,400.1 852.4,438.4 		"/>
		<path fill="#231F20" d="M907.3,439.6h-54.9c-0.4,0-0.8-0.2-1-0.5s-0.3-0.7-0.2-1.1l13.3-38.3c0.2-0.5,0.6-0.8,1.2-0.8h55.6
			c0.4,0,0.8,0.2,1,0.5c0.2,0.3,0.3,0.8,0.1,1.1l-14,38.3C908.3,439.3,907.8,439.6,907.3,439.6z M854.2,437.1h52.3l13.1-35.8h-52.9
			L854.2,437.1z"/>
	</g>
	<g>
		<path fill="#D4E9FF" d="M1275.7,190.3h-3.7c0-13.1-10.6-23.7-23.7-23.7c-1.8,0-3.5,0.2-5.1,0.6c-8.8-19-28-32.2-50.3-32.2
			c-30.6,0-55.4,24.8-55.4,55.4c0,2.8,0.2,5.6,0.6,8.3c-11.1,2-19.6,11.7-19.6,23.4c0,13.1,10.6,23.7,23.7,23.7h50.4h7.9h75.1
			c15.3,0,27.7-12.4,27.7-27.7C1303.4,202.7,1291,190.3,1275.7,190.3z"/>
		<path d="M1275.7,246.9h-133.5c-13.8,0-25-11.2-25-25c0-11.7,8.1-21.8,19.4-24.4c-0.3-2.4-0.5-4.9-0.5-7.3
			c0-31.2,25.4-56.7,56.7-56.7c21.7,0,41.6,12.6,51,32.1c1.4-0.3,2.9-0.4,4.4-0.4c13.4,0,24.3,10.5,24.9,23.7h2.5c16,0,29,13,29,29
			C1304.6,233.9,1291.7,246.9,1275.7,246.9z M1192.9,136.1c-29.9,0-54.2,24.3-54.2,54.2c0,2.7,0.2,5.5,0.6,8.1
			c0.1,0.7-0.3,1.3-1,1.4c-10.8,1.9-18.6,11.2-18.6,22.2c0,12.4,10.1,22.5,22.5,22.5h133.5c14.6,0,26.5-11.9,26.5-26.5
			c0-14.6-11.9-26.5-26.5-26.5h-3.7c-0.7,0-1.2-0.6-1.2-1.2c0-12.4-10.1-22.5-22.5-22.5c-1.6,0-3.3,0.2-4.8,0.5
			c-0.6,0.1-1.1-0.2-1.4-0.7C1233.3,148.4,1213.9,136.1,1192.9,136.1z"/>
	</g>
	<g>
		<g>
			<path d="M1210.9,273.7c-0.7,0-1.2-0.6-1.2-1.2v-17.3c0-0.7,0.6-1.2,1.2-1.2s1.2,0.6,1.2,1.2v17.3
				C1212.2,273.1,1211.6,273.7,1210.9,273.7z"/>
		</g>
		<g>
			<path d="M1210.9,303.3c-0.7,0-1.2-0.6-1.2-1.2v-17.3c0-0.7,0.6-1.2,1.2-1.2s1.2,0.6,1.2,1.2V302
				C1212.2,302.7,1211.6,303.3,1210.9,303.3z"/>
		</g>
		<g>
			<path d="M1210.9,332.9c-0.7,0-1.2-0.6-1.2-1.2v-17.3c0-0.7,0.6-1.2,1.2-1.2s1.2,0.6,1.2,1.2v17.3
				C1212.2,332.3,1211.6,332.9,1210.9,332.9z"/>
		</g>
		<g>
			<path d="M1210.9,362.5c-0.7,0-1.2-0.6-1.2-1.2V344c0-0.7,0.6-1.2,1.2-1.2s1.2,0.6,1.2,1.2v17.3
				C1212.2,361.9,1211.6,362.5,1210.9,362.5z"/>
		</g>
	</g>
	<g>
		<circle fill="#FFFFFF" cx="1166.1" cy="208.4" r="10.6"/>
		<path d="M1166.1,220.2c-6.5,0-11.8-5.3-11.8-11.8s5.3-11.8,11.8-11.8s11.8,5.3,11.8,11.8S1172.7,220.2,1166.1,220.2z M1166.1,199
			c-5.2,0-9.3,4.2-9.3,9.3s4.2,9.3,9.3,9.3c5.2,0,9.3-4.2,9.3-9.3S1171.3,199,1166.1,199z"/>
	</g>
	<g>
		<circle fill="#FFFFFF" cx="1210.9" cy="208.4" r="10.6"/>
		<path d="M1210.9,220.2c-6.5,0-11.8-5.3-11.8-11.8s5.3-11.8,11.8-11.8s11.8,5.3,11.8,11.8S1217.4,220.2,1210.9,220.2z M1210.9,199
			c-5.2,0-9.3,4.2-9.3,9.3s4.2,9.3,9.3,9.3c5.2,0,9.3-4.2,9.3-9.3S1216.1,199,1210.9,199z"/>
	</g>
	<g>
		<circle fill="#FFFFFF" cx="1255.7" cy="208.4" r="10.6"/>
		<path d="M1255.7,220.2c-6.5,0-11.8-5.3-11.8-11.8s5.3-11.8,11.8-11.8s11.8,5.3,11.8,11.8S1262.2,220.2,1255.7,220.2z M1255.7,199
			c-5.2,0-9.3,4.2-9.3,9.3s4.2,9.3,9.3,9.3s9.3-4.2,9.3-9.3S1260.9,199,1255.7,199z"/>
	</g>
	<g>
		<path d="M850,221.2c-0.3,0-0.6-0.1-0.9-0.4l-7.7-7.7c-0.5-0.5-0.5-1.3,0-1.7c0.5-0.5,1.3-0.5,1.7,0l6.9,6.9l18.3-18.3
			c0.5-0.5,1.3-0.5,1.7,0c0.5,0.5,0.5,1.3,0,1.7l-19.2,19.2C850.6,221.1,850.3,221.2,850,221.2z"/>
	</g>
	<g>
		<path d="M850,256.5c-0.3,0-0.6-0.1-0.9-0.4l-7.7-7.7c-0.5-0.5-0.5-1.3,0-1.7c0.5-0.5,1.3-0.5,1.7,0l6.9,6.9l18.3-18.3
			c0.5-0.5,1.3-0.5,1.7,0c0.5,0.5,0.5,1.3,0,1.7l-19.2,19.2C850.6,256.4,850.3,256.5,850,256.5z"/>
	</g>
	<g>
		<path d="M850,291.8c-0.3,0-0.6-0.1-0.9-0.4l-7.7-7.7c-0.5-0.5-0.5-1.3,0-1.7c0.5-0.5,1.3-0.5,1.7,0l6.9,6.9l18.3-18.3
			c0.5-0.5,1.3-0.5,1.7,0c0.5,0.5,0.5,1.3,0,1.7l-19.2,19.2C850.6,291.7,850.3,291.8,850,291.8z"/>
	</g>
	<g>
		<path d="M942.8,213.5h-47.5c-0.7,0-1.2-0.6-1.2-1.2s0.6-1.2,1.2-1.2h47.5c0.7,0,1.2,0.6,1.2,1.2S943.5,213.5,942.8,213.5z"/>
	</g>
	<g>
		<path d="M981.6,213.5h-22.2c-0.7,0-1.2-0.6-1.2-1.2s0.6-1.2,1.2-1.2h22.2c0.7,0,1.2,0.6,1.2,1.2S982.3,213.5,981.6,213.5z"/>
	</g>
	<g>
		<path d="M1034.6,213.5h-35.8c-0.7,0-1.2-0.6-1.2-1.2s0.6-1.2,1.2-1.2h35.8c0.7,0,1.2,0.6,1.2,1.2S1035.3,213.5,1034.6,213.5z"/>
	</g>
	<g>
		<path d="M1034.6,246.9H895.3c-0.7,0-1.2-0.6-1.2-1.2s0.6-1.2,1.2-1.2h139.3c0.7,0,1.2,0.6,1.2,1.2S1035.3,246.9,1034.6,246.9z"/>
	</g>
	<g>
		<path d="M981.6,282.2h-86.3c-0.7,0-1.2-0.6-1.2-1.2c0-0.7,0.6-1.2,1.2-1.2h86.3c0.7,0,1.2,0.6,1.2,1.2
			C982.8,281.7,982.3,282.2,981.6,282.2z"/>
	</g>
	<g>
		<path d="M1034.6,282.2h-35.8c-0.7,0-1.2-0.6-1.2-1.2c0-0.7,0.6-1.2,1.2-1.2h35.8c0.7,0,1.2,0.6,1.2,1.2
			C1035.8,281.7,1035.3,282.2,1034.6,282.2z"/>
	</g>
	<g>
		<rect x="972.1" y="315.3" fill="#FFFFFF" width="61.2" height="25.4"/>
		<path d="M1033.4,342h-61.2c-0.7,0-1.2-0.6-1.2-1.2v-25.4c0-0.7,0.6-1.2,1.2-1.2h61.2c0.7,0,1.2,0.6,1.2,1.2v25.4
			C1034.6,341.4,1034.1,342,1033.4,342z M973.4,339.5h58.8v-23h-58.8V339.5z"/>
	</g>
	<g>
		<g>
			<g>
				<path d="M1231.3,842.1H773.2c-0.7,0-1.2-0.6-1.2-1.2V560.4c0-16.1,13.1-29.3,29.3-29.3h402c16.1,0,29.3,13.1,29.3,29.3v280.5
					C1232.5,841.5,1232,842.1,1231.3,842.1z M774.4,839.6h455.6V560.4c0-14.8-12-26.8-26.8-26.8h-402c-14.8,0-26.8,12-26.8,26.8
					V839.6z"/>
			</g>
			<g>
				<path fill="#E6E7E8" d="M686.6,840.8c2.5,20.3,19.8,36,40.8,36h549.7c21,0,38.2-15.7,40.8-36H686.6z"/>
				<path d="M1277.1,878H727.4c-21.3,0-39.3-15.9-42-37.1c0-0.4,0.1-0.7,0.3-1c0.2-0.3,0.6-0.4,0.9-0.4h631.2c0.4,0,0.7,0.2,0.9,0.4
					c0.2,0.3,0.3,0.6,0.3,1C1316.4,862.1,1298.4,878,1277.1,878z M688,842.1c3.1,19.2,19.8,33.5,39.3,33.5h549.7
					c19.6,0,36.3-14.3,39.3-33.5H688z"/>
			</g>
			<g>
				<rect x="798.9" y="557.3" fill="#D4E9FF" width="406.7" height="283.6"/>
				<path d="M1205.6,842.1H798.9c-0.7,0-1.2-0.6-1.2-1.2V557.3c0-0.7,0.6-1.2,1.2-1.2h406.7c0.7,0,1.2,0.6,1.2,1.2v283.6
					C1206.8,841.5,1206.3,842.1,1205.6,842.1z M800.1,839.6h404.2V558.5H800.1V839.6z"/>
			</g>
			<g>
				<g>
					<polygon fill="#FFFFFF" points="976.5,774.3 1002.2,774.3 1028,774.3 1028,758.6 976.5,758.6 					"/>
					<path d="M1028,775.5h-51.5c-0.7,0-1.2-0.6-1.2-1.2v-15.7c0-0.7,0.6-1.2,1.2-1.2h51.5c0.7,0,1.2,0.6,1.2,1.2v15.7
						C1029.2,775,1028.7,775.5,1028,775.5z M977.7,773.1h49v-13.2h-49V773.1z"/>
				</g>
				<g>
					<path fill="#FFEEB8" d="M1063.9,688.8c7.7-11.6,12.1-25.6,12.1-40.6c0-40.8-33.1-73.8-73.8-73.8c-40.8,0-73.8,33.1-73.8,73.8
						c0,15,4.5,28.9,12.1,40.6l-0.1,0.1l30.9,69.7h7.9h45.9h7.9L1063.9,688.8L1063.9,688.8z"/>
					<path fill="#231F20" d="M1033.1,759.8h-61.8c-0.5,0-0.9-0.3-1.1-0.7l-30.9-69.7c0-0.1-0.1-0.2-0.1-0.3
						c-7.9-12.2-12.1-26.3-12.1-40.8c0-41.4,33.7-75.1,75.1-75.1c41.4,0,75.1,33.7,75.1,75.1c0,14.5-4.2,28.7-12.1,40.8
						c0,0.1,0,0.2-0.1,0.3l-30.9,69.7C1034.1,759.6,1033.6,759.8,1033.1,759.8z M972.2,757.4h60.2l30.4-68.6c0-0.2,0.1-0.4,0.2-0.6
						c7.8-11.9,11.9-25.7,11.9-39.9c0-40-32.6-72.6-72.6-72.6c-40,0-72.6,32.6-72.6,72.6c0,14.2,4.1,28,11.9,39.9
						c0.1,0.2,0.2,0.4,0.2,0.7L972.2,757.4z"/>
				</g>
				<g>
					<path d="M1002.2,693.2c-14.7,0-26.7-12-26.7-26.7c0-14.7,12-26.7,26.7-26.7s26.7,12,26.7,26.7
						C1028.9,681.2,1017,693.2,1002.2,693.2z M1002.2,642.3c-13.3,0-24.2,10.9-24.2,24.2c0,13.4,10.9,24.2,24.2,24.2
						c13.4,0,24.2-10.9,24.2-24.2C1026.5,653.2,1015.6,642.3,1002.2,642.3z"/>
				</g>
				<g>
					<path d="M1045.7,667.8h-86.9c-0.7,0-1.2-0.6-1.2-1.2c0-0.7,0.6-1.2,1.2-1.2h86.9c0.7,0,1.2,0.6,1.2,1.2
						C1046.9,667.2,1046.4,667.8,1045.7,667.8z"/>
				</g>
				<g>
					<path d="M1010.3,759.8c-0.1,0-0.2,0-0.2,0c-0.7-0.1-1.1-0.8-1-1.4l16.6-85.8c0.1-0.7,0.8-1.1,1.4-1c0.7,0.1,1.1,0.8,1,1.4
						l-16.6,85.8C1011.4,759.4,1010.9,759.8,1010.3,759.8z"/>
				</g>
				<g>
					<path d="M994.4,759.8c-0.6,0-1.1-0.4-1.2-1l-16.6-85.8c-0.1-0.7,0.3-1.3,1-1.4c0.6-0.1,1.3,0.3,1.4,1l16.6,85.8
						c0.1,0.7-0.3,1.3-1,1.4C994.5,759.8,994.5,759.8,994.4,759.8z"/>
				</g>
				<g>
					<rect x="976.5" y="774.3" fill="#FFFFFF" width="51.5" height="15.8"/>
					<path d="M1028,791.3h-51.5c-0.7,0-1.2-0.6-1.2-1.2v-15.8c0-0.7,0.6-1.2,1.2-1.2h51.5c0.7,0,1.2,0.6,1.2,1.2v15.8
						C1029.2,790.8,1028.7,791.3,1028,791.3z M977.7,788.8h49v-13.3h-49V788.8z"/>
				</g>
				<g>
					<path fill="#C8C8C9" d="M976.4,790.1v3.9c0,14.3,11.6,25.8,25.8,25.8c14.3,0,25.8-11.6,25.8-25.8v-3.9H976.4z"/>
					<path d="M1002.2,821c-14.9,0-27-12.1-27-27v-3.9c0-0.7,0.6-1.2,1.2-1.2h51.6c0.7,0,1.2,0.6,1.2,1.2v3.9
						C1029.3,808.9,1017.2,821,1002.2,821z M977.7,791.3v2.7c0,13.6,11,24.6,24.6,24.6c13.6,0,24.6-11,24.6-24.6v-2.7H977.7z"/>
				</g>
			</g>
			<g>
				<polygon fill="#FFAC9A" points="839.2,784.4 889.6,697 940.1,784.4 				"/>
				<path fill="#231F20" d="M940.1,785.7C940.1,785.7,940.1,785.7,940.1,785.7H839.2c-0.4,0-0.8-0.2-1.1-0.6c-0.2-0.4-0.2-0.9,0-1.2
					l50.5-87.4c0.4-0.8,1.7-0.8,2.1,0l50.3,87.1c0.2,0.2,0.4,0.5,0.4,0.9C941.4,785.1,940.8,785.7,940.1,785.7z M841.3,783.2h96.6
					l-48.3-83.7L841.3,783.2z"/>
			</g>
			<g>
				<rect x="1085.4" y="708.2" fill="#6CC7CB" width="76.2" height="76.2"/>
				<path fill="#231F20" d="M1161.6,785.7h-76.2c-0.7,0-1.2-0.6-1.2-1.2v-76.2c0-0.7,0.6-1.2,1.2-1.2h76.2c0.7,0,1.2,0.6,1.2,1.2
					v76.2C1162.9,785.1,1162.3,785.7,1161.6,785.7z M1086.7,783.2h73.7v-73.7h-73.7V783.2z"/>
			</g>
		</g>
		<g>
			<rect x="832.4" y="591.5" fill="#FFFFFF" width="76" height="11.6"/>
			<path d="M908.4,604.4h-76c-0.7,0-1.2-0.6-1.2-1.2v-11.6c0-0.7,0.6-1.2,1.2-1.2h76c0.7,0,1.2,0.6,1.2,1.2v11.6
				C909.7,603.8,909.1,604.4,908.4,604.4z M833.7,601.9h73.5v-9.2h-73.5V601.9z"/>
		</g>
		<g>
			<rect x="832.4" y="619.1" fill="#FFFFFF" width="76" height="11.6"/>
			<path d="M908.4,631.9h-76c-0.7,0-1.2-0.6-1.2-1.2v-11.6c0-0.7,0.6-1.2,1.2-1.2h76c0.7,0,1.2,0.6,1.2,1.2v11.6
				C909.7,631.4,909.1,631.9,908.4,631.9z M833.7,629.5h73.5v-9.2h-73.5V629.5z"/>
		</g>
		<g>
			<rect x="832.4" y="646.7" fill="#FFFFFF" width="51.8" height="11.6"/>
			<path d="M884.2,659.5h-51.8c-0.7,0-1.2-0.6-1.2-1.2v-11.6c0-0.7,0.6-1.2,1.2-1.2h51.8c0.7,0,1.2,0.6,1.2,1.2v11.6
				C885.4,659,884.9,659.5,884.2,659.5z M833.7,657.1H883v-9.2h-49.3V657.1z"/>
		</g>
		<g>
			<rect x="1097.6" y="591.5" fill="#FFFFFF" width="51.8" height="11.6"/>
			<path d="M1149.4,604.4h-51.8c-0.7,0-1.2-0.6-1.2-1.2v-11.6c0-0.7,0.6-1.2,1.2-1.2h51.8c0.7,0,1.2,0.6,1.2,1.2v11.6
				C1150.6,603.8,1150.1,604.4,1149.4,604.4z M1098.9,601.9h49.3v-9.2h-49.3V601.9z"/>
		</g>
		<g>
			<rect x="1097.6" y="619.1" fill="#FFFFFF" width="51.8" height="11.6"/>
			<path d="M1149.4,631.9h-51.8c-0.7,0-1.2-0.6-1.2-1.2v-11.6c0-0.7,0.6-1.2,1.2-1.2h51.8c0.7,0,1.2,0.6,1.2,1.2v11.6
				C1150.6,631.4,1150.1,631.9,1149.4,631.9z M1098.9,629.5h49.3v-9.2h-49.3V629.5z"/>
		</g>
		<g>
			<rect x="1097.6" y="646.7" fill="#FFFFFF" width="74.7" height="11.6"/>
			<path d="M1172.3,659.5h-74.7c-0.7,0-1.2-0.6-1.2-1.2v-11.6c0-0.7,0.6-1.2,1.2-1.2h74.7c0.7,0,1.2,0.6,1.2,1.2v11.6
				C1173.5,659,1173,659.5,1172.3,659.5z M1098.9,657.1h72.2v-9.2h-72.2V657.1z"/>
		</g>
		<g>
			<rect x="938.9" y="840.8" fill="#C8C8C9" width="126.6" height="11.8"/>
			<path d="M1065.6,853.9H938.9c-0.7,0-1.2-0.6-1.2-1.2v-11.8c0-0.7,0.6-1.2,1.2-1.2h126.6c0.7,0,1.2,0.6,1.2,1.2v11.8
				C1066.8,853.3,1066.2,853.9,1065.6,853.9z M940.2,851.4h124.2v-9.4H940.2V851.4z"/>
		</g>
	</g>
	<g>
		<circle fill="#FFFFFF" cx="960.6" cy="480.2" r="11.5"/>
		<path fill="#231F20" d="M960.6,493c-7,0-12.8-5.7-12.8-12.8s5.7-12.8,12.8-12.8s12.8,5.7,12.8,12.8S967.6,493,960.6,493z
			 M960.6,469.9c-5.7,0-10.3,4.6-10.3,10.3c0,5.7,4.6,10.3,10.3,10.3s10.3-4.6,10.3-10.3C970.9,474.5,966.3,469.9,960.6,469.9z"/>
	</g>
	<g>
		<circle fill="#FFFFFF" cx="650.1" cy="573.5" r="11.5"/>
		<path fill="#231F20" d="M650.1,586.3c-7,0-12.8-5.7-12.8-12.8c0-7,5.7-12.8,12.8-12.8s12.8,5.7,12.8,12.8
			C662.8,580.6,657.1,586.3,650.1,586.3z M650.1,563.2c-5.7,0-10.3,4.6-10.3,10.3c0,5.7,4.6,10.3,10.3,10.3
			c5.7,0,10.3-4.6,10.3-10.3C660.4,567.8,655.8,563.2,650.1,563.2z"/>
	</g>
	<g>
		<g>
			<path fill="#231F20" d="M1032.2,496.5c-0.3,0-0.6-0.1-0.9-0.4l-29.4-29.4c-0.5-0.5-0.5-1.3,0-1.7c0.5-0.5,1.3-0.5,1.7,0
				l29.4,29.4c0.5,0.5,0.5,1.3,0,1.7C1032.8,496.4,1032.5,496.5,1032.2,496.5z"/>
		</g>
		<g>
			<path fill="#231F20" d="M1002.8,496.5c-0.3,0-0.6-0.1-0.9-0.4c-0.5-0.5-0.5-1.3,0-1.7l29.4-29.4c0.5-0.5,1.3-0.5,1.7,0
				c0.5,0.5,0.5,1.3,0,1.7l-29.4,29.4C1003.4,496.3,1003.1,496.5,1002.8,496.5z"/>
		</g>
	</g>
	<g>
		<g>
			<path fill="#231F20" d="M590.8,584.5c-0.3,0-0.6-0.1-0.9-0.4l-19.6-19.6c-0.5-0.5-0.5-1.3,0-1.7c0.5-0.5,1.3-0.5,1.7,0l19.6,19.6
				c0.5,0.5,0.5,1.3,0,1.7C591.4,584.4,591.1,584.5,590.8,584.5z"/>
		</g>
		<g>
			<path fill="#231F20" d="M571.2,584.5c-0.3,0-0.6-0.1-0.9-0.4c-0.5-0.5-0.5-1.3,0-1.7l19.6-19.6c0.5-0.5,1.3-0.5,1.7,0
				c0.5,0.5,0.5,1.3,0,1.7l-19.6,19.6C571.9,584.4,571.6,584.5,571.2,584.5z"/>
		</g>
	</g>
	<g>
		<g>
			<path fill="#231F20" d="M332.2,670.9c-0.3,0-0.6-0.1-0.9-0.4L297,636.2c-0.5-0.5-0.5-1.3,0-1.7c0.5-0.5,1.3-0.5,1.7,0l34.3,34.3
				c0.5,0.5,0.5,1.3,0,1.7C332.8,670.8,332.5,670.9,332.2,670.9z"/>
		</g>
		<g>
			<path fill="#231F20" d="M297.9,670.9c-0.3,0-0.6-0.1-0.9-0.4c-0.5-0.5-0.5-1.3,0-1.7l34.3-34.3c0.5-0.5,1.3-0.5,1.7,0
				c0.5,0.5,0.5,1.3,0,1.7l-34.3,34.3C298.5,670.8,298.2,670.9,297.9,670.9z"/>
		</g>
	</g>
	<g>
		<path fill="#231F20" d="M1083.9,481.8h-32.4c-0.7,0-1.2-0.6-1.2-1.2s0.6-1.2,1.2-1.2h32.4c0.7,0,1.2,0.6,1.2,1.2
			S1084.6,481.8,1083.9,481.8z"/>
	</g>
	<g>
		<path fill="#231F20" d="M925.4,501.4h-33.9c-0.7,0-1.2-0.6-1.2-1.2c0-0.7,0.6-1.2,1.2-1.2h33.9c0.7,0,1.2,0.6,1.2,1.2
			C926.6,500.9,926.1,501.4,925.4,501.4z"/>
	</g>
	<g>
		<path fill="#231F20" d="M655.5,772.2h-33.9c-0.7,0-1.2-0.6-1.2-1.2s0.6-1.2,1.2-1.2h33.9c0.7,0,1.2,0.6,1.2,1.2
			S656.2,772.2,655.5,772.2z"/>
	</g>
	<g>
		<path fill="#231F20" d="M354.6,565h-33.9c-0.7,0-1.2-0.6-1.2-1.2c0-0.7,0.6-1.2,1.2-1.2h33.9c0.7,0,1.2,0.6,1.2,1.2
			C355.9,564.4,355.3,565,354.6,565z"/>
	</g>
	<g>
		<path fill="#231F20" d="M323.9,591.9H290c-0.7,0-1.2-0.6-1.2-1.2s0.6-1.2,1.2-1.2h33.9c0.7,0,1.2,0.6,1.2,1.2
			S324.6,591.9,323.9,591.9z"/>
	</g>
	<g>
		<path fill="#231F20" d="M701.7,795.3h-80.1c-0.7,0-1.2-0.6-1.2-1.2s0.6-1.2,1.2-1.2h80.1c0.7,0,1.2,0.6,1.2,1.2
			S702.4,795.3,701.7,795.3z"/>
	</g>
	<g>
		<polygon fill="#FFAC9A" points="1126.2,370.9 1126.2,406.2 1083.9,448.6 1126.2,448.6 1126.2,609.1 1291,609.1 1291,370.9 		"/>
		<path fill="#231F20" d="M1291,610.3h-164.8c-0.7,0-1.2-0.6-1.2-1.2V449.8h-41.1c-0.5,0-0.9-0.3-1.1-0.8c-0.2-0.5-0.1-1,0.3-1.3
			l42-42v-34.8c0-0.7,0.6-1.2,1.2-1.2H1291c0.7,0,1.2,0.6,1.2,1.2v238.2C1292.3,609.8,1291.7,610.3,1291,610.3z M1127.5,607.9h162.3
			V372.1h-162.3v34.1c0,0.3-0.1,0.6-0.4,0.9l-40.3,40.3h39.4c0.7,0,1.2,0.6,1.2,1.2V607.9z"/>
	</g>
	<g>
		<g>
			<path fill="#FFFFFF" d="M1196.5,451.4c-16.2,0-29.5,12.7-30.4,28.8h11.5h62v-10.3v-18.4H1196.5z"/>
			<path fill="#231F20" d="M1239.6,481.4h-73.5c-0.3,0-0.7-0.1-0.9-0.4s-0.4-0.6-0.3-0.9c0.9-16.8,14.8-29.9,31.6-29.9h43.1
				c0.7,0,1.2,0.6,1.2,1.2v28.8C1240.9,480.9,1240.3,481.4,1239.6,481.4z M1167.5,479h70.9v-26.3h-41.9
				C1181.5,452.7,1168.9,464.1,1167.5,479z"/>
		</g>
		<g>
			<path fill="#FFFFFF" d="M1222,525.4c-1.4,0.3-2.8,0.4-4.3,0.4h-18.2c-1.5,0-2.9-0.1-4.3-0.4V538h26.8V525.4z"/>
			<path fill="#231F20" d="M1222,539.2h-26.8c-0.7,0-1.2-0.6-1.2-1.2v-12.6c0-0.4,0.2-0.7,0.5-1c0.3-0.2,0.7-0.3,1-0.3
				c1.3,0.3,2.7,0.4,4,0.4h18.2c1.3,0,2.7-0.1,4-0.4c0.4-0.1,0.7,0,1,0.3c0.3,0.2,0.5,0.6,0.5,1V538
				C1223.3,538.6,1222.7,539.2,1222,539.2z M1196.5,536.7h24.3v-9.9c-1,0.1-2,0.2-3,0.2h-18.2c-1,0-2-0.1-3-0.2V536.7z"/>
		</g>
		<g>
			<path fill="#FFFFFF" d="M1177.6,480.2v23.7c0,10.6,7.6,19.5,17.6,21.5c1.4,0.3,2.8,0.4,4.3,0.4h18.2c1.5,0,2.9-0.1,4.3-0.4
				c10-2,17.6-10.8,17.6-21.5v-23.7H1177.6z"/>
			<path fill="#231F20" d="M1217.8,527h-18.2c-1.5,0-3-0.2-4.5-0.4c-10.8-2.1-18.6-11.7-18.6-22.7v-23.7c0-0.7,0.6-1.2,1.2-1.2h62
				c0.7,0,1.2,0.6,1.2,1.2v23.7c0,11-7.8,20.5-18.6,22.7C1220.8,526.9,1219.2,527,1217.8,527z M1178.9,481.4v22.5
				c0,9.8,7,18.4,16.6,20.3c1.3,0.3,2.7,0.4,4,0.4h18.2c1.3,0,2.7-0.1,4-0.4c9.6-1.9,16.6-10.4,16.6-20.3v-22.5H1178.9z"/>
		</g>
		<g>
			<path fill="#FFFFFF" d="M1244.2,538H1222h-26.8h-22.2c-13.1,0-23.7,10.6-23.7,23.7v47.4h118.6v-47.4
				C1267.9,548.6,1257.3,538,1244.2,538z"/>
			<path fill="#231F20" d="M1267.9,610.3h-118.6c-0.7,0-1.2-0.6-1.2-1.2v-47.4c0-13.8,11.2-24.9,24.9-24.9h71.1
				c13.8,0,24.9,11.2,24.9,24.9v47.4C1269.2,609.8,1268.6,610.3,1267.9,610.3z M1150.6,607.9h116.1v-46.2
				c0-12.4-10.1-22.5-22.5-22.5h-71.1c-12.4,0-22.5,10.1-22.5,22.5V607.9z"/>
		</g>
		<g>
			<line fill="#FFFFFF" x1="1176.7" y1="609.1" x2="1176.7" y2="569.9"/>
			<path fill="#231F20" d="M1176.7,610.3c-0.7,0-1.2-0.6-1.2-1.2v-39.2c0-0.7,0.6-1.2,1.2-1.2s1.2,0.6,1.2,1.2v39.2
				C1177.9,609.8,1177.4,610.3,1176.7,610.3z"/>
		</g>
		<g>
			<line fill="#FFFFFF" x1="1240.6" y1="609.1" x2="1240.6" y2="569.9"/>
			<path fill="#231F20" d="M1240.6,610.3c-0.7,0-1.2-0.6-1.2-1.2v-39.2c0-0.7,0.6-1.2,1.2-1.2s1.2,0.6,1.2,1.2v39.2
				C1241.8,609.8,1241.2,610.3,1240.6,610.3z"/>
		</g>
	</g>
	<g>
		<rect x="1147.1" y="395.8" fill="#FFFFFF" width="23.4" height="23.4"/>
		<path fill="#231F20" d="M1170.5,420.5h-23.4c-0.7,0-1.2-0.6-1.2-1.2v-23.4c0-0.7,0.6-1.2,1.2-1.2h23.4c0.7,0,1.2,0.6,1.2,1.2v23.4
			C1171.7,419.9,1171.2,420.5,1170.5,420.5z M1148.3,418h21v-21h-21V418z"/>
	</g>
	<g>
		<rect x="1196.9" y="395.8" fill="#FFFFFF" width="23.4" height="23.4"/>
		<path fill="#231F20" d="M1220.4,420.5h-23.4c-0.7,0-1.2-0.6-1.2-1.2v-23.4c0-0.7,0.6-1.2,1.2-1.2h23.4c0.7,0,1.2,0.6,1.2,1.2v23.4
			C1221.6,419.9,1221,420.5,1220.4,420.5z M1198.1,418h21v-21h-21V418z"/>
	</g>
	<g>
		<rect x="1246.8" y="395.8" fill="#FFFFFF" width="23.4" height="23.4"/>
		<path fill="#231F20" d="M1270.2,420.5h-23.4c-0.7,0-1.2-0.6-1.2-1.2v-23.4c0-0.7,0.6-1.2,1.2-1.2h23.4c0.7,0,1.2,0.6,1.2,1.2v23.4
			C1271.4,419.9,1270.9,420.5,1270.2,420.5z M1248,418h21v-21h-21V418z"/>
	</g>
	<g>
		<path fill="#6CC7CB" d="M682.8,702.6c2.2-4.2,3.7-8.7,4.4-13.5l-11.9-3.9c0.1-0.9,0.1-1.8,0.1-2.7s-0.1-1.8-0.1-2.7l11.9-3.9
			c-0.7-4.8-2.2-9.4-4.4-13.5l-11.9,3.9c-0.9-1.6-2-3-3.2-4.4l7.4-10.1c-3.3-3.4-7.2-6.2-11.5-8.4l-7.4,10.1
			c-1.7-0.7-3.4-1.2-5.2-1.7v-12.5c-2.3-0.4-4.7-0.6-7.1-0.6c-2.4,0-4.8,0.2-7.1,0.6v12.5c-1.8,0.4-3.5,1-5.2,1.7l-7.3-10.1
			c-4.3,2.2-8.2,5-11.5,8.4l7.4,10.1c-1.2,1.4-2.3,2.8-3.2,4.4l-11.9-3.9c-2.2,4.2-3.7,8.7-4.4,13.5l11.9,3.9
			c-0.1,0.9-0.1,1.8-0.1,2.7c0,0.9,0.1,1.8,0.1,2.7l-11.9,3.9c0.7,4.8,2.2,9.4,4.4,13.5l11.9-3.9c0.9,1.6,2,3,3.2,4.4l-7.4,10.1
			c3.3,3.4,7.2,6.2,11.5,8.4l7.3-10.1c1.7,0.7,3.4,1.2,5.2,1.7v12.5c2.3,0.4,4.7,0.6,7.1,0.6c2.4,0,4.8-0.2,7.1-0.6l0-12.5
			c1.8-0.4,3.5-1,5.2-1.7l7.3,10.1c4.3-2.2,8.2-5,11.5-8.4l-7.4-10.1c1.2-1.4,2.2-2.8,3.2-4.4L682.8,702.6z M643.8,703.8
			c-11.8,0-21.4-9.6-21.4-21.4c0-11.8,9.6-21.4,21.4-21.4c11.8,0,21.4,9.6,21.4,21.4C665.2,694.2,655.6,703.8,643.8,703.8z"/>
		<path fill="#231F20" d="M643.8,727.5c-2.4,0-4.9-0.2-7.3-0.6c-0.6-0.1-1-0.6-1-1.2v-11.6c-1.2-0.3-2.4-0.7-3.5-1.1l-6.8,9.3
			c-0.4,0.5-1,0.7-1.6,0.4c-4.4-2.2-8.4-5.1-11.8-8.6c-0.4-0.4-0.5-1.1-0.1-1.6l6.8-9.4c-0.8-0.9-1.5-1.9-2.2-3l-11,3.6
			c-0.6,0.2-1.2-0.1-1.5-0.6c-2.3-4.4-3.8-9.1-4.5-13.9c-0.1-0.6,0.3-1.2,0.8-1.4l11-3.6c0-0.6-0.1-1.2-0.1-1.9c0-0.6,0-1.2,0.1-1.9
			l-11-3.6c-0.6-0.2-0.9-0.8-0.8-1.4c0.7-4.9,2.3-9.5,4.5-13.9c0.3-0.5,0.9-0.8,1.5-0.6l11,3.6c0.7-1,1.4-2,2.2-3l-6.8-9.4
			c-0.4-0.5-0.3-1.2,0.1-1.6c3.5-3.5,7.4-6.4,11.8-8.6c0.5-0.3,1.2-0.1,1.6,0.4l6.8,9.3c1.1-0.4,2.3-0.8,3.5-1.1v-11.6
			c0-0.6,0.4-1.1,1-1.2c4.9-0.8,9.8-0.8,14.6,0c0.6,0.1,1,0.6,1,1.2v11.6c1.2,0.3,2.4,0.7,3.5,1.1l6.8-9.3c0.4-0.5,1-0.6,1.6-0.4
			c4.4,2.2,8.4,5.1,11.8,8.6c0.4,0.4,0.5,1.1,0.1,1.6l-6.8,9.4c0.8,0.9,1.5,1.9,2.2,3l11-3.6c0.6-0.2,1.2,0.1,1.5,0.6
			c2.3,4.4,3.8,9.1,4.5,13.9c0.1,0.6-0.3,1.2-0.8,1.4l-11,3.6c0,0.6,0.1,1.2,0.1,1.9c0,0.6,0,1.2-0.1,1.8l11,3.6
			c0.6,0.2,0.9,0.8,0.8,1.4c-0.7,4.9-2.3,9.6-4.5,13.9c-0.3,0.5-0.9,0.8-1.5,0.6l-11-3.6c-0.7,1-1.4,2-2.2,3l6.8,9.4
			c0.4,0.5,0.3,1.2-0.1,1.6c-3.5,3.5-7.4,6.4-11.8,8.6c-0.5,0.3-1.2,0.1-1.6-0.4l-6.8-9.3c-1.1,0.4-2.3,0.8-3.5,1.1l0,11.6
			c0,0.6-0.4,1.1-1,1.2C648.7,727.3,646.2,727.5,643.8,727.5z M637.9,724.6c3.9,0.5,7.8,0.5,11.8,0l0-11.5c0-0.6,0.4-1.1,1-1.2
			c1.8-0.4,3.5-1,5-1.6c0.5-0.2,1.1-0.1,1.5,0.4l6.7,9.3c3.5-1.9,6.7-4.2,9.5-6.9l-6.7-9.3c-0.3-0.5-0.3-1.1,0.1-1.5
			c1.1-1.3,2.2-2.7,3.1-4.2c0.3-0.5,0.9-0.7,1.4-0.5l10.9,3.5c1.7-3.5,3-7.3,3.6-11.2l-10.9-3.5c-0.5-0.2-0.9-0.7-0.8-1.3
			c0.1-0.9,0.1-1.7,0.1-2.6s-0.1-1.8-0.1-2.6c0-0.6,0.3-1.1,0.8-1.3l10.9-3.5c-0.7-3.9-1.9-7.6-3.6-11.2l-10.9,3.5
			c-0.5,0.2-1.1,0-1.4-0.5c-0.9-1.5-1.9-2.9-3.1-4.2c-0.4-0.4-0.4-1.1-0.1-1.5l6.7-9.3c-2.8-2.7-6-5.1-9.5-6.9l-6.7,9.3
			c-0.3,0.5-1,0.6-1.5,0.4c-1.5-0.6-3.2-1.2-5-1.6c-0.6-0.1-1-0.6-1-1.2v-11.5c-3.9-0.5-7.9-0.5-11.8,0v11.5c0,0.6-0.4,1.1-1,1.2
			c-1.8,0.4-3.5,1-5,1.6c-0.5,0.2-1.1,0.1-1.5-0.4l-6.7-9.3c-3.5,1.9-6.7,4.2-9.5,6.9l6.7,9.3c0.3,0.5,0.3,1.1-0.1,1.5
			c-1.1,1.3-2.2,2.7-3.1,4.2c-0.3,0.5-0.9,0.7-1.4,0.5l-10.9-3.5c-1.7,3.6-3,7.3-3.6,11.2l10.9,3.5c0.5,0.2,0.9,0.7,0.8,1.3
			c-0.1,0.9-0.1,1.7-0.1,2.6c0,0.9,0.1,1.8,0.1,2.6c0,0.6-0.3,1.1-0.8,1.3l-10.9,3.5c0.7,3.9,1.9,7.6,3.6,11.2l10.9-3.5
			c0.5-0.2,1.1,0,1.4,0.5c0.9,1.5,2,2.9,3.1,4.2c0.4,0.4,0.4,1.1,0.1,1.5l-6.7,9.3c2.8,2.7,6,5.1,9.5,6.9l6.7-9.2
			c0.3-0.5,0.9-0.6,1.5-0.4c1.5,0.6,3.2,1.2,5,1.6c0.6,0.1,1,0.6,1,1.2V724.6z M643.8,705c-12.5,0-22.6-10.1-22.6-22.6
			s10.1-22.6,22.6-22.6s22.6,10.1,22.6,22.6S656.3,705,643.8,705z M643.8,662.3c-11.1,0-20.1,9-20.1,20.1s9,20.1,20.1,20.1
			c11.1,0,20.1-9,20.1-20.1S654.9,662.3,643.8,662.3z"/>
	</g>
	<g>
		<g>
			<path fill="#FFFFFF" d="M438.6,259.2c-22,0-39.9,17.2-41.1,38.9h15.5h83.8v-14v-24.9H438.6z"/>
			<path d="M496.9,299.3h-99.4c-0.3,0-0.7-0.1-0.9-0.4s-0.4-0.6-0.3-0.9c1.2-22.5,19.8-40,42.3-40h58.3c0.7,0,1.2,0.6,1.2,1.2V298
				C498.2,298.7,497.6,299.3,496.9,299.3z M398.9,296.8h96.8v-36.4h-57.1C417.9,260.4,400.7,276.3,398.9,296.8z"/>
		</g>
		<g>
			<path fill="#FFFFFF" d="M473.1,359.1c-1.9,0.4-3.8,0.6-5.8,0.6h-24.7c-2,0-3.9-0.2-5.8-0.6v17h36.2V359.1z"/>
			<path d="M473.1,377.4h-36.2c-0.7,0-1.2-0.6-1.2-1.2v-17c0-0.4,0.2-0.7,0.5-1c0.3-0.2,0.7-0.3,1-0.3c1.8,0.4,3.7,0.5,5.5,0.5h24.7
				c1.8,0,3.7-0.2,5.5-0.5c0.4-0.1,0.7,0,1,0.3c0.3,0.2,0.5,0.6,0.5,1v17C474.3,376.8,473.8,377.4,473.1,377.4z M438.2,374.9h33.7
				v-14.3c-1.5,0.2-3,0.3-4.5,0.3h-24.7c-1.5,0-3-0.1-4.5-0.3V374.9z"/>
		</g>
		<g>
			<path fill="#FFFFFF" d="M413.1,298v32.1c0,14.4,10.2,26.3,23.8,29c1.9,0.4,3.8,0.6,5.8,0.6h24.7c2,0,3.9-0.2,5.8-0.6
				c13.6-2.7,23.8-14.6,23.8-29V298H413.1z"/>
			<path d="M467.4,360.9h-24.7c-2,0-4-0.2-6-0.6c-14.4-2.8-24.8-15.6-24.8-30.2V298c0-0.7,0.6-1.2,1.2-1.2h83.8
				c0.7,0,1.2,0.6,1.2,1.2v32.1c0,14.7-10.4,27.4-24.8,30.2C471.4,360.7,469.3,360.9,467.4,360.9z M414.3,299.3v30.8
				c0,13.5,9.6,25.2,22.8,27.8c1.8,0.4,3.7,0.5,5.5,0.5h24.7c1.8,0,3.7-0.2,5.5-0.5c13.2-2.6,22.8-14.3,22.8-27.8v-30.8H414.3z"/>
		</g>
		<g>
			<path fill="#FFFFFF" d="M503.1,376.1h-30h-36.2h-30c-17.7,0-32.1,14.4-32.1,32.1v64.1h160.3v-64.1
				C535.2,390.5,520.8,376.1,503.1,376.1z"/>
			<path d="M535.2,473.5H374.9c-0.7,0-1.2-0.6-1.2-1.2v-64.1c0-18.4,14.9-33.3,33.3-33.3h96.2c18.4,0,33.3,14.9,33.3,33.3v64.1
				C536.4,473,535.8,473.5,535.2,473.5z M376.1,471.1h157.8v-62.9c0-17-13.8-30.8-30.8-30.8h-96.2c-17,0-30.8,13.8-30.8,30.8V471.1z
				"/>
		</g>
		<g>
			<line fill="#FFFFFF" x1="411.9" y1="472.3" x2="411.9" y2="419.3"/>
			<path d="M411.9,473.5c-0.7,0-1.2-0.6-1.2-1.2v-53c0-0.7,0.6-1.2,1.2-1.2s1.2,0.6,1.2,1.2v53C413.1,473,412.5,473.5,411.9,473.5z"
				/>
		</g>
		<g>
			<line fill="#FFFFFF" x1="498.2" y1="472.3" x2="498.2" y2="419.3"/>
			<path d="M498.2,473.5c-0.7,0-1.2-0.6-1.2-1.2v-53c0-0.7,0.6-1.2,1.2-1.2c0.7,0,1.2,0.6,1.2,1.2v53
				C499.4,473,498.9,473.5,498.2,473.5z"/>
		</g>
	</g>
</g>
</svg>
