<?xml version="1.0" encoding="utf-8"?>
<!-- Generator: Adobe Illustrator 24.0.1, SVG Export Plug-In . SVG Version: 6.00 Build 0)  -->
<svg version="1.1" id="Calque_1" xmlns="http://www.w3.org/2000/svg" xmlns:xlink="http://www.w3.org/1999/xlink" x="0px" y="0px"
	 viewBox="0 0 1366 768" style="enable-background:new 0 0 1366 768;" xml:space="preserve">
<style type="text/css">
	.st0{fill:#5C4484;}
</style>
<path class="st0" d="M540.8,369.4c34.8,23.4,69.6,46.8,104.5,70.3c26.7,17.9,53.4,35.9,80.2,53.8c2.1,1.4,3.8,2.7,6.6,0.9
	c26.3-17.9,52.8-35.5,79-53.5c9.3-6.4,17.2-14.3,22.8-24.3c7.3-13.3,6-27.1-3.7-38.4c-2.9-3.3-6-6.4-9.5-9.1
	c-24.1-18-50.7-21.1-79.1-12.9c-4.2,1.2-8.2,3.1-12.3,4.6c-1.3,0.5-2.8,2.1-3.8,0.9c-1.2-1.5,0.9-2.6,1.7-3.7
	c3.7-5,5.8-10.5,5.9-16.8c0.1-10.6-4.5-19-12.2-25.6c-14.7-12.5-32.1-17.4-51.1-17.5c-22.6-0.2-42.6,7.5-61,20.1
	c-22.6,15.3-45.3,30.5-67.9,45.7C536.7,366.5,536.7,366.6,540.8,369.4z M725.1,380.6c11.4-6,23.6-9.6,36.7-9.1
	c14.1,0.6,26.2,6,36.2,15.9c4.4,4.4,6.8,9.9,6.9,15c-0.2,5.4-2.5,10.3-5.9,14.9c-4.5,6-10.3,10.8-16.4,15.1
	c-15.7,10.7-31.6,21.3-47.3,32c-2.3,1.6-4,1.4-6.3-0.1c-20.6-13.9-41.2-27.8-61.8-41.6c-1.6-1.1-3.7-2.3-0.8-4.2
	C686,405.9,704.4,391.4,725.1,380.6z M584.2,362.4c16-10.6,31.8-21.5,47.9-31.8c10.1-6.4,21.3-10.3,33.7-10.2
	c12.5-0.2,23.5,4.2,33.1,12.3c9.2,7.8,10.7,17.7,4.5,28c-3.4,5.6-7.9,10.1-13.1,14c-14.3,10.8-29.5,20.2-44.3,30.3
	c-1.9,1.3-3.4,1.2-5.3,0c-18.9-12.7-37.8-25.4-56.7-38.1C581.5,365.1,581.9,363.9,584.2,362.4z"/>
</svg>
