<?xml version="1.0" encoding="utf-8"?>
<!-- Generator: Adobe Illustrator 24.0.1, SVG Export Plug-In . SVG Version: 6.00 Build 0)  -->
<svg version="1.1" id="Calque_1" xmlns="http://www.w3.org/2000/svg" xmlns:xlink="http://www.w3.org/1999/xlink" x="0px" y="0px"
	 viewBox="0 0 1366 768" style="enable-background:new 0 0 1366 768;" xml:space="preserve">
<style type="text/css">
	.st0{fill:#0C73B8;}
</style>
<g id="g3013_2_" transform="translate(119,276.3622)">
	<g>
		<path id="path2999_9_" class="st0" d="M513.1-84.4h45.6v19.1h-26.5v19.1h26.5v19.1h-45.6V-84.4z"/>
		<path id="path3001_9_" class="st0" d="M567.8-84.4h45.6v16.6h-26.5v3.3h26.5v38.1h-45.6v-17.4h26.5v-3.3h-26.5V-84.4z"/>
		<path id="path3003_9_" class="st0" d="M622.5-84.4H668v16.6h-26.5v3.3H668v38.1h-45.6v-17.4H649v-3.3h-26.5V-84.4z"/>
		<path class="st0" d="M442.4-1l27.3,306.7l122.7,34.1l123-34.1L742.9-1H442.4z M679.9,137.8l-0.9,10.1l-8.8,99l-0.6,6.4l-77,21.3v0
			l-0.2,0l-77.1-21.4l-5.3-59.1h17.4h20.4l2.7,30l41.9,11.3l0,0v0l42-11.3l4.4-48.8h-46.2h-0.1h-84l-3.4-37.6h87.4h0.1h49.5
			l3.4-38.5h-52.9h-0.1h-90.8l-3.4-37.6h94.2h0.1h94.1L679.9,137.8z"/>
	</g>
</g>
</svg>
