<?xml version="1.0" encoding="utf-8"?>
<!-- Generator: Adobe Illustrator 24.0.1, SVG Export Plug-In . SVG Version: 6.00 Build 0)  -->
<svg version="1.1" id="Calque_1" xmlns="http://www.w3.org/2000/svg" xmlns:xlink="http://www.w3.org/1999/xlink" x="0px" y="0px"
	 viewBox="0 0 1366 768" style="enable-background:new 0 0 1366 768;" xml:space="preserve">
<style type="text/css">
	.st0{fill-rule:evenodd;clip-rule:evenodd;fill:#395398;}
	.st1{fill-rule:evenodd;clip-rule:evenodd;fill:#FEFEFE;}
</style>
<path class="st0" d="M536.8,109.2h339.9c68.1,0,123.3,50.1,123.3,111.8v313.8c0,61.7-55.2,112.2-123.3,112.2H536.8
	c-67.6,0-123.3-50.5-123.3-112.2V221C413.5,159.3,469.2,109.2,536.8,109.2L536.8,109.2z"/>
<path class="st1" d="M669.1,514.5h60.5V377.2H772l4.3-46.2h-46.7c0,0,0-17.3,0-26.3c0-11.2,2.4-15.5,14.3-15.5c9,0,32.4,0,32.4,0
	v-47.9c0,0-34.3,0-41.9,0c-44.7,0-65.2,18.1-65.2,52.2c0,30.2,0,37.1,0,37.1h-31.4v46.2h31.4L669.1,514.5L669.1,514.5z"/>
</svg>
