<?xml version="1.0" encoding="utf-8"?>
<!-- Generator: Adobe Illustrator 24.0.1, SVG Export Plug-In . SVG Version: 6.00 Build 0)  -->
<svg version="1.1" id="Calque_1" xmlns="http://www.w3.org/2000/svg" xmlns:xlink="http://www.w3.org/1999/xlink" x="0px" y="0px"
	 viewBox="0 0 1366 768" style="enable-background:new 0 0 1366 768;" xml:space="preserve">
<style type="text/css">
	.st0{fill-rule:evenodd;clip-rule:evenodd;fill:#FEFEFE;}
	.st1{fill-rule:evenodd;clip-rule:evenodd;fill:#36465D;}
	.st2{fill-rule:evenodd;clip-rule:evenodd;fill:#FFFFFF;}
	.st3{fill:#FFFFFF;}
</style>
<path class="st0" d="M675,514.5h60.3V377.3h42.2l4.5-45.9h-46.7c0,0,0-17.4,0-26.1c0-11.1,2.6-15.4,14.1-15.4c9.2,0,32.6,0,32.6,0
	v-47.7c0,0-34.4,0-41.9,0c-44.8,0-65.2,18.1-65.2,52.3c0,30.2,0,36.9,0,36.9h-31.5v46.3H675V514.5z"/>
<path class="st0" d="M747.2,372.7H646.5l0.4,26.1h67.8c-8.2,31.5-33,51-65.9,51c-43.7,0-78.9-31.8-78.9-71.1
	c0-39.6,35.2-71.5,78.9-71.5c20.3,0,39.2,7,53.3,19.1l22.2-17.4c-19.2-17.4-46.3-28.2-75.5-28.2c-60,0-108.1,43.6-108.1,98
	c0,54,48.2,97.6,108.1,97.6c57,0,98.5-39.7,98.5-93.6L747.2,372.7L747.2,372.7z"/>
<polygon class="st0" points="884.9,374.7 843.5,374.7 843.5,337.1 817.2,337.1 817.2,374.7 775.7,374.7 775.7,398.5 817.2,398.5 
	817.2,436 843.5,436 843.5,398.5 884.9,398.5 "/>
<rect x="593.4" y="340.8" class="st0" width="51.5" height="150.6"/>
<path class="st0" d="M618.5,321.3c17,0,30.7-12.8,30.7-27.8c0-15.5-13.7-27.9-30.7-27.9c-16.7,0-30.4,12.4-30.4,27.9
	C588.2,308.6,601.9,321.3,618.5,321.3L618.5,321.3z"/>
<path class="st0" d="M727,412.5c0-21.6,10.8-33.9,31.1-33.9c18.9,0,28.2,12.1,28.2,33.9c0,21.5,0,78.8,0,78.8h51.1c0,0,0-55,0-95.2
	c0-40.3-25.2-59.7-60.3-59.7c-35.2,0-50,24.8-50,24.8v-20.4h-49.6v150.6H727C727,491.4,727,435.8,727,412.5L727,412.5z"/>
<path class="st1" d="M542.8,110h339.9c68.1,0,123.3,50.3,123.3,111.7v313.6c0,61.4-55.2,111.7-123.3,111.7H542.8
	c-67.7,0-123.3-50.3-123.3-111.7V221.7C419.5,160.3,475.1,110,542.8,110L542.8,110z"/>
<g id="Github_10_">
	<path class="st2" d="M719.8,200c-93.2,0-168.7,79.1-168.7,176.8c0,78.2,48.3,144.4,115.4,167.7c8.4,1.6,11.5-3.9,11.5-8.5
		c0-4.3-0.2-18.2-0.2-32.9c-46.9,10.7-56.8-20.9-56.8-20.9c-7.7-20.4-18.7-25.8-18.7-25.8c-15.3-10.9,1.2-10.7,1.2-10.7
		c16.9,1.3,25.9,18.2,25.9,18.2c15,27,39.5,19.2,49.1,14.7c1.5-11.4,5.9-19.2,10.7-23.6c-37.5-4.4-76.9-19.6-76.9-87.3
		c0-19.3,6.6-35.1,17.4-47.5c-1.8-4.4-7.5-22.4,1.6-46.8c0,0,14.2-4.7,46.4,18.1c13.5-3.9,27.9-5.9,42.2-5.9
		c14.3,0.1,28.8,2,42.3,5.9c32.2-22.8,46.3-18.1,46.3-18.1c9.2,24.4,3.4,42.4,1.7,46.8c10.8,12.4,17.4,28.1,17.4,47.5
		c0,67.9-39.5,82.9-77,87.2c6,5.5,11.4,16.2,11.4,32.7c0,23.7-0.2,42.7-0.2,48.6c0,4.7,3,10.3,11.6,8.5
		c67-23.4,115.3-89.7,115.3-167.7C888.5,279.2,813,200,719.8,200z"/>
	<path class="st3" d="M615,453.8c-0.4,0.9-1.7,1.2-2.9,0.6c-1.2-0.6-1.9-1.7-1.5-2.6c0.4-0.9,1.7-1.2,2.9-0.6
		C614.7,451.7,615.4,452.9,615,453.8L615,453.8z"/>
	<path class="st3" d="M621.8,461.8c-0.8,0.8-2.4,0.4-3.4-0.8c-1.1-1.3-1.3-2.9-0.5-3.7c0.8-0.8,2.4-0.4,3.5,0.8
		C622.5,459.4,622.7,461,621.8,461.8L621.8,461.8z"/>
	<path class="st3" d="M628.5,471.9c-1,0.8-2.7,0-3.8-1.5c-1-1.5-1-3.5,0-4.3c1-0.8,2.7-0.1,3.8,1.5
		C629.5,469.3,629.5,471.2,628.5,471.9L628.5,471.9z"/>
	<path class="st3" d="M637.6,481.8c-0.9,1.1-2.9,0.8-4.3-0.7c-1.5-1.5-1.9-3.5-1-4.5c0.9-1.1,2.9-0.8,4.4,0.7
		C638.1,478.7,638.6,480.7,637.6,481.8L637.6,481.8z"/>
	<path class="st3" d="M650.2,487.5c-0.4,1.4-2.3,2-4.2,1.5c-1.9-0.6-3.2-2.2-2.8-3.6c0.4-1.4,2.3-2,4.2-1.5
		C649.3,484.5,650.6,486.2,650.2,487.5L650.2,487.5z"/>
	<path class="st3" d="M664,488.6c0,1.5-1.6,2.7-3.6,2.7s-3.6-1.2-3.7-2.6c0-1.5,1.6-2.7,3.6-2.7C662.3,486,664,487.1,664,488.6
		L664,488.6z"/>
	<path class="st3" d="M676.8,486.2c0.2,1.5-1.2,2.9-3.1,3.3c-2,0.4-3.8-0.5-4-1.9s1.2-2.9,3.1-3.3
		C674.8,484,676.6,484.8,676.8,486.2L676.8,486.2z"/>
</g>
</svg>
