<?xml version="1.0" encoding="utf-8"?>
<!-- Generator: Adobe Illustrator 24.0.1, SVG Export Plug-In . SVG Version: 6.00 Build 0)  -->
<svg version="1.1" id="Calque_1" xmlns="http://www.w3.org/2000/svg" xmlns:xlink="http://www.w3.org/1999/xlink" x="0px" y="0px"
	 viewBox="0 0 1366 768" style="enable-background:new 0 0 1366 768;" xml:space="preserve">
<style type="text/css">
	.st0{fill-rule:evenodd;clip-rule:evenodd;fill:#FEFEFE;}
	.st1{fill-rule:evenodd;clip-rule:evenodd;fill:#DF4B38;}
</style>
<path class="st0" d="M695.1,519.9h60.4V383.1h42.4l4.3-46h-46.6c0,0,0-17.2,0-26.2c0-11.2,2.4-15.5,14.3-15.5c9,0,32.4,0,32.4,0
	v-47.7c0,0-34.3,0-41.9,0c-44.7,0-65.2,18.1-65.2,52.1c0,30.1,0,37,0,37h-31.4v46h31.4L695.1,519.9L695.1,519.9z"/>
<path class="st1" d="M562.8,116h339.8c68.1,0,123.3,50.3,123.3,111.4v313.2c0,61.1-55.2,111.4-123.3,111.4H562.8
	c-67.6,0-123.3-50.3-123.3-111.4V227.4C439.5,166.3,495.2,116,562.8,116L562.8,116z"/>
<path class="st0" d="M767.4,378.4H666.5l0.5,26.2h67.6c-8.1,31.4-32.8,50.8-65.7,50.8c-43.8,0-79-31.8-79-71
	c0-39.6,35.2-71.4,79-71.4c20.5,0,39,6.9,53.3,18.9l22.4-17.2c-19-17.2-46.2-28-75.7-28c-60,0-108,43.4-108,97.7
	c0,53.8,48.1,97.2,108,97.2c57.1,0,98.5-39.6,98.5-93.3V378.4z"/>
<polygon class="st0" points="905,380.1 863.6,380.1 863.6,342.7 837.4,342.7 837.4,380.1 795.5,380.1 795.5,404.2 837.4,404.2 
	837.4,441.6 863.6,441.6 863.6,404.2 905,404.2 "/>
</svg>
