<?xml version="1.0" encoding="utf-8"?>
<!-- Generator: Adobe Illustrator 24.0.1, SVG Export Plug-In . SVG Version: 6.00 Build 0)  -->
<svg version="1.1" id="Calque_1" xmlns="http://www.w3.org/2000/svg" xmlns:xlink="http://www.w3.org/1999/xlink" x="0px" y="0px"
	 viewBox="0 0 960 640" style="enable-background:new 0 0 960 640;" xml:space="preserve">
<style type="text/css">
	.st0{fill:#E0E9FF;}
	.st1{display:none;}
	.st2{display:inline;}
	.st3{fill:#ED1C24;}
	.st4{fill:#D31C24;}
	.st5{fill:#2175FB;}
	.st6{fill:#0B53FF;}
	.st7{fill:#5065FC;}
	.st8{fill:#FFFFFF;}
	.st9{fill:#232323;}
	.st10{fill:#F4D37E;}
	.st11{fill:#24223C;}
	.st12{fill:#2D2D2D;}
	.st13{fill:#FC5B53;}
	.st14{fill:#495CE6;}
	.st15{fill:#E6E7E8;}
	.st16{fill:#D1D3D4;}
	.st17{fill:#0F1D8F;}
	.st18{fill:#CCDBFF;}
	.st19{fill:#08104E;}
	.st20{fill:#96B3FF;}
	.st21{clip-path:url(#SVGID_2_);}
	.st22{fill:#628AEC;}
	.st23{fill:#FB1518;}
	.st24{fill:#F4D87E;}
	.st25{fill:#D4CCFF;}
	.st26{display:none;fill:#8550FC;}
	.st27{display:none;fill:#A796FF;}
	.st28{display:none;fill:#F4D37E;}
	.st29{display:none;fill:#FEF3F9;}
	.st30{display:none;fill:#7862EC;}
	.st31{display:none;fill:#FC8E53;}
	.st32{display:none;fill:#FDEAB1;}
	.st33{display:none;fill:#380F8F;}
	.st34{display:none;fill:#7B0F8F;}
	.st35{display:none;fill:#DE50FC;}
	.st36{display:none;fill:#D396FF;}
	.st37{display:none;fill:#DEB449;}
	.st38{display:none;fill:#232323;}
	.st39{display:none;fill:#FFFFFF;}
	.st40{display:none;fill:#1A0845;}
	.st41{display:none;fill:#0B53FF;}
	.st42{display:none;fill:#2175FB;}
	.st43{display:none;fill:#E6E7E8;}
	.st44{display:none;fill:#D1D3D4;}
	.st45{display:none;fill:#FBF3FE;}
	.st46{display:none;fill:#F28C55;}
	.st47{display:none;fill:none;stroke:#FFFFFF;stroke-width:1.1;stroke-miterlimit:10;}
	.st48{display:none;fill:url(#SVGID_3_);}
	.st49{display:none;fill:url(#SVGID_4_);}
	.st50{display:none;fill:url(#SVGID_5_);}
</style>
<g id="design">
	<g>
		<g>
			<path class="st0" d="M959.6-0.5c0,0,0.4,543.2,0.4,543.8c0-9-35.3-6.9-40.3-5.5c-13.2,3.6-24.7,11.7-35.7,19.6
				c-24.6,17.6-48.4,38.7-78.4,45.7c-68.4,15.9-147.2,3-206.7-34.7c-12.8-8.1-23.8-19.4-37.9-24.9c-14.4-5.6-30-7.3-45.3-7.9
				c-38.3-1.5-78.4-6.8-109.8-26.7c-26.5-16.7-44-42.6-50.7-69.2c-13.1-71.8,80.5-102.6,80.5-158.3c0-49.8-91.7-86.7-63.6-153.7
				c6.6-15.9,22.2-27.7,39.1-36.4c19.6-10.1,41.8-7.6,63.4-14c47.6-14.1,76.7-52.4,117.2-77.1L959.6-0.5z"/>
		</g>
		<path class="st0" d="M0,308.8C9.2,330.7,21.9,348,37.9,366c31,34.8,69.8,62,105.8,92c16.7,13.9,34.3,33.1,28.8,53.7
			c-4.7,17.6-24.8,28.2-29.4,45.8c-3.4,12.9,2.7,26.8,12.3,36.3c9.7,9.4,22.5,15.1,35.3,20c42.2,16,87.2,24.9,132.5,26.3H0V308.8z"
			/>
	</g>
	<g class="st1">
		<g class="st2">
			<g>
				<g>
					<path class="st3" d="M546,395.9c-0.8-2.5-1.6-4.9-2.4-7.3L546,395.9z"/>
					<path class="st3" d="M543.4,409.9l0.1-21.4c-4.3-11.7-9.4-22-14-29.6c-5.1,5.8-6.8,24-6.8,24c0.5-18.8,2.4-24.4,2.5-30.5
						c-7.6-10.6-19.1-16.3-28.2-22.6c3.6,22.3,3.4,27.9,3.4,27.9c-1.2-13.4-5.3-22.6-7.3-30.5c-23.2-14.7-35.2-10.8-35.2-10.8
						c0.2,9.4,3.1,30.3,3.9,38.4c9.8,9,23.4,17.8,23.4,17.8c-7-2.4-16.2-8.3-22.8-12.8c1.5,11.7,1.4,9.7,4.1,19
						c9.8,9.6,29.6,20.5,29.6,20.5c-8.6-2.2-20.6-9.2-27.2-13.2c5.6,15.7,13.2,28.2,22.4,39.4c10.1,4.8,21,8.4,21,8.4
						c-5-0.3-11.2-1.9-16.9-3.7c10.8,12.2,23.6,23,37.7,35.2l14.3,6.2l4.5-22.9c2.1-18.2-0.9-36.5-5.9-52.5L543.4,409.9z"/>
				</g>
				<path class="st4" d="M532.1,432.1c2.7,5.4,5.3,11,7.6,16.7s4.3,11.6,5.6,17.7l-0.2,0.1c-1.5-6.1-3.6-11.8-6.1-17.4
					s-5.2-11-8-16.3c-5.6-10.7-11.7-21-17.8-31.3c-6.1-10.3-12.5-20.4-18.2-31.1c-2.9-5.3-5.7-10.7-8.3-16.2
					c-2.7-5.5-5.1-11.1-7.4-16.8l0.2-0.1c5.7,10.7,11.6,21.1,17.6,31.5s11.8,20.9,17.7,31.4C520.8,410.7,526.7,421.2,532.1,432.1z"
					/>
			</g>
			<g>
				<path class="st5" d="M501.3,459.8c2.2-22.5,4.5-31.8,3.5-39.4c-12.1-10.8-25.6-18.2-38.9-23.2c9.3,26.3,4.8,43.8,4.8,43.8
					c1-18.3-6.3-36.8-10.6-45.9c-33.6-11.2-64.2-8.4-64.2-8.4c2.2,11.5,4.6,22,7.4,31.6c14.7,8.1,34.5,15,34.5,15
					c-9.8-0.9-23.1-5.4-32.7-9.1c4.3,13.9,9.2,25.8,14.7,36.3c14.8,8.9,43.2,16.6,43.2,16.6c-11.8-0.2-29.1-5.3-38.6-8.3
					c10.6,17.6,23.1,30.7,37.5,41.7c14.4,3,29.4,4.2,29.4,4.2c-6.6,1.1-15.2,0.9-23.1,0.4c16.8,11.8,35.8,21.4,56.9,32.2l20.1,3.5
					l1.4-29.4c-1.7-44.4-15.9-74.2-34.9-94.3C506.1,435.7,501.3,459.8,501.3,459.8z"/>
				<path class="st6" d="M541.2,545.4c-3.1-7-7.1-13.4-11.5-19.6c-4.4-6.1-9-12-13.8-17.6c-9.6-11.4-19.7-22.3-29.8-33.1
					c-10.1-10.9-20.5-21.4-30.2-32.8c-4.9-5.7-9.6-11.4-14.2-17.4c-4.6-5.9-9-12.1-13.1-18.5l0.3-0.2c9.6,11.4,19.6,22.5,29.6,33.4
					s19.8,22.2,29.7,33.3c9.9,11.1,19.8,22.3,29.1,34c4.7,5.9,9.2,11.9,13.4,18.2s8,12.9,11,20.1L541.2,545.4z"/>
			</g>
		</g>
		<g class="st2">
			<g>
				<g>
					<path class="st5" d="M804.4,492.7c1.8-1.6,3.5-3.2,5.2-4.8L804.4,492.7z"/>
					<path class="st5" d="M791.6,494.5l18.1-6.7c8.2-8,14.8-16.4,19.4-23.5c-7-3.4-23,0.7-23,0.7c16.1-5.4,21.6-5.3,26.8-7.1
						c5.9-11,6.1-24.5,7.8-35.7c-17.4,10.7-22.3,12.2-22.3,12.2c10.8-5.4,17-12.5,22.9-17c3.1-28.1-5-39.1-5-39.1
						c-7.9,3.2-24.4,12.7-30.9,16.1c-3.6,12.7-5.7,29.3-5.7,29.3c-0.8-7.9,0.5-19.1,1.7-27.1c-9.3,5.2-7.7,4.4-14.4,10.2
						c-4.2,12.9-5.5,36.4-5.5,36.4c-1.6-9.4-0.5-23.8,0.3-31.7c-11,10.7-18.5,22.3-24.3,35.1c0,11.8,1.3,23.9,1.3,23.9
						c-1.7-5.1-2.9-11.9-3.7-18.3c-5.9,14.8-10,31.2-14.6,49.3l0.5,16.4l21.2-2.7c16.3-3.7,30.5-12.5,42-22.5L791.6,494.5z"/>
				</g>
				<path class="st6" d="M768.3,490.1c-3.5,4.5-7.2,8.8-11.1,13c-3.9,4.1-8.1,8.1-12.7,11.3l-0.2-0.2c4.5-3.4,8.6-7.4,12.3-11.6
					s7.2-8.7,10.6-13.2c6.7-9.1,13-18.5,19.3-27.9s12.3-19.1,19-28.2c3.3-4.6,6.8-9.1,10.3-13.5c3.6-4.4,7.3-8.7,11.3-12.8l0.2,0.2
					c-6.7,9.1-13.2,18.4-19.5,27.8s-12.9,18.6-19.4,27.9C781.8,471.8,775.3,481.1,768.3,490.1z"/>
			</g>
			<path class="st3" d="M775.3,454.9c-0.8,1.5-1.7,3-2.6,4.5L775.3,454.9z M772.6,459.6c-6,9.7-14.1,19-24.8,25.1l-14.4,6.5
				l-3.9-11.5c-0.7-13.8-1.4-26.3-0.5-38c1.9,4.3,4.3,8.9,6.6,12.1c0,0-3.6-8.3-6.1-16.6c1.3-10.3,4-20.2,9.5-30.2
				c1.2,5.8,3.6,16.2,6.7,22.5c0,0-4.2-16.9-4.1-27c3.5-5.5,2.5-4.6,7.9-10.3c0.9,6,2.5,14.1,4.7,19.5c0,0-2.2-12.1-2.4-22
				c3.8-3.8,13.4-14.1,18.3-18.1c0,0,8.1,6,12.1,26.5c-3.2,4.5-6,10.8-12.4,17.1c0,0,3.1-2.1,13.1-13.5c1.3,8.3,4.1,17.9,2.3,26.9
				c-3.3,2.4-7.3,3.5-17.4,10.9c0,0,10.5-6.4,16.1-5.5c-1.7,6-4.5,13.4-8.6,20.8l-11.3,8.7L772.6,459.6z"/>
			<path class="st4" d="M754.7,441.7c2.5-8,5.2-15.9,7.6-24c2.5-8,5-16,7.7-23.9l-0.2-0.1c-1.9,3.7-3.6,7.6-5.2,11.5
				c-1.6,3.9-3,7.9-4.4,11.8c-2.7,7.9-4.9,16.1-7.2,24.1c-2.4,8-4.7,16.1-7.5,24c-1.4,3.9-2.9,7.9-4.6,11.7
				c-1.7,3.8-3.7,7.5-6.1,10.9l0.2,0.1c2.6-3.3,4.7-7,6.5-10.8s3.5-7.7,5-11.6C749.5,457.7,752.1,449.7,754.7,441.7z"/>
			<g>
				<path class="st3" d="M786.6,539.6c15.4,5,21.6,8.2,27,8.5c9.7-7.8,17.3-17.2,23.2-26.8c-20.1,3.3-31.6-2.7-31.6-2.7
					c12.7,3.5,26.9,0.5,34.1-1.5c13.9-24.4,17.3-48.6,17.3-48.6c-8.4,0-16.2,0.4-23.5,1.1c-8.3,10.2-16.7,24.5-16.7,24.5
					c2.4-7.5,7.9-17.2,12.2-24c-10.5,1.3-19.8,3.3-28.1,6.1c-8.9,10.2-19.3,31.1-19.3,31.1c2.3-9.1,8.9-21.8,12.7-28.7
					c-14.2,5.6-25.7,13.4-35.9,23c-4.6,10.7-8.2,22.2-8.2,22.2c0.4-5.3,2-11.9,3.9-18c-11.3,11.3-21.4,24.6-32.7,39.4l-6,15.1
					l20.4,5.4c31.4,5.2,54.9-1.4,72.4-13.2C802.6,546.8,786.6,539.6,786.6,539.6z"/>
				<path class="st4" d="M719.4,557.9c5.5-1.4,10.7-3.6,15.8-6c5.1-2.5,10-5.2,14.8-8.1c9.7-5.8,19.1-12,28.6-18.2
					c9.4-6.3,18.7-12.8,28.4-18.6c4.9-2.9,9.7-5.8,14.7-8.5s10.1-5.2,15.3-7.5l0.1,0.2c-9.7,5.8-19.2,11.9-28.7,18
					c-9.5,6.2-19.1,12.1-28.7,18.2c-9.6,6-19.2,12.1-29.1,17.6c-5,2.7-10,5.4-15.2,7.7s-10.5,4.3-16.1,5.6L719.4,557.9z"/>
			</g>
		</g>
		<g class="st2">
			<path class="st7" d="M662.4,103.5h-21.8c-4.3,0-7.9-3.5-7.9-7.9V80.2c0-4.3,3.5-7.9,7.9-7.9h21.8c4.3,0,7.9,3.5,7.9,7.9v15.4
				C670.2,99.9,666.7,103.5,662.4,103.5z"/>
			<g>
				<path class="st8" d="M668.6,75.3l-10.2,10.2c-0.2,0.2-0.4,0.3-0.5,0.5c-1.8,1.6-4.1,2.3-6.3,2.3c-2.3,0-4.5-0.8-6.3-2.3
					c-0.2-0.2-0.4-0.3-0.5-0.5l-0.7-0.7l-9.5-9.5c0.4-0.5,0.8-0.9,1.2-1.3l9.5,9.5l0.7,0.7c0.2,0.2,0.4,0.3,0.6,0.5
					c2.9,2.5,7.2,2.5,10.2,0c0.2-0.2,0.4-0.3,0.6-0.5l0.7-0.7l9.5-9.5C667.8,74.4,668.2,74.9,668.6,75.3z"/>
				<path class="st8" d="M645.8,84.3c0.2,0.2,0.4,0.3,0.6,0.5l-1.3,1.3l-12,12c-0.2-0.7-0.4-1.4-0.4-2.1l11.1-11.1l1.2-1.2
					L645.8,84.3z"/>
				<path class="st8" d="M670.2,96c0,0.7-0.2,1.4-0.4,2.1l-12-12l-1.2-1.2c0.2-0.2,0.4-0.3,0.6-0.5l0.7-0.7l1.2,1.2L670.2,96z"/>
			</g>
		</g>
		<g class="st2">
			<g>
				<g>
					<path class="st9" d="M404.5,550.9c0,0-19.8,1.1-24.3,3.1s0.7,12.3,3.8,12.7c2.3,0.3,21.9-1.7,24.7-4.5L404.5,550.9z"/>
					<path class="st10" d="M404.5,550.9c0,0-8.6,1.8-10.2,3.9c-1.6,2.1-1.9,7.7-0.7,8c1.2,0.2,2.7,2.1,15.1-0.6L404.5,550.9z"/>
				</g>
				<path class="st6" d="M404.2,550.8l4.4,11.6l81.4-14.9c7.9-1.8,21.7-9,19.9-15.3c-2.1-7.6-8.3-12.4-16.2-10.2L404.2,550.8z"/>
			</g>
			<g>
				<g>
					<g>
						<path class="st11" d="M436.2,403.1c6.2-5.9,17.1-7.6,25.2,12.8c4.9,12.4,10.7,7.7,14.4,14.7c2.6,4.9,0.1,11.1,1.6,16.4
							c2.3,7.8,12.5,7.4,12.1,21.6c-0.4,17.4-82,23.4-100,3.5c-7.2-8,2.3-13.7,5.9-19c3-4.4-2.1-8.8-1.9-15.9
							c0.2-7.2,12.8-13.4,14.5-17.4c2.3-5.5,0.4-16.9,13-20.2C428.5,397.7,436.2,403.1,436.2,403.1z"/>
						<g>
							<g>
								<path class="st10" d="M435.8,415.2c12,0,17.5,3.8,15.8,16.8c-2,15.3-5.5,17.8-8.5,19.1l1.3,7.6l11,5.9l3.2,7.3l-19.2,15.4
									l-18.9-14l2.3-9.8l7-6.2l0.4-6.1c-2.9-2.2-4.9-4.6-6.2-15.7C422.4,424.2,421.7,415.2,435.8,415.2z"/>
								<g>
									<path class="st12" d="M443.9,430.8c0,1.4-0.7,2.5-1.4,2.5c-0.8,0-1.4-1.2-1.3-2.5c0-1.4,0.7-2.5,1.4-2.5
										S443.9,429.4,443.9,430.8z"/>
									<path class="st12" d="M433.1,430.6c0,1.4-0.7,2.5-1.4,2.5c-0.8,0-1.4-1.2-1.3-2.5c0-1.4,0.7-2.5,1.4-2.5
										C432.5,428,433.1,429.2,433.1,430.6z"/>
									<path class="st13" d="M433,441.3c0,0,1.6,0.1,2.6,0.1c1.1,0,1.5,0.6,1.5,0.6s0.6-0.5,1.3-0.5c1,0,2.8-0.2,2.8-0.2
										s-1.1,2.6-4.1,2.6C435.6,443.9,433.8,442.5,433,441.3z"/>
								</g>
							</g>
							<path class="st11" d="M437.5,416.5c0,0,0.9,9.5,17.3,10.2l0.6-1.8c0.2-0.5,0.3-1.1,0.3-1.7c0.2-4.8-2.9-9.2-7.5-10.5l-11-3.2
								l-10.7,3.3c-5.2,1.3-8.6,6.4-7.7,11.7l0,0C418.7,424.5,435.2,430.3,437.5,416.5z"/>
						</g>
						<g>
							<g>
								<path class="st7" d="M437.7,477c0,0,9.9-7.9,9.4-11.7c-0.5-3.9-2.7-6.5-2.7-6.5l15.8,8.8c0,0,6.2,43.7-0.6,57l-3.6,5.9
									c0,0-16.2,8.4-37.1-0.9l-4.7-9.6l-2.3-44.5c0,0,1.9-8.6,2.9-9.2s14.9-9.2,14.9-9.2s-1.8,5-0.4,9.6
									C430.7,471.3,437.7,477,437.7,477z"/>
								<g>
									<path class="st14" d="M423.2,495c0,0,7.3,6.2,11.8,4.8c0,0-5.1,2.8-11,0C418.3,497,423.2,495,423.2,495z"/>
									<path class="st14" d="M426.6,501.4l1.3,9.1l0.9,14.6l0.7,7.9c0,0-5.9-0.7-7-1.9C421.4,529.8,426.6,501.4,426.6,501.4z"/>
									<path class="st14" d="M449.2,501.3l-0.4,7l-0.2,9.7l3.7,13.9c0,0,2.3-0.2,3.3-1.4C456.5,529.3,449.2,501.3,449.2,501.3z"/>
									<path class="st14" d="M453.5,495.8c0,0-7.6,5.8-12.1,4.2c0,0,5,3.1,11,0.5C458.4,498,453.5,495.8,453.5,495.8z"/>
								</g>
							</g>
							<g>
								<path class="st3" d="M482.9,538.6c-1,0-21.2,5.8-25.8,5.2c0,0-6.2-23.2-6.8-29.2c-0.6-6-4.6-51.9-6-55.8
									c0,0,24.4,9.2,26.9,13.4c2.5,4.2,6.1,22.5,6.1,22.5l1.9,6.8c0,0-15,5.1-18.2,4.3c-0.5,3.8,3.2,13.1,3.2,13.1L482.9,538.6z"
									/>
								<path class="st3" d="M429.7,457.2c0,0-2.2,85-8.5,92l-21.6-2.7l6.5-7.7l4.7-18.5c0,0,2.7-13.6,3.4-17.1
									c-2.8,0.6-15.7-0.8-15.7-0.8l2.7-6.5c0,0,3.2-17.4,5.5-24.8C413.1,465.9,420.7,461.6,429.7,457.2z"/>
							</g>
							<g>
								<path class="st4" d="M458.9,483.1c0,0,1,13.6,2.2,22.6c1.1,8.3,2.6,11.5,3.2,13.1c0.6,1.4,1.4,2.9,1.4,2.9l-4.1-2.9
									l-2.8-12.5L458.9,483.1z"/>
								<polygon class="st4" points="414.1,482 414.2,503.2 410.8,520.3 415,517.6 415.7,507.7 								"/>
							</g>
						</g>
					</g>
				</g>
				<path class="st10" d="M480.1,515.4l-3.8-13c-2.5,0.7-8.2,2-11.5,3.1l3.4,8.7l-3.4,3.1l-9.1,8.5l3.8,6.1l6.5-4.3l12.1-7.9
					C479.8,518.9,480.5,517.1,480.1,515.4z"/>
				<path class="st10" d="M414.7,518.7l-0.9-0.8l-4.5-4.1l2.8-10.7c-3.5,0-9.8-0.4-12.2-0.7l-2.5,12.9c-0.3,1.7,0.4,3.5,1.9,4.4
					l14.1,8.8l4.8,3l3.7-6.2L414.7,518.7z"/>
			</g>
			<g>
				<path class="st5" d="M478.3,550.6l-4.2,11.6l-84.2-14.8c-8-1.6-17.2-8-17.3-12.7c-0.2-6.5,9.2-14.8,17.1-12.7L478.3,550.6z"/>
				<g>
					<path class="st9" d="M478.3,550.6c0,0,20.8,1.4,25.4,3.2s-1.6,11.4-4.8,11.9c-2.3,0.4-22-0.8-24.8-3.5L478.3,550.6z"/>
					<path class="st10" d="M478.3,550.6c0,0,8.2,1.7,9.9,3.7c1.7,2,2.2,7.7,1,7.9c-1.2,0.3-2.6,2.2-15.1,0L478.3,550.6z"/>
				</g>
			</g>
			<g>
				<path class="st15" d="M471.3,500.8L467,535h-55.1l-0.6-5.1l-3.7-29.1c0-2.1,1.7-3.9,3.9-3.9h56.1
					C469.5,496.9,471.3,498.7,471.3,500.8z"/>
				<path class="st16" d="M466.9,538.2h-55.1c-0.6,0-1.1-0.5-1.1-1.1V536c0-0.6,0.5-1.1,1.1-1.1h55.1c0.6,0,1.1,0.5,1.1,1.1v1.1
					C468,537.8,467.5,538.2,466.9,538.2z"/>
				<path class="st16" d="M439.4,511.6c-0.3,0-0.7,0-1,0.1c0,0.1,0,0.3,0,0.4c0,1.9-1.6,3.5-3.5,3.5c0,0.1,0,0.3,0,0.4
					c0,2.5,2,4.5,4.5,4.5s4.5-2,4.5-4.5S441.9,511.6,439.4,511.6z"/>
			</g>
		</g>
		<g class="st2">
			<g>
				<path class="st17" d="M714.3,187.3h-13.1c18.5,0,33.5,15,33.5,33.5v323.5c0,18.5-15,33.5-33.5,33.5h13.1
					c18.5,0,33.5-15,33.5-33.5V220.8C747.8,202.3,732.8,187.3,714.3,187.3z"/>
				<path class="st7" d="M701.1,577.8H564.3c-18.5,0-33.5-15-33.5-33.5V220.8c0-18.5,15-33.5,33.5-33.5h136.9
					c18.5,0,33.5,15,33.5,33.5v323.5C734.6,562.8,719.6,577.8,701.1,577.8z"/>
				<path class="st18" d="M716.8,533.5H548.6c-5.4,0-9.7-4.3-9.7-9.7V221.1c0-5.4,4.3-9.7,9.7-9.7h168.1c5.4,0,9.7,4.3,9.7,9.7
					v302.7C726.5,529.2,722.2,533.5,716.8,533.5z"/>
				<path class="st19" d="M643.7,563.8h-21.9c-5.1,0-9.2-4.1-9.2-9.2l0,0c0-5.1,4.1-9.2,9.2-9.2h21.9c5.1,0,9.2,4.1,9.2,9.2l0,0
					C652.8,559.7,648.7,563.8,643.7,563.8z"/>
				<path class="st8" d="M538.9,371.7v152.1c0,5.4,4.3,9.7,9.7,9.7h168.1c5.4,0,9.7-4.3,9.7-9.7V371.7H538.9z"/>
				<g>
					<path class="st0" d="M697.2,427.6H569.4c-5,0-9.1-4.1-9.1-9.1l0,0c0-5,4.1-9.1,9.1-9.1h127.8c5,0,9.1,4.1,9.1,9.1l0,0
						C706.3,423.5,702.2,427.6,697.2,427.6z"/>
					<path class="st0" d="M697.2,465.6H569.4c-5,0-9.1-4.1-9.1-9.1l0,0c0-5,4.1-9.1,9.1-9.1h127.8c5,0,9.1,4.1,9.1,9.1l0,0
						C706.3,461.5,702.2,465.6,697.2,465.6z"/>
					<path class="st0" d="M647.6,503.5h-78.2c-5,0-9.1-4.1-9.1-9.1l0,0c0-5,4.1-9.1,9.1-9.1h78.2c5,0,9.1,4.1,9.1,9.1l0,0
						C656.7,499.5,652.6,503.5,647.6,503.5z"/>
				</g>
			</g>
			<g>
				<g>
					<g>
						<path class="st7" d="M608,379.3c-1.3,0-2.3,1-2.3,2.3v11.8c0,0.5,0.6,0.6,0.9,0.2l1.2-2.1c0.4-0.6,1.1-0.9,1.8-0.9h9.6
							c1.3,0,2.3-1,2.3-2.3v-6.8c0-1.3-1-2.3-2.3-2.3L608,379.3L608,379.3z"/>
					</g>
					<g>
						<g>
							<rect x="608" y="381.6" class="st18" width="11.4" height="1.2"/>
						</g>
						<g>
							<rect x="608" y="384.2" class="st18" width="11.4" height="1.2"/>
						</g>
						<g>
							<rect x="608" y="386.7" class="st18" width="11.4" height="1.2"/>
						</g>
					</g>
				</g>
				<g>
					<path class="st4" d="M567.5,385.9c0.4-0.6,0.7-1.4,0.7-2.2c0-2.3-1.9-4.2-4.2-4.2c-1.4,0-2.6,0.7-3.4,1.8
						c-0.8-1.1-2-1.8-3.4-1.8c-2.3,0-4.2,1.9-4.2,4.2c0,0.9,0.3,1.8,0.8,2.5l0,0l6.4,7.1C560.3,393.3,567.3,386.3,567.5,385.9
						L567.5,385.9L567.5,385.9z"/>
				</g>
				<g>
					<path class="st20" d="M572.1,384.3c0.4-0.2,0.8-0.4,1.2-0.6s0.7-0.6,1.1-0.9h0.7v7.5h-1v-6.1c-0.1,0.1-0.2,0.2-0.3,0.2
						s-0.3,0.2-0.4,0.2c-0.1,0.1-0.3,0.2-0.5,0.2c-0.2,0.1-0.3,0.1-0.5,0.2L572.1,384.3z"/>
					<path class="st20" d="M577.6,387.7c0.1-0.3,0.3-0.7,0.6-1.1c0.2-0.4,0.5-0.9,0.8-1.3s0.6-0.9,1-1.3c0.3-0.4,0.7-0.8,1-1.2h1
						v4.7h0.9v0.8H582v1.9h-1v-1.9h-3.3L577.6,387.7L577.6,387.7z M581,384c-0.2,0.2-0.4,0.5-0.7,0.8c-0.2,0.3-0.4,0.6-0.6,0.9
						c-0.2,0.3-0.4,0.6-0.6,0.9c-0.2,0.3-0.3,0.6-0.5,0.9h2.4L581,384L581,384z"/>
					<path class="st20" d="M585,390.3c0-0.6,0.1-1.2,0.3-1.8c0.2-0.6,0.4-1.3,0.6-1.9c0.2-0.6,0.5-1.2,0.8-1.7s0.6-0.9,0.8-1.3h-3.6
						v-0.9h4.8v0.8c-0.2,0.3-0.5,0.6-0.8,1.1s-0.6,1-0.8,1.6c-0.3,0.6-0.5,1.2-0.7,1.9c-0.2,0.7-0.3,1.3-0.3,2H585V390.3z"/>
					<path class="st20" d="M589.9,386.5c0-1.2,0.2-2.2,0.7-2.9c0.4-0.7,1.1-1,1.8-1c0.8,0,1.4,0.3,1.8,1c0.4,0.7,0.7,1.6,0.7,2.9
						c0,1.2-0.2,2.2-0.7,2.9c-0.4,0.7-1.1,1-1.8,1c-0.8,0-1.4-0.3-1.8-1C590.1,388.8,589.9,387.8,589.9,386.5z M593.8,386.5
						c0-0.4,0-0.8-0.1-1.2c0-0.4-0.1-0.7-0.2-1c-0.1-0.3-0.3-0.5-0.4-0.7c-0.2-0.2-0.4-0.2-0.7-0.2s-0.5,0.1-0.7,0.2
						c-0.2,0.2-0.3,0.4-0.4,0.7c-0.1,0.3-0.2,0.6-0.2,1s-0.1,0.8-0.1,1.2c0,0.4,0,0.8,0.1,1.2c0,0.4,0.1,0.7,0.2,1
						c0.1,0.3,0.3,0.5,0.4,0.7c0.2,0.2,0.4,0.2,0.7,0.2s0.5-0.1,0.7-0.2c0.2-0.2,0.3-0.4,0.4-0.7c0.1-0.3,0.2-0.6,0.2-1
						C593.8,387.3,593.8,386.9,593.8,386.5z"/>
				</g>
				<g>
					<path class="st20" d="M627.5,389.5c0.6,0,1.1-0.1,1.4-0.4c0.3-0.3,0.4-0.6,0.4-1c0-0.3-0.1-0.5-0.2-0.7
						c-0.1-0.2-0.3-0.3-0.5-0.4s-0.4-0.2-0.7-0.2c-0.2,0-0.5-0.1-0.8-0.1h-0.3v-0.8h0.4c0.2,0,0.4,0,0.6-0.1c0.2,0,0.4-0.1,0.5-0.2
						c0.2-0.1,0.3-0.2,0.4-0.4c0.1-0.2,0.2-0.4,0.2-0.6s0-0.4-0.1-0.5s-0.2-0.3-0.3-0.4s-0.3-0.2-0.4-0.2c-0.2,0-0.3-0.1-0.5-0.1
						c-0.3,0-0.6,0.1-0.9,0.2c-0.2,0.1-0.4,0.2-0.6,0.3l-0.4-0.8c0.1-0.1,0.2-0.1,0.3-0.2s0.3-0.1,0.4-0.2c0.2-0.1,0.3-0.1,0.5-0.1
						s0.4-0.1,0.6-0.1c0.4,0,0.7,0,1,0.1s0.5,0.2,0.7,0.4c0.2,0.2,0.3,0.4,0.4,0.6c0.1,0.2,0.1,0.5,0.1,0.8c0,0.4-0.1,0.7-0.3,1
						s-0.5,0.5-0.8,0.6c0.2,0.1,0.4,0.1,0.6,0.2c0.2,0.1,0.3,0.2,0.5,0.4c0.1,0.2,0.2,0.4,0.3,0.6s0.1,0.5,0.1,0.7
						c0,0.3-0.1,0.6-0.2,0.9c-0.1,0.3-0.3,0.5-0.5,0.7s-0.5,0.4-0.9,0.5s-0.8,0.2-1.3,0.2c-0.2,0-0.4,0-0.6,0
						c-0.2,0-0.4-0.1-0.6-0.1c-0.2,0-0.3-0.1-0.5-0.1c-0.1,0-0.2-0.1-0.3-0.1l0.2-0.9c0.1,0.1,0.3,0.1,0.6,0.2
						C626.7,389.5,627,389.5,627.5,389.5z"/>
					<path class="st20" d="M631.5,387.7c0.1-0.3,0.3-0.7,0.6-1.1c0.2-0.4,0.5-0.9,0.8-1.3s0.6-0.9,1-1.3c0.3-0.4,0.7-0.8,1-1.2h1
						v4.7h0.9v0.8h-0.9v1.9h-1v-1.9h-3.3L631.5,387.7L631.5,387.7z M634.9,384c-0.2,0.2-0.4,0.5-0.7,0.8c-0.2,0.3-0.4,0.6-0.6,0.9
						c-0.2,0.3-0.4,0.6-0.6,0.9c-0.2,0.3-0.3,0.6-0.5,0.9h2.4L634.9,384L634.9,384z"/>
					<path class="st20" d="M639.3,385.7c1.1,0,1.9,0.3,2.4,0.7c0.5,0.4,0.8,1,0.8,1.8c0,0.3-0.1,0.6-0.2,0.9
						c-0.1,0.3-0.3,0.5-0.5,0.7s-0.5,0.4-0.9,0.5c-0.3,0.1-0.8,0.2-1.2,0.2c-0.2,0-0.4,0-0.6,0c-0.2,0-0.4-0.1-0.5-0.1
						c-0.2,0-0.3-0.1-0.4-0.1c-0.1,0-0.2-0.1-0.3-0.1l0.2-0.9c0.1,0.1,0.3,0.1,0.6,0.2s0.6,0.1,1,0.1c0.3,0,0.6,0,0.8-0.1
						s0.4-0.2,0.5-0.3c0.1-0.1,0.2-0.3,0.3-0.4c0.1-0.2,0.1-0.3,0.1-0.5c0-0.3,0-0.5-0.1-0.7s-0.3-0.4-0.5-0.5s-0.6-0.3-0.9-0.3
						c-0.4-0.1-0.9-0.1-1.5-0.1c0-0.4,0.1-0.7,0.1-1s0-0.6,0.1-0.9c0-0.3,0-0.6,0.1-0.9c0-0.3,0-0.6,0-0.9h3.6v0.9h-2.7
						c0,0.1,0,0.3,0,0.4c0,0.2,0,0.4,0,0.6s0,0.4,0,0.6C639.3,385.4,639.3,385.6,639.3,385.7z"/>
				</g>
			</g>
			<g>
				<g>
					<defs>
						<rect id="SVGID_1_" x="550" y="223.2" width="169.4" height="148.4"/>
					</defs>
					<clipPath id="SVGID_2_">
						<use xlink:href="#SVGID_1_"  style="overflow:visible;"/>
					</clipPath>
					<g class="st21">
						<polygon class="st20" points="667.9,322.6 646.2,340.6 622.5,324 628.1,308.9 629.3,303.1 631.6,291.7 655.4,291 656.4,295.1 
							659.2,306.1 						"/>
						<g>
							<g>
								<path class="st20" d="M665.8,261.7c0,20.1-9.9,36.3-22.1,36.3c-12.2,0-22.1-16.3-22.1-36.3s9.9-26,22.1-26
									C655.9,235.7,665.8,241.7,665.8,261.7z"/>
								<path class="st7" d="M668.1,244.5c2,6.8-3.3,37.4-6.3,43.6s-9.6,9.8-18.7,9.9c-11.6,0.1-15.5-5.5-17.8-8.7
									c-2.3-3.3-2.5-9.5-5.5-33s16-26.6,23-26.6s10.3-0.1,11.6,4.5C664.4,233.6,666.1,237.7,668.1,244.5z M646,247.9
									c-6.4,2.9-17.7-3-22,1.8s-1.7,19.9-0.2,26.3c0.6,2.5,7.9,0.5,12.4,2.9c-6.2,5.7,0,10.6,6.8,10.6c6.5,0,12.6-2,8.5-9.8
									c3.2-3.4,10-0.2,11.3-3c2-4.1,0.9-23.3,0.9-23.3c-2.7-0.8-8.9-8.2-8.9-13.7C654.8,239.7,652.4,245,646,247.9z"/>
							</g>
						</g>
						<g>
							<path class="st22" d="M681.1,356.4c-0.7,0.2-1.3,0.4-1.8,0.6c0.3,2.8,0.7,9.5,1,15.7v0.7c0.1,1.7,0.2,3.4,0.3,4.9
								c0.2,2.8,0.4,5.2,0.6,6.5c0.6,3.3,1.1,6.7,1.4,9.8c1,8,1.3,14.7,1.3,14.7c-1.6,0-78.3,0-78.3,0l0.4-13l0.3-8.5l0.3-8.1
								l0.7-22.4c-0.7-0.2-1.9-0.5-3.3-0.7c-5.6-0.9-15.5-2-19.2-2.4c-1-0.1-1.5-0.2-1.5-0.2s8.5-34.6,13.7-40.1
								c9.5-5.8,19.3-8.1,32.3-11c0,0-0.8,4.8,1.6,8.9c5.8,9.9,25.1,8.2,27.7-3c0.6-2.7-0.1-5.9-0.1-5.9s26.6,5.4,31.8,11.4
								c4,6.7,11.5,36.2,11.5,36.2s-0.7,0.2-1.9,0.5C695.7,352.3,686.4,354.7,681.1,356.4z"/>
							<g>
								<polygon class="st7" points="673.9,335.9 679.3,357 680.3,373.4 673.9,356.2 								"/>
								<polygon class="st7" points="610.9,369 608,381 606.4,387.9 606.6,379.8 607.3,357.4 610.9,334.3 								"/>
							</g>
						</g>
						<polygon class="st20" points="697.3,351.9 699.6,368 699.6,397 683.1,398.7 680.3,373.4 679.3,357 						"/>
						<polygon class="st20" points="588.9,354.7 587,368 587,397 603.5,398.7 606.3,373.4 607.3,357 						"/>
					</g>
				</g>
			</g>
			<g>
				<rect x="549.9" y="246.1" class="st23" width="60.1" height="24.6"/>
				<g>
					<path class="st8" d="M570,263.8v1.7h-8.4v-14h2v12.3H570z"/>
					<path class="st8" d="M572.1,251.5h2v14h-2V251.5z"/>
					<path class="st8" d="M588.8,251.5c-0.5,1.5-1,2.8-1.5,4.1c-0.5,1.3-0.9,2.4-1.4,3.6s-0.9,2.2-1.3,3.2c-0.4,1-0.9,2-1.3,3.1
						h-1.8c-0.5-1-0.9-2-1.3-3.1c-0.4-1-0.9-2.1-1.3-3.2c-0.5-1.1-0.9-2.3-1.4-3.6c-0.5-1.3-1-2.6-1.5-4.1h2.2
						c0.7,2.1,1.4,4.2,2.1,6.1c0.7,2,1.4,3.8,2.2,5.5c0.7-1.7,1.5-3.5,2.2-5.5s1.4-4,2.1-6.1H588.8z"/>
					<path class="st8" d="M590.7,265.5v-14h8.5v1.7h-6.6v4.2h5.8v1.6h-5.8v4.8h7.1v1.7H590.7z"/>
				</g>
			</g>
			<g>
				<g>
					<circle class="st4" cx="578.4" cy="346.9" r="11.5"/>
					<g>
						<path class="st8" d="M584.5,347.4c0.4-0.6,0.6-1.2,0.6-2c0-2-1.6-3.7-3.7-3.7c-1.2,0-2.3,0.6-3,1.6c-0.7-0.9-1.8-1.6-3-1.6
							c-2,0-3.7,1.6-3.7,3.7c0,0.8,0.3,1.6,0.7,2.2l0,0l5.7,6.3C578.1,353.9,584.3,347.6,584.5,347.4L584.5,347.4L584.5,347.4z"/>
					</g>
				</g>
				<g>
					<circle class="st4" cx="677.3" cy="362.4" r="9"/>
					<g>
						<path class="st8" d="M682.1,362.8c0.3-0.4,0.5-1,0.5-1.5c0-1.6-1.3-2.9-2.9-2.9c-1,0-1.8,0.5-2.4,1.2
							c-0.5-0.7-1.4-1.2-2.4-1.2c-1.6,0-2.9,1.3-2.9,2.9c0,0.6,0.2,1.2,0.6,1.7l0,0l4.4,4.9C677.1,367.9,682,363,682.1,362.8
							L682.1,362.8L682.1,362.8z"/>
					</g>
				</g>
				<g>
					<circle class="st4" cx="806.5" cy="316" r="7.4"/>
					<g>
						<path class="st8" d="M810.4,316.4c0.2-0.4,0.4-0.8,0.4-1.3c0-1.3-1.1-2.4-2.4-2.4c-0.8,0-1.5,0.4-1.9,1c-0.4-0.6-1.1-1-1.9-1
							c-1.3,0-2.4,1.1-2.4,2.4c0,0.5,0.2,1,0.5,1.4l0,0l3.7,4.1C806.3,320.6,810.3,316.6,810.4,316.4L810.4,316.4L810.4,316.4z"/>
					</g>
				</g>
				<g>
					<path class="st4" d="M875.7,345.7c0-3.2-2.6-5.9-5.9-5.9c-3.2,0-5.9,2.6-5.9,5.9c0,3.2,2.6,5.9,5.9,5.9
						C873.1,351.6,875.7,348.9,875.7,345.7z"/>
					<g>
						<path class="st8" d="M873,345.9c0.2-0.3,0.3-0.6,0.3-1c0-1-0.8-1.9-1.9-1.9c-0.6,0-1.2,0.3-1.5,0.8c-0.3-0.5-0.9-0.8-1.5-0.8
							c-1,0-1.9,0.8-1.9,1.9c0,0.4,0.1,0.8,0.4,1.1l0,0l2.9,3.2C869.7,349.3,872.9,346.1,873,345.9L873,345.9L873,345.9z"/>
					</g>
				</g>
				<g>
					<ellipse class="st4" cx="733.8" cy="326" rx="11.7" ry="11.7"/>
					<g>
						<path class="st8" d="M740,326.5c0.4-0.6,0.6-1.3,0.6-2c0-2.1-1.7-3.7-3.7-3.7c-1.3,0-2.4,0.6-3,1.6c-0.7-1-1.8-1.6-3-1.6
							c-2.1,0-3.7,1.7-3.7,3.7c0,0.8,0.3,1.6,0.8,2.2l0,0l5.8,6.4C733.5,333.1,739.8,326.8,740,326.5L740,326.5L740,326.5z"/>
					</g>
				</g>
				<g>
					<ellipse class="st4" cx="812.8" cy="367.3" rx="10.8" ry="10.8"/>
					<g>
						<path class="st8" d="M818.5,367.8c0.3-0.5,0.5-1.2,0.5-1.8c0-1.9-1.5-3.4-3.4-3.4c-1.2,0-2.2,0.6-2.8,1.5
							c-0.6-0.9-1.7-1.5-2.8-1.5c-1.9,0-3.4,1.5-3.4,3.4c0,0.8,0.3,1.5,0.7,2.1l0,0l5.3,5.9C812.5,373.9,818.3,368,818.5,367.8
							L818.5,367.8L818.5,367.8z"/>
					</g>
				</g>
				<g>
					<circle class="st4" cx="565.8" cy="313.8" r="7.1"/>
					<g>
						<path class="st8" d="M569.6,314.2c0.2-0.3,0.4-0.8,0.4-1.2c0-1.2-1-2.3-2.3-2.3c-0.8,0-1.4,0.4-1.8,1c-0.4-0.6-1.1-1-1.8-1
							c-1.2,0-2.3,1-2.3,2.3c0,0.5,0.2,1,0.5,1.3l0,0l3.5,3.9C565.7,318.2,569.5,314.3,569.6,314.2L569.6,314.2L569.6,314.2z"/>
					</g>
				</g>
				<g>
					<circle class="st4" cx="841.7" cy="297.3" r="11"/>
					<g>
						<path class="st8" d="M847.5,297.8c0.3-0.5,0.5-1.2,0.5-1.9c0-1.9-1.6-3.5-3.5-3.5c-1.2,0-2.2,0.6-2.9,1.5
							c-0.6-0.9-1.7-1.5-2.9-1.5c-1.9,0-3.5,1.6-3.5,3.5c0,0.8,0.3,1.5,0.7,2.1l0,0l5.4,6C841.4,304,847.3,298,847.5,297.8
							L847.5,297.8L847.5,297.8z"/>
					</g>
				</g>
				<g>
					<circle class="st7" cx="613.7" cy="318.6" r="14.5"/>
					<g>
						<g>
							<path class="st8" d="M621.3,313.1c-1.4-1.1-5.6,0.6-5.6,0.6c0.7-1.6,0.5-5.1-0.5-5.1c-1.7,0-0.7,5.6-5.9,7.5v7.4
								c0,0,10.7,2.1,11.9,0.3C622.5,322.1,622.7,314.3,621.3,313.1z"/>
						</g>
						<rect x="604.7" y="315.7" class="st8" width="3.9" height="8.3"/>
					</g>
				</g>
				<g>
					<circle class="st7" cx="656.7" cy="330.8" r="12"/>
					<g>
						<g>
							<path class="st8" d="M663,326.3c-1.1-0.9-4.6,0.5-4.6,0.5c0.6-1.3,0.4-4.2-0.4-4.2c-1.4,0-0.6,4.6-4.9,6.2v6.2
								c0,0,8.9,1.7,9.9,0.2C663.9,333.7,664.2,327.2,663,326.3z"/>
						</g>
						<rect x="649.2" y="328.4" class="st8" width="3.2" height="6.9"/>
					</g>
				</g>
				<g>
					<circle class="st7" cx="565.1" cy="356.8" r="8.1"/>
					<g>
						<g>
							<path class="st8" d="M569.3,353.8c-0.8-0.6-3.1,0.3-3.1,0.3c0.4-0.9,0.3-2.8-0.3-2.8c-0.9,0-0.4,3.1-3.3,4.2v4.1
								c0,0,6,1.2,6.6,0.2S570.1,354.4,569.3,353.8z"/>
						</g>
						<rect x="560.1" y="355.2" class="st8" width="2.2" height="4.6"/>
					</g>
				</g>
				<g>
					<circle class="st7" cx="709.5" cy="345.2" r="12"/>
					<g>
						<g>
							<path class="st8" d="M715.8,340.7c-1.1-0.9-4.6,0.5-4.6,0.5c0.6-1.3,0.4-4.2-0.4-4.2c-1.4,0-0.6,4.6-4.9,6.2v6.2
								c0,0,8.9,1.7,9.9,0.2C716.7,348.1,716.9,341.7,715.8,340.7z"/>
						</g>
						<rect x="702" y="342.8" class="st8" width="3.2" height="6.9"/>
					</g>
				</g>
				<g>
					<circle class="st7" cx="821.9" cy="339" r="12"/>
					<g>
						<g>
							<path class="st8" d="M828.2,334.5c-1.1-0.9-4.6,0.5-4.6,0.5c0.6-1.3,0.4-4.2-0.4-4.2c-1.4,0-0.6,4.6-4.9,6.2v6.2
								c0,0,8.9,1.7,9.9,0.2C829.1,341.9,829.3,335.4,828.2,334.5z"/>
						</g>
						<rect x="814.4" y="336.6" class="st8" width="3.2" height="6.9"/>
					</g>
				</g>
				<g>
					<circle class="st7" cx="863.7" cy="261.1" r="6.9"/>
					<g>
						<g>
							<path class="st8" d="M867.3,258.5c-0.7-0.5-2.6,0.3-2.6,0.3c0.3-0.8,0.2-2.4-0.2-2.4c-0.8,0-0.3,2.6-2.8,3.6v3.5
								c0,0,5.1,1,5.7,0.1C867.8,262.8,867.9,259.1,867.3,258.5z"/>
						</g>
						<rect x="859.4" y="259.7" class="st8" width="1.8" height="4"/>
					</g>
				</g>
				<g>
					<circle class="st7" cx="714.9" cy="286.3" r="6.9"/>
					<g>
						<g>
							<path class="st8" d="M718.5,283.7c-0.7-0.5-2.6,0.3-2.6,0.3c0.3-0.8,0.2-2.4-0.2-2.4c-0.8,0-0.3,2.6-2.8,3.6v3.5
								c0,0,5.1,1,5.7,0.1S719.2,284.3,718.5,283.7z"/>
						</g>
						<rect x="710.7" y="284.9" class="st8" width="1.8" height="4"/>
					</g>
				</g>
				<g>
					<circle class="st7" cx="776.4" cy="335.1" r="10.1"/>
					<g>
						<g>
							<path class="st8" d="M781.7,331.3c-1-0.8-3.9,0.4-3.9,0.4c0.5-1.1,0.4-3.5-0.4-3.5c-1.2,0-0.5,3.9-4.1,5.2v5.2
								c0,0,7.5,1.5,8.3,0.2C782.5,337.5,782.7,332.1,781.7,331.3z"/>
						</g>
						<rect x="770.1" y="333.1" class="st8" width="2.7" height="5.8"/>
					</g>
				</g>
				<g>
					<circle class="st7" cx="791.3" cy="278.2" r="10.1"/>
					<g>
						<g>
							<path class="st8" d="M796.6,274.4c-1-0.8-3.9,0.4-3.9,0.4c0.5-1.1,0.4-3.5-0.4-3.5c-1.2,0-0.5,3.9-4.1,5.2v5.2
								c0,0,7.5,1.5,8.3,0.2C797.4,280.6,797.5,275.2,796.6,274.4z"/>
						</g>
						<rect x="785" y="276.2" class="st8" width="2.7" height="5.8"/>
					</g>
				</g>
				<g>
					<ellipse class="st7" cx="859.1" cy="311.7" rx="14.3" ry="14.3"/>
					<g>
						<g>
							<path class="st8" d="M866.6,306.3c-1.4-1.1-5.5,0.6-5.5,0.6c0.7-1.6,0.5-5-0.5-5c-1.6,0-0.7,5.5-5.8,7.4v7.4
								c0,0,10.6,2.1,11.8,0.3C867.7,315.1,868,307.4,866.6,306.3z"/>
						</g>
						<rect x="850.2" y="308.8" class="st8" width="3.8" height="8.2"/>
					</g>
				</g>
				<g>
					<circle class="st7" cx="760.1" cy="349.1" r="14"/>
					<g>
						<g>
							<path class="st8" d="M767.4,343.9c-1.3-1.1-5.4,0.6-5.4,0.6c0.7-1.5,0.5-4.9-0.5-4.9c-1.6,0-0.6,5.4-5.7,7.2v7.2
								c0,0,10.3,2,11.5,0.3C768.5,352.5,768.8,345,767.4,343.9z"/>
						</g>
						<rect x="751.5" y="346.3" class="st8" width="3.7" height="8"/>
					</g>
				</g>
				<g>
					<circle class="st4" cx="626" cy="327.2" r="7.1"/>
					<g>
						<path class="st8" d="M629.7,327.6c0.2-0.3,0.4-0.8,0.4-1.2c0-1.2-1-2.3-2.3-2.3c-0.8,0-1.4,0.4-1.8,1c-0.4-0.6-1.1-1-1.8-1
							c-1.2,0-2.3,1-2.3,2.3c0,0.5,0.2,1,0.5,1.3l0,0l3.5,3.9C625.8,331.6,629.6,327.7,629.7,327.6L629.7,327.6L629.7,327.6z"/>
					</g>
				</g>
				<g>
					<path class="st4" d="M631.6,353.3c0-3-2.4-5.4-5.4-5.4s-5.4,2.4-5.4,5.4s2.4,5.4,5.4,5.4C629.2,358.7,631.6,356.3,631.6,353.3z
						"/>
					<g>
						<path class="st8" d="M629.1,353.6c0.2-0.3,0.3-0.6,0.3-0.9c0-1-0.8-1.7-1.7-1.7c-0.6,0-1.1,0.3-1.4,0.7
							c-0.3-0.4-0.8-0.7-1.4-0.7c-1,0-1.7,0.8-1.7,1.7c0,0.4,0.1,0.7,0.3,1l0,0l2.7,3C626.1,356.6,629,353.7,629.1,353.6
							L629.1,353.6L629.1,353.6z"/>
					</g>
				</g>
			</g>
		</g>
		<g class="st2">
			<g>
				<path class="st7" d="M700.6,116c-14.5,0-26.2,11.7-26.2,26.2v132.6c0,5.2,6.9,7.1,9.5,2.6l13.9-23.3c5-6.4,12.6-10.1,20.6-10.1
					h107.9c14.5,0,26.2-11.7,26.2-26.2V142c0-14.5-11.7-26.2-26.2-26.2H700.6V116z"/>
			</g>
			<g>
				<g>
					<rect x="701" y="141.9" class="st18" width="127.8" height="13.1"/>
				</g>
				<g>
					<rect x="701" y="170.3" class="st18" width="127.8" height="13.1"/>
				</g>
				<g>
					<rect x="701" y="198.7" class="st18" width="127.8" height="13.1"/>
				</g>
			</g>
		</g>
		<g class="st2">
			<g>
				<path class="st24" d="M546.7,207l4.7,6.6l3,1c1.1,0.4,2.6,2.1,2.2,3.2c-2,5.6-8.8,20.9-10.5,23.1c0,0-2.3-1.9-1.4-3.8
					c0.8-1.9,2-16.4,2-16.4l-4.5-6.1L546.7,207z"/>
				<path class="st6" d="M557.7,217.3c0,0-3-3.5-4.8-3.3c0,0,1.6,2.5,1,5.8c-0.9,2.7-3.1,11.7-8,9.7c-0.8,3.1-2,9.2-1.5,12.1
					c0,0,1.6,0.4,2.5-0.6c0,0,3.4-4.7,4.5-6.5l5.7-14l4.1-0.1l0.7-1.6L557.7,217.3z"/>
				<path class="st6" d="M570.1,158.3c0,0-52.9,0.9-58.7,3.9c-5.9,3-0.9,10.1,7,20.9c7.9,10.8,25.3,35.8,25.3,35.8l6.8-7.8
					L531,176.5c0,0,47.8,9,52.4,3.6c4.6-5.4,6.3-12.8,2.1-21.5L570.1,158.3z"/>
			</g>
			<g>
				<path class="st9" d="M530.9,74c-4.4-0.1-14.8,18.1,14.7,28.3c10.1,3.5,29.4-0.8,33.4-6.1c0,0-16-34.8-33-33.1
					C531.8,64.6,530.9,74,530.9,74z"/>
				<g>
					<path class="st24" d="M495.9,150.4l6.7-4.3l8.8,1.4l30.1-6.2l1,8.8l-30,0.9l-3.2,0.7c-0.9,0.2-1.9,0.1-2.8-0.4l-4-2.2l-5.9,3.4
						L495.9,150.4z"/>
					<path class="st4" d="M550.4,102.9c-6.9,0.9-3.5,11.2-6.5,36.6l-29.3,4.9l1.6,7.1c0,0,31.8-0.4,36.6-1.2
						C558.1,137.2,562,101.4,550.4,102.9z"/>
				</g>
				<path class="st24" d="M563.2,101.5c-3.1,2.9-2.6,6.4-7.1,6.2c-7,1-6.8-8.2-6.8-8.2c-2.7,0.9-7.7,1.3-11.6-4.6
					c-4.5-6.8-5.7-12.8-6.4-18.5c-0.4-3.7,1.1-6,7.3-7.8c6.2-1.7,10.8,0.1,15.9,6.7c4.2,5.4,4.9,18.1,4.9,18.1
					C560.5,95.8,563.2,101.5,563.2,101.5z"/>
				<path class="st3" d="M588.6,163.2c0,0-15.1,0.1-22.8-0.7c-2.9-22.9-5.3-26.3-5.3-26.3c-7.9-1-10.2-3.5-10.2-7.3
					c-1.3-15.3-3.4-23.7-3.4-23.7c1-1.7,3-2.1,3-2.1s0.8,5.4,6.3,4.7c5.9-0.7,3.3-7.5,3.3-7.5c3.2-2.1,6.5-2.2,10-1.5
					c3.5,0.8,6.5,3,8.9,5.7c5.7,6.3,5.9,12.9,6.8,21.3c0.9,8.4-0.6,11.6-0.1,21.8C585.4,154.7,588.1,161.4,588.6,163.2z"/>
				<g>
					<path class="st24" d="M519.8,161.4l3.9-6.4c0.5-0.7,1.3-1.1,2.1-1.3l7.9-1.2l33.1-5.6l0.4,8.5l-31.1,0.5l-2.9,1.9
						c-0.9,0.5-1.9,0.7-2.9,0.5l-4.8-1l-4.6,5.6L519.8,161.4z"/>
					<path class="st23" d="M564.5,103.9c1.3-3,2.6-5.2,6.3-5c10.2,0.4,3.2,15.6,10.4,45.2c0.7,3,1.1,11-7.3,11.5
						c-8.5,0.5-32.8,3.1-32.8,3.1l-3.3-9.8l29.8-4.1C567.5,144.7,561,111.8,564.5,103.9z"/>
				</g>
				<g>
					<path class="st11" d="M563.4,100.6c-11.3,3-9.2-8.2-9.2-8.2c4.2,1.1,3.5-9.3-0.8-10.1c-2.7-0.5-2.3,3.8-2.3,3.8
						c-10.1,5.7-21.8-5.7-20.3-13.4c0.8-4.2,1.9-6.9,6.8-9.6c6-3.3,11.7-1.8,16.8,0.5c11,4.8,10.6,16.4,22.3,17.4
						c26.5,2.4,6.6,14.6,21.3,19.7c8.5,2.9,16,3.6,16,21.7c0,17.6-16.5,15.8-25.6,13.5c-11.8-3.1-10-18.4-12.1-26.1
						C573.9,100.2,571,98.6,563.4,100.6z"/>
				</g>
			</g>
			<g>
				<g>
					<path class="st24" d="M529.8,228.8l0.6,6.9l0.9,3c0.4,1.1-0.2,3.3-1.3,3.7c-5.7,1.7-22,5.6-24.8,5.5c0,0,0.1-2.9,2.2-3.4
						c2-0.5,14.3-8.2,14.3-8.2l-0.1-5.8L529.8,228.8z"/>
					<path class="st6" d="M531.5,244c0,0,0.3-5.6-0.5-7.1c0,0-1.1,3.1-4.1,4.6c-2.7,0.9-11.2,4.5-12.6-0.6c-3,1.2-8.5,4-10.6,6.1
						c0,0,0.7,1.5,2,1.6c0,0,5.8-0.1,7.9-0.3l15.2-3.1l1.9,2.4l1.7-0.4L531.5,244z"/>
				</g>
				<path class="st5" d="M588.6,163.2c2.7,8.9,8.6,26-11.4,24.8c-21.8-1.3-52.9-6.9-52.9-6.9l6.8,50.6l-10.9,2.1
					c0,0-2.9-17.7-7-33.5c-4.1-15.8-13.2-31.3-1.2-35.6C524,160.3,588.6,163.2,588.6,163.2z"/>
			</g>
			<g>
				<path class="st5" d="M529.9,160.6h-44.5l-7.7-24.7c-0.6-2.1,0.9-4.2,3.1-4.2h37.7c1.4,0,2.7,0.9,3.1,2.3L529.9,160.6z"/>
				<path class="st19" d="M552.8,163.2h-65.4c-1.1,0-1.9-0.9-1.9-1.9v-0.7h67.4c0.5,0,0.9,0.4,0.9,0.9v0.8
					C553.7,162.8,553.3,163.2,552.8,163.2z"/>
				<path class="st6" d="M528.5,163.2h-41.1c-1.1,0-2-0.9-2-2v-0.6h44.5v1.2C529.9,162.6,529.3,163.2,528.5,163.2z"/>
				<path class="st6" d="M501.4,143.3c-0.1,0-0.2,0-0.3,0c0,1.5-0.9,2.6-2.1,2.8l0,0c0,1.6,1.1,2.9,2.4,2.9s2.4-1.3,2.4-2.9
					C503.8,144.6,502.7,143.3,501.4,143.3z"/>
			</g>
		</g>
	</g>
	<g>
		<title>portfolio_header</title>
		<path class="st25" d="M664.9,85.1c0.8-0.4,1.6-0.8,2.4-1.2c25-11.3,51.7,6.4,77.3,6.1c23.7-0.2,46.2-13.1,69.9-12.6
			c7.1,0.1,14.3,1.6,20.1,6c6.3,4.8,10.1,12.6,15.4,18.7c12.3,14.1,33.2,19.8,39.5,38.1c4.9,14.4-1.7,30.1-6.9,44.4
			c-8.9,24.5-14,52.1-6.7,77.2c5.2,18,16.5,33.8,18.9,52.5c2.1,16.4-3,33.3-10.3,47.6c-9.7,19.1-9.6,40.9-14.4,61.5
			c-3.1,13.5-9.4,27.1-20.9,33.8c-10.3,6.1-22.3,5.4-33.6,6.1c-11.7,0.7-22.9,1.3-34.7-0.1c-19.8-2.4-39.3-7.5-59.3-9
			c-36.4-2.8-72.6,6.6-109.1,8.6c-20.1,1.1-41.4-0.4-58.2-12.6c-14.3-10.4-23.9-27.8-27.5-46.2c-3.6-18.4-1.7-37.9,3.5-55.9
			c6.3-21.9,17.5-43.4,15.1-66.2c-1.5-14.3-8.3-27.2-12.1-41c-5.3-18.9-4.9-40.1,3-57.9c4.7-10.6,12-19.6,21.2-26
			c10.5-7.2,22.4-5.7,33.8-10.3C621.2,134.9,636.9,99.7,664.9,85.1z"/>
		<path class="st26" d="M856.2,254.2H849c-1.1-4.9-3-9.6-5.4-13.9l5.1-5.4c1.7-1.8,1.7-4.7,0-6.5l0,0l-10.5-11.1
			c-1.7-1.8-4.4-1.8-6.1,0l0,0l-5.1,5.4c-4.1-2.6-8.5-4.5-13.1-5.8v-7.7c0-2.5-1.9-4.6-4.3-4.6l0,0h-14.8c-2.4,0-4.3,2.1-4.3,4.6
			l0,0v7.7c-4.6,1.2-9,3.2-13.1,5.8l-5.1-5.4c-1.7-1.8-4.4-1.8-6.1,0l0,0l-10.5,11.1c-1.7,1.8-1.7,4.7,0,6.5l0,0l5.1,5.4
			c-2.5,4.3-4.3,9-5.4,13.9h-7.2c-2.4,0-4.3,2.1-4.3,4.6l0,0v15.7c0,2.5,1.9,4.6,4.3,4.6l0,0h7.2c1.1,4.9,3,9.6,5.4,13.9l-5.1,5.5
			c-1.7,1.8-1.7,4.7,0,6.5l0,0l10.5,11.1c1.7,1.8,4.4,1.8,6.1,0l5.1-5.4c4.1,2.6,8.5,4.5,13.1,5.8v7.7c0,2.5,1.9,4.6,4.3,4.6l0,0
			h14.8c2.4,0,4.3-2,4.3-4.6l0,0v-7.7c4.6-1.2,9-3.2,13.1-5.8l5.1,5.4c1.7,1.8,4.4,1.8,6.1,0l10.5-11.1c1.7-1.8,1.7-4.7,0-6.5l0,0
			l-5.1-5.4c2.5-4.3,4.3-9,5.4-13.9h7.2c2.4,0,4.3-2.1,4.3-4.6l0,0v-15.7C860.5,256.3,858.6,254.2,856.2,254.2L856.2,254.2z
			 M802,297.8c-16.2,0-29.3-13.9-29.3-31.1s13.1-31.1,29.3-31.1s29.3,13.9,29.3,31.1C831.3,283.8,818.2,297.8,802,297.8L802,297.8z"
			/>
		<path class="st27" d="M704.6,240.3h-5.4c-0.9-3.7-2.2-7.1-4-10.4l3.8-4c1.3-1.3,1.3-3.5,0-4.8l0,0l-7.8-8.3
			c-1.3-1.3-3.3-1.3-4.6,0l-3.8,4c-3-1.9-6.3-3.4-9.8-4.3v-5.7c0-1.9-1.4-3.4-3.2-3.4l0,0h-11.1c-1.8,0-3.2,1.5-3.2,3.4v5.7
			c-3.4,0.9-6.7,2.4-9.8,4.3l-3.8-4c-1.3-1.3-3.3-1.3-4.6,0l-7.8,8.3c-1.3,1.3-1.3,3.5,0,4.8l0,0l3.8,4c-1.8,3.2-3.2,6.7-4,10.3H624
			c-1.8,0-3.2,1.5-3.2,3.4l0,0v11.7c0,1.9,1.4,3.4,3.2,3.4l0,0h5.4c0.9,3.7,2.2,7.1,4,10.4l-3.8,4c-1.3,1.3-1.3,3.5,0,4.8l0,0
			l7.8,8.3c1.3,1.3,3.3,1.3,4.6,0l3.8-4c3,1.9,6.3,3.4,9.8,4.3v5.7c0,1.9,1.4,3.4,3.2,3.4h11.1c1.8,0,3.2-1.5,3.2-3.4l0,0v-5.7
			c3.4-0.9,6.7-2.4,9.8-4.3l3.8,4c1.3,1.3,3.3,1.3,4.6,0l7.8-8.3c1.3-1.3,1.3-3.5,0-4.8l0,0l-3.8-4c1.8-3.2,3.2-6.7,4-10.4h5.4
			c1.8,0,3.2-1.5,3.2-3.4l0,0v-11.7C707.9,241.9,706.4,240.4,704.6,240.3L704.6,240.3z M664.3,272.8c-12,0-21.8-10.4-21.8-23.2
			s9.8-23.2,21.8-23.2s21.8,10.4,21.8,23.2l0,0C686.1,262.4,676.4,272.8,664.3,272.8L664.3,272.8L664.3,272.8z"/>
		<path class="st28" d="M611.9,317.2c-0.5-1.4-0.9-2.8-1.4-4.2L611.9,317.2z"/>
		<path class="st28" d="M610.4,325.3v-12.4c-2.2-6-4.9-11.8-8.2-17.2c-3,3.4-4,13.9-4,13.9c0.3-10.9,1.4-14.1,1.5-17.7
			c-4.4-6.1-11.2-9.5-16.5-13.1c2.1,12.9,2,16.2,2,16.2c-0.7-7.7-3.1-13.1-4.3-17.7c-13.6-8.5-20.7-6.3-20.7-6.3
			c0.1,5.5,1.8,17.6,2.3,22.2c4.3,3.8,8.9,7.2,13.7,10.3c-4.1-1.4-9.5-4.8-13.4-7.4c0.9,6.7,0.8,5.6,2.4,11
			c5.7,5.6,17.4,11.9,17.4,11.9c-5-1.3-12.1-5.3-15.9-7.7c3.1,8.4,7.5,16.2,13.2,22.9c4,1.8,8.1,3.5,12.3,4.9
			c-3.4-0.3-6.7-1.1-9.9-2.1c6.3,7.1,13.8,13.4,22.1,20.4l8.4,3.6l2.6-13.3c1.2-10.6-0.6-21.2-3.5-30.5L610.4,325.3z"/>
		<path class="st29" d="M603.8,338.2c1.6,3.2,3.1,6.4,4.4,9.7c1.4,3.3,2.5,6.8,3.3,10.3h-0.1c-0.9-3.5-2.1-6.9-3.6-10.1
			c-1.4-3.2-3-6.4-4.7-9.5c-3.3-6.2-6.9-12.2-10.5-18.1c-3.6-6-7.3-11.9-10.6-18c-1.7-3.1-3.3-6.2-4.9-9.4c-1.6-3.2-3-6.4-4.3-9.7
			l0.1-0.1c3.3,6.2,6.8,12.2,10.3,18.2s6.9,12.1,10.4,18.2C597.2,325.8,600.6,331.9,603.8,338.2z"/>
		<path class="st27" d="M592.8,358.3c0.1-13.1,0.9-18.6,0-23c-6.7-5.2-14.3-9.1-22.3-11.4c6.3,14.7,4.7,25.1,4.7,25.1
			c-0.3-10.6-5.2-20.9-8-26c-11.6-2.9-23.6-3.4-35.4-1.5c1.7,6.5,3.6,12.4,5.5,17.9c8.4,3.9,19.5,6.9,19.5,6.9
			c-5.4,0-12.9-2-18.2-3.6c2.7,7,5.9,13.8,9.8,20.2c8.5,4.4,24.3,7.4,24.3,7.4c-6.4,0.5-16.1-1.6-21.4-2.8
			c6.1,8.9,13.7,16.4,22.4,22.2c5.4,0.6,10.8,0.9,16.2,1c-3.5,1-8.2,1.3-12.6,1.4c9.7,6,20.5,10.5,32.5,15.7l11.1,1l-0.7-17
			c-3.1-25.5-12.2-42.1-23.5-52.7C594.3,344.2,592.8,358.3,592.8,358.3z"/>
		<path class="st30" d="M618.7,405.7c-2.1-3.8-4.5-7.4-7.2-10.7c-2.7-3.3-5.5-6.4-8.4-9.5c-5.8-6.1-11.8-11.9-17.8-17.6
			s-12.2-11.3-18.1-17.4c-2.9-3-5.8-6.1-8.6-9.3c-2.8-3.2-5.5-6.5-8-10l0.1-0.1c5.8,6.1,11.7,12,17.7,17.8s11.8,11.8,17.8,17.7
			c5.9,5.9,11.8,11.9,17.5,18.2c2.8,3.2,5.6,6.4,8.2,9.9c2.7,3.4,5,7.1,6.9,11H618.7z"/>
		<path class="st27" d="M835.6,358.6c0.9-0.9,1.9-1.8,2.7-2.7L835.6,358.6z"/>
		<path class="st27" d="M828.8,359.6l9.6-3.7c3.9-4,7.3-8.4,10.3-13.2c-3.7-1.9-12.2,0.4-12.2,0.4c8.5-3.1,11.4-3,14.2-4
			c3.1-6.2,3.2-13.8,4.1-20.1c-9.2,6-11.8,6.9-11.8,6.9c5.7-3.1,9-7,12.1-9.6c1.6-15.8-2.7-22-2.7-22c-4.2,1.8-12.9,7.1-16.4,9.1
			c-1.3,5.4-2.3,10.9-3,16.5c-0.4-4.4,0.2-10.7,0.9-15.3c-4.9,2.9-4.1,2.5-7.6,5.7c-2.2,7.3-2.9,20.5-2.9,20.5
			c-0.8-5.3-0.3-13.4,0.1-17.8c-5.5,5.6-9.8,12.4-12.9,19.8c0,6.6,0.7,13.5,0.7,13.5c-1-3.4-1.6-6.8-1.9-10.3
			c-3.2,8.3-5.3,17.5-7.8,27.7l0.2,9.2l11.2-1.5c8.6-2.1,16.2-7,22.3-12.7L828.8,359.6z"/>
		<path class="st30" d="M816.5,357.1c-1.9,2.5-3.8,5-5.9,7.3c-2,2.4-4.3,4.5-6.7,6.4l-0.1-0.1c2.4-1.9,4.6-4.1,6.5-6.6
			c2-2.4,3.8-4.9,5.6-7.5c3.6-5.1,6.9-10.4,10.2-15.7s6.5-10.7,10-15.9c1.8-2.6,3.6-5.1,5.5-7.6s3.9-4.9,6-7.2l0.1,0.1
			c-3.6,5.1-7,10.4-10.3,15.6c-3.4,5.3-6.9,10.5-10.3,15.7S820.2,352.1,816.5,357.1z"/>
		<path class="st31" d="M820.2,337.4c-0.4,0.8-0.9,1.7-1.4,2.5L820.2,337.4z M818.8,340c-3.2,5.4-7.5,10.7-13.2,14.1l-7.6,3.7
			l-2.1-6.5c-0.4-7.8-0.8-14.8-0.2-21.4c1,2.4,2.2,4.7,3.5,6.8c0,0-1.9-4.6-3.3-9.3c0.6-6,2.3-11.7,5-17c0.6,3.2,1.9,9.1,3.6,12.7
			c0,0-2.2-9.5-2.2-15.2c1.8-3.1,1.3-2.6,4.2-5.8c0.5,3.3,1.3,8,2.5,11c-0.7-4.1-1.1-8.2-1.3-12.4c2-2.2,7.1-8,9.7-10.2
			c0,0,4.3,3.4,6.4,15c-1.7,2.5-3.2,6.1-6.6,9.6c0,0,1.7-1.2,6.9-7.6c0.7,4.7,2.2,10.1,1.2,15.2c-1.8,1.3-3.8,2-9.2,6.1
			c0,0,5.5-3.6,8.6-3.1c-1.1,4.1-2.6,8-4.6,11.7l-6,4.9L818.8,340z M809.3,329.9c1.4-4.5,2.8-9,4-13.5c1.3-4.5,2.6-9,4.1-13.5h-0.1
			c-1,2.1-1.9,4.3-2.7,6.5s-1.6,4.4-2.3,6.7c-1.5,4.5-2.6,9-3.8,13.6c-1.3,4.5-2.5,9.1-4,13.5c-0.7,2.2-1.5,4.4-2.4,6.6
			s-2,4.2-3.3,6.1l0.1,0.1c1.4-1.9,2.5-3.9,3.5-6.1c1-2.1,1.8-4.3,2.6-6.5C806.5,338.9,807.9,334.4,809.3,329.9L809.3,329.9z"/>
		<path class="st28" d="M826.2,385c8.2,2.8,11.4,4.6,14.3,4.8c4.9-4.2,9-9.3,12.3-15.1c-10.6,1.9-16.8-1.5-16.8-1.5
			c6.7,2,14.3,0.3,18.1-0.8c4.5-8.5,7.6-17.7,9.2-27.3c-4.5,0-8.6,0.2-12.4,0.6c-3.2,4.4-6.2,9-8.8,13.8c1.3-4.2,4.2-9.7,6.5-13.5
			c-5.1,0.6-10,1.8-14.9,3.4c-4.7,5.7-10.2,17.5-10.2,17.5c1.2-5.1,4.7-12.3,6.7-16.1c-7.1,3-13.5,7.4-19,12.9
			c-2.5,6-4.4,12.5-4.4,12.5c0.4-3.4,1.1-6.8,2-10.1c-6,6.3-11.3,13.9-17.3,22.2l-3.2,8.5l10.8,3c16.7,2.9,29.1-0.8,38.4-7.4
			C834.7,389.1,826.2,385,826.2,385z"/>
		<path class="st32" d="M790.6,395.3c2.9-0.8,5.7-2,8.4-3.4s5.3-2.9,7.9-4.6c5.1-3.2,10.1-6.7,15.1-10.3c5-3.5,9.9-7.2,15-10.5
			c2.6-1.6,5.2-3.3,7.8-4.8s5.3-2.9,8.1-4.2l0.1,0.1c-5.2,3.3-10.2,6.7-15.2,10.1c-5,3.5-10.1,6.8-15.2,10.2
			c-5.1,3.4-10.2,6.8-15.4,9.9c-2.6,1.5-5.3,3-8,4.3C796.5,393.5,793.6,394.5,790.6,395.3L790.6,395.3z"/>
		<path class="st33" d="M621.1,267.4h180.6c5.5,0,9.9,4.7,9.9,10.5v123.3l0,0H611.2l0,0V277.9C611.2,272.1,615.6,267.4,621.1,267.4z
			"/>
		<rect x="620.7" y="277.2" class="st26" width="181.4" height="112.5"/>
		<polygon class="st27" points="848.3,434.2 574.4,434.2 611.2,401.2 811.6,401.2 		"/>
		<path class="st33" d="M574.4,434.2h273.9l0,0v2.2c0,5.7-4.4,10.4-9.8,10.4H584.2c-5.4,0-9.8-4.6-9.8-10.4l0,0V434.2L574.4,434.2z"
			/>
		<path class="st29" d="M637.3,410.1h-11.1c-0.2,0-0.4-0.2-0.4-0.4c0-0.1,0-0.2,0.1-0.3l3.5-3.5c0.1-0.1,0.2-0.1,0.3-0.1h10.6
			c0.2,0,0.4,0.2,0.4,0.4c0,0.1,0,0.2-0.1,0.3l-3,3.5C637.5,410.1,637.4,410.1,637.3,410.1z"/>
		<path class="st29" d="M654.8,410.1h-11.2c-0.2,0-0.4-0.2-0.4-0.4c0-0.1,0-0.2,0.1-0.3l2.8-3.5c0.1-0.1,0.2-0.1,0.3-0.1h10.7
			c0.2,0,0.4,0.2,0.4,0.4c0,0.1,0,0.2-0.1,0.2l-2.3,3.5C655.1,410.1,655,410.1,654.8,410.1z"/>
		<path class="st29" d="M672.4,410.1h-11.3c-0.2,0-0.4-0.2-0.4-0.4c0-0.1,0-0.2,0.1-0.2l2-3.5c0.1-0.1,0.2-0.2,0.3-0.2h10.8
			c0.2,0,0.4,0.2,0.4,0.4c0,0.1,0,0.1,0,0.2l-1.5,3.5C672.7,410,672.5,410.1,672.4,410.1z"/>
		<path class="st29" d="M689.9,410.1h-11.3c-0.2,0-0.4-0.2-0.4-0.4c0-0.1,0-0.1,0-0.1l1.3-3.5c0.1-0.2,0.2-0.2,0.4-0.2h10.9
			c0.2,0,0.4,0.2,0.4,0.4v0.1l-0.8,3.5C690.3,410,690.1,410.1,689.9,410.1z"/>
		<path class="st29" d="M707.5,410.1h-11.4c-0.2,0-0.4-0.2-0.4-0.4c0,0,0,0,0-0.1l0.6-3.5c0-0.2,0.2-0.3,0.4-0.3h10.9
			c0.2,0,0.4,0.2,0.4,0.4l0,0l-0.1,3.5C707.8,410,707.7,410.1,707.5,410.1z"/>
		<path class="st29" d="M725,410.1h-11.4c-0.2,0-0.4-0.2-0.4-0.4l-0.1-3.5c0-0.2,0.2-0.4,0.4-0.4l0,0h10.9c0.2,0,0.3,0.1,0.4,0.3
			l0.6,3.5C725.4,409.9,725.2,410.1,725,410.1L725,410.1z"/>
		<path class="st29" d="M742.4,410.1H731c-0.2,0-0.3-0.1-0.4-0.3l-0.8-3.5c-0.1-0.2,0.1-0.4,0.3-0.5h0.1h10.9c0.2,0,0.3,0.1,0.4,0.2
			l1.3,3.5c0.1,0.2,0,0.4-0.2,0.5C742.5,410.1,742.5,410.1,742.4,410.1z"/>
		<path class="st29" d="M759.9,410.1h-11.3c-0.1,0-0.3-0.1-0.3-0.2l-1.5-3.5c-0.1-0.2,0-0.4,0.2-0.5c0.1,0,0.1,0,0.2,0H758
			c0.1,0,0.3,0.1,0.3,0.2l2,3.5c0.1,0.2,0.1,0.4-0.1,0.5C760.1,410.1,760,410.1,759.9,410.1z"/>
		<path class="st29" d="M777.4,410.1h-11.2c-0.1,0-0.2-0.1-0.3-0.2l-2.3-3.5c-0.1-0.2-0.1-0.4,0.1-0.6c0.1,0,0.1-0.1,0.2-0.1h10.7
			c0.1,0,0.2,0.1,0.3,0.1l2.8,3.5c0.1,0.2,0.1,0.4,0,0.6C777.6,410.1,777.5,410.1,777.4,410.1z"/>
		<path class="st29" d="M794.8,410.1h-11.1c-0.1,0-0.2,0-0.3-0.1l-3-3.5c-0.1-0.2-0.1-0.4,0-0.6c0.1-0.1,0.2-0.1,0.3-0.1h10.6
			c0.1,0,0.2,0,0.3,0.1l3.5,3.5c0.1,0.2,0.1,0.4,0,0.6C795,410.1,794.9,410.1,794.8,410.1z"/>
		<path class="st29" d="M631.7,416.6h-12c-0.2,0-0.4-0.2-0.4-0.4c0-0.1,0-0.2,0.1-0.3l4.1-4.1c0.1-0.1,0.2-0.1,0.3-0.1h11.4
			c0.2,0,0.4,0.2,0.4,0.4c0,0.1,0,0.2-0.1,0.3l-3.5,4.1C632,416.6,631.9,416.6,631.7,416.6z"/>
		<path class="st29" d="M650.6,416.6h-12.1c-0.2,0-0.4-0.2-0.4-0.4c0-0.1,0-0.2,0.1-0.3l3.3-4.1c0.1-0.1,0.2-0.1,0.3-0.1h11.5
			c0.2,0,0.4,0.2,0.4,0.4c0,0.1,0,0.2-0.1,0.2l-2.7,4.1C650.9,416.6,650.8,416.6,650.6,416.6z"/>
		<path class="st29" d="M669.5,416.6h-12.2c-0.2,0-0.4-0.2-0.4-0.4c0-0.1,0-0.2,0.1-0.2l2.4-4.1c0.1-0.1,0.2-0.2,0.3-0.2h11.6
			c0.2,0,0.4,0.2,0.4,0.4c0,0.1,0,0.1,0,0.2l-1.8,4.1C669.8,416.5,669.7,416.6,669.5,416.6z"/>
		<path class="st29" d="M625.3,424.2h-13.1c-0.2,0-0.4-0.2-0.4-0.4c0-0.1,0-0.2,0.1-0.3l4.9-5c0.1-0.1,0.2-0.1,0.3-0.1h12.4
			c0.2,0,0.4,0.2,0.4,0.4c0,0.1,0,0.2-0.1,0.3l-4.2,4.9C625.5,424.2,625.4,424.2,625.3,424.2z"/>
		<path class="st29" d="M645.7,424.2h-13.2c-0.2,0-0.4-0.2-0.4-0.4c0-0.1,0-0.2,0.1-0.3l3.9-4.9c0.1-0.1,0.2-0.2,0.3-0.1h12.5
			c0.2,0,0.4,0.2,0.4,0.4c0,0.1,0,0.2-0.1,0.2l-3.2,5C646,424.1,645.9,424.2,645.7,424.2z"/>
		<path class="st29" d="M666.2,424.2h-13.3c-0.2,0-0.4-0.2-0.4-0.4c0-0.1,0-0.2,0.1-0.2l2.9-5c0.1-0.1,0.2-0.2,0.3-0.2h12.6
			c0.2,0,0.4,0.2,0.4,0.4c0,0.1,0,0.1,0,0.2l-2.2,5C666.5,424.1,666.3,424.2,666.2,424.2z"/>
		<path class="st29" d="M688.4,416.6h-12.3c-0.2,0-0.4-0.2-0.4-0.4c0-0.1,0-0.1,0-0.2l1.6-4.1c0.1-0.2,0.2-0.3,0.4-0.3h11.7
			c0.2,0,0.4,0.2,0.4,0.4v0.1l-1,4.1C688.7,416.5,688.6,416.6,688.4,416.6z"/>
		<path class="st29" d="M747.8,424.2h-74.5c-0.2,0-0.4-0.2-0.4-0.4c0-0.1,0-0.1,0-0.1l1.9-5c0.1-0.2,0.2-0.3,0.4-0.3H746
			c0.2,0,0.3,0.1,0.4,0.3l1.9,5c0.1,0.2,0,0.4-0.2,0.5C747.9,424.2,747.8,424.2,747.8,424.2z"/>
		<path class="st29" d="M707.3,416.6H695c-0.2,0-0.4-0.2-0.4-0.4c0,0,0,0,0-0.1l0.7-4.1c0-0.2,0.2-0.3,0.4-0.3h11.7
			c0.2,0,0.4,0.2,0.4,0.4l0,0l-0.1,4.1C707.6,416.5,707.5,416.6,707.3,416.6z"/>
		<path class="st29" d="M726.1,416.6h-12.3c-0.2,0-0.4-0.2-0.4-0.4l-0.1-4.1c0-0.2,0.2-0.4,0.4-0.4l0,0h11.7c0.2,0,0.3,0.1,0.4,0.3
			l0.7,4.1C726.5,416.4,726.4,416.6,726.1,416.6L726.1,416.6z"/>
		<path class="st29" d="M744.9,416.6h-12.3c-0.2,0-0.3-0.1-0.4-0.3l-1-4.1c-0.1-0.2,0.1-0.4,0.3-0.5h0.1h11.7c0.2,0,0.3,0.1,0.4,0.3
			l1.6,4.1c0.1,0.2,0,0.4-0.2,0.5C745,416.6,745,416.6,744.9,416.6z"/>
		<path class="st29" d="M763.7,416.6h-12.2c-0.1,0-0.3-0.1-0.3-0.2l-1.8-4.1c-0.1-0.2,0-0.5,0.2-0.5h0.1h11.6c0.1,0,0.3,0.1,0.3,0.2
			l2.4,4.1c0.1,0.2,0.1,0.4-0.1,0.6C763.9,416.6,763.8,416.6,763.7,416.6z"/>
		<path class="st29" d="M782.5,416.6h-12.1c-0.1,0-0.2-0.1-0.3-0.2l-2.7-4.1c-0.1-0.2-0.1-0.4,0.1-0.6c0.1,0,0.1-0.1,0.2-0.1h11.5
			c0.1,0,0.2,0.1,0.3,0.1l3.3,4.1c0.1,0.2,0.1,0.4,0,0.6S782.6,416.6,782.5,416.6z"/>
		<path class="st29" d="M785.9,421h-12.7c-0.1,0-0.2-0.1-0.3-0.2l-1.1-1.7c-0.1-0.2-0.1-0.4,0.1-0.6c0.1,0,0.1-0.1,0.2-0.1h12.5
			c0.1,0,0.2,0.1,0.3,0.1l1.4,1.7c0.1,0.2,0.1,0.4-0.1,0.6C786.1,420.9,786,421,785.9,421z"/>
		<path class="st29" d="M788.5,424.2h-13.2c-0.1,0-0.2-0.1-0.3-0.2l-1.2-1.9c-0.1-0.2-0.1-0.4,0.1-0.6c0.1,0,0.1-0.1,0.2-0.1H787
			c0.1,0,0.2,0.1,0.3,0.1l1.5,1.9c0.1,0.2,0.1,0.4,0,0.6S788.6,424.2,788.5,424.2z"/>
		<path class="st29" d="M808.8,424.2h-13.1c-0.1,0-0.2,0-0.3-0.1l-1.6-1.9c-0.1-0.2-0.1-0.4,0-0.6c0.1-0.1,0.2-0.1,0.3-0.1h12.8
			c0.1,0,0.2,0,0.3,0.1l1.9,1.9c0.2,0.2,0.2,0.4,0,0.6C809,424.2,808.9,424.2,808.8,424.2z"/>
		<path class="st29" d="M768.1,424.2h-13.3c-0.1,0-0.3-0.1-0.3-0.2l-0.9-1.9c-0.1-0.2,0-0.4,0.2-0.5c0.1,0,0.1,0,0.2,0h13
			c0.1,0,0.3,0.1,0.3,0.2l1.1,1.9c0.1,0.2,0.1,0.4-0.1,0.5C768.3,424.2,768.2,424.2,768.1,424.2z"/>
		<path class="st29" d="M801.3,416.6h-12.1c-0.1,0-0.2-0.1-0.3-0.1l-3.5-4.1c-0.1-0.2-0.1-0.4,0-0.6c0.1-0.1,0.2-0.1,0.3-0.1h11.4
			c0.1,0,0.2,0,0.3,0.1l4.1,4.1c0.2,0.2,0.2,0.4,0,0.6C801.5,416.6,801.4,416.6,801.3,416.6z"/>
		<polygon class="st34" points="473.2,107.7 512.9,139.4 501.5,154.4 		"/>
		<polygon class="st35" points="473.2,107.7 503.8,139.9 501.5,154.4 		"/>
		<polygon class="st36" points="473.2,107.7 528,135.6 512.9,139.4 		"/>
		<polygon class="st36" points="473.2,107.7 503.8,139.9 485.3,143.1 		"/>
		<path class="st26" d="M646.8,237.1c-0.1,0-0.2-0.1-0.2-0.1c-1.2-0.7-2.4-1.5-3.6-2.4c-0.4-0.2-0.5-0.7-0.3-1.1
			c0.2-0.4,0.7-0.5,1.1-0.3c0,0,0.1,0,0.1,0.1c1.1,0.8,2.3,1.6,3.5,2.3c0.4,0.3,0.4,0.8,0.2,1.1
			C647.4,236.9,647.1,237.1,646.8,237.1L646.8,237.1z M638.6,231c-0.1,0-0.2-0.1-0.3-0.2c-1.5-1.3-2.9-2.8-4.2-4.3
			c-0.3-0.3-0.3-0.8,0-1.2l0,0c0.3-0.3,0.8-0.3,1.1,0l0,0c1.3,1.5,2.7,2.9,4.1,4.2c0.3,0.3,0.4,0.8,0.1,1.2
			C639.2,230.9,638.9,231,638.6,231L638.6,231z M630.6,222c-0.2,0-0.3-0.1-0.5-0.3c-1.2-1.6-2.3-3.3-3.4-5.1
			c-0.2-0.4-0.1-0.9,0.2-1.1c0.4-0.3,0.8-0.2,1.1,0.2l0,0c1.1,1.7,2.2,3.4,3.3,5c0.3,0.4,0.2,0.9-0.1,1.2
			C631.1,222,630.8,222.1,630.6,222z M624.3,211.7c-0.2,0-0.4-0.2-0.5-0.4c-0.9-1.8-1.8-3.6-2.7-5.6c-0.2-0.4,0-0.9,0.4-1.1
			c0.4-0.2,0.9,0,1,0.4c0.8,1.9,1.7,3.7,2.6,5.4c0.2,0.4,0.1,0.9-0.3,1.1C624.6,211.7,624.5,211.8,624.3,211.7L624.3,211.7z
			 M563.5,189L563.5,189c-1.9-0.5-3.8-1-5.7-1.5c-0.4-0.1-0.7-0.6-0.5-1c0.1-0.4,0.5-0.7,0.9-0.6l0,0c1.8,0.5,3.7,1,5.6,1.5
			c0.4,0.1,0.7,0.6,0.6,1C564.3,188.8,563.9,189.1,563.5,189L563.5,189z M569.2,190.2c-0.4-0.1-0.6-0.6-0.5-1s0.5-0.6,0.8-0.6
			c1.9,0.4,3.8,0.7,5.7,1c0.4,0.1,0.7,0.5,0.7,0.9s-0.5,0.8-0.9,0.7l0,0C573,190.9,571.1,190.6,569.2,190.2L569.2,190.2z
			 M619.4,200.6c-0.3-0.1-0.5-0.2-0.6-0.5c-0.7-1.9-1.4-3.9-2-5.8c-0.1-0.4,0.1-0.9,0.5-1s0.8,0.1,1,0.5l0,0c0.6,2,1.2,3.9,1.9,5.8
			c0.2,0.4,0,0.9-0.4,1.1l0,0C619.7,200.6,619.5,200.6,619.4,200.6L619.4,200.6z M552.3,185.8L552.3,185.8c-2-0.6-3.8-1.3-5.6-2.1
			c-0.4-0.2-0.6-0.6-0.5-1.1c0.1-0.4,0.6-0.6,1-0.5l0,0c1.8,0.7,3.6,1.4,5.4,2c0.4,0.2,0.6,0.6,0.5,1.1
			C553,185.6,552.7,185.9,552.3,185.8L552.3,185.8z M580.7,191.9c-0.4-0.1-0.7-0.5-0.6-1c0.1-0.4,0.4-0.7,0.8-0.6l2.2,0.2
			c1.2,0.1,2.3,0.2,3.5,0.2c0.4,0,0.8,0.3,0.8,0.8s-0.3,0.8-0.7,0.9h-0.1c-1.2-0.1-2.4-0.1-3.5-0.2l-2.3-0.2L580.7,191.9z
			 M592.3,192.5c-0.4-0.1-0.7-0.5-0.6-1c0.1-0.4,0.4-0.7,0.7-0.7c1.9-0.1,3.9-0.2,5.7-0.4c0.4-0.1,0.8,0.2,0.9,0.7
			c0.1,0.4-0.2,0.9-0.6,1h-0.1c-1.9,0.2-3.9,0.4-5.8,0.4H592.3z M541.4,181.3c-0.1,0-0.1,0-0.2-0.1c-1.8-0.9-3.6-1.8-5.3-2.7
			c-0.4-0.3-0.4-0.8-0.2-1.1s0.6-0.4,0.9-0.3c1.7,0.9,3.4,1.8,5.2,2.7c0.4,0.2,0.6,0.6,0.4,1.1C542.2,181.2,541.8,181.4,541.4,181.3
			L541.4,181.3z M531.2,175.5c-0.1,0-0.2-0.1-0.3-0.1c-1.7-1.1-3.3-2.3-4.8-3.5c-0.3-0.3-0.4-0.8-0.1-1.2c0.3-0.3,0.7-0.4,1-0.2
			c1.5,1.2,3.1,2.4,4.7,3.5c0.4,0.2,0.5,0.8,0.2,1.1C531.8,175.4,531.5,175.6,531.2,175.5z M603.8,191.2c-0.3-0.1-0.6-0.3-0.6-0.7
			c-0.1-0.4,0.2-0.9,0.6-1c1.9-0.4,3.8-0.8,5.6-1.3c0.4-0.1,0.8,0.1,1,0.6c0.1,0.4-0.1,0.9-0.6,1c-1.9,0.5-3.8,1-5.7,1.4
			C604,191.2,603.9,191.2,603.8,191.2L603.8,191.2z M615.8,188.8c-0.3-0.1-0.5-0.3-0.6-0.6V188c-0.3,0-0.6-0.2-0.7-0.5
			c-0.1-0.4,0-0.7,0.3-1c-0.3-1.5-0.7-2.9-0.9-4.4c-0.1-0.4,0.1-0.9,0.5-1s0.8,0.1,1,0.6v0.1c0.3,1.3,0.5,2.7,0.9,4.1
			c1.4-0.5,2.7-1.1,4.1-1.8c0.4-0.2,0.8-0.1,1.1,0.3c0.2,0.4,0.1,0.9-0.3,1.1c0,0-0.1,0-0.1,0.1c-1.4,0.7-2.9,1.3-4.3,1.9l0.1,0.2
			c0.1,0.4-0.1,0.9-0.6,1C616,188.9,615.9,188.9,615.8,188.8L615.8,188.8z M522,168.1c-0.1,0-0.3-0.1-0.4-0.2
			c-1.4-1.4-2.8-2.9-4.1-4.4c-0.3-0.3-0.3-0.8,0-1.2s0.8-0.3,1.1,0c0,0,0,0,0.1,0.1c1.3,1.5,2.6,3,4,4.3c0.3,0.3,0.3,0.8,0.1,1.2
			l0,0C522.5,168,522.2,168.1,522,168.1L522,168.1z M514.3,158.8c-0.2,0-0.4-0.2-0.5-0.3c-1.1-1.7-2.2-3.5-3.1-5.3
			c-0.1-0.4,0.1-0.9,0.5-1.1c0.3-0.1,0.7,0,0.9,0.3c0.9,1.8,1.9,3.5,3,5.2c0.2,0.4,0.2,0.9-0.2,1.1
			C514.8,158.9,514.5,158.9,514.3,158.8z M625.6,183c-0.2-0.1-0.4-0.2-0.5-0.4c-0.2-0.4-0.1-0.9,0.3-1.1c1.7-1,3.3-2,4.9-3.1
			c0.4-0.2,0.8-0.1,1.1,0.3c0.2,0.4,0.1,0.8-0.2,1.1c-1.6,1.1-3.3,2.2-5,3.2C626,183,625.8,183.1,625.6,183L625.6,183z M613.5,176.7
			c-0.3-0.1-0.6-0.4-0.6-0.7c-0.2-2.1-0.4-4.2-0.5-6.2c0-0.5,0.3-0.8,0.7-0.9c0.4,0,0.8,0.3,0.8,0.8c0.1,2,0.2,4,0.5,6.1
			c0.1,0.4-0.2,0.9-0.7,0.9l0,0C613.7,176.8,613.6,176.8,613.5,176.7L613.5,176.7z M635.3,176.2c-0.2,0-0.3-0.1-0.5-0.3
			c-0.3-0.4-0.2-0.9,0.1-1.2c1.5-1.2,3-2.6,4.4-4c0.3-0.3,0.8-0.3,1.1,0s0.3,0.9,0,1.2c-1.4,1.4-2.9,2.8-4.5,4
			C635.8,176.2,635.5,176.3,635.3,176.2L635.3,176.2z M613.1,164.4c-0.4-0.1-0.6-0.4-0.6-0.8c0.1-2.1,0.3-4.2,0.6-6.2
			c0.1-0.4,0.5-0.8,0.9-0.7l0,0c0.4,0.1,0.7,0.5,0.6,0.9l0,0c-0.3,2-0.5,4-0.6,6c0,0.4-0.4,0.8-0.8,0.7L613.1,164.4z M643.9,167.9
			c-0.1,0-0.3-0.1-0.4-0.2c-0.3-0.3-0.3-0.8,0-1.2c1.3-1.5,2.5-3,3.7-4.6c0.3-0.4,0.8-0.4,1.1-0.1c0.3,0.3,0.4,0.8,0.1,1.2
			c-1.2,1.6-2.5,3.2-3.8,4.7C644.4,167.9,644.1,168,643.9,167.9L643.9,167.9z M614.9,152.3L614.9,152.3c-0.5-0.1-0.7-0.6-0.6-1l0,0
			l0.1-0.2c0.5-1.9,1.2-3.8,2-5.7c0.2-0.4,0.7-0.5,1.1-0.3c0.3,0.2,0.5,0.6,0.4,1c-0.7,1.8-1.4,3.6-1.9,5.4l-0.1,0.2
			C615.7,152.2,615.3,152.4,614.9,152.3L614.9,152.3L614.9,152.3z M651.1,158.2c-0.1,0-0.2-0.1-0.3-0.1c-0.4-0.2-0.5-0.8-0.2-1.1
			l0,0c1.1-1.7,2.1-3.4,3-5.2c0.2-0.4,0.7-0.5,1.1-0.3c0.4,0.2,0.5,0.7,0.3,1.1c-1,1.8-2,3.6-3.1,5.3
			C651.7,158.2,651.3,158.3,651.1,158.2L651.1,158.2z M619.7,141.1c-0.1,0-0.2-0.1-0.3-0.1c-0.4-0.2-0.5-0.7-0.2-1.1
			c1-1.8,2.2-3.5,3.4-5.1c0.3-0.3,0.8-0.4,1.1,0c0.3,0.3,0.3,0.7,0.1,1.1c-1.2,1.6-2.3,3.2-3.3,4.9
			C620.3,141,619.9,141.2,619.7,141.1L619.7,141.1z M656.8,147.5c-0.1,0-0.1,0-0.2-0.1c-0.4-0.2-0.5-0.7-0.4-1.1l0,0l0.4-0.9
			c0.7-1.5,1.2-3.1,1.5-4.7c0.1-0.4,0.5-0.7,0.9-0.6l0,0c0.4,0.1,0.7,0.5,0.6,1c-0.4,1.7-0.9,3.4-1.6,5l-0.4,0.9
			C657.5,147.4,657.1,147.6,656.8,147.5z M627,131.6c-0.2,0-0.3-0.1-0.4-0.3c-0.3-0.3-0.3-0.9,0.1-1.2c1.5-1.4,3-2.7,4.7-3.8
			c0.4-0.2,0.8-0.1,1.1,0.3c0.2,0.4,0.1,0.9-0.2,1.1c-1.6,1.1-3.1,2.3-4.5,3.7C627.5,131.5,627.2,131.6,627,131.6L627,131.6z
			 M659.2,135.6c-0.3-0.1-0.6-0.4-0.6-0.7c-0.1-1.9-0.6-3.8-1.5-5.5c-0.2-0.4-0.1-0.9,0.2-1.1c0.4-0.3,0.8-0.1,1.1,0.2
			c0,0,0,0.1,0.1,0.1c1,1.9,1.6,4,1.7,6.2c0,0.5-0.3,0.9-0.7,0.9C659.3,135.6,659.2,135.6,659.2,135.6L659.2,135.6z M636.7,125
			c-0.3-0.1-0.5-0.3-0.6-0.5c-0.2-0.4,0-0.9,0.4-1.1c1.9-0.8,3.8-1.3,5.8-1.6c0.4-0.1,0.8,0.2,0.9,0.7c0.1,0.4-0.2,0.9-0.6,0.9l0,0
			c-1.9,0.3-3.7,0.8-5.4,1.5C637,125,636.9,125.1,636.7,125z M653.6,125.4c-0.1,0-0.2-0.1-0.2-0.1c-1.6-1-3.3-1.7-5.1-1.9
			c-0.4,0-0.8-0.4-0.7-0.9c0-0.5,0.4-0.8,0.8-0.8h0.1c2,0.3,4,1,5.7,2.1c0.4,0.2,0.5,0.7,0.3,1.1l0,0
			C654.2,125.3,653.9,125.4,653.6,125.4L653.6,125.4z"/>
		<polygon class="st28" points="742.4,253.5 714.8,278.2 684.7,255.3 691.9,234.5 693.4,226.5 696.3,210.8 726.5,209.9 727.8,215.5 
			731.3,230.6 		"/>
		<path class="st37" d="M727.8,215.5c-3.1,5.7-11.5,13.5-34.4,11l2.9-15.7l30.2-0.9L727.8,215.5z"/>
		<path class="st28" d="M739.7,169.5c0,27.6-12.6,50.1-28.1,50.1s-28.1-22.4-28.1-50.1s12.6-35.8,28.1-35.8
			C727.2,133.6,739.7,141.8,739.7,169.5z"/>
		<path class="st37" d="M725.5,136.4c0,0,0.1,16-13.5,17.4s-25.9-7.3-29.1,11.6v-16.9l15-9.4L725.5,136.4z"/>
		<path class="st38" d="M742.7,145.8c2.5,9.4-4.2,51.6-8,60.1s-12.2,13.5-23.7,13.6c-14.7,0.1-19.6-7.6-22.6-12
			c-3-4.5-3.2-13.1-7.1-45.5s20.4-36.7,29.3-36.7c8.9,0,13.1-0.1,14.8,6.1C738,130.7,740.1,136.4,742.7,145.8z M714.6,150.5
			c-8.1,4-22.5-4.1-27.9,2.5c-5.5,6.6-2.1,27.4-0.3,36.2c0.7,3.5,10,0.7,15.7,3.9c-7.9,7.9,0,14.6,8.7,14.6c8.2,0,16-2.8,10.8-13.5
			c4-4.6,12.7-0.2,14.4-4.2c2.5-5.7,1.1-32.1,1.1-32.1c-3.4-1.1-11.3-11.3-11.3-18.9C723.3,144.1,719.4,148.1,714.6,150.5z"/>
		<path class="st38" d="M702.1,167.7c0,2.4-1.2,4.3-2.7,4.3s-2.7-1.9-2.7-4.3s1.2-4.3,2.7-4.3S702.1,165.3,702.1,167.7z"/>
		<path class="st38" d="M725.5,167.7c0,2.4-1.2,4.3-2.7,4.3s-2.7-1.9-2.7-4.3s1.2-4.3,2.7-4.3S725.5,165.3,725.5,167.7z"/>
		<path class="st39" d="M703.3,197.1h16.1c0,0-1.7,7.4-7.4,7.4S703.9,200.2,703.3,197.1z"/>
		<path class="st37" d="M711.3,171.9c0,0-10.3,17.5,0,17.5V171.9z"/>
		<path class="st38" d="M719.4,127.6c0,0-2.2,7.6-14.8,7.6s-16.6,1.2-16.6,1.2S697.3,125.8,719.4,127.6z"/>
		<path class="st33" d="M759.2,300c-0.9,0.3-1.6,0.6-2.3,0.8c0.4,3.9,0.8,13.1,1.3,21.7l0.1,1c0.1,2.4,0.3,4.7,0.4,6.8
			c0.2,3.9,0.5,7.1,0.7,9c0.7,4.5,1.3,9.2,1.8,13.6c1.2,11.1,1.7,20.3,1.7,20.3c-2-0.1-99.4,0-99.4,0l0.5-17.9l0.3-11.8l0.3-11.2
			l0.9-30.9c-1.4-0.4-2.8-0.8-4.2-1c-7.1-1.3-19.6-2.7-24.4-3.2L635,297c0,0,10.8-47.8,17.4-55.3c12.1-8,24.6-11.2,41.1-15.1
			c0,0-1,6.6,2,12.3c7.4,13.7,31.9,11.2,35.1-4.1c0.8-3.7-0.1-8.2-0.1-8.2s33.8,7.5,40.4,15.8c5.1,9.2,14.6,49.9,14.6,49.9
			s-0.9,0.2-2.5,0.7C777.8,294.3,765.9,297.7,759.2,300z"/>
		<polygon class="st40" points="750,271.7 756.9,300.9 758.2,323.5 750,299.8 		"/>
		<polygon class="st40" points="670,317.3 666.4,334 664.3,343.4 664.6,332.3 665.5,301.4 670,269.5 		"/>
		<path class="st38" d="M649,392.8c0,0-34.6,2-42.5,5.7c-7.9,3.8,1.2,22.8,6.7,23.6c4,0.6,38.3-3.1,43.2-8.4L649,392.8z"/>
		<path class="st28" d="M649,392.8c0,0-15,3.4-17.8,7.2c-2.8,3.9-3.3,14.4-1.2,14.8s4.7,3.9,26.4-1.1L649,392.8z"/>
		<path class="st41" d="M648.6,392.6l7.7,21.5l142.4-27.7c13.9-3.3,37.9-16.8,34.8-28.4c-3.8-14.1-14.6-23.1-28.3-19L648.6,392.6z"
			/>
		<path class="st28" d="M666.4,334l-1.8-1.7l-9.2-8.8l5.8-23.1c-7.1-1.3-19.6-2.7-24.4-3.2l-5.4,29.5c-0.7,3.7,0.8,7.5,3.8,9.5
			l28.7,19l9.7,6.5l7.6-13.4L666.4,334z"/>
		<path class="st28" d="M789.6,326.2l-6.7-33.3c-5.1,1.4-17,4.8-23.7,7.1l6.3,23.5l-6.8,6.8l-18.6,18.5l7.8,13.2l13.3-9.2l24.7-17
			C788.9,333.7,790.4,329.9,789.6,326.2z"/>
		<path class="st42" d="M778.2,392.3l-7.4,21.6l-147.3-27.5c-13.9-3-30-14.8-30.3-23.5c-0.3-12,16.1-27.4,29.8-23.6L778.2,392.3z"/>
		<path class="st38" d="M778.2,392.3c0,0,36.4,2.6,44.4,6c8.1,3.4-2.9,21.1-8.4,22.2c-4,0.7-38.4-1.5-43.4-6.6L778.2,392.3z"/>
		<path class="st28" d="M778.2,392.3c0,0,14.3,3.1,17.3,6.9c2.9,3.7,3.8,14.2,1.8,14.8s-4.5,4.1-26.4,0L778.2,392.3z"/>
		<path class="st43" d="M765.9,299.8l-7.6,63.6h-96.4l-1.1-9.5l-6.5-54.1c0-4,3-7.2,6.7-7.2l0,0h98.1
			C762.9,292.6,765.9,295.8,765.9,299.8L765.9,299.8z"/>
		<path class="st44" d="M661.9,363.4h96.4c1.1,0,1.9,0.9,1.9,2v1.9c0,1.1-0.9,2-1.9,2h-96.4c-1.1,0-1.9-0.9-1.9-2v-1.9
			C660,364.3,660.9,363.4,661.9,363.4z"/>
		<path class="st44" d="M710.1,319.9c-0.6,0-1.2,0.1-1.7,0.2c0,0.2,0,0.5,0,0.7c0,3.6-2.8,6.6-6.2,6.6c0,0.3,0,0.5,0,0.8
			c0,4.6,3.5,8.4,7.9,8.4s7.9-3.7,7.9-8.4C718,323.6,714.5,319.9,710.1,319.9L710.1,319.9L710.1,319.9z"/>
		<path class="st45" d="M570,203.3c-5,0-7.1,2.2-7.1,7c0,0.4-0.8,0.4-0.8,0c0-4.8-1.6-7-7.1-7c-0.4,0-0.4-0.8,0-0.8
			c5.6,0,7.1-2.8,7.1-7c0-0.4,0.8-0.4,0.8,0c0,5,1.9,7,7.1,7C570.4,202.4,570.4,203.3,570,203.3z"/>
		<path class="st45" d="M607.7,166.8c-7.5,0-10.5,3.3-10.5,10.4c0,0.7-1.2,0.7-1.2,0c0-7.1-2.4-10.4-10.5-10.4c-0.6,0-0.6-1.2,0-1.2
			c8.4,0,10.5-4.1,10.5-10.4c0-0.7,1.2-0.7,1.2,0c0,7.5,2.8,10.4,10.5,10.4C608.3,165.6,608.3,166.8,607.7,166.8z"/>
		<path class="st45" d="M600.7,243.8c-5.8,0-8,2.5-8,8c0,0.5-0.9,0.5-0.9,0c0-5.4-1.8-8-8-8c-0.5,0-0.5-1,0-1c6.4,0,8-3.1,8-7.9
			c0-0.5,0.9-0.5,0.9,0c0,5.7,2.2,7.9,8,7.9C601.2,242.8,601.2,243.8,600.7,243.8z"/>
		<path class="st46" d="M845.6,100.1c0-9.5-8.2-17.2-18.4-17.2s-18.4,7.7-18.4,17.2s8.2,17.1,18.4,17.1
			C837.3,117.2,845.6,109.6,845.6,100.1L845.6,100.1z"/>
		<path class="st47" d="M845.6,100.1c0-9.5-8.2-17.2-18.4-17.2s-18.4,7.7-18.4,17.2s8.2,17.1,18.4,17.1
			C837.3,117.2,845.6,109.6,845.6,100.1L845.6,100.1z"/>
		<polygon class="st46" points="814.7,99.1 822.3,96.1 823,98.1 817.4,100.1 823,102.1 822.3,104.1 814.7,101.1 		"/>
		<polygon class="st47" points="814.7,99.1 822.3,96.1 823,98.1 817.4,100.1 823,102.1 822.3,104.1 814.7,101.1 		"/>
		<polygon class="st46" points="826.1,108.1 823.4,108.1 829.4,92.2 832,92.2 		"/>
		<polygon class="st47" points="826.1,108.1 823.4,108.1 829.4,92.2 832,92.2 		"/>
		<polygon class="st46" points="840.7,101.1 833.1,104.1 832.4,102.1 838,100.1 832.4,98.1 833.1,96.1 840.7,99.1 		"/>
		<polygon class="st47" points="840.7,101.1 833.1,104.1 832.4,102.1 838,100.1 832.4,98.1 833.1,96.1 840.7,99.1 		"/>
		<path class="st46" d="M815.9,69.2c0-11.2-9.8-20.4-21.9-20.4c-12.1,0-21.9,9.1-21.9,20.4s9.8,20.4,21.9,20.4
			C806.2,89.6,815.9,80.5,815.9,69.2z"/>
		<path class="st47" d="M815.9,69.2c0-11.2-9.8-20.4-21.9-20.4c-12.1,0-21.9,9.1-21.9,20.4s9.8,20.4,21.9,20.4
			C806.2,89.6,815.9,80.5,815.9,69.2z"/>
		<path class="st46" d="M782.8,65.6c0.1,0.3,0.2,0.7,0.3,1.1s0.2,0.8,0.4,1.2c0.1,0.4,0.3,0.9,0.4,1.3s0.3,0.8,0.4,1.2
			c0.1-0.4,0.2-0.8,0.3-1.3s0.2-0.9,0.3-1.4s0.2-1,0.3-1.5s0.2-1,0.3-1.4h2c-0.3,1.3-0.6,2.7-1,4.1s-0.8,2.7-1.2,3.9h-1.8
			c-0.3-0.7-0.6-1.5-0.8-2.3c-0.3-0.8-0.5-1.6-0.8-2.4c-0.3,0.8-0.5,1.6-0.8,2.4s-0.5,1.6-0.8,2.3h-1.8c-0.4-1.2-0.9-2.6-1.2-3.9
			c-0.4-1.4-0.7-2.7-1-4.1h2.1c0.1,0.5,0.2,0.9,0.3,1.4s0.2,1,0.3,1.5s0.2,1,0.3,1.4c0.1,0.5,0.2,0.9,0.3,1.3
			c0.1-0.4,0.3-0.7,0.4-1.2c0.1-0.5,0.3-0.8,0.4-1.3c0.1-0.4,0.3-0.8,0.4-1.2c0.1-0.4,0.2-0.7,0.3-1L782.8,65.6L782.8,65.6z"/>
		<path class="st47" d="M782.8,65.6c0.1,0.3,0.2,0.7,0.3,1.1s0.2,0.8,0.4,1.2c0.1,0.4,0.3,0.9,0.4,1.3s0.3,0.8,0.4,1.2
			c0.1-0.4,0.2-0.8,0.3-1.3s0.2-0.9,0.3-1.4s0.2-1,0.3-1.5s0.2-1,0.3-1.4h2c-0.3,1.3-0.6,2.7-1,4.1s-0.8,2.7-1.2,3.9h-1.8
			c-0.3-0.7-0.6-1.5-0.8-2.3c-0.3-0.8-0.5-1.6-0.8-2.4c-0.3,0.8-0.5,1.6-0.8,2.4s-0.5,1.6-0.8,2.3h-1.8c-0.4-1.2-0.9-2.6-1.2-3.9
			c-0.4-1.4-0.7-2.7-1-4.1h2.1c0.1,0.5,0.2,0.9,0.3,1.4s0.2,1,0.3,1.5s0.2,1,0.3,1.4c0.1,0.5,0.2,0.9,0.3,1.3
			c0.1-0.4,0.3-0.7,0.4-1.2c0.1-0.5,0.3-0.8,0.4-1.3c0.1-0.4,0.3-0.8,0.4-1.2c0.1-0.4,0.2-0.7,0.3-1L782.8,65.6L782.8,65.6z"/>
		<path class="st46" d="M794.9,65.6c0.1,0.3,0.2,0.7,0.3,1.1s0.2,0.8,0.4,1.2c0.1,0.4,0.3,0.9,0.4,1.3c0.1,0.4,0.3,0.8,0.4,1.2
			c0.1-0.4,0.2-0.8,0.3-1.3s0.2-0.9,0.3-1.4s0.2-1,0.3-1.5s0.2-1,0.3-1.4h2c-0.3,1.3-0.6,2.7-1,4.1s-0.8,2.7-1.2,3.9h-1.8
			c-0.3-0.7-0.6-1.5-0.8-2.3l-0.8-2.4l-0.8,2.5c-0.3,0.8-0.5,1.6-0.8,2.3h-1.8c-0.4-1.2-0.9-2.6-1.2-3.9c-0.4-1.4-0.7-2.7-1-4.1h2.1
			c0.1,0.5,0.2,0.9,0.3,1.4s0.2,1,0.3,1.5s0.2,1,0.3,1.4c0.1,0.5,0.2,0.9,0.3,1.3c0.1-0.4,0.3-0.7,0.4-1.2c0.1-0.5,0.3-0.8,0.4-1.3
			s0.3-0.8,0.4-1.2s0.2-0.7,0.3-1L794.9,65.6z"/>
		<path class="st47" d="M794.9,65.6c0.1,0.3,0.2,0.7,0.3,1.1s0.2,0.8,0.4,1.2c0.1,0.4,0.3,0.9,0.4,1.3c0.1,0.4,0.3,0.8,0.4,1.2
			c0.1-0.4,0.2-0.8,0.3-1.3s0.2-0.9,0.3-1.4s0.2-1,0.3-1.5s0.2-1,0.3-1.4h2c-0.3,1.3-0.6,2.7-1,4.1s-0.8,2.7-1.2,3.9h-1.8
			c-0.3-0.7-0.6-1.5-0.8-2.3l-0.8-2.4l-0.8,2.5c-0.3,0.8-0.5,1.6-0.8,2.3h-1.8c-0.4-1.2-0.9-2.6-1.2-3.9c-0.4-1.4-0.7-2.7-1-4.1h2.1
			c0.1,0.5,0.2,0.9,0.3,1.4s0.2,1,0.3,1.5s0.2,1,0.3,1.4c0.1,0.5,0.2,0.9,0.3,1.3c0.1-0.4,0.3-0.7,0.4-1.2c0.1-0.5,0.3-0.8,0.4-1.3
			s0.3-0.8,0.4-1.2s0.2-0.7,0.3-1L794.9,65.6z"/>
		<path class="st46" d="M807,65.6c0.1,0.3,0.2,0.7,0.3,1.1s0.2,0.8,0.4,1.2c0.1,0.4,0.3,0.9,0.4,1.3c0.1,0.4,0.3,0.8,0.4,1.2
			c0.1-0.4,0.2-0.8,0.3-1.3s0.2-0.9,0.3-1.4l0.3-1.5c0.1-0.5,0.2-1,0.3-1.4h2c-0.3,1.3-0.6,2.7-1,4.1s-0.8,2.7-1.2,3.9h-1.8
			c-0.3-0.7-0.6-1.5-0.8-2.3c-0.3-0.8-0.5-1.6-0.8-2.4l-0.8,2.5c-0.3,0.8-0.5,1.6-0.8,2.3h-1.8c-0.4-1.2-0.9-2.6-1.2-3.9
			c-0.4-1.4-0.7-2.7-1-4.1h2.1c0.1,0.5,0.2,0.9,0.3,1.4s0.2,1,0.3,1.5s0.2,1,0.3,1.4s0.2,0.9,0.3,1.3c0.2-0.4,0.3-0.7,0.4-1.2
			c0.1-0.5,0.3-0.8,0.4-1.3c0.1-0.4,0.3-0.8,0.4-1.2s0.2-0.7,0.3-1L807,65.6z"/>
		<path class="st47" d="M807,65.6c0.1,0.3,0.2,0.7,0.3,1.1s0.2,0.8,0.4,1.2c0.1,0.4,0.3,0.9,0.4,1.3c0.1,0.4,0.3,0.8,0.4,1.2
			c0.1-0.4,0.2-0.8,0.3-1.3s0.2-0.9,0.3-1.4l0.3-1.5c0.1-0.5,0.2-1,0.3-1.4h2c-0.3,1.3-0.6,2.7-1,4.1s-0.8,2.7-1.2,3.9h-1.8
			c-0.3-0.7-0.6-1.5-0.8-2.3c-0.3-0.8-0.5-1.6-0.8-2.4l-0.8,2.5c-0.3,0.8-0.5,1.6-0.8,2.3h-1.8c-0.4-1.2-0.9-2.6-1.2-3.9
			c-0.4-1.4-0.7-2.7-1-4.1h2.1c0.1,0.5,0.2,0.9,0.3,1.4s0.2,1,0.3,1.5s0.2,1,0.3,1.4s0.2,0.9,0.3,1.3c0.2-0.4,0.3-0.7,0.4-1.2
			c0.1-0.5,0.3-0.8,0.4-1.3c0.1-0.4,0.3-0.8,0.4-1.2s0.2-0.7,0.3-1L807,65.6z"/>
		<path class="st46" d="M793,129.3c0-6.7-5.8-12-12.9-12c-7.1,0-12.9,5.4-12.9,12c0,6.7,5.8,12,12.9,12S793,135.9,793,129.3z"/>
		<path class="st47" d="M793,129.3c0-6.7-5.8-12-12.9-12c-7.1,0-12.9,5.4-12.9,12c0,6.7,5.8,12,12.9,12S793,135.9,793,129.3z"/>
		<path class="st46" d="M766.3,158.9c0-3.3-2.9-6-6.5-6s-6.5,2.7-6.5,6s2.9,6,6.5,6S766.3,162.2,766.3,158.9z"/>
		<path class="st47" d="M766.3,158.9c0-3.3-2.9-6-6.5-6s-6.5,2.7-6.5,6s2.9,6,6.5,6S766.3,162.2,766.3,158.9z"/>
		<path class="st46" d="M768.4,190.3c0.2-1.8-0.9-3.4-2.6-3.6c-1.6-0.2-3.2,1-3.4,2.8s0.9,3.4,2.6,3.6c0.1,0,0.3,0,0.4,0
			C766.9,193.2,768.3,192,768.4,190.3z"/>
		<path class="st47" d="M768.4,190.3c0.2-1.8-0.9-3.4-2.6-3.6c-1.6-0.2-3.2,1-3.4,2.8s0.9,3.4,2.6,3.6c0.1,0,0.3,0,0.4,0
			C766.9,193.2,768.3,192,768.4,190.3z"/>
		<path class="st46" d="M821.8,131.7c0-8-7-14.5-15.5-14.5s-15.5,6.5-15.5,14.5s7,14.5,15.5,14.5S821.8,139.7,821.8,131.7z"/>
		<path class="st47" d="M821.8,131.7c0-8-7-14.5-15.5-14.5s-15.5,6.5-15.5,14.5s7,14.5,15.5,14.5S821.8,139.7,821.8,131.7z"/>
		<polygon class="st46" points="799.3,128.5 800.6,128.5 800.6,134.1 799.3,134.1 799.3,131.7 797,131.7 797,134.1 795.7,134.1 
			795.7,128.5 797,128.5 797,130.6 799.3,130.6 		"/>
		<polygon class="st47" points="799.3,128.5 800.6,128.5 800.6,134.1 799.3,134.1 799.3,131.7 797,131.7 797,134.1 795.7,134.1 
			795.7,128.5 797,128.5 797,130.6 799.3,130.6 		"/>
		<polygon class="st46" points="806.5,128.5 806.5,129.6 804.7,129.6 804.7,134.1 803.3,134.1 803.3,129.6 801.5,129.6 801.5,128.5 
					"/>
		<polygon class="st47" points="806.5,128.5 806.5,129.6 804.7,129.6 804.7,134.1 803.3,134.1 803.3,129.6 801.5,129.6 801.5,128.5 
					"/>
		<path class="st46" d="M808.9,128.5c0.1,0.2,0.2,0.4,0.4,0.7c0.1,0.3,0.3,0.5,0.4,0.9c0.1,0.3,0.3,0.6,0.4,0.9
			c0.1,0.3,0.3,0.6,0.4,0.9l0.4-0.9c0.1-0.3,0.3-0.6,0.4-0.9c0.1-0.3,0.3-0.6,0.4-0.9c0.1-0.3,0.3-0.5,0.4-0.7h1.2
			c0.1,0.4,0.1,0.7,0.2,1.3s0.1,0.9,0.1,1.4l0.1,1.5c0,0.5,0.1,1,0.1,1.4h-1.3c0-0.5,0-1.1-0.1-1.8c-0.1-0.6-0.1-1.3-0.1-1.9
			l-0.3,0.7c-0.1,0.3-0.3,0.6-0.4,0.8c-0.1,0.3-0.2,0.5-0.4,0.8c-0.1,0.3-0.2,0.5-0.3,0.6h-1c-0.1-0.2-0.2-0.4-0.3-0.6
			c-0.1-0.3-0.2-0.5-0.4-0.8l-0.4-0.8l-0.3-0.7c-0.1,0.7-0.1,1.3-0.1,1.9c0,0.6,0,1.2-0.1,1.8H807c0-0.4,0-0.9,0.1-1.4
			c0-0.5,0.1-1,0.1-1.5s0.1-1,0.1-1.4c0-0.5,0.1-0.9,0.2-1.3H808.9z"/>
		<path class="st47" d="M808.9,128.5c0.1,0.2,0.2,0.4,0.4,0.7c0.1,0.3,0.3,0.5,0.4,0.9c0.1,0.3,0.3,0.6,0.4,0.9
			c0.1,0.3,0.3,0.6,0.4,0.9l0.4-0.9c0.1-0.3,0.3-0.6,0.4-0.9c0.1-0.3,0.3-0.6,0.4-0.9c0.1-0.3,0.3-0.5,0.4-0.7h1.2
			c0.1,0.4,0.1,0.7,0.2,1.3s0.1,0.9,0.1,1.4l0.1,1.5c0,0.5,0.1,1,0.1,1.4h-1.3c0-0.5,0-1.1-0.1-1.8c-0.1-0.6-0.1-1.3-0.1-1.9
			l-0.3,0.7c-0.1,0.3-0.3,0.6-0.4,0.8c-0.1,0.3-0.2,0.5-0.4,0.8c-0.1,0.3-0.2,0.5-0.3,0.6h-1c-0.1-0.2-0.2-0.4-0.3-0.6
			c-0.1-0.3-0.2-0.5-0.4-0.8l-0.4-0.8l-0.3-0.7c-0.1,0.7-0.1,1.3-0.1,1.9c0,0.6,0,1.2-0.1,1.8H807c0-0.4,0-0.9,0.1-1.4
			c0-0.5,0.1-1,0.1-1.5s0.1-1,0.1-1.4c0-0.5,0.1-0.9,0.2-1.3H808.9z"/>
		<polygon class="st46" points="819.1,133 819.1,134.1 815.1,134.1 815.1,128.5 816.4,128.5 816.4,133 		"/>
		<polygon class="st47" points="819.1,133 819.1,134.1 815.1,134.1 815.1,128.5 816.4,128.5 816.4,133 		"/>
		<path class="st46" d="M788.3,143.8c0-6.4-5.5-11.5-12.4-11.5c-6.8,0-12.4,5.2-12.4,11.5s5.5,11.5,12.4,11.5
			S788.3,150.2,788.3,143.8L788.3,143.8z"/>
		<path class="st47" d="M788.3,143.8c0-6.4-5.5-11.5-12.4-11.5c-6.8,0-12.4,5.2-12.4,11.5s5.5,11.5,12.4,11.5
			S788.3,150.2,788.3,143.8L788.3,143.8z"/>
		<path class="st46" d="M771.3,146.8c-0.8,0.1-1.7-0.2-2.3-0.8s-0.9-1.4-0.8-2.2c0-0.4,0.1-0.9,0.2-1.3c0.2-0.4,0.4-0.7,0.7-1
			s0.6-0.5,1-0.6s0.8-0.2,1.3-0.2c0.2,0,0.5,0,0.7,0.1c0.2,0,0.4,0.1,0.6,0.1c0.1,0,0.3,0.1,0.4,0.1c0.1,0,0.2,0.1,0.2,0.1l-0.4,1.1
			c-0.2-0.1-0.4-0.2-0.7-0.2c-0.3-0.1-0.6-0.1-0.9-0.1c-0.2,0-0.4,0-0.6,0.1c-0.2,0.1-0.4,0.2-0.5,0.3c-0.2,0.2-0.3,0.4-0.4,0.6
			c-0.1,0.3-0.1,0.6-0.1,0.9c0,0.3,0,0.5,0.1,0.7s0.2,0.4,0.3,0.6c0.2,0.2,0.3,0.3,0.6,0.4c0.3,0.1,0.5,0.2,0.8,0.1
			c0.2,0,0.4,0,0.6,0c0.2,0,0.3,0,0.4-0.1c0.1,0,0.2-0.1,0.3-0.1l0.3-0.1l0.4,1c-0.3,0.1-0.5,0.2-0.8,0.3
			C772.1,146.8,771.7,146.8,771.3,146.8L771.3,146.8z"/>
		<path class="st47" d="M771.3,146.8c-0.8,0.1-1.7-0.2-2.3-0.8s-0.9-1.4-0.8-2.2c0-0.4,0.1-0.9,0.2-1.3c0.2-0.4,0.4-0.7,0.7-1
			s0.6-0.5,1-0.6s0.8-0.2,1.3-0.2c0.2,0,0.5,0,0.7,0.1c0.2,0,0.4,0.1,0.6,0.1c0.1,0,0.3,0.1,0.4,0.1c0.1,0,0.2,0.1,0.2,0.1l-0.4,1.1
			c-0.2-0.1-0.4-0.2-0.7-0.2c-0.3-0.1-0.6-0.1-0.9-0.1c-0.2,0-0.4,0-0.6,0.1c-0.2,0.1-0.4,0.2-0.5,0.3c-0.2,0.2-0.3,0.4-0.4,0.6
			c-0.1,0.3-0.1,0.6-0.1,0.9c0,0.3,0,0.5,0.1,0.7s0.2,0.4,0.3,0.6c0.2,0.2,0.3,0.3,0.6,0.4c0.3,0.1,0.5,0.2,0.8,0.1
			c0.2,0,0.4,0,0.6,0c0.2,0,0.3,0,0.4-0.1c0.1,0,0.2-0.1,0.3-0.1l0.3-0.1l0.4,1c-0.3,0.1-0.5,0.2-0.8,0.3
			C772.1,146.8,771.7,146.8,771.3,146.8L771.3,146.8z"/>
		<path class="st46" d="M776.1,145.7c0.2,0,0.3,0,0.5,0c0.1,0,0.2-0.1,0.3-0.1s0.1-0.1,0.2-0.2c0-0.1,0-0.2,0-0.2
			c0-0.2-0.1-0.4-0.3-0.5c-0.3-0.2-0.6-0.3-1-0.4c-0.2-0.1-0.4-0.1-0.6-0.2c-0.2-0.1-0.4-0.2-0.6-0.3c-0.2-0.1-0.3-0.3-0.4-0.5
			c-0.1-0.2-0.2-0.4-0.2-0.7s0-0.5,0.2-0.7c0.1-0.2,0.3-0.4,0.5-0.5c0.2-0.2,0.5-0.3,0.7-0.4c0.3-0.1,0.6-0.1,1-0.1s0.7,0,1.1,0.1
			c0.3,0.1,0.5,0.2,0.8,0.3l-0.4,1c-0.2-0.1-0.4-0.2-0.6-0.2c-0.3-0.1-0.5-0.1-0.8-0.1c-0.2,0-0.5,0-0.7,0.1
			c-0.1,0.1-0.2,0.2-0.2,0.4c0,0.1,0,0.2,0.1,0.3s0.1,0.1,0.2,0.2c0.1,0.1,0.2,0.1,0.3,0.2l0.4,0.1c0.3,0.1,0.6,0.2,0.8,0.3
			s0.4,0.2,0.6,0.4c0.2,0.1,0.3,0.3,0.4,0.5c0.1,0.2,0.1,0.5,0.1,0.7c0,0.5-0.2,1-0.6,1.3c-0.6,0.3-1.2,0.5-1.8,0.4
			c-0.2,0-0.5,0-0.7-0.1c-0.2,0-0.4-0.1-0.6-0.1c-0.2,0-0.3-0.1-0.4-0.1l-0.3-0.1l0.4-1c0.2,0.1,0.5,0.2,0.7,0.3
			C775.5,145.7,775.8,145.7,776.1,145.7L776.1,145.7z"/>
		<path class="st47" d="M776.1,145.7c0.2,0,0.3,0,0.5,0c0.1,0,0.2-0.1,0.3-0.1s0.1-0.1,0.2-0.2c0-0.1,0-0.2,0-0.2
			c0-0.2-0.1-0.4-0.3-0.5c-0.3-0.2-0.6-0.3-1-0.4c-0.2-0.1-0.4-0.1-0.6-0.2c-0.2-0.1-0.4-0.2-0.6-0.3c-0.2-0.1-0.3-0.3-0.4-0.5
			c-0.1-0.2-0.2-0.4-0.2-0.7s0-0.5,0.2-0.7c0.1-0.2,0.3-0.4,0.5-0.5c0.2-0.2,0.5-0.3,0.7-0.4c0.3-0.1,0.6-0.1,1-0.1s0.7,0,1.1,0.1
			c0.3,0.1,0.5,0.2,0.8,0.3l-0.4,1c-0.2-0.1-0.4-0.2-0.6-0.2c-0.3-0.1-0.5-0.1-0.8-0.1c-0.2,0-0.5,0-0.7,0.1
			c-0.1,0.1-0.2,0.2-0.2,0.4c0,0.1,0,0.2,0.1,0.3s0.1,0.1,0.2,0.2c0.1,0.1,0.2,0.1,0.3,0.2l0.4,0.1c0.3,0.1,0.6,0.2,0.8,0.3
			s0.4,0.2,0.6,0.4c0.2,0.1,0.3,0.3,0.4,0.5c0.1,0.2,0.1,0.5,0.1,0.7c0,0.5-0.2,1-0.6,1.3c-0.6,0.3-1.2,0.5-1.8,0.4
			c-0.2,0-0.5,0-0.7-0.1c-0.2,0-0.4-0.1-0.6-0.1c-0.2,0-0.3-0.1-0.4-0.1l-0.3-0.1l0.4-1c0.2,0.1,0.5,0.2,0.7,0.3
			C775.5,145.7,775.8,145.7,776.1,145.7L776.1,145.7z"/>
		<path class="st46" d="M781.4,145.7c0.2,0,0.3,0,0.5,0c0.1,0,0.2-0.1,0.3-0.1s0.1-0.1,0.2-0.2c0-0.1,0-0.2,0-0.2
			c0-0.2-0.1-0.4-0.3-0.5c-0.3-0.2-0.6-0.3-1-0.4c-0.2-0.1-0.4-0.1-0.6-0.2c-0.2-0.1-0.4-0.2-0.6-0.3c-0.2-0.1-0.3-0.3-0.4-0.5
			c-0.1-0.2-0.2-0.4-0.2-0.7c0-0.5,0.2-1,0.6-1.3c0.2-0.2,0.5-0.3,0.7-0.4c0.3-0.1,0.6-0.1,1-0.1s0.7,0,1.1,0.1
			c0.3,0.1,0.5,0.2,0.8,0.3l-0.4,1c-0.2-0.1-0.4-0.2-0.6-0.2c-0.3-0.1-0.5-0.1-0.8-0.1c-0.2,0-0.5,0-0.7,0.1
			c-0.1,0.1-0.2,0.2-0.2,0.4c0,0.1,0,0.2,0.1,0.3s0.1,0.1,0.2,0.2c0.1,0.1,0.2,0.1,0.3,0.2c0.1,0.1,0.3,0.1,0.4,0.1
			c0.3,0.1,0.6,0.2,0.8,0.3s0.4,0.2,0.6,0.4c0.2,0.1,0.3,0.3,0.4,0.5c0.1,0.2,0.1,0.5,0.1,0.7c0,0.5-0.2,1-0.6,1.3
			c-0.6,0.3-1.2,0.5-1.8,0.4c-0.2,0-0.5,0-0.7-0.1c-0.2,0-0.4-0.1-0.6-0.1c-0.1,0-0.3-0.1-0.4-0.1l-0.3-0.1l0.4-1
			c0.2,0.1,0.5,0.2,0.7,0.3C780.7,145.7,781.1,145.7,781.4,145.7L781.4,145.7z"/>
		<path class="st47" d="M781.4,145.7c0.2,0,0.3,0,0.5,0c0.1,0,0.2-0.1,0.3-0.1s0.1-0.1,0.2-0.2c0-0.1,0-0.2,0-0.2
			c0-0.2-0.1-0.4-0.3-0.5c-0.3-0.2-0.6-0.3-1-0.4c-0.2-0.1-0.4-0.1-0.6-0.2c-0.2-0.1-0.4-0.2-0.6-0.3c-0.2-0.1-0.3-0.3-0.4-0.5
			c-0.1-0.2-0.2-0.4-0.2-0.7c0-0.5,0.2-1,0.6-1.3c0.2-0.2,0.5-0.3,0.7-0.4c0.3-0.1,0.6-0.1,1-0.1s0.7,0,1.1,0.1
			c0.3,0.1,0.5,0.2,0.8,0.3l-0.4,1c-0.2-0.1-0.4-0.2-0.6-0.2c-0.3-0.1-0.5-0.1-0.8-0.1c-0.2,0-0.5,0-0.7,0.1
			c-0.1,0.1-0.2,0.2-0.2,0.4c0,0.1,0,0.2,0.1,0.3s0.1,0.1,0.2,0.2c0.1,0.1,0.2,0.1,0.3,0.2c0.1,0.1,0.3,0.1,0.4,0.1
			c0.3,0.1,0.6,0.2,0.8,0.3s0.4,0.2,0.6,0.4c0.2,0.1,0.3,0.3,0.4,0.5c0.1,0.2,0.1,0.5,0.1,0.7c0,0.5-0.2,1-0.6,1.3
			c-0.6,0.3-1.2,0.5-1.8,0.4c-0.2,0-0.5,0-0.7-0.1c-0.2,0-0.4-0.1-0.6-0.1c-0.1,0-0.3-0.1-0.4-0.1l-0.3-0.1l0.4-1
			c0.2,0.1,0.5,0.2,0.7,0.3C780.7,145.7,781.1,145.7,781.4,145.7L781.4,145.7z"/>
		<path class="st46" d="M796.6,161.2c0-5.6-4.9-10.2-10.9-10.2s-11,4.6-11,10.2c0,5.6,4.9,10.2,11,10.2S796.6,166.8,796.6,161.2z"/>
		<path class="st47" d="M796.6,161.2c0-5.6-4.9-10.2-10.9-10.2s-11,4.6-11,10.2c0,5.6,4.9,10.2,11,10.2S796.6,166.8,796.6,161.2z"/>
		<path class="st46" d="M780.3,159.5H780h-0.2v1.5h0.4c0.3,0,0.7,0,1-0.2c0.2-0.1,0.3-0.4,0.3-0.6c0-0.1,0-0.2-0.1-0.4
			c-0.1-0.1-0.1-0.2-0.2-0.2c-0.1-0.1-0.2-0.1-0.4-0.1S780.4,159.5,780.3,159.5L780.3,159.5z M780.2,158.5c0.7,0,1.3,0.1,1.9,0.4
			c0.4,0.3,0.7,0.8,0.7,1.3s-0.2,1.1-0.7,1.3c-0.6,0.3-1.3,0.5-1.9,0.4h-0.4v1.7h-1.2v-5.1c0.3,0,0.6-0.1,0.9-0.1
			C779.7,158.5,780,158.5,780.2,158.5L780.2,158.5z"/>
		<path class="st47" d="M780.3,159.5H780h-0.2v1.5h0.4c0.3,0,0.7,0,1-0.2c0.2-0.1,0.3-0.4,0.3-0.6c0-0.1,0-0.2-0.1-0.4
			c-0.1-0.1-0.1-0.2-0.2-0.2c-0.1-0.1-0.2-0.1-0.4-0.1S780.4,159.5,780.3,159.5L780.3,159.5z M780.2,158.5c0.7,0,1.3,0.1,1.9,0.4
			c0.4,0.3,0.7,0.8,0.7,1.3s-0.2,1.1-0.7,1.3c-0.6,0.3-1.3,0.5-1.9,0.4h-0.4v1.7h-1.2v-5.1c0.3,0,0.6-0.1,0.9-0.1
			C779.7,158.5,780,158.5,780.2,158.5L780.2,158.5z"/>
		<polygon class="st46" points="787,158.5 788.3,158.5 788.3,163.7 787,163.7 787,161.5 784.9,161.5 784.9,163.7 783.7,163.7 
			783.7,158.5 784.9,158.5 784.9,160.5 787,160.5 		"/>
		<polygon class="st47" points="787,158.5 788.3,158.5 788.3,163.7 787,163.7 787,161.5 784.9,161.5 784.9,163.7 783.7,163.7 
			783.7,158.5 784.9,158.5 784.9,160.5 787,160.5 		"/>
		<path class="st46" d="M791.3,159.5H791h-0.2v1.5h0.4c0.3,0,0.7,0,1-0.2c0.2-0.1,0.4-0.4,0.3-0.6c0-0.1,0-0.2-0.1-0.4
			c-0.1-0.1-0.1-0.2-0.2-0.2c-0.1-0.1-0.2-0.1-0.4-0.1S791.4,159.5,791.3,159.5L791.3,159.5z M791.2,158.5c0.7,0,1.3,0.1,1.9,0.4
			c0.7,0.5,0.9,1.5,0.4,2.2c-0.1,0.2-0.2,0.3-0.4,0.4c-0.6,0.3-1.3,0.5-1.9,0.4h-0.4v1.7h-1.2v-5.1c0.3,0,0.6-0.1,0.9-0.1
			C790.7,158.5,790.9,158.5,791.2,158.5L791.2,158.5z"/>
		<path class="st47" d="M791.3,159.5H791h-0.2v1.5h0.4c0.3,0,0.7,0,1-0.2c0.2-0.1,0.4-0.4,0.3-0.6c0-0.1,0-0.2-0.1-0.4
			c-0.1-0.1-0.1-0.2-0.2-0.2c-0.1-0.1-0.2-0.1-0.4-0.1S791.4,159.5,791.3,159.5L791.3,159.5z M791.2,158.5c0.7,0,1.3,0.1,1.9,0.4
			c0.7,0.5,0.9,1.5,0.4,2.2c-0.1,0.2-0.2,0.3-0.4,0.4c-0.6,0.3-1.3,0.5-1.9,0.4h-0.4v1.7h-1.2v-5.1c0.3,0,0.6-0.1,0.9-0.1
			C790.7,158.5,790.9,158.5,791.2,158.5L791.2,158.5z"/>
		<path class="st46" d="M775.6,179.5c0-4.1-3.5-7.4-7.9-7.4s-7.9,3.3-7.9,7.4s3.5,7.4,7.9,7.4S775.6,183.6,775.6,179.5z"/>
		<path class="st47" d="M775.6,179.5c0-4.1-3.5-7.4-7.9-7.4s-7.9,3.3-7.9,7.4s3.5,7.4,7.9,7.4S775.6,183.6,775.6,179.5z"/>
		<path class="st46" d="M766.6,180.3c0,0.3,0,0.5-0.1,0.8c-0.1,0.2-0.2,0.5-0.4,0.7s-0.4,0.4-0.7,0.4c-0.4,0.1-0.7,0.2-1.1,0.2
			c-0.4,0-0.7,0-1.1-0.1c-0.2-0.1-0.5-0.2-0.7-0.3l0.5-1c0.2,0.1,0.4,0.2,0.6,0.2c0.2,0.1,0.4,0.1,0.6,0.1c0.4,0.1,0.9-0.2,1-0.7
			c0-0.1,0-0.2,0-0.3v-3.8h1.4V180.3L766.6,180.3z"/>
		<path class="st47" d="M766.6,180.3c0,0.3,0,0.5-0.1,0.8c-0.1,0.2-0.2,0.5-0.4,0.7s-0.4,0.4-0.7,0.4c-0.4,0.1-0.7,0.2-1.1,0.2
			c-0.4,0-0.7,0-1.1-0.1c-0.2-0.1-0.5-0.2-0.7-0.3l0.5-1c0.2,0.1,0.4,0.2,0.6,0.2c0.2,0.1,0.4,0.1,0.6,0.1c0.4,0.1,0.9-0.2,1-0.7
			c0-0.1,0-0.2,0-0.3v-3.8h1.4V180.3L766.6,180.3z"/>
		<path class="st46" d="M769.7,181.3c0.2,0,0.3,0,0.5,0c0.1,0,0.2-0.1,0.3-0.1s0.1-0.1,0.2-0.2c0-0.1,0-0.2,0-0.2
			c0-0.2-0.1-0.4-0.3-0.5c-0.3-0.2-0.6-0.3-1-0.4c-0.2-0.1-0.4-0.1-0.6-0.2c-0.2-0.1-0.4-0.2-0.6-0.3c-0.2-0.1-0.3-0.3-0.4-0.5
			c-0.1-0.2-0.2-0.4-0.2-0.7s0.1-0.5,0.2-0.7c0.1-0.2,0.3-0.4,0.5-0.5c0.2-0.2,0.5-0.3,0.7-0.4c0.3-0.1,0.6-0.1,1-0.1s0.7,0,1.1,0.1
			c0.3,0.1,0.5,0.2,0.8,0.3l-0.4,1c-0.2-0.1-0.4-0.2-0.6-0.2c-0.3-0.1-0.5-0.1-0.8-0.1c-0.2,0-0.5,0-0.7,0.1s-0.3,0.4-0.2,0.6l0,0
			c0.1,0.1,0.1,0.2,0.2,0.2c0.1,0.1,0.2,0.1,0.3,0.2l0.4,0.1c0.3,0.1,0.6,0.2,0.8,0.3s0.4,0.2,0.6,0.4c0.2,0.1,0.3,0.3,0.4,0.5
			c0.1,0.2,0.1,0.5,0.1,0.7c0,0.5-0.2,1-0.6,1.3c-0.6,0.3-1.2,0.5-1.8,0.4c-0.2,0-0.5,0-0.7,0s-0.4-0.1-0.6-0.1
			c-0.2,0-0.3-0.1-0.4-0.1l-0.3-0.1l0.4-1c0.2,0.1,0.5,0.2,0.7,0.3C769,181.2,769.4,181.2,769.7,181.3L769.7,181.3z"/>
		<path class="st47" d="M769.7,181.3c0.2,0,0.3,0,0.5,0c0.1,0,0.2-0.1,0.3-0.1s0.1-0.1,0.2-0.2c0-0.1,0-0.2,0-0.2
			c0-0.2-0.1-0.4-0.3-0.5c-0.3-0.2-0.6-0.3-1-0.4c-0.2-0.1-0.4-0.1-0.6-0.2c-0.2-0.1-0.4-0.2-0.6-0.3c-0.2-0.1-0.3-0.3-0.4-0.5
			c-0.1-0.2-0.2-0.4-0.2-0.7s0.1-0.5,0.2-0.7c0.1-0.2,0.3-0.4,0.5-0.5c0.2-0.2,0.5-0.3,0.7-0.4c0.3-0.1,0.6-0.1,1-0.1s0.7,0,1.1,0.1
			c0.3,0.1,0.5,0.2,0.8,0.3l-0.4,1c-0.2-0.1-0.4-0.2-0.6-0.2c-0.3-0.1-0.5-0.1-0.8-0.1c-0.2,0-0.5,0-0.7,0.1s-0.3,0.4-0.2,0.6l0,0
			c0.1,0.1,0.1,0.2,0.2,0.2c0.1,0.1,0.2,0.1,0.3,0.2l0.4,0.1c0.3,0.1,0.6,0.2,0.8,0.3s0.4,0.2,0.6,0.4c0.2,0.1,0.3,0.3,0.4,0.5
			c0.1,0.2,0.1,0.5,0.1,0.7c0,0.5-0.2,1-0.6,1.3c-0.6,0.3-1.2,0.5-1.8,0.4c-0.2,0-0.5,0-0.7,0s-0.4-0.1-0.6-0.1
			c-0.2,0-0.3-0.1-0.4-0.1l-0.3-0.1l0.4-1c0.2,0.1,0.5,0.2,0.7,0.3C769,181.2,769.4,181.2,769.7,181.3L769.7,181.3z"/>
		<path class="st46" d="M780.1,196.2c0-2.7-2.4-5-5.3-5s-5.3,2.2-5.3,5s2.4,5,5.3,5S780.1,198.9,780.1,196.2z"/>
		<path class="st47" d="M780.1,196.2c0-2.7-2.4-5-5.3-5s-5.3,2.2-5.3,5s2.4,5,5.3,5S780.1,198.9,780.1,196.2z"/>
		<path class="st46" d="M772.4,195.9c0.1,0,0.3,0,0.4-0.1c0.1-0.1,0.1-0.2,0.1-0.4v-0.9c0-0.1,0-0.3,0.1-0.4c0-0.1,0.1-0.2,0.2-0.3
			c0.1-0.1,0.3-0.2,0.4-0.2c0.2,0,0.4-0.1,0.6-0.1h0.1v0.7h-0.1c-0.1,0-0.3,0-0.4,0.1c-0.1,0.1-0.1,0.2-0.1,0.4v0.7
			c0,0.2,0,0.3-0.1,0.5c-0.2,0-0.3,0.2-0.3,0.4s0.1,0.4,0.3,0.4c0.1,0.2,0.1,0.3,0.1,0.5v0.7c0,0.1,0,0.3,0.1,0.4
			c0.1,0.1,0.2,0.1,0.4,0.1h0.1v0.7h-0.1c-0.2,0-0.4,0-0.6-0.1c-0.1,0-0.3-0.1-0.4-0.2c-0.1-0.1-0.2-0.2-0.2-0.3
			c-0.1-0.1-0.1-0.3-0.1-0.4v-0.9c0-0.1,0-0.3-0.1-0.4c-0.1-0.1-0.2-0.2-0.4-0.1V195.9L772.4,195.9z"/>
		<path class="st47" d="M772.4,195.9c0.1,0,0.3,0,0.4-0.1c0.1-0.1,0.1-0.2,0.1-0.4v-0.9c0-0.1,0-0.3,0.1-0.4c0-0.1,0.1-0.2,0.2-0.3
			c0.1-0.1,0.3-0.2,0.4-0.2c0.2,0,0.4-0.1,0.6-0.1h0.1v0.7h-0.1c-0.1,0-0.3,0-0.4,0.1c-0.1,0.1-0.1,0.2-0.1,0.4v0.7
			c0,0.2,0,0.3-0.1,0.5c-0.2,0-0.3,0.2-0.3,0.4s0.1,0.4,0.3,0.4c0.1,0.2,0.1,0.3,0.1,0.5v0.7c0,0.1,0,0.3,0.1,0.4
			c0.1,0.1,0.2,0.1,0.4,0.1h0.1v0.7h-0.1c-0.2,0-0.4,0-0.6-0.1c-0.1,0-0.3-0.1-0.4-0.2c-0.1-0.1-0.2-0.2-0.2-0.3
			c-0.1-0.1-0.1-0.3-0.1-0.4v-0.9c0-0.1,0-0.3-0.1-0.4c-0.1-0.1-0.2-0.2-0.4-0.1V195.9L772.4,195.9z"/>
		<path class="st46" d="M777,196.6c-0.1,0-0.3,0-0.4,0.1c-0.1,0.1-0.1,0.2-0.1,0.4v0.9c0,0.1,0,0.3-0.1,0.4c0,0.1-0.1,0.2-0.2,0.3
			c-0.1,0.1-0.3,0.2-0.4,0.2c-0.2,0-0.4,0.1-0.6,0.1h-0.1v-0.7h0.2c0.1,0,0.3,0,0.4-0.1c0.1-0.1,0.1-0.2,0.1-0.4v-0.7
			c0-0.2,0-0.3,0.1-0.5c0.2,0,0.3-0.2,0.3-0.4s-0.1-0.4-0.3-0.4c-0.1-0.2-0.1-0.3-0.1-0.5v-0.7c0-0.1,0-0.3-0.1-0.4
			c-0.1-0.1-0.2-0.1-0.4-0.1h-0.2v-0.7h0.1c0.2,0,0.4,0,0.6,0.1c0.1,0,0.3,0.1,0.4,0.2c0.1,0.1,0.2,0.2,0.2,0.3
			c0.1,0.1,0.1,0.3,0.1,0.4v0.9c0,0.1,0,0.3,0.1,0.4c0.1,0.1,0.2,0.2,0.4,0.1V196.6L777,196.6z"/>
		<path class="st47" d="M777,196.6c-0.1,0-0.3,0-0.4,0.1c-0.1,0.1-0.1,0.2-0.1,0.4v0.9c0,0.1,0,0.3-0.1,0.4c0,0.1-0.1,0.2-0.2,0.3
			c-0.1,0.1-0.3,0.2-0.4,0.2c-0.2,0-0.4,0.1-0.6,0.1h-0.1v-0.7h0.2c0.1,0,0.3,0,0.4-0.1c0.1-0.1,0.1-0.2,0.1-0.4v-0.7
			c0-0.2,0-0.3,0.1-0.5c0.2,0,0.3-0.2,0.3-0.4s-0.1-0.4-0.3-0.4c-0.1-0.2-0.1-0.3-0.1-0.5v-0.7c0-0.1,0-0.3-0.1-0.4
			c-0.1-0.1-0.2-0.1-0.4-0.1h-0.2v-0.7h0.1c0.2,0,0.4,0,0.6,0.1c0.1,0,0.3,0.1,0.4,0.2c0.1,0.1,0.2,0.2,0.2,0.3
			c0.1,0.1,0.1,0.3,0.1,0.4v0.9c0,0.1,0,0.3,0.1,0.4c0.1,0.1,0.2,0.2,0.4,0.1V196.6L777,196.6z"/>
		<path class="st39" d="M790.6,57.8c1,0.1,1.9-0.7,2-1.7c0.1-1.1-0.6-2-1.6-2.1c-0.1,0-0.2,0-0.3,0c-1-0.1-1.9,0.7-2,1.7
			c-0.1,1.1,0.6,2,1.6,2.1C790.4,57.8,790.5,57.8,790.6,57.8z"/>
		<path class="st39" d="M794.8,56.2c1,0.1,1.9-0.7,2-1.7c0.1-1.1-0.6-2-1.6-2.1c-0.1,0-0.3,0-0.4,0c-1-0.1-1.9,0.7-2,1.7
			c-0.1,1.1,0.6,2,1.6,2.1C794.6,56.3,794.7,56.3,794.8,56.2z"/>
		<path class="st46" d="M791.2,55.7c-1.4,0-2.7,0.7-3.6,1.9l2.3-0.7"/>
		<path class="st39" d="M791.2,53.8c-1.1,0-2.1,0.3-3.1,0.8c-0.9,0.5-1.7,1.2-2.3,2l-0.2,0.5c0,0.2,0,0.3-0.1,0.5
			c0,0.4,0.2,0.8,0.4,1.2c0.2,0.3,0.5,0.5,0.8,0.6c0.4,0.2,0.9,0.2,1.3,0.1l2.3-0.7c0.5-0.1,0.9-0.4,1.2-0.9c0.3-0.4,0.4-1,0.2-1.5
			s-0.5-0.9-1-1.1c-0.5-0.3-1.1-0.3-1.6-0.2l-2.3,0.7l2.3,2.8l0.2-0.2c-0.1,0.1-0.2,0.3-0.3,0.4c0.3-0.3,0.5-0.6,0.9-0.8l-0.4,0.3
			c0.3-0.2,0.7-0.4,1-0.6l-0.5,0.2c0.4-0.1,0.8-0.2,1.2-0.3l-0.6,0.1h0.4c0.5,0,1.1-0.2,1.5-0.6c0.7-0.6,0.8-1.7,0.2-2.5
			c-0.1-0.1-0.1-0.2-0.2-0.2C792.3,54,791.8,53.8,791.2,53.8L791.2,53.8z"/>
		<path class="st46" d="M796.1,55.1c-2,0.4-4,1-5.9,1.8"/>
		<path class="st39" d="M795.5,53.2c-2.2,0.4-4.4,1.1-6.4,2c-0.4,0.2-0.8,0.6-1,1.1c-0.1,0.5-0.1,1.1,0.2,1.5s0.7,0.8,1.2,0.9
			c0.5,0.1,1.1,0.1,1.6-0.2c0.4-0.2,0.7-0.3,1.1-0.5l-0.5,0.2c1.6-0.6,3.2-1.1,4.8-1.3c0.5-0.1,0.9-0.4,1.2-0.9
			c0.3-0.4,0.4-1,0.2-1.5C797.7,53.5,796.6,52.9,795.5,53.2z"/>
		<path class="st46" d="M798.6,55.5H792c-0.6,0-1.1,0-1.7,0.2c-0.5,0.2-1,0.6-1.4,1l-2.3,2.1c-0.2,0.2-0.4,0.4-0.2,0.6
			c0.1,0.1,0.3,0.1,0.4,0.1c1.4,0,2.9-0.1,4.3-0.3c1.1-0.1,2.4-0.5,2.7-1.5c0.1-0.7,0-1.3-0.3-1.9c-0.3-0.6-0.1-1.4,0.5-1.8
			c0.6-0.3,1.7-0.1,1.9-0.7c0.1-0.3-0.2-0.7-0.5-0.8s-0.7-0.1-1.1-0.1c-2,0.1-4,0.5-5.9,1.2c-1,0.3-1.9,0.8-2.7,1.6
			c-0.2,0.3-0.3,0.6-0.2,1c0.2,0.2,0.4,0.3,0.7,0.4c2.5,0.8,5.1,1.2,7.6,1c1.6-0.1,3.4-0.3,4.7,0.6"/>
		<path class="st46" d="M798.6,53.6c-2.3,0-4.7-0.1-7.1,0c-1.4,0-2.7,0.5-3.7,1.4c-0.8,0.7-1.7,1.5-2.5,2.2c-0.6,0.4-1,1.1-1.1,1.9
			c0,0.9,0.5,1.6,1.2,2c1,0.6,2.7,0.3,3.9,0.2c2.2-0.2,5-0.4,6.1-2.4c0.6-1.2,0.6-2.6,0-3.7c-0.1-0.2,0,0.1,0,0.1c0-0.1,0-0.2,0-0.3
			s-0.1,0.4,0,0.1c0.1-0.2,0,0.1,0,0.1s-0.4,0.5-0.6,0.5c0,0,0.2,0,0.2-0.1l0.6-0.1c1.4-0.3,2.5-1.4,2.3-2.8
			c-0.2-1.5-1.7-2.4-3.3-2.4c-2.3,0.1-4.7,0.5-6.9,1.3c-2.2,0.7-5.3,2.5-4.1,5.1c0.6,1.3,2.4,1.7,3.7,2s2.7,0.5,4,0.6
			c1.2,0.1,2.4,0,3.7,0c0.2,0,0.5,0,0.7,0h0.4c0,0,0.4,0,0.2,0s0.2,0,0.2,0l0.4,0.1l0,0c0.2,0.1,0.3,0.2,0.5,0.3
			c1,0.5,2.2,0.2,2.8-0.7c0.5-0.9,0.2-2-0.6-2.5c-0.1,0-0.1-0.1-0.2-0.1c-2.2-1.5-5-0.7-7.5-0.9c-1.2,0-2.4-0.2-3.6-0.5
			c-0.3-0.1-0.6-0.2-0.9-0.2l-0.5-0.1c-0.6-0.2,0,0,0,0l0.6,1l-0.1,0.5c0.1-0.2,0.1-0.2,0-0.1l0.3-0.3c-0.3,0.2,0.2-0.1,0.2-0.1
			c0.2-0.1,0.5-0.2,0.7-0.3c-0.3,0.1,0.4-0.1,0.5-0.2c0.6-0.2,1.3-0.4,2-0.6c0.7-0.2,1.2-0.2,1.8-0.3l0.5-0.1c-0.2,0,0.2,0,0.2,0
			c0.4,0,0.8,0,1.2-0.1c-0.3,0.1-1-1.2-0.8-0.5c0.1-0.3,0.2-0.6,0.3-0.9c-0.1-0.6,0.1-0.9,0.5-1c-0.2,0.1-0.4,0.1-0.6,0.1
			c-0.7,0.1-1.3,0.4-1.8,0.8c-1,1-1.3,2.4-0.8,3.7c0,0.1,0.1,0.3,0.1,0.4c0,0.1,0.1,0.2,0.1,0.3s0,0.1,0,0c0,0,0.1-0.4,0.1-0.2
			c-0.1,0.3,0.1-0.1,0,0l-0.1,0.1c0.2-0.1,0.2-0.2,0.1-0.1c0,0-0.4,0.1-0.1,0c-0.3,0.1-0.6,0.2-0.9,0.2c-0.5,0.1-1.2,0.1-1.8,0.2
			l-1.3,0.1h-0.5H787c-0.5,0-0.3,0,0.4,0.2c0.2,0.2,0.5,0.5,0.7,0.7l-0.1-0.1c0.1,0.3,0.2,0.6,0.3,1c-0.5,0.9-0.5,1.1-0.2,0.7
			l0.3-0.2L789,59l1.1-1c0.3-0.3,0.6-0.5,0.9-0.7c0,0,0.3-0.1,0.2,0c0.2,0,0.5,0,0.7,0c2.2,0,4.4,0,6.6,0c1.1,0,2.1-0.9,2.1-1.9
			C800.6,54.3,799.7,53.4,798.6,53.6L798.6,53.6z"/>
		<path class="st39" d="M989.5,101.7c1,0.1,1.9-0.7,2-1.7c0.1-1.1-0.6-2-1.6-2.1c-0.1,0-0.2,0-0.3,0c-1-0.1-1.9,0.7-2,1.7
			s0.6,2,1.6,2.1C989.3,101.7,989.4,101.7,989.5,101.7z"/>
		<path class="st31" d="M901.6-26.4"/>
		<path class="st31" d="M901.6-24.6c2.3,0,2.3-3.7,0-3.7S899.4-24.6,901.6-24.6z"/>
		<path class="st31" d="M934.6-116.7"/>
		<path class="st31" d="M934.6-114.9c2.3,0,2.3-3.7,0-3.7S932.3-114.9,934.6-114.9z"/>
		<path class="st31" d="M934.6-116.7"/>
		<path class="st31" d="M934.6-114.9c2.3,0,2.3-3.7,0-3.7S932.3-114.9,934.6-114.9z"/>
		
			<linearGradient id="SVGID_3_" gradientUnits="userSpaceOnUse" x1="336.21" y1="-127.74" x2="336.21" y2="-127.74" gradientTransform="matrix(1 0 0 1 199.89 731.84)">
			<stop  offset="0" style="stop-color:#FFFFFF"/>
			<stop  offset="1" style="stop-color:#000000"/>
		</linearGradient>
		<path class="st48" d="M536.1,604.1"/>
		<path class="st1" d="M536.1,606c2.3,0,2.3-3.7,0-3.7S533.8,606,536.1,606z"/>
		
			<linearGradient id="SVGID_4_" gradientUnits="userSpaceOnUse" x1="336.21" y1="-127.74" x2="336.21" y2="-127.74" gradientTransform="matrix(1 0 0 1 199.89 731.84)">
			<stop  offset="0" style="stop-color:#FFFFFF"/>
			<stop  offset="1" style="stop-color:#000000"/>
		</linearGradient>
		<path class="st49" d="M536.1,604.1"/>
		<path class="st1" d="M536.1,606c2.3,0,2.3-3.7,0-3.7S533.8,606,536.1,606z"/>
		
			<linearGradient id="SVGID_5_" gradientUnits="userSpaceOnUse" x1="336.21" y1="-127.74" x2="336.21" y2="-127.74" gradientTransform="matrix(1 0 0 1 199.89 731.84)">
			<stop  offset="0" style="stop-color:#FFFFFF"/>
			<stop  offset="1" style="stop-color:#000000"/>
		</linearGradient>
		<path class="st50" d="M536.1,604.1"/>
		<path class="st1" d="M536.1,606c2.3,0,2.3-3.7,0-3.7S533.8,606,536.1,606z"/>
		<path class="st31" d="M153.7,400.2c2.3,0,2.3-3.7,0-3.7S151.5,400.2,153.7,400.2z"/>
		<path class="st26" d="M689.4,94.8"/>
	</g>
</g>
<g id="text" class="st1">
	<g class="st2">
		<path class="st12" d="M81.7,225.3c1.3,0,2.4-0.1,3.2-0.3c0.8-0.2,1.5-0.5,2-0.9s0.9-0.8,1.1-1.3s0.3-1.1,0.3-1.7
			c0-1.3-0.6-2.5-1.9-3.4s-3.4-1.8-6.5-2.9c-1.3-0.5-2.7-1-4-1.6s-2.6-1.4-3.6-2.3c-1.1-0.9-1.9-2.1-2.6-3.4c-0.7-1.3-1-2.9-1-4.8
			c0-1.9,0.4-3.6,1.1-5.1s1.7-2.8,3-3.9c1.3-1.1,2.9-1.9,4.7-2.5c1.9-0.6,4-0.9,6.3-0.9c2.8,0,5.2,0.3,7.2,0.9c2,0.6,3.7,1.2,5,2
			l-2.7,7.3c-1.1-0.6-2.4-1.1-3.8-1.6s-3.1-0.7-5.1-0.7c-2.2,0-3.8,0.3-4.8,0.9c-1,0.6-1.5,1.6-1.5,2.8c0,0.8,0.2,1.4,0.5,1.9
			c0.4,0.5,0.9,1,1.5,1.4c0.7,0.4,1.4,0.8,2.3,1.1c0.8,0.3,1.8,0.7,2.8,1c2.1,0.8,4,1.6,5.6,2.3c1.6,0.8,2.9,1.7,3.9,2.7
			s1.8,2.2,2.3,3.6c0.5,1.4,0.8,3.1,0.8,5c0,3.8-1.3,6.8-4,8.9c-2.7,2.1-6.7,3.2-12.2,3.2c-1.8,0-3.5-0.1-4.9-0.3
			c-1.5-0.2-2.8-0.5-3.9-0.8s-2.1-0.7-2.9-1c-0.8-0.4-1.5-0.7-2-1l2.6-7.4c1.2,0.7,2.7,1.3,4.5,1.8C76.9,225,79.1,225.3,81.7,225.3z
			"/>
		<path class="st12" d="M133.6,216.7c0,2.5-0.4,4.7-1.1,6.7c-0.7,2-1.7,3.8-3.1,5.2c-1.3,1.4-3,2.6-4.8,3.4c-1.9,0.8-4,1.2-6.3,1.2
			s-4.4-0.4-6.3-1.2s-3.5-1.9-4.8-3.4c-1.3-1.4-2.4-3.2-3.1-5.2c-0.8-2-1.1-4.3-1.1-6.7c0-2.5,0.4-4.7,1.2-6.7
			c0.8-2,1.8-3.7,3.2-5.2c1.4-1.4,3-2.5,4.9-3.3s3.9-1.2,6.1-1.2c2.3,0,4.3,0.4,6.2,1.2c1.9,0.8,3.5,1.9,4.8,3.3
			c1.3,1.4,2.4,3.1,3.1,5.2C133.3,212,133.6,214.3,133.6,216.7z M124.6,216.7c0-2.7-0.5-4.9-1.6-6.4c-1.1-1.6-2.6-2.3-4.7-2.3
			c-2,0-3.6,0.8-4.7,2.3c-1.1,1.6-1.7,3.7-1.7,6.4s0.6,4.9,1.7,6.5s2.7,2.4,4.7,2.4s3.6-0.8,4.7-2.4S124.6,219.4,124.6,216.7z"/>
		<path class="st12" d="M139,216.8c0-2.3,0.4-4.4,1.1-6.4c0.7-2,1.8-3.7,3.2-5.2s3.1-2.7,5-3.5c2-0.9,4.2-1.3,6.8-1.3
			c1.7,0,3.2,0.1,4.6,0.4c1.4,0.3,2.7,0.7,4,1.3l-1.8,7.1c-0.8-0.3-1.7-0.6-2.7-0.8s-2.1-0.4-3.3-0.4c-2.6,0-4.6,0.8-5.8,2.4
			c-1.3,1.6-1.9,3.8-1.9,6.4c0,2.8,0.6,5,1.8,6.5s3.3,2.3,6.3,2.3c1.1,0,2.2-0.1,3.4-0.3s2.4-0.5,3.4-0.9l1.2,7.2
			c-1,0.4-2.3,0.8-3.9,1.1c-1.5,0.3-3.2,0.5-5.1,0.5c-2.8,0-5.3-0.4-7.4-1.3c-2.1-0.9-3.7-2-5.1-3.5c-1.3-1.5-2.3-3.2-2.9-5.2
			C139.3,221.3,139,219.1,139,216.8z"/>
		<path class="st12" d="M179.8,192.2c0,1.6-0.5,2.9-1.6,3.8c-1,0.9-2.3,1.4-3.7,1.4s-2.7-0.5-3.7-1.4s-1.6-2.2-1.6-3.8
			s0.5-2.9,1.6-3.8c1-0.9,2.3-1.4,3.7-1.4s2.7,0.5,3.7,1.4C179.2,189.3,179.8,190.5,179.8,192.2z M178.9,232.4h-8.8v-31.2h8.8V232.4
			z"/>
		<path class="st12" d="M198.5,200.3c2.6,0,4.8,0.3,6.5,0.9c1.7,0.6,3.1,1.4,4.2,2.6c1,1.1,1.8,2.5,2.2,4c0.4,1.6,0.7,3.3,0.7,5.3
			v18.4c-1.3,0.3-3,0.6-5.3,1s-5,0.6-8.2,0.6c-2,0-3.8-0.2-5.5-0.5c-1.6-0.4-3.1-0.9-4.2-1.7c-1.2-0.8-2.1-1.9-2.7-3.2
			c-0.6-1.3-0.9-2.9-0.9-4.8c0-1.8,0.4-3.4,1.1-4.6c0.7-1.3,1.7-2.3,2.9-3c1.2-0.8,2.6-1.3,4.2-1.6c1.6-0.3,3.2-0.5,4.9-0.5
			c1.1,0,2.2,0,3.1,0.1c0.9,0.1,1.6,0.2,2.2,0.4v-0.8c0-1.5-0.5-2.7-1.4-3.6c-0.9-0.9-2.5-1.4-4.7-1.4c-1.5,0-3,0.1-4.4,0.3
			c-1.5,0.2-2.7,0.5-3.8,0.9l-1.1-7.1c0.5-0.2,1.2-0.3,1.9-0.5c0.8-0.2,1.6-0.3,2.5-0.5c0.9-0.1,1.9-0.3,2.9-0.4
			C196.4,200.4,197.4,200.3,198.5,200.3z M199.2,226.2c0.9,0,1.7,0,2.5-0.1c0.8,0,1.4-0.1,1.9-0.2v-6.7c-0.4-0.1-0.9-0.2-1.6-0.2
			c-0.7-0.1-1.4-0.1-2-0.1c-0.8,0-1.6,0-2.3,0.1s-1.4,0.3-1.9,0.6c-0.6,0.3-1,0.7-1.3,1.1c-0.3,0.5-0.5,1.1-0.5,1.8
			c0,1.4,0.5,2.3,1.4,2.9C196.3,225.9,197.5,226.2,199.2,226.2z"/>
		<path class="st12" d="M232.5,233c-2.6,0-4.7-0.3-6.3-0.8s-2.9-1.2-3.8-2.2c-0.9-0.9-1.6-2.1-1.9-3.4c-0.3-1.3-0.5-2.8-0.5-4.5
			v-34.3l8.8-1.4v34c0,0.8,0.1,1.5,0.2,2.1c0.1,0.6,0.3,1.2,0.7,1.6c0.3,0.4,0.8,0.8,1.5,1.1c0.6,0.3,1.5,0.5,2.6,0.5L232.5,233z"/>
		<path class="st12" d="M264.5,191.3c0.7,1.3,1.5,2.9,2.5,4.8c0.9,1.9,1.9,4,2.9,6.2s2,4.5,3,6.8s1.9,4.5,2.8,6.6
			c0.9-2.1,1.8-4.2,2.8-6.6c1-2.3,2-4.6,3-6.8s2-4.3,2.9-6.2s1.8-3.5,2.5-4.8h8.4c0.4,2.7,0.8,5.8,1.1,9.2c0.3,3.4,0.6,6.9,0.9,10.6
			c0.3,3.7,0.5,7.3,0.7,11s0.4,7.1,0.6,10.4h-9c-0.1-4-0.3-8.3-0.5-13s-0.5-9.4-0.9-14.2c-0.7,1.7-1.5,3.5-2.4,5.5s-1.7,4-2.6,6
			s-1.7,3.9-2.5,5.8c-0.8,1.8-1.5,3.4-2,4.7h-6.5c-0.6-1.3-1.2-2.9-2-4.7s-1.6-3.8-2.5-5.8s-1.7-4-2.6-6s-1.7-3.9-2.4-5.5
			c-0.4,4.8-0.7,9.5-0.9,14.2c-0.2,4.7-0.4,9.1-0.5,13h-9c0.2-3.2,0.3-6.7,0.6-10.4c0.2-3.7,0.5-7.3,0.7-11
			c0.3-3.7,0.6-7.2,0.9-10.6c0.3-3.4,0.7-6.4,1.1-9.2H264.5z"/>
		<path class="st12" d="M304.7,217c0-2.8,0.4-5.2,1.3-7.3c0.8-2.1,2-3.8,3.4-5.2s3-2.4,4.8-3.1c1.8-0.7,3.6-1.1,5.5-1.1
			c4.4,0,7.9,1.4,10.5,4.1c2.6,2.7,3.9,6.7,3.9,11.9c0,0.5,0,1.1-0.1,1.7c0,0.6-0.1,1.2-0.1,1.6h-20c0.2,1.8,1,3.3,2.6,4.3
			c1.5,1.1,3.5,1.6,6,1.6c1.6,0,3.2-0.1,4.8-0.4c1.6-0.3,2.8-0.7,3.8-1.1l1.2,7.2c-0.5,0.2-1.1,0.5-1.9,0.7s-1.7,0.4-2.6,0.6
			c-1,0.2-2,0.3-3.1,0.4c-1.1,0.1-2.2,0.2-3.3,0.2c-2.8,0-5.2-0.4-7.3-1.2c-2.1-0.8-3.8-2-5.2-3.4c-1.4-1.4-2.4-3.2-3-5.1
			C305,221.4,304.7,219.3,304.7,217z M325.5,213.6c0-0.8-0.2-1.5-0.4-2.2c-0.2-0.7-0.6-1.3-1-1.9c-0.5-0.6-1-1-1.7-1.4
			s-1.6-0.5-2.6-0.5s-1.8,0.2-2.5,0.5s-1.3,0.8-1.8,1.3c-0.5,0.6-0.8,1.2-1.1,1.9c-0.3,0.7-0.4,1.5-0.6,2.2L325.5,213.6L325.5,213.6
			z"/>
		<path class="st12" d="M368.4,231.4c-0.8,0.2-1.7,0.5-2.7,0.7s-2.1,0.4-3.2,0.6c-1.1,0.2-2.3,0.3-3.4,0.4c-1.2,0.1-2.3,0.1-3.3,0.1
			c-2.6,0-4.9-0.4-6.9-1.1c-2-0.8-3.7-1.8-5.1-3.2s-2.4-3.1-3.2-5.1c-0.7-2-1.1-4.2-1.1-6.7s0.3-4.8,0.9-6.8s1.5-3.8,2.7-5.2
			s2.6-2.5,4.4-3.3c1.7-0.8,3.7-1.1,5.9-1.1c1.2,0,2.3,0.1,3.3,0.4c1,0.2,1.9,0.6,2.9,1V188l8.8-1.4L368.4,231.4L368.4,231.4z
			 M348.4,216.5c0,2.7,0.6,4.9,1.8,6.6c1.2,1.7,3,2.5,5.5,2.5c0.8,0,1.5,0,2.2-0.1s1.2-0.1,1.7-0.2v-16.1c-0.6-0.4-1.3-0.7-2.2-0.9
			c-0.9-0.2-1.8-0.4-2.7-0.4C350.5,208,348.4,210.8,348.4,216.5z"/>
		<path class="st12" d="M386.3,192.2c0,1.6-0.5,2.9-1.6,3.8c-1,0.9-2.3,1.4-3.7,1.4c-1.4,0-2.7-0.5-3.7-1.4s-1.6-2.2-1.6-3.8
			s0.5-2.9,1.6-3.8c1-0.9,2.3-1.4,3.7-1.4c1.4,0,2.7,0.5,3.7,1.4C385.8,189.3,386.3,190.5,386.3,192.2z M385.5,232.4h-8.8v-31.2h8.8
			V232.4z"/>
		<path class="st12" d="M405,200.3c2.6,0,4.8,0.3,6.5,0.9c1.7,0.6,3.1,1.4,4.2,2.6c1,1.1,1.8,2.5,2.2,4c0.4,1.6,0.7,3.3,0.7,5.3
			v18.4c-1.3,0.3-3,0.6-5.3,1s-5,0.6-8.2,0.6c-2,0-3.8-0.2-5.5-0.5c-1.6-0.4-3.1-0.9-4.2-1.7c-1.2-0.8-2.1-1.9-2.7-3.2
			s-0.9-2.9-0.9-4.8c0-1.8,0.4-3.4,1.1-4.6c0.7-1.3,1.7-2.3,2.9-3c1.2-0.8,2.6-1.3,4.2-1.6s3.2-0.5,4.9-0.5c1.1,0,2.2,0,3.1,0.1
			s1.6,0.2,2.2,0.4v-0.8c0-1.5-0.5-2.7-1.4-3.6c-0.9-0.9-2.5-1.4-4.7-1.4c-1.5,0-3,0.1-4.4,0.3c-1.5,0.2-2.7,0.5-3.8,0.9l-1.1-7.1
			c0.5-0.2,1.2-0.3,1.9-0.5c0.8-0.2,1.6-0.3,2.5-0.5c0.9-0.1,1.9-0.3,2.9-0.4C403,200.4,404,200.3,405,200.3z M405.7,226.2
			c0.9,0,1.7,0,2.5-0.1c0.8,0,1.4-0.1,1.9-0.2v-6.7c-0.4-0.1-0.9-0.2-1.6-0.2c-0.7-0.1-1.4-0.1-2-0.1c-0.8,0-1.6,0-2.3,0.1
			c-0.7,0.1-1.4,0.3-1.9,0.6c-0.6,0.3-1,0.7-1.3,1.1c-0.3,0.5-0.5,1.1-0.5,1.8c0,1.4,0.5,2.3,1.4,2.9
			C402.8,225.9,404.1,226.2,405.7,226.2z"/>
		<path class="st12" d="M81.4,251.7c0.7,1.3,1.5,2.9,2.5,4.8c0.9,1.9,1.9,4,2.9,6.2s2,4.5,3,6.8s1.9,4.5,2.8,6.6
			c0.9-2.1,1.8-4.2,2.8-6.6c1-2.3,2-4.6,3-6.8c1-2.2,2-4.3,2.9-6.2c0.9-1.9,1.8-3.5,2.5-4.8h8.4c0.4,2.7,0.8,5.8,1.1,9.2
			c0.3,3.4,0.6,6.9,0.9,10.6s0.5,7.3,0.7,11s0.4,7.1,0.6,10.4h-9c-0.1-4-0.3-8.3-0.5-13s-0.5-9.4-0.9-14.2c-0.7,1.7-1.5,3.5-2.4,5.5
			s-1.7,4-2.6,6s-1.7,3.9-2.5,5.8c-0.8,1.8-1.5,3.4-2,4.7h-6.5c-0.6-1.3-1.2-2.9-2-4.7c-0.8-1.8-1.6-3.8-2.5-5.8s-1.7-4-2.6-6
			s-1.7-3.9-2.4-5.5c-0.4,4.8-0.7,9.5-0.9,14.2c-0.2,4.7-0.4,9.1-0.5,13h-9c0.2-3.2,0.3-6.7,0.6-10.4c0.2-3.7,0.5-7.3,0.7-11
			c0.3-3.7,0.6-7.2,0.9-10.6s0.7-6.4,1.1-9.2H81.4z"/>
		<path class="st12" d="M134.3,260.7c2.6,0,4.8,0.3,6.5,0.9s3.1,1.4,4.2,2.5c1,1.1,1.8,2.5,2.2,4c0.4,1.6,0.7,3.3,0.7,5.3v18.4
			c-1.3,0.3-3,0.6-5.3,1s-5,0.6-8.2,0.6c-2,0-3.8-0.2-5.5-0.5c-1.6-0.4-3.1-0.9-4.2-1.7c-1.2-0.8-2.1-1.9-2.7-3.2
			c-0.6-1.3-0.9-2.9-0.9-4.8c0-1.8,0.4-3.4,1.1-4.6c0.7-1.3,1.7-2.3,2.9-3c1.2-0.8,2.6-1.3,4.2-1.6c1.6-0.3,3.2-0.5,4.9-0.5
			c1.1,0,2.2,0,3.1,0.1c0.9,0.1,1.6,0.2,2.2,0.4v-0.8c0-1.5-0.5-2.7-1.4-3.6s-2.5-1.4-4.7-1.4c-1.5,0-3,0.1-4.4,0.3
			c-1.5,0.2-2.7,0.5-3.8,0.9l-1.1-7.1c0.5-0.2,1.2-0.3,1.9-0.5c0.8-0.2,1.6-0.3,2.5-0.5c0.9-0.1,1.9-0.3,2.9-0.4
			C132.3,260.8,133.3,260.7,134.3,260.7z M135.1,286.6c0.9,0,1.7,0,2.5-0.1c0.8,0,1.4-0.1,1.9-0.2v-6.7c-0.4-0.1-0.9-0.2-1.6-0.2
			c-0.7-0.1-1.4-0.1-2-0.1c-0.8,0-1.6,0-2.3,0.1s-1.4,0.3-1.9,0.6c-0.6,0.3-1,0.7-1.3,1.1c-0.3,0.5-0.5,1.1-0.5,1.8
			c0,1.4,0.5,2.3,1.4,2.9C132.2,286.3,133.4,286.6,135.1,286.6z"/>
		<path class="st12" d="M174.7,269.4c-0.8-0.2-1.7-0.4-2.8-0.6s-2.2-0.3-3.4-0.3c-0.6,0-1.2,0-2,0.1s-1.4,0.2-1.7,0.3v23.8H156
			v-29.5c1.6-0.6,3.4-1.1,5.6-1.6c2.2-0.5,4.6-0.7,7.2-0.7c0.5,0,1,0,1.7,0.1s1.3,0.1,2,0.2s1.3,0.2,2,0.4c0.7,0.1,1.2,0.3,1.7,0.5
			L174.7,269.4z"/>
		<path class="st12" d="M189.8,272.8c0.9-0.9,1.8-1.9,2.7-2.9s1.8-2,2.7-3s1.7-2,2.5-2.9s1.4-1.7,2-2.4h10.5
			c-2.1,2.4-4.1,4.7-6.1,6.9c-2,2.2-4.2,4.4-6.6,6.8c1.2,1.1,2.4,2.3,3.7,3.8s2.5,3,3.7,4.6s2.3,3.2,3.3,4.8c1,1.6,1.8,3,2.5,4.3
			h-10.2c-0.6-1-1.4-2.2-2.2-3.4c-0.8-1.2-1.7-2.5-2.6-3.7c-0.9-1.2-1.9-2.4-2.9-3.6c-1-1.1-2-2.1-3-2.9v13.7H181v-44.6l8.8-1.4
			V272.8z"/>
		<path class="st12" d="M211.7,277.4c0-2.8,0.4-5.2,1.3-7.3c0.9-2.1,2-3.8,3.4-5.2c1.4-1.4,3-2.4,4.8-3.1s3.6-1.1,5.5-1.1
			c4.4,0,7.9,1.4,10.5,4.1s3.9,6.7,3.9,11.9c0,0.5,0,1.1-0.1,1.7c0,0.6-0.1,1.2-0.1,1.6h-20c0.2,1.8,1,3.3,2.5,4.3
			c1.5,1.1,3.5,1.6,6,1.6c1.6,0,3.2-0.1,4.8-0.4s2.8-0.7,3.8-1.1l1.2,7.2c-0.5,0.2-1.1,0.5-1.9,0.7c-0.8,0.2-1.7,0.4-2.6,0.6
			c-1,0.2-2,0.3-3.1,0.4s-2.2,0.2-3.3,0.2c-2.8,0-5.2-0.4-7.3-1.2c-2.1-0.8-3.8-2-5.2-3.4s-2.4-3.2-3-5.1
			C212,281.8,211.7,279.7,211.7,277.4z M232.4,274c0-0.8-0.2-1.5-0.4-2.2s-0.6-1.3-1-1.9c-0.5-0.6-1-1-1.7-1.4s-1.6-0.5-2.6-0.5
			s-1.8,0.2-2.5,0.5s-1.3,0.8-1.8,1.3c-0.5,0.6-0.8,1.2-1.1,1.9c-0.3,0.7-0.4,1.5-0.6,2.2h11.7V274z"/>
		<path class="st12" d="M247.5,253.8l8.8-1.4v9.2h10.6v7.4h-10.6v11c0,1.9,0.3,3.3,1,4.4s2,1.7,3.9,1.7c0.9,0,1.9-0.1,2.9-0.3
			c1-0.2,1.9-0.4,2.8-0.7l1.2,6.9c-1.1,0.4-2.3,0.8-3.6,1.1c-1.3,0.3-2.9,0.5-4.8,0.5c-2.4,0-4.4-0.3-6-1s-2.8-1.6-3.8-2.7
			c-0.9-1.2-1.6-2.6-2-4.2c-0.4-1.7-0.6-3.5-0.6-5.5v-26.4H247.5z"/>
		<path class="st12" d="M283.8,252.6c0,1.6-0.5,2.9-1.6,3.8c-1,0.9-2.3,1.4-3.7,1.4c-1.4,0-2.7-0.5-3.7-1.4s-1.6-2.2-1.6-3.8
			s0.5-2.9,1.6-3.8c1-0.9,2.3-1.4,3.7-1.4c1.4,0,2.7,0.5,3.7,1.4C283.3,249.7,283.8,250.9,283.8,252.6z M283,292.8h-8.8v-31.2h8.8
			V292.8z"/>
		<path class="st12" d="M291.3,262.6c1.5-0.4,3.4-0.8,5.8-1.2c2.4-0.4,4.9-0.6,7.5-0.6s4.9,0.3,6.6,1c1.8,0.7,3.2,1.7,4.2,2.9
			c1,1.3,1.8,2.8,2.2,4.5c0.4,1.7,0.7,3.7,0.7,5.8v17.6h-8.8v-16.5c0-2.8-0.4-4.9-1.1-6c-0.8-1.2-2.2-1.8-4.2-1.8
			c-0.6,0-1.3,0-2,0.1s-1.3,0.1-1.9,0.2v24.1h-8.8v-30.1H291.3z"/>
		<path class="st12" d="M353.1,288.8c0,5.1-1.3,8.9-3.9,11.4s-6.6,3.7-12,3.7c-1.9,0-3.8-0.2-5.7-0.5c-1.9-0.3-3.7-0.8-5.3-1.3
			l1.5-7.4c1.4,0.6,2.8,1,4.4,1.3c1.5,0.3,3.3,0.5,5.2,0.5c2.5,0,4.3-0.6,5.4-1.7c1-1.1,1.6-2.5,1.6-4.3v-1.1
			c-0.9,0.4-1.9,0.8-2.9,1s-2.1,0.3-3.3,0.3c-4.3,0-7.6-1.3-9.9-3.8c-2.3-2.6-3.4-6.1-3.4-10.7c0-2.3,0.4-4.4,1.1-6.3
			s1.7-3.5,3.1-4.8s3-2.4,5-3.1s4.2-1.1,6.7-1.1c1.1,0,2.2,0.1,3.3,0.1c1.1,0.1,2.2,0.2,3.4,0.4c1.1,0.2,2.2,0.3,3.2,0.6
			c1,0.2,1.9,0.4,2.7,0.7v26.1H353.1z M333.7,276.2c0,4.9,2,7.4,6,7.4c0.9,0,1.8-0.1,2.5-0.4c0.8-0.2,1.5-0.5,2-0.8v-14.1
			c-0.4-0.1-0.9-0.1-1.5-0.2s-1.3-0.1-2.1-0.1c-2.3,0-4.1,0.8-5.2,2.3S333.7,273.8,333.7,276.2z"/>
	</g>
	<g class="st2">
		<g>
			<path class="st23" d="M264.9,368.7h-78.6c-9.9,0-17.9-8-17.9-17.9l0,0c0-9.9,8-17.9,17.9-17.9h78.6c9.9,0,17.9,8,17.9,17.9l0,0
				C282.8,360.6,274.8,368.7,264.9,368.7z"/>
		</g>
		<g>
			<g>
				<path class="st8" d="M194.6,353c0,0.7-0.1,1.4-0.2,2c-0.2,0.6-0.4,1.2-0.8,1.6c-0.4,0.5-0.9,0.8-1.6,1.1
					c-0.7,0.3-1.5,0.4-2.5,0.4c-0.9,0-1.7-0.1-2.4-0.3c-0.7-0.2-1.2-0.5-1.7-0.8l1.1-2.5c0.4,0.2,0.8,0.4,1.3,0.6s0.9,0.3,1.5,0.3
					c0.8,0,1.3-0.2,1.7-0.6c0.3-0.4,0.5-1,0.5-1.9v-9.3h3.2v9.4H194.6z"/>
			</g>
			<g>
				<path class="st8" d="M211.2,350.7c0,1.2-0.2,2.3-0.5,3.2c-0.4,0.9-0.9,1.7-1.5,2.3c-0.6,0.6-1.4,1.1-2.2,1.4
					c-0.9,0.3-1.8,0.5-2.8,0.5s-1.9-0.2-2.7-0.5c-0.9-0.3-1.6-0.8-2.3-1.4c-0.6-0.6-1.1-1.4-1.5-2.3s-0.6-2-0.6-3.2s0.2-2.3,0.6-3.2
					c0.4-0.9,0.9-1.7,1.5-2.3c0.6-0.6,1.4-1.1,2.3-1.4c0.9-0.3,1.8-0.5,2.7-0.5c1,0,1.9,0.2,2.7,0.5c0.9,0.3,1.6,0.8,2.3,1.4
					c0.6,0.6,1.1,1.4,1.5,2.3C211,348.4,211.2,349.5,211.2,350.7z M200.3,350.7c0,0.7,0.1,1.3,0.3,1.9s0.4,1,0.7,1.4
					s0.7,0.7,1.2,0.9c0.5,0.2,1,0.3,1.6,0.3s1.1-0.1,1.6-0.3c0.5-0.2,0.9-0.5,1.2-0.9s0.6-0.9,0.7-1.4c0.2-0.6,0.3-1.2,0.3-1.9
					c0-0.7-0.1-1.3-0.3-1.9s-0.4-1.1-0.7-1.5s-0.7-0.7-1.2-0.9c-0.5-0.2-1-0.3-1.6-0.3s-1.1,0.1-1.6,0.3c-0.5,0.2-0.9,0.5-1.2,0.9
					s-0.6,0.9-0.7,1.5C200.4,349.4,200.3,350,200.3,350.7z"/>
			</g>
			<g>
				<path class="st8" d="M213.8,343.6h3.2v14.2h-3.2V343.6z"/>
			</g>
			<g>
				<path class="st8" d="M229.8,357.8c-0.9-1.6-1.9-3.2-3-4.8c-1.1-1.6-2.2-3.1-3.4-4.5v9.3h-3.2v-14.2h2.6c0.5,0.5,0.9,1,1.5,1.7
					c0.5,0.7,1.1,1.4,1.7,2.1c0.6,0.7,1.1,1.5,1.7,2.3c0.6,0.8,1.1,1.6,1.6,2.3v-8.4h3.2v14.2H229.8z"/>
			</g>
			<g>
				<path class="st8" d="M246.3,358.1c-1,0-1.9-0.1-2.6-0.4c-0.7-0.3-1.3-0.7-1.8-1.2s-0.8-1.1-1-1.8c-0.2-0.7-0.3-1.5-0.3-2.3v-8.8
					h3.2v8.6c0,0.6,0.1,1.1,0.2,1.5c0.1,0.4,0.3,0.7,0.5,1s0.5,0.4,0.8,0.5s0.7,0.2,1.1,0.2c0.8,0,1.4-0.2,1.9-0.7s0.7-1.3,0.7-2.4
					v-8.6h3.2v8.8c0,0.8-0.1,1.6-0.3,2.3c-0.2,0.7-0.6,1.3-1.1,1.8s-1.1,0.9-1.8,1.2C248.1,357.9,247.3,358.1,246.3,358.1z"/>
			</g>
			<g>
				<path class="st8" d="M259.1,355.3c0.5,0,0.8,0,1.1-0.1c0.3-0.1,0.5-0.2,0.7-0.3c0.2-0.1,0.3-0.3,0.4-0.5s0.1-0.4,0.1-0.6
					c0-0.5-0.2-0.9-0.7-1.2c-0.4-0.3-1.2-0.6-2.3-1c-0.5-0.2-0.9-0.4-1.4-0.6s-0.9-0.5-1.3-0.8c-0.4-0.3-0.7-0.7-0.9-1.2
					s-0.3-1-0.3-1.7s0.1-1.2,0.4-1.8c0.2-0.5,0.6-1,1-1.3c0.5-0.4,1-0.7,1.6-0.9c0.6-0.2,1.4-0.3,2.2-0.3c1,0,1.8,0.1,2.5,0.3
					c0.7,0.2,1.3,0.4,1.7,0.7l-0.9,2.5c-0.4-0.2-0.8-0.4-1.3-0.5c-0.5-0.2-1.1-0.2-1.8-0.2c-0.8,0-1.3,0.1-1.6,0.3
					c-0.3,0.2-0.5,0.5-0.5,1c0,0.3,0.1,0.5,0.2,0.7s0.3,0.3,0.5,0.5c0.2,0.1,0.5,0.3,0.8,0.4s0.6,0.2,1,0.4c0.7,0.3,1.4,0.5,1.9,0.8
					s1,0.6,1.4,0.9c0.4,0.4,0.6,0.8,0.8,1.2c0.2,0.5,0.3,1.1,0.3,1.7c0,1.3-0.5,2.4-1.4,3.1s-2.3,1.1-4.2,1.1c-0.6,0-1.2,0-1.7-0.1
					s-1-0.2-1.3-0.3c-0.4-0.1-0.7-0.2-1-0.3c-0.3-0.1-0.5-0.2-0.7-0.3l0.9-2.5c0.4,0.2,0.9,0.4,1.6,0.6
					C257.4,355.2,258.2,355.3,259.1,355.3z"/>
			</g>
		</g>
	</g>
</g>
</svg>
