<?xml version="1.0" encoding="utf-8"?>
<!-- Generator: Adobe Illustrator 24.0.1, SVG Export Plug-In . SVG Version: 6.00 Build 0)  -->
<svg version="1.1" id="Calque_1" xmlns="http://www.w3.org/2000/svg" xmlns:xlink="http://www.w3.org/1999/xlink" x="0px" y="0px"
	 viewBox="0 0 1366 768" style="enable-background:new 0 0 1366 768;" xml:space="preserve">
<style type="text/css">
	.st0{fill:#E54F26;}
</style>
<g>
	<g>
		<g>
			<g>
				<path class="st0" d="M572.3,170h19.1v18.9h17.5V170h19.1v57.2h-19.1V208h-17.5v19.1h-19.1L572.3,170L572.3,170z"/>
				<path class="st0" d="M653.1,189h-16.8v-19H689v19h-16.8v38.2h-19.1L653.1,189L653.1,189z"/>
				<path class="st0" d="M697.4,170h19.9l12.3,20.1l12.2-20.1h19.9v57.2h-19v-28.3l-13.1,20.3h-0.3L716,198.8v28.3h-18.7V170z"/>
				<path class="st0" d="M771.2,170h19.1v38.3h26.9v18.9h-46V170z"/>
			</g>
			<path class="st0" d="M544.3,253.3l27.3,306.5l122.6,34l123-34.1l27.4-306.4H544.3z M787.6,326l-1.7,19.1l-0.8,8.4H785h-90.5h-0.1
				h-53l3.4,38.5h49.6h0.1h77.1h10.1l-0.9,10.1l-8.8,99l-0.6,6.4l-76.9,21.3v0l-0.2,0l-77-21.4l-5.3-59h17.4h20.3l2.7,30l41.9,11.3
				l0,0v0l41.9-11.3l4.4-48.8h-46.2h-0.1h-84L601.1,326l-0.9-10.1h94.1h0.1h94L787.6,326z"/>
		</g>
	</g>
</g>
</svg>
