<svg xmlns="http://www.w3.org/2000/svg" xmlns:xlink="http://www.w3.org/1999/xlink" viewBox="0 0 3710 3710"><defs><style>.cls-1,.cls-4{fill:#fff;}.cls-2{fill:#b7f7d8;opacity:0.3;}.cls-3{opacity:0.74;fill:url(#Dégradé_sans_nom_72);}.cls-4{opacity:0.43;}.cls-5{fill:url(#Dégradé_sans_nom_81);}.cls-6{fill:#076d59;}.cls-7{fill:#cff;}.cls-8{fill:#78f4dc;}.cls-10,.cls-11,.cls-9{fill:#0bceaf;}.cls-9{opacity:0.61;}.cls-10{opacity:0.6;}.cls-12{fill:#0b6d6a;}.cls-13{fill:url(#Dégradé_sans_nom_26);}.cls-14{fill:#064c4a;}.cls-15{fill:url(#Dégradé_sans_nom_63);}.cls-16{fill:#b7410d;}.cls-17{fill:#f4d37e;}.cls-18{fill:#232323;}.cls-19{fill:#deb449;}.cls-20{fill:#095647;}.cls-21{fill:#041e19;}.cls-22{fill:#ed6224;}.cls-23{fill:#ef7037;}.cls-24{fill:#e6e7e8;}.cls-25{fill:#d1d3d4;}</style><linearGradient id="Dégradé_sans_nom_72" x1="3087.22" y1="2272.19" x2="1622.44" y2="4123.15" gradientTransform="matrix(1, -0.22, 0.35, 0.82, -788.1, 90.49)" gradientUnits="userSpaceOnUse"><stop offset="0" stop-color="#ffd629"/><stop offset="1" stop-color="#cf2519"/></linearGradient><linearGradient id="Dégradé_sans_nom_81" x1="1958.96" y1="2206.72" x2="3207.44" y2="1029.28" gradientUnits="userSpaceOnUse"><stop offset="0" stop-color="#a737d5"/><stop offset="0.03" stop-color="#e97505"/><stop offset="1" stop-color="#ee7574"/></linearGradient><linearGradient id="Dégradé_sans_nom_26" x1="395.39" y1="4090.68" x2="911.19" y2="2075.48" gradientUnits="userSpaceOnUse"><stop offset="0" stop-color="#468e8e"/><stop offset="1" stop-color="#95cdb0"/></linearGradient><linearGradient id="Dégradé_sans_nom_63" x1="1534.57" y1="3244.47" x2="1650.85" y2="2352.97" gradientTransform="matrix(0.97, 0.23, -0.23, 0.97, 198.94, -279.69)" gradientUnits="userSpaceOnUse"><stop offset="0" stop-color="#f28c55"/><stop offset="1" stop-color="#fab85f"/></linearGradient></defs><title>illustration portfolio 2</title><g id="Background"><rect class="cls-1" width="3710" height="3710"/></g><g id="Illustration"><path class="cls-2" d="M2919.71,2858.09c-57.15,60.17-111.23,99-154,129.63-502.26,360.38-1096.56,255.33-1222.86,229.68-186.51-37.88-547-111.11-807.7-417.63C340.85,2336,402.25,1605.4,708.14,1123.11c56-88.22,351.49-577.85,952.2-656.38,363.53-47.52,787.3,48.33,1094.18,305.43C3398.69,1311.85,3352.84,2402.11,2919.71,2858.09Z"/><path class="cls-3" d="M3239.9,1142.58c-1.54-13.45-24.67-17.49-31.16-5.43C3146,1253.81,2969,1555,2746.41,1695.71c-362.48,229.15-644.5,646.68-475.37,909.66C2271,2605.37,3408.1,2608.8,3239.9,1142.58Z"/><path class="cls-4" d="M3180.89,1313.58c-1.08,4.1-2.4,7.37-3.61,11l-3.87,10.54c-2.65,7-5.28,14-8,20.94-5.46,13.92-11.14,27.75-16.87,41.55-11.46,27.62-23.54,55-35.74,82.25q-37.09,81.66-78.44,161.31c-54.71,106.37-115.74,209.47-181.65,309.33-33.09,49.85-68.15,98.39-104.38,146l-27.66,35.35c-4.56,5.93-9.32,11.7-14.09,17.47l-14.27,17.32L2678,2184c-4.81,5.73-9.79,11.32-14.68,17-9.85,11.26-19.54,22.67-29.59,33.75q-60.36,66.49-126.38,127.5c-22.54,19.7-44.7,39.82-68.27,58.28-22.89,19.28-47.36,36.56-71.34,54.4a1.69,1.69,0,0,1-2-2.7l.05,0a1756.66,1756.66,0,0,0,136.84-115.09q64.88-61.55,124.36-128.41c39.29-44.82,77.37-90.71,113.45-138.18s70.45-96.2,103.75-145.67q49.57-74.44,95.23-151.44l22.58-38.62,22-39c14.49-26.07,28.9-52.18,42.82-78.57q41.94-79.07,80-160.13c12.62-27,25.13-54.13,37-81.5q8.92-20.52,17.53-41.17c2.89-6.88,5.67-13.8,8.47-20.71l4.08-10.4c1.26-3.43,2.71-7.1,3.66-10.2l.14-.45a1.67,1.67,0,0,1,3.21.92Z"/><path class="cls-5" d="M3019.85,568c-2.78-15.38-24.38-16.81-29.1-1.9-45.59,144.07-177,518.09-366.57,712.62-308.72,316.74-524.48,840.47-342.68,1121.41C2281.5,2400.09,3323.64,2243.65,3019.85,568Z"/><path class="cls-4" d="M2983.38,774.48c-.54,4.52-1.38,8.47-2.1,12.63l-2.39,12.31-5,24.55c-3.46,16.34-7.08,32.64-10.75,48.94q-11.16,48.84-23.43,97.43c-16.38,64.77-34.44,129.11-53.51,193.15s-39.67,127.62-61.64,190.73l-8.2,23.69-8.5,23.57c-5.74,15.69-11.2,31.49-17.2,47.08l-17.69,46.91-18.39,46.63c-49.7,124.09-105.92,245.7-170.56,362.81-3.93,7.37-8.11,14.62-12.33,21.83l-12.59,21.7-12.58,21.69c-4.29,7.17-8.76,14.24-13.13,21.37-8.87,14.17-17.4,28.55-26.54,42.55l-27.65,41.85c-37.91,55.09-78.25,108.54-122.14,159a1.69,1.69,0,0,1-2.58-2.19v0A1898.14,1898.14,0,0,0,2473.34,2072l27.12-42c9-14,17.32-28.47,26-42.68,4.28-7.15,8.66-14.23,12.86-21.43l12.31-21.75,12.32-21.75c4.13-7.23,8.22-14.49,12.07-21.88l23.59-44.07c7.78-14.73,15.15-29.68,22.74-44.51,3.74-7.45,7.59-14.84,11.25-22.32l10.83-22.53,10.82-22.53c3.64-7.5,7.22-15,10.62-22.63,28.2-60.41,54-121.92,79.17-183.64,49.9-123.68,93.44-249.88,133-377.28q29.5-95.61,55.29-192.34,13-48.31,24.93-96.91c3.93-16.22,7.81-32.44,11.52-48.7l5.42-24.41,2.57-12.23c.78-4,1.69-8.27,2.23-12l.06-.37a1.68,1.68,0,0,1,3.33.44Z"/><path class="cls-6" d="M580.72,462.36H2700.26c57.79,0,104.34,66.26,103.29,147l-29.82,2298.5c-1.4,108.17-65.05,194.45-195.32,193.1L525.56,3065c-3.7-1-49.17-65.41-49.14-144.49l1-2313.81C477.44,527,523.69,462.36,580.72,462.36Z"/><path class="cls-7" d="M627.46,524.6H2662.71c55.5,0,100.2,63,99.19,139.7l-28.63,2183.91c-1.35,102.78-62.46,184.76-136.78,183.47L625.27,2997.46c-54.32-.94-98-62.14-98-137.28l1-2198.45C528.29,586,572.7,524.6,627.46,524.6Z"/><path class="cls-8" d="M553.22,517.76H2734.37a24.45,24.45,0,0,1,24.45,24.45V851.76a0,0,0,0,1,0,0H527.31a0,0,0,0,1,0,0V543.67A25.91,25.91,0,0,1,553.22,517.76Z"/><path class="cls-9" d="M2510.22,709.38l-1157.7-11c-27.29-.26-49.25-18.29-49.26-40.43v-38.6c0-17.09,17.06-31,38.12-31H2518.52c20.76,0,37.14,14.32,35.62,31.12l-5.56,61.25C2547.1,697.05,2530.3,709.57,2510.22,709.38Z"/><path class="cls-10" d="M2656.27,1051.37H629.74a24.3,24.3,0,0,1-24.34-24.25V962.25A24.3,24.3,0,0,1,630,938l2026.53,17.85a24.3,24.3,0,0,1,24.13,24.25v47A24.3,24.3,0,0,1,2656.27,1051.37Z"/><path class="cls-11" d="M1114.05,699.41a59.33,59.33,0,1,1,59.32-59.32A59.39,59.39,0,0,1,1114.05,699.41Zm0-111.88a52.56,52.56,0,1,0,52.56,52.56A52.62,52.62,0,0,0,1114.05,587.53Z"/><path class="cls-11" d="M920.43,704a59.33,59.33,0,1,1,59.32-59.33A59.4,59.4,0,0,1,920.43,704Zm0-111.88A52.56,52.56,0,1,0,973,644.62,52.61,52.61,0,0,0,920.43,592.07Z"/><path class="cls-11" d="M734.38,704a59.33,59.33,0,1,1,59.33-59.33A59.39,59.39,0,0,1,734.38,704Zm0-111.88a52.56,52.56,0,1,0,52.56,52.55A52.61,52.61,0,0,0,734.38,592.07Z"/><path class="cls-10" d="M1855.19,1247l-379-3.15a21.5,21.5,0,0,1-21.32-21.68l.08-10.57a21.51,21.51,0,0,1,21-21.32l379.12-9.38a21.51,21.51,0,0,1,22,21.67l-.19,23.1A21.51,21.51,0,0,1,1855.19,1247Z"/><path class="cls-10" d="M1936.87,1935.67l-558-4.64a34.13,34.13,0,0,1-33.85-34.42l4.64-558.89a34.16,34.16,0,0,1,33.55-33.86l551,10.46a42.57,42.57,0,0,1,41.76,42.93l-4.69,544.56A34.14,34.14,0,0,1,1936.87,1935.67Z"/><path class="cls-10" d="M1150.09,1247l-379-3.15a21.5,21.5,0,0,1-21.32-21.68l.09-10.57a21.5,21.5,0,0,1,21-21.32l379.13-9.38a21.5,21.5,0,0,1,22,21.67l-.19,23.1A21.51,21.51,0,0,1,1150.09,1247Z"/><path class="cls-10" d="M1231.77,1935.67l-558-4.64a34.13,34.13,0,0,1-33.86-34.42l4.64-558.89a34.16,34.16,0,0,1,33.55-33.86l551,10.46a42.57,42.57,0,0,1,41.76,42.93l-4.69,544.56A34.14,34.14,0,0,1,1231.77,1935.67Z"/><path class="cls-10" d="M2562.37,1260.17l-379-3.15a21.5,21.5,0,0,1-21.33-21.67l.09-10.57a21.51,21.51,0,0,1,21-21.32l379.12-9.38a21.51,21.51,0,0,1,22,21.67l-.2,23.1A21.49,21.49,0,0,1,2562.37,1260.17Z"/><path class="cls-10" d="M2644.06,1948.89l-558-4.64a34.16,34.16,0,0,1-33.86-34.43l4.65-558.88a34.14,34.14,0,0,1,33.54-33.86l551,10.46a42.57,42.57,0,0,1,41.77,42.93L2678.49,1915A34.15,34.15,0,0,1,2644.06,1948.89Z"/><rect class="cls-10" x="663.91" y="2034.16" width="2009.61" height="98.67" rx="8.99"/><rect class="cls-10" x="668.29" y="2189.88" width="2009.61" height="98.67" rx="8.99"/><rect class="cls-10" x="653.5" y="2365.11" width="2009.61" height="98.67" rx="8.99"/><rect class="cls-10" x="657.88" y="2520.83" width="2009.61" height="98.67" rx="8.99"/><rect class="cls-10" x="653.5" y="2685.19" width="2009.61" height="98.67" rx="8.99"/><path class="cls-12" d="M2375.37,1702.43H1381.21a79.51,79.51,0,0,1-79.51-79.51V1190.11a79.51,79.51,0,0,1,82-79.47l994.16,31.8a79.51,79.51,0,0,1,77,79.47v401A79.51,79.51,0,0,1,2375.37,1702.43Z"/><polygon class="cls-12" points="2033.9 1699.16 2166.01 1858.79 2217.05 1699.16 2033.9 1699.16"/><path class="cls-1" d="M1756.36,1537.93,1534,1422.78v-36.51l222.32-115.89V1330l-151.83,74,151.83,74.53Z"/><path class="cls-1" d="M1973.92,1236.9l-114,352.36-59.24-.51,115.72-355Z"/><path class="cls-1" d="M2015,1484.35l137.11-63.3L2015,1340.57v-57.7l197.48,125.76v33.51L2015,1541.81Z"/><path class="cls-13" d="M912.09,2268.07c-17.3-36.06-29.68-73.8-32.57-114.89-7.28-103.55,52.91-198.9,97.13-288,40.64-81.94,70.85-204-66.28-193.16C801.12,1680.63,672.68,1789.51,658,1903c-17.35,134.37,48.07,303.81-29.49,425.87C520,2499.66,441.78,2460.53,441.78,2748.67c0,123.12,68.2,191,146.31,228.45a326.9,326.9,0,0,0,368.54-59.89c86.79-84,138.39-204.72,120.93-325.93C1059.94,2468.88,963.92,2376,912.09,2268.07Z"/><path class="cls-14" d="M820.43,3195.73a5.06,5.06,0,0,1-4.92-3.84c-68-271.38-105-517.39-110-731.2-4-171.27,12.4-322.42,48.76-449.26,62.16-216.87,159.82-286.63,164-289.5a5.08,5.08,0,0,1,5.79,8.34c-1,.69-99.35,71.28-160.37,285.3-56.43,197.9-91.53,562.2,61.71,1173.85a5.08,5.08,0,0,1-3.69,6.16A5.24,5.24,0,0,1,820.43,3195.73Z"/><path class="cls-15" d="M1398.27,2728.91c15.48-101.93-21.57-218.94-40.06-326.73-9.77-57-14.29-113.55-5.14-171,9.1-57.08,35.92-118.82,11.19-175.7-49.83-114.58-168.3-62.43-236.16,23.82C1049.36,2179.44,1027.83,2343,997.92,2469c-18,75.92-45.19,153.81-54.7,231.18-15.76,128.18,13.22,217.16,74.54,277.26a185.57,185.57,0,0,0,220.32,29.53C1303.07,2970.73,1373.32,2893.34,1398.27,2728.91Z"/><path class="cls-16" d="M1127.26,3203a5.09,5.09,0,0,1-5-4.24c-.26-1.54-26-157.06-26.7-371.65-.63-198.14,20.62-488.68,125.37-747.69a5.07,5.07,0,0,1,9.41,3.8c-104.11,257.42-125.24,546.49-124.63,743.66.65,213.81,26.3,368.66,26.56,370.2a5.08,5.08,0,0,1-4.16,5.85A6.22,6.22,0,0,1,1127.26,3203Z"/><polygon class="cls-17" points="2735.87 2434.02 2604.67 2544.78 2461.43 2442.34 2495.62 2348.89 2502.67 2313.22 2516.56 2242.59 2660.27 2238.67 2666.45 2263.83 2683.22 2331.71 2735.87 2434.02"/><path class="cls-17" d="M2723.25,2057.61c0,123.92-59.76,224.38-133.47,224.38s-133.48-100.46-133.48-224.38S2516.06,1897,2589.78,1897,2723.25,1933.7,2723.25,2057.61Z"/><path class="cls-18" d="M2737.18,1951.55c12.07,42.31-20.14,231.25-38.26,269.54s-58.11,60.39-112.87,60.9c-69.82.63-93.48-33.86-107.57-54s-15.34-58.85-33.56-203.91,96.91-164.41,139.22-164.41,62.27-.64,70.46,27.55C2714.86,1883.74,2725.1,1909.24,2737.18,1951.55Zm-133.61,20.94c-38.56,18-106.84-18.25-132.94,11.11s-10.07,123-1.48,162.33c3.36,15.53,47.65,3.35,74.86,17.65-37.45,35.33,0,65.49,41.2,65.49,39.13,0,76.24-12.48,51.27-60.39,19.16-20.81,60.4-1,68.62-18.73,11.94-25.36,5.27-143.64,5.27-143.64-16.31-4.9-53.69-50.56-53.69-84.79A112.24,112.24,0,0,1,2603.57,1972.49Z"/><path class="cls-18" d="M2543.94,2049.66c0,10.57-5.84,19.13-13,19.13s-13.05-8.56-13.05-19.13,5.84-19.12,13.05-19.12S2543.94,2038.93,2543.94,2049.66Z"/><path class="cls-18" d="M2655.57,2049.66c0,10.57-5.83,19.13-13.05,19.13s-13.05-8.56-13.05-19.13,5.87-19.12,13.05-19.12S2655.57,2038.93,2655.57,2049.66Z"/><path class="cls-1" d="M2549.65,2181.46h76.83s-8.28,33.25-35.3,33.25S2552.9,2195.25,2549.65,2181.46Z"/><path class="cls-19" d="M2588.06,2068.62s-49,78.52,0,78.41Z"/><path class="cls-20" d="M2815.69,2642.65c-4.09,1.35-7.78,2.59-11,3.76,1.88,17.58,4,58.69,6.21,97l.26,4.36c.61,10.67,1.28,21,1.92,30.5,1.17,17.35,2.35,31.91,3.55,40.26,3.56,20.14,6.41,41.17,8.69,60.8,5.78,49.56,7.86,90.8,7.86,90.8-9.57-.27-473.11,0-473.11,0l2.38-80.06,1.61-52.78,1.51-50.06,4.13-138.41a152.07,152.07,0,0,0-20.13-4.4c-33.79-5.83-93.45-12.21-116.26-14.52l-9.23-1s51.27-214,82.78-247.92c57.34-36.07,116.86-50.13,195.41-67.75,0,0-4.9,29.66,9.7,55.2,35.2,61.4,151.59,50.33,167.13-18.56,3.72-16.54-.57-36.6-.57-36.6s161.05,33.55,192.29,70.69c24.43,41.27,69.32,223.74,69.32,223.74s-4.43,1.1-11.74,3.08C2904.2,2617.12,2847.73,2632.18,2815.69,2642.65Z"/><polygon class="cls-21" points="2772.07 2515.85 2804.68 2646.41 2811.2 2747.81 2772.07 2641.58 2772.07 2515.85"/><polygon class="cls-21" points="2391.57 2720.09 2374.09 2794.75 2364.2 2837.16 2365.7 2787.13 2369.83 2648.69 2391.57 2506.02 2391.57 2720.09"/><path class="cls-18" d="M2291.52,3058.48s-164.41,8.79-202.13,25.67,5.71,102.2,32.05,105.79c19.26,2.65,182.33-13.82,205.38-37.61Z"/><path class="cls-17" d="M2291.52,3058.48s-71.37,15.17-84.66,32.48-15.6,64.46-5.73,66.4,22.34,17.45,125.69-5Z"/><path class="cls-22" d="M2289.71,3057.64l36.5,96.3,677.35-124.15c66-14.59,180.45-75.12,165.72-127.1-17.89-63-69.49-103.34-134.65-85.06Z"/><path class="cls-17" d="M2374.13,2794.75l-8.43-7.62-43.61-39.25,27.44-103.55c-33.79-5.84-93.44-12.21-116.26-14.53l-25.64,132.4a40.77,40.77,0,0,0,18.29,42.42L2362.58,2890,2409,2918.9l36.2-60Z"/><path class="cls-17" d="M2960.57,2760.06l-32-149.35c-24.32,6.41-80.8,21.47-112.84,31.94l29.93,105.16-32.51,30.5-88.38,82.78,37.28,59.32,63.34-41.17,117.44-76.4A40.79,40.79,0,0,0,2960.57,2760.06Z"/><path class="cls-23" d="M2906.12,3056.27,2871,3153.1l-700.76-123.24c-66.27-13.66-142.8-66.33-144-105.36-1.61-54,76.57-123,142-105.59Z"/><path class="cls-18" d="M2906.12,3056.27s173.07,11.47,211.38,26.84-13.65,94.75-39.82,99.42c-19.13,3.35-182.74-6.51-206.73-29.36Z"/><path class="cls-17" d="M2906.12,3056.27s68.28,13.92,82.24,30.7,18.15,63.75,8.39,66.13-21.61,18.32-125.8,0Z"/><path class="cls-24" d="M2847.7,2641.65l-36.1,284.87H2353l-5.36-42.45-30.81-242.42a32.11,32.11,0,0,1,32.11-32.11h466.7a32.07,32.07,0,0,1,32.11,32Z"/><rect class="cls-25" x="2343.93" y="2926.52" width="476.66" height="26.91" rx="9.09"/><path class="cls-25" d="M2582.26,2731.64a36.62,36.62,0,0,0-8.22.94,28.85,28.85,0,0,1,.23,3.35,29.5,29.5,0,0,1-29.32,29.5v3.65a37.48,37.48,0,1,0,37.48-37.48h0Z"/></g></svg>