<?xml version="1.0" encoding="utf-8"?>
<!-- Generator: Adobe Illustrator 24.0.1, SVG Export Plug-In . SVG Version: 6.00 Build 0)  -->
<svg version="1.1" id="Calque_1" xmlns="http://www.w3.org/2000/svg" xmlns:xlink="http://www.w3.org/1999/xlink" x="0px" y="0px"
	 viewBox="0 0 1366 768" style="enable-background:new 0 0 1366 768;" xml:space="preserve">
<style type="text/css">
	.st0{fill-rule:evenodd;clip-rule:evenodd;fill:#FEFEFE;}
	.st1{fill-rule:evenodd;clip-rule:evenodd;fill:#117BB8;}
</style>
<path class="st0" d="M645.2,523.6h60.4V372.4h42.3l4.3-50.9h-46.6c0,0,0-19,0-29c0-12.4,2.4-17.1,14.3-17.1c9,0,32.3,0,32.3,0v-52.8
	c0,0-34.2,0-41.9,0c-44.7,0-65.2,20-65.2,57.6c0,33.3,0,40.9,0,40.9h-31.4v50.9h31.4L645.2,523.6L645.2,523.6z"/>
<path class="st0" d="M717.5,367.1H616.7l0.5,29h67.5c-8.1,34.7-32.8,56.1-65.6,56.1c-43.8,0-79-35.2-79-78.5c0-43.8,35.2-79,79-79
	c20.5,0,39,7.6,53.3,20.9l22.4-19c-19-19-46.1-30.9-75.6-30.9c-59.9,0-108,48-108,108c0,59.5,48,107.5,108,107.5
	c57.1,0,98.5-43.8,98.5-103.2V367.1z"/>
<polygon class="st0" points="854.9,369 813.6,369 813.6,327.7 787.4,327.7 787.4,369 745.6,369 745.6,395.7 787.4,395.7 787.4,437 
	813.6,437 813.6,395.7 854.9,395.7 "/>
<path class="st1" d="M513,77H853c67.5,0,123.2,50.4,123.2,111.6v313.8c0,61.2-55.6,111.6-123.2,111.6H513
	c-67.5,0-123.2-50.4-123.2-111.6V188.6C389.8,127.4,445,77,513,77L513,77z"/>
<rect x="562.9" y="265.8" class="st0" width="51.4" height="166"/>
<path class="st0" d="M593.4,236.5c17.1,0,30.4-14.3,30.4-30.4c0-17.1-13.8-30.9-30.4-30.9s-30.4,13.8-30.4,30.9
	C562.9,222.3,576.7,236.5,593.4,236.5L593.4,236.5z"/>
<path class="st0" d="M697,344.1c0-23.8,10.9-37.6,30.9-37.6c19,0,28.1,13.3,28.1,37.6c0,23.8,0,87,0,87h50.9c0,0,0-60.9,0-105.1
	c0-44.2-25.2-66.1-60.4-66.1c-35.2,0-49.9,27.6-49.9,27.6v-22.4h-49.5v166h49.5C697,431.1,697,369.8,697,344.1L697,344.1z"/>
</svg>
