<?xml version="1.0" encoding="utf-8"?>
<!-- Generator: Adobe Illustrator 16.0.0, SVG Export Plug-In . SVG Version: 6.00 Build 0)  -->
<!DOCTYPE svg PUBLIC "-//W3C//DTD SVG 1.1//EN" "http://www.w3.org/Graphics/SVG/1.1/DTD/svg11.dtd">
<svg version="1.1" id="Layer_1" xmlns="http://www.w3.org/2000/svg" xmlns:xlink="http://www.w3.org/1999/xlink" x="0px" y="0px"
	 width="335.986px" height="235.19px" viewBox="0 0 335.986 235.19" enable-background="new 0 0 335.986 235.19"
	 xml:space="preserve">
<g>
	<g>
		<rect x="0.244" fill="#EAECF0" width="335.986" height="235.19"/>
	</g>
</g>
<g>
	
		<rect x="299.001" y="183.18" fill-rule="evenodd" clip-rule="evenodd" fill="#FFFFFF" stroke="#34525C" stroke-width="2" stroke-miterlimit="10" width="12.023" height="31.503"/>
	
		<rect x="282.271" y="176.383" fill-rule="evenodd" clip-rule="evenodd" fill="#FFFFFF" stroke="#34525C" stroke-width="2" stroke-miterlimit="10" width="12.062" height="38.85"/>
	
		<rect x="265.561" y="193.348" fill-rule="evenodd" clip-rule="evenodd" fill="#FFFFFF" stroke="#34525C" stroke-width="2" stroke-miterlimit="10" width="12.062" height="21.885"/>
</g>
<g>
	<path fill="#FFFFFF" stroke="#34525C" stroke-width="2" stroke-miterlimit="10" d="M302.312,102.503
		c-0.596,1.815-1.543,3.451-2.807,4.825l9.579,13.384c4.837-4.174,8.315-9.885,9.634-16.394L302.312,102.503z"/>
	<path fill="#FFFFFF" stroke="#34525C" stroke-width="2" stroke-miterlimit="10" d="M292.527,85.538
		c5.582,1.152,9.813,5.861,10.364,11.64l16.392,1.811c0-0.187,0.026-0.372,0.026-0.556c0-15.366-11.768-27.97-26.782-29.324V85.538z
		"/>
	<path fill="#FFFFFF" stroke="#34525C" stroke-width="2" stroke-miterlimit="10" d="M280.142,89.601
		c1.836-2.019,4.256-3.491,7.031-4.062v-16.43c-8.738,0.791-16.354,5.396-21.214,12.133L280.142,89.601z"/>
	<path fill="#FFFFFF" stroke="#34525C" stroke-width="2" stroke-miterlimit="10" d="M295.167,110.461
		c-1.631,0.723-3.42,1.137-5.314,1.137c-7.277,0-13.174-5.892-13.174-13.165c0-1.483,0.299-2.884,0.752-4.214l-14.187-8.358
		c-1.81,3.812-2.851,8.066-2.851,12.572c0,16.272,13.187,29.455,29.459,29.455c5.431,0,10.5-1.492,14.872-4.059L295.167,110.461z"/>
</g>
<path fill="#FFFFFF" stroke="#34525C" stroke-width="2" stroke-miterlimit="10" d="M42.027,104.888H24.899
	c-3.012,0-5.479,2.467-5.479,5.479v4.835v4.837c0,3.013,2.467,5.478,5.479,5.478h17.128c3.015,0,5.48-2.465,5.48-5.478v-4.837
	v-4.835C47.508,107.354,45.042,104.888,42.027,104.888z"/>
<path fill-rule="evenodd" clip-rule="evenodd" fill="#84DBFF" d="M38.272,115.658l-7.535,5.479
	c-0.158,0.116-0.363,0.172-0.574,0.182c-0.017,0.001-0.033,0.01-0.051,0.01c-0.426,0-0.768-0.343-0.768-0.765v-10.721
	c0-0.423,0.342-0.764,0.762-0.765h-0.001h0.007l0.008,0.003c0.229,0.002,0.447,0.063,0.617,0.185l7.535,5.479
	C38.619,114.996,38.619,115.405,38.272,115.658z"/>
<path fill="#FFFFFF" stroke="#34525C" stroke-width="2" stroke-miterlimit="10" d="M169.077,34.206h-17.126
	c-3.013,0-5.479,2.467-5.479,5.479v4.835v4.837c0,3.013,2.467,5.478,5.479,5.478h17.126c3.016,0,5.48-2.465,5.48-5.478v-4.837
	v-4.835C174.558,36.673,172.093,34.206,169.077,34.206z"/>
<path fill-rule="evenodd" clip-rule="evenodd" fill="#84DBFF" d="M165.323,44.977l-7.535,5.479
	c-0.158,0.116-0.363,0.172-0.574,0.182c-0.017,0.001-0.033,0.01-0.051,0.01c-0.424,0-0.768-0.343-0.768-0.765V39.161
	c0-0.423,0.344-0.764,0.763-0.765h-0.003h0.008l0.008,0.003c0.228,0.002,0.447,0.063,0.617,0.185l7.535,5.479
	C165.669,44.314,165.669,44.724,165.323,44.977z"/>
<path fill="#FFFFFF" stroke="#34525C" stroke-width="2" stroke-miterlimit="10" d="M279.854,138.697h-17.128
	c-3.012,0-5.479,2.467-5.479,5.479v4.835v4.837c0,3.013,2.467,5.478,5.479,5.478h17.128c3.015,0,5.479-2.465,5.479-5.478v-4.837
	v-4.835C285.333,141.164,282.868,138.697,279.854,138.697z"/>
<path fill-rule="evenodd" clip-rule="evenodd" fill="#84DBFF" d="M276.099,149.468l-7.535,5.479
	c-0.158,0.116-0.363,0.172-0.574,0.182c-0.017,0.001-0.033,0.01-0.051,0.01c-0.425,0-0.768-0.343-0.768-0.765v-10.721
	c0-0.423,0.343-0.764,0.763-0.765h-0.003h0.008c0.004,0,0.008,0.003,0.008,0.003c0.227,0.002,0.447,0.063,0.617,0.185l7.535,5.479
	C276.446,148.806,276.446,149.215,276.099,149.468z"/>
<path fill-rule="evenodd" clip-rule="evenodd" fill="#FFFFFF" stroke="#34525C" stroke-width="2" stroke-miterlimit="10" d="
	M171.385,168.187H93.61V70.472c0-2.937,2.384-5.321,5.32-5.321h72.454h68.47c2.938,0,5.317,2.385,5.317,5.321v97.715H171.385z"/>
<path fill-rule="evenodd" clip-rule="evenodd" fill="#FFFFFF" stroke="#34525C" stroke-width="2" stroke-miterlimit="10" d="
	M265.114,168.187c0,4.402-3.5,7.977-7.824,7.977H81.496c-4.325,0-7.827-3.574-7.827-7.977H265.114z"/>
<path fill-rule="evenodd" clip-rule="evenodd" fill="#FFFFFF" stroke="#34525C" stroke-width="2" stroke-miterlimit="10" d="
	M75.104,172.778c1.417,2.045,3.748,3.385,6.392,3.385H257.29c2.644,0,4.976-1.34,6.389-3.385H75.104z"/>
<path fill-rule="evenodd" clip-rule="evenodd" fill="#FFFFFF" stroke="#34525C" stroke-width="2" stroke-miterlimit="10" d="
	M99.229,161.818V71.52h140.327v90.299H99.229z"/>
<g>
	
		<rect x="210.346" y="92.997" fill="#FFFFFF" stroke="#34525C" stroke-width="2" stroke-miterlimit="10" width="21.242" height="1.427"/>
	
		<rect x="210.346" y="98.498" fill="#FFFFFF" stroke="#34525C" stroke-width="2" stroke-miterlimit="10" width="21.242" height="1.427"/>
	
		<rect x="210.346" y="103.998" fill="#FFFFFF" stroke="#34525C" stroke-width="2" stroke-miterlimit="10" width="21.242" height="1.427"/>
	
		<rect x="210.346" y="109.498" fill="#FFFFFF" stroke="#34525C" stroke-width="2" stroke-miterlimit="10" width="21.242" height="1.428"/>
	
		<rect x="210.346" y="120.501" fill="#FFFFFF" stroke="#34525C" stroke-width="2" stroke-miterlimit="10" width="21.242" height="1.427"/>
	
		<rect x="210.346" y="126.002" fill="#FFFFFF" stroke="#34525C" stroke-width="2" stroke-miterlimit="10" width="21.242" height="1.427"/>
	
		<rect x="210.346" y="131.502" fill="#FFFFFF" stroke="#34525C" stroke-width="2" stroke-miterlimit="10" width="21.242" height="1.428"/>
	
		<rect x="210.346" y="142.504" fill="#FFFFFF" stroke="#34525C" stroke-width="2" stroke-miterlimit="10" width="21.242" height="1.427"/>
</g>
<g>
	
		<rect x="108.687" y="99.289" fill="#FFFFFF" stroke="#34525C" stroke-width="2" stroke-miterlimit="10" width="21.243" height="0.636"/>
	
		<rect x="108.687" y="103.998" fill="#FFFFFF" stroke="#34525C" stroke-width="2" stroke-miterlimit="10" width="21.243" height="1.427"/>
	
		<rect x="108.687" y="109.498" fill="#FFFFFF" stroke="#34525C" stroke-width="2" stroke-miterlimit="10" width="21.243" height="1.428"/>
	
		<rect x="108.687" y="120.501" fill="#FFFFFF" stroke="#34525C" stroke-width="2" stroke-miterlimit="10" width="21.243" height="1.427"/>
	
		<rect x="108.687" y="126.002" fill="#FFFFFF" stroke="#34525C" stroke-width="2" stroke-miterlimit="10" width="21.243" height="1.427"/>
	
		<rect x="108.687" y="131.502" fill="#FFFFFF" stroke="#34525C" stroke-width="2" stroke-miterlimit="10" width="21.243" height="1.428"/>
	
		<rect x="108.687" y="142.504" fill="#FFFFFF" stroke="#34525C" stroke-width="2" stroke-miterlimit="10" width="21.243" height="1.427"/>
</g>
<rect x="304.502" y="148.291" transform="matrix(-1 -0.0012 0.0012 -1 624.5764 299.0296)" fill="#34525C" width="15.758" height="2.061"/>
<rect x="297.069" y="152.92" fill="#34525C" width="23.252" height="2.061"/>
<rect x="16.467" y="51.884" transform="matrix(1 0.0012 -0.0012 1 0.0656 -0.0301)" fill="#34525C" width="15.758" height="2.061"/>
<rect x="16.405" y="47.255" fill="#34525C" width="23.252" height="2.061"/>
<g>
	
		<rect x="272.766" y="46.916" fill="#FFFFFF" stroke="#34525C" stroke-width="2" stroke-miterlimit="10" width="9.713" height="9.711"/>
</g>
<g>
	
		<rect x="30.642" y="82.192" fill="#FFFFFF" stroke="#34525C" stroke-width="2" stroke-miterlimit="10" width="9.713" height="9.711"/>
</g>
<g>
	
		<rect x="91.259" y="190.159" fill="#FFFFFF" stroke="#34525C" stroke-width="2" stroke-miterlimit="10" width="9.713" height="9.711"/>
</g>
<g>
	<rect x="195.751" y="24.496" fill="#34525C" width="1.289" height="3.869"/>
	<rect x="197.697" y="29.438" fill="#34525C" width="3.869" height="1.29"/>
	<rect x="195.751" y="31.799" fill="#34525C" width="1.289" height="3.869"/>
	<rect x="191.225" y="29.438" fill="#34525C" width="3.87" height="1.29"/>
</g>
<g>
	<rect x="66.347" y="105.34" fill="#34525C" width="1.29" height="3.869"/>
	<rect x="68.292" y="110.281" fill="#34525C" width="3.87" height="1.29"/>
	<rect x="66.347" y="112.643" fill="#34525C" width="1.29" height="3.869"/>
	<rect x="61.821" y="110.281" fill="#34525C" width="3.869" height="1.29"/>
</g>
<g>
	<rect x="244.527" y="188.275" fill="#34525C" width="1.29" height="3.869"/>
	<rect x="246.474" y="193.217" fill="#34525C" width="3.869" height="1.29"/>
	<rect x="244.527" y="195.578" fill="#34525C" width="1.29" height="3.869"/>
	<rect x="240.001" y="193.217" fill="#34525C" width="3.87" height="1.29"/>
</g>
<rect x="214.263" y="50.876" fill="#34525C" width="20.719" height="2.061"/>
<rect x="146.036" y="16.134" fill="#34525C" width="20.719" height="2.061"/>
<rect x="155.224" y="21.11" fill="#34525C" width="20.719" height="2.061"/>
<rect x="83.251" y="214.202" fill="#34525C" width="20.719" height="2.061"/>
<rect x="24.501" y="21.471" fill="#34525C" width="16.982" height="2.061"/>
<rect x="205.04" y="46.149" fill="#34525C" width="44.994" height="2.061"/>
<rect x="33.801" y="198.26" fill="#34525C" width="28.444" height="2.061"/>
<rect x="33.801" y="207.615" fill="#34525C" width="20.718" height="2.061"/>
<rect x="24.578" y="202.889" fill="#34525C" width="44.995" height="2.061"/>
<path fill-rule="evenodd" clip-rule="evenodd" fill="#FFFFFF" stroke="#34525C" stroke-width="2" stroke-miterlimit="10" d="
	M227.536,210.939c0,3.396-2.777,6.176-6.174,6.176h-92.88c-3.396,0-6.174-2.779-6.174-6.176v-14.042
	c0-3.396,2.778-6.175,6.174-6.175h92.88c3.396,0,6.174,2.778,6.174,6.175V210.939z"/>
<path fill-rule="evenodd" clip-rule="evenodd" fill="#FFFFFF" stroke="#34525C" stroke-width="2" stroke-miterlimit="10" d="
	M148.349,190.723h-19.866c-3.396,0-6.174,2.778-6.174,6.175v14.042c0,3.396,2.778,6.176,6.174,6.176h19.866V190.723z"/>
<rect x="155.141" y="201.043" fill="#FFFFFF" stroke="#34525C" stroke-width="2" stroke-miterlimit="10" width="62.345" height="5.751"/>
<rect x="155.141" y="201.043" fill="#FFFFFF" stroke="#34525C" stroke-width="2" stroke-miterlimit="10" width="30.36" height="5.751"/>
<g>
	<path fill="#FFFFFF" stroke="#34525C" stroke-width="2" stroke-miterlimit="10" d="M143.459,203.921
		c0,4.486-3.64,8.128-8.131,8.128c-4.485,0-8.131-3.642-8.131-8.128c0-4.491,3.646-8.133,8.131-8.133
		C139.819,195.788,143.459,199.43,143.459,203.921z"/>
</g>
<g>
	<path fill="#84DBFF" d="M132.157,207.855c0,0.784,0.551,1.09,1.215,0.681l6.348-3.87c0.666-0.414,0.666-1.079,0-1.488l-6.348-3.874
		c-0.664-0.409-1.215-0.102-1.215,0.681V207.855z"/>
</g>
<circle fill="#FFFFFF" stroke="#34525C" stroke-width="2" stroke-miterlimit="10" cx="186.314" cy="203.919" r="4.409"/>
<rect x="52.337" y="24.811" fill-rule="evenodd" clip-rule="evenodd" fill="#FFFFFF" stroke="#34525C" stroke-width="2" stroke-miterlimit="10" width="79.025" height="67.13"/>
<g>
	<path fill-rule="evenodd" clip-rule="evenodd" fill="#FFFFFF" d="M52.337,21.731c0-1.65,1.35-3,3-3h73.025c1.65,0,3,1.35,3,3v6.157
		c0,1.65-1.35,3-3,3H55.337c-1.65,0-3-1.35-3-3V21.731z"/>
	<path fill="none" stroke="#34525C" stroke-width="2" stroke-miterlimit="10" d="M52.337,21.731c0-1.65,1.35-3,3-3h73.025
		c1.65,0,3,1.35,3,3v6.157c0,1.65-1.35,3-3,3H55.337c-1.65,0-3-1.35-3-3V21.731z"/>
</g>
<rect x="63.012" y="38.334" fill="#FFFFFF" stroke="#34525C" stroke-width="2" stroke-miterlimit="10" width="59.297" height="8.895"/>
<rect x="101.362" y="78.402" fill="#FFFFFF" stroke="#34525C" stroke-width="2" stroke-miterlimit="10" width="20.946" height="5.645"/>
<rect x="63.012" y="52.151" fill="#FFFFFF" stroke="#34525C" stroke-width="2" stroke-miterlimit="10" width="59.297" height="21.181"/>
<rect x="65.812" y="54.701" fill="#84DBFF" width="45.017" height="16.08"/>
<g>
	<polygon fill="#84DBFF" points="184.194,100.315 188.269,104.283 177.253,117.132 165.161,106.627 146.812,125.051 
		146.812,134.373 165.335,115.755 177.497,126.337 192.696,108.602 196.653,112.454 199.683,96.032 	"/>
</g>
<polygon fill="#FFFFFF" stroke="#34525C" stroke-width="2" stroke-miterlimit="10" points="146.186,139.398 146.186,88.989 
	142.374,88.989 142.374,139.398 142.374,143.01 142.374,143.21 196.396,143.21 196.396,139.398 "/>
<polygon fill="#FFFFFF" stroke="#34525C" stroke-width="2" stroke-miterlimit="10" points="82.527,140.479 18.454,140.479 
	18.454,182.277 61.019,182.277 72.868,191.204 72.868,182.277 82.527,182.277 "/>
<rect x="46.239" y="168.996" fill="#84DBFF" width="29.877" height="4.727"/>
<rect x="71.351" y="158.819" fill="#FFFFFF" stroke="#34525C" stroke-width="2" stroke-miterlimit="10" width="4.766" height="4.731"/>
<rect x="24.864" y="168.996" fill="#FFFFFF" stroke="#34525C" stroke-width="2" stroke-miterlimit="10" width="16.619" height="4.727"/>
<rect x="24.864" y="147.699" fill="#FFFFFF" stroke="#34525C" stroke-width="2" stroke-miterlimit="10" width="51.252" height="16.192"/>
<path fill-rule="evenodd" clip-rule="evenodd" fill="#FFFFFF" stroke="#34525C" stroke-width="2" stroke-miterlimit="10" d="
	M220.362,21.968c0-2.75,2.25-5,5-5h75.207c2.75,0,5,2.25,5,5v11.371c0,2.75-2.25,5-5,5h-75.207c-2.75,0-5-2.25-5-5V21.968z"/>
<path fill-rule="evenodd" clip-rule="evenodd" fill="#FFFFFF" stroke="#34525C" stroke-width="2" stroke-miterlimit="10" d="
	M284.483,38.339h16.086c2.75,0,5-2.25,5-5V21.968c0-2.75-2.25-5-5-5h-16.086V38.339z"/>
<rect x="228.5" y="22.501" fill="#84DBFF" width="50.482" height="10.307"/>
<g>
	<g>
		<g>
			<path fill="#84DBFF" stroke="#84DBFF" stroke-miterlimit="10" d="M299.114,31.112l-3.017-3.014
				c0.814-1.43,0.609-3.285-0.606-4.502c-1.46-1.461-3.838-1.461-5.295,0c-1.463,1.461-1.463,3.834,0,5.297
				c1.214,1.213,3.072,1.418,4.5,0.605l3.015,3.014c0.387,0.391,1.017,0.391,1.403,0C299.5,32.13,299.5,31.499,299.114,31.112
				L299.114,31.112z M294.743,28.149c-1.047,1.045-2.752,1.045-3.805,0c-1.049-1.053-1.049-2.758,0-3.809
				c1.053-1.047,2.758-1.047,3.805,0C295.792,25.392,295.792,27.097,294.743,28.149L294.743,28.149z M294.743,28.149"/>
		</g>
	</g>
</g>
</svg>
