<svg id="Design" xmlns="http://www.w3.org/2000/svg" viewBox="0 0 600.25 559.08"><defs><style>.cls-1{fill:#b9fcea;}.cls-2{fill:#0eaa8c;}.cls-3{fill:#18efc6;}.cls-4{fill:#f4d37e;}.cls-5{fill:#fef3f9;}.cls-6{fill:#0bceaf;}.cls-7{fill:#08876f;}.cls-8{fill:#a796ff;}.cls-9{fill:#fc8e53;}.cls-10{fill:#fdeab1;}.cls-11{fill:#065b4b;}.cls-12{fill:#0baf8f;}.cls-13{fill:#0b7f69;}.cls-14{fill:#deb449;}.cls-15{fill:#232323;}.cls-16{fill:#fff;}.cls-17{fill:#095647;}.cls-18{fill:#041e19;}.cls-19{fill:#0b826b;}.cls-20{fill:#0e8c74;}.cls-21{fill:#e6e7e8;}.cls-22{fill:#d1d3d4;}.cls-23{fill:#fbf3fe;}.cls-24{fill:#f28c55;}.cls-25{fill:none;stroke:#fff;stroke-miterlimit:10;stroke-width:1.1px;}</style></defs><title>portfolio_header</title><path class="cls-1" d="M551.19,279.67c1.13-.55,2.27-1.08,3.44-1.58C590,263,628,286.6,664.32,286.28c33.57-.29,65.54-17.48,99.1-16.88,10,.19,20.31,2.12,28.5,8.06,8.89,6.45,14.26,16.83,21.78,25,17.46,18.84,47.11,26.49,56,51,7,19.28-2.41,40.24-9.8,59.35-12.67,32.72-19.85,69.58-9.53,103.17,7.4,24.05,23.37,45.19,26.76,70.18,3,21.95-4.21,44.44-14.56,63.61-13.76,25.48-13.65,54.61-20.39,82.13-4.41,18-13.37,36.19-29.57,45.19-14.54,8.09-31.62,7.23-47.7,8.13-16.61.92-32.52,1.75-49.19-.19-28.14-3.27-55.8-10.07-84.11-12.07-51.65-3.68-103,8.86-154.65,11.53-28.5,1.47-58.74-.58-82.58-16.82-20.34-13.86-33.85-37.08-39-61.72s-2.43-50.59,4.93-74.63c8.95-29.27,24.87-58,21.48-88.48-2.12-19.12-11.7-36.39-17.17-54.79-7.5-25.26-6.91-53.55,4.26-77.31A84.16,84.16,0,0,1,399,375.94c14.93-9.64,31.71-7.55,48-13.73C489.19,346.24,511.49,299.17,551.19,279.67Z" transform="translate(-277.57 -227.08)"/><path class="cls-2" d="M820.75,502H810.53a68,68,0,0,0-7.7-18.61l7.22-7.22a6.14,6.14,0,0,0,0-8.68h0l-14.88-14.88a6.14,6.14,0,0,0-8.67,0h0l-7.23,7.23a68.44,68.44,0,0,0-18.6-7.71V441.86a6.14,6.14,0,0,0-6.14-6.14h-21a6.14,6.14,0,0,0-6.14,6.14h0v10.22a68.63,68.63,0,0,0-18.61,7.71l-7.23-7.23a6.14,6.14,0,0,0-8.67,0h0L678,467.44a6.15,6.15,0,0,0,0,8.69h0l7.23,7.22A68,68,0,0,0,677.48,502H667.23a6.14,6.14,0,0,0-6.14,6.14h0v21a6.13,6.13,0,0,0,6.14,6.14h10.22a67.81,67.81,0,0,0,7.71,18.6l-7.2,7.28a6.13,6.13,0,0,0,0,8.67h0l14.88,14.89a6.15,6.15,0,0,0,8.68,0l7.23-7.23a68,68,0,0,0,18.61,7.71v10.27a6.13,6.13,0,0,0,6.14,6.14h21a6.13,6.13,0,0,0,6.16-6.12V585.17a67.86,67.86,0,0,0,18.6-7.73l7.23,7.23a6.15,6.15,0,0,0,8.68,0l14.88-14.89a6.12,6.12,0,0,0,0-8.66v0l-7.22-7.23a67.79,67.79,0,0,0,7.7-18.6h10.22a6.13,6.13,0,0,0,6.15-6.13h0v-21a6.14,6.14,0,0,0-6.11-6.17ZM744,560.14a41.52,41.52,0,1,1,41.52-41.52A41.51,41.51,0,0,1,744,560.14Z" transform="translate(-277.57 -227.08)"/><path class="cls-3" d="M605.8,483.44h-7.61a51.09,51.09,0,0,0-5.74-13.86l5.38-5.38a4.57,4.57,0,0,0,0-6.46h0l-11.08-11.09a4.61,4.61,0,0,0-6.47,0L574.89,452A50.83,50.83,0,0,0,561,446.29v-7.62a4.58,4.58,0,0,0-4.57-4.57H540.78a4.59,4.59,0,0,0-4.57,4.57v7.62A50.83,50.83,0,0,0,522.35,452L517,446.68a4.61,4.61,0,0,0-6.47,0l-11.08,11.09a4.58,4.58,0,0,0,0,6.47h0l5.38,5.38a51.48,51.48,0,0,0-5.74,13.82h-7.61a4.59,4.59,0,0,0-4.58,4.58h0v15.67a4.58,4.58,0,0,0,4.58,4.58h7.61a51.15,51.15,0,0,0,5.74,13.86l-5.38,5.38a4.58,4.58,0,0,0,0,6.47h0l11.08,11.09a4.59,4.59,0,0,0,6.47,0l5.39-5.39a50,50,0,0,0,13.86,5.76v7.62a4.58,4.58,0,0,0,4.57,4.57h15.68a4.57,4.57,0,0,0,4.57-4.57h0v-7.62a50.21,50.21,0,0,0,13.86-5.74l5.39,5.39a4.59,4.59,0,0,0,6.47,0L597.83,534a4.57,4.57,0,0,0,0-6.46h0l-5.38-5.38a50.83,50.83,0,0,0,5.74-13.86h7.61a4.58,4.58,0,0,0,4.58-4.58h0V488.06a4.59,4.59,0,0,0-4.54-4.62Zm-57.18,43.34a30.93,30.93,0,1,1,30.93-30.93h0a30.91,30.91,0,0,1-30.87,31h-.06Z" transform="translate(-277.57 -227.08)"/><path class="cls-4" d="M474.29,586.08c-.67-1.92-1.33-3.79-2-5.63Z" transform="translate(-277.57 -227.08)"/><path class="cls-4" d="M472.18,596.94V580.38a129.84,129.84,0,0,0-11.58-22.94C456.33,562,455,576,455,576c.4-14.53,1.95-18.87,2.1-23.62-6.28-8.19-15.87-12.63-23.45-17.51,3,17.27,2.81,21.62,2.81,21.62-1-10.34-4.39-17.5-6.09-23.64C411,521.51,401,524.49,401,524.49c.19,7.29,2.56,23.47,3.28,29.71A178.62,178.62,0,0,0,423.75,568c-5.85-1.88-13.52-6.42-19-9.92,1.24,9,1.13,7.54,3.45,14.68,8.12,7.42,24.61,15.92,24.61,15.92-7.16-1.74-17.15-7.13-22.61-10.27A98.64,98.64,0,0,0,429,608.93a179.79,179.79,0,0,0,17.38,6.51,68.24,68.24,0,0,1-14.07-2.87c9,9.44,19.63,17.84,31.37,27.26l11.88,4.82,3.73-17.74c1.72-14.14-.78-28.27-4.91-40.68Z" transform="translate(-277.57 -227.08)"/><path class="cls-5" d="M462.78,614.11c2.24,4.22,4.39,8.51,6.31,12.93a76.72,76.72,0,0,1,4.7,13.73l-.21.06a75.38,75.38,0,0,0-5.06-13.47c-2-4.32-4.3-8.51-6.65-12.63-4.69-8.25-9.75-16.25-14.83-24.22S436.68,574.68,432,566.44c-2.39-4.12-4.73-8.28-6.93-12.53s-4.29-8.59-6.14-13l.19-.11c4.73,8.26,9.65,16.33,14.65,24.36s9.83,16.2,14.76,24.31S458.25,605.7,462.78,614.11Z" transform="translate(-277.57 -227.08)"/><path class="cls-6" d="M447.3,641c.15-17.51,1.28-24.88,0-30.66a97.35,97.35,0,0,0-31.62-15.28c8.94,19.63,6.73,33.5,6.73,33.5-.48-14.2-7.37-27.94-11.3-34.68A134.78,134.78,0,0,0,361,591.82c2.46,8.7,5.08,16.62,7.86,23.85,11.93,5.27,27.62,9.25,27.62,9.25-7.62,0-18.23-2.61-25.85-4.77a165.27,165.27,0,0,0,13.84,27C396.48,653,418.91,657,418.91,657c-9.14.62-22.81-2.09-30.33-3.8a113.45,113.45,0,0,0,31.78,29.62,221,221,0,0,0,23,1.27c-5,1.27-11.63,1.75-17.81,1.87,13.74,8,29.08,14,46.09,20.93l15.77,1.31-1-22.75c-4.36-34.12-17.33-56.2-33.36-70.4C449.36,622.11,447.3,641,447.3,641Z" transform="translate(-277.57 -227.08)"/><path class="cls-7" d="M484,704.32A88.75,88.75,0,0,0,473.75,690c-3.79-4.43-7.79-8.58-11.91-12.68-8.17-8.15-16.7-15.86-25.26-23.53S419.27,638.69,411,630.57c-4.13-4.05-8.22-8.17-12.17-12.46s-7.78-8.7-11.38-13.36l.19-.2c8.22,8.15,16.62,16,25.09,23.77s16.79,15.77,25.2,23.66,16.79,15.86,24.81,24.28c4,4.22,7.89,8.57,11.56,13.16a90,90,0,0,1,9.85,14.75Z" transform="translate(-277.57 -227.08)"/><path class="cls-8" d="M791.61,641.44c1.34-1.18,2.64-2.38,3.88-3.59Z" transform="translate(-277.57 -227.08)"/><path class="cls-6" d="M782,642.79l13.61-5a105.85,105.85,0,0,0,14.58-17.64c-5.27-2.53-17.32.51-17.32.51,12.07-4.08,16.2-4,20.16-5.3,4.44-8.26,4.6-18.39,5.85-26.82-13.07,8.06-16.73,9.19-16.73,9.19,8.13-4.09,12.77-9.37,17.19-12.82,2.31-21.14-3.77-29.38-3.77-29.38-5.92,2.41-18.33,9.54-23.19,12.11a171.89,171.89,0,0,0-4.26,22c-.59-5.93.35-14.33,1.26-20.38-7,3.89-5.79,3.34-10.81,7.65-3.14,9.7-4.11,27.38-4.11,27.38-1.18-7.07-.39-17.87.2-23.82a83.26,83.26,0,0,0-18.24,26.41c0,8.87,1,18,1,18a73.1,73.1,0,0,1-2.76-13.76c-4.47,11.14-7.51,23.43-11,37l.34,12.27,15.92-2c12.23-2.76,22.93-9.37,31.61-17Z" transform="translate(-277.57 -227.08)"/><path class="cls-7" d="M764.41,639.44c-2.64,3.35-5.38,6.63-8.31,9.74a61.34,61.34,0,0,1-9.57,8.5l-.12-.17a60.59,60.59,0,0,0,9.22-8.75c2.8-3.19,5.42-6.54,8-10,5.07-6.82,9.79-13.89,14.49-21s9.22-14.33,14.25-21.22c2.52-3.44,5.08-6.86,7.77-10.17s5.49-6.55,8.47-9.61l.16.13c-5.06,6.86-9.89,13.84-14.67,20.87s-9.72,14-14.59,21S769.67,632.73,764.41,639.44Z" transform="translate(-277.57 -227.08)"/><path class="cls-9" d="M769.69,613.06c-.62,1.12-1.27,2.25-2,3.38Zm-2,3.48c-4.49,7.26-10.61,14.27-18.65,18.89l-10.82,4.91-3-8.65c-.53-10.4-1.07-19.75-.35-28.6a55.29,55.29,0,0,0,5,9.12s-2.67-6.21-4.61-12.48a61.56,61.56,0,0,1,7.13-22.67c.88,4.34,2.68,12.15,5.06,16.9,0,0-3.18-12.72-3.08-20.27,2.61-4.15,1.9-3.5,6-7.77.69,4.47,1.86,10.62,3.57,14.68a126.71,126.71,0,0,1-1.8-16.5c2.82-2.88,10.06-10.66,13.72-13.66,0,0,6.09,4.5,9.08,20-2.37,3.4-4.5,8.15-9.36,12.82,0,0,2.35-1.6,9.83-10.16,1,6.24,3.06,13.43,1.72,20.24-2.51,1.8-5.45,2.64-13.09,8.16,0,0,7.85-4.78,12.13-4.15A78.23,78.23,0,0,1,769.71,613l-8.52,6.53Zm-13.48-13.45c1.92-6,3.91-12,5.74-18s3.74-12,5.82-18l-.15-.06q-2.14,4.23-3.88,8.65c-1.18,2.93-2.25,5.91-3.27,8.89-2.06,6-3.67,12.08-5.45,18.12s-3.57,12.09-5.66,18a93.32,93.32,0,0,1-3.45,8.77,44.09,44.09,0,0,1-4.61,8.21l.13.09a44.84,44.84,0,0,0,4.91-8.1c1.39-2.84,2.61-5.76,3.75-8.7,2.23-5.86,4.18-11.86,6.1-17.87Z" transform="translate(-277.57 -227.08)"/><path class="cls-4" d="M778.18,676.67c11.58,3.76,16.2,6.13,20.33,6.4A78.55,78.55,0,0,0,816,662.94c-15.09,2.49-23.77-2-23.77-2,9.53,2.61,20.23.4,25.62-1.1a115.52,115.52,0,0,0,13-36.51c-6.35,0-12.2.28-17.65.82a174.3,174.3,0,0,0-12.54,18.43c1.8-5.6,6-12.89,9.16-18.06a112,112,0,0,0-21.12,4.57c-6.7,7.63-14.51,23.35-14.51,23.35,1.71-6.87,6.67-16.38,9.56-21.57a85.13,85.13,0,0,0-27,17.25c-3.49,8.06-6.17,16.68-6.17,16.68a72.85,72.85,0,0,1,2.89-13.52c-8.46,8.47-16,18.51-24.57,29.62l-4.53,11.35,15.31,4c23.63,3.9,41.28-1.06,54.42-9.92C790.23,682.13,778.18,676.67,778.18,676.67Z" transform="translate(-277.57 -227.08)"/><path class="cls-10" d="M727.7,690.44a61.15,61.15,0,0,0,11.85-4.54c3.81-1.86,7.51-3.94,11.16-6.11,7.3-4.32,14.39-9,21.47-13.72s14-9.61,21.34-14c3.65-2.2,7.33-4.35,11.08-6.37s7.58-3.93,11.5-5.61l.1.19c-7.32,4.36-14.46,8.91-21.59,13.53s-14.35,9.1-21.54,13.63-14.41,9.07-21.85,13.23c-3.73,2.06-7.52,4-11.41,5.78a61.37,61.37,0,0,1-12.07,4.18Z" transform="translate(-277.57 -227.08)"/><path class="cls-11" d="M487.37,519.53H743.43a14,14,0,0,1,14.05,14.05V698.31H473.32V533.58A14,14,0,0,1,487.37,519.53Z" transform="translate(-277.57 -227.08)"/><rect class="cls-12" x="209.24" y="305.54" width="257.18" height="150.25"/><polygon class="cls-6" points="532.04 515.32 143.61 515.32 195.75 471.23 479.91 471.23 532.04 515.32"/><path class="cls-11" d="M421.17,742.4H809.61v2.89a13.87,13.87,0,0,1-13.87,13.87H435.05a13.87,13.87,0,0,1-13.88-13.86h0V742.4Z" transform="translate(-277.57 -227.08)"/><path class="cls-5" d="M510.32,710.23H494.6a.54.54,0,0,1-.55-.53.56.56,0,0,1,.17-.4l4.91-4.65a.67.67,0,0,1,.37-.14h15a.55.55,0,0,1,.54.55.5.5,0,0,1-.14.35l-4.21,4.65A.5.5,0,0,1,510.32,710.23Z" transform="translate(-277.57 -227.08)"/><path class="cls-5" d="M535.23,710.23H519.35a.54.54,0,0,1-.42-.88l3.9-4.65a.53.53,0,0,1,.41-.19h15.18a.54.54,0,0,1,.54.54.51.51,0,0,1-.09.3l-3.2,4.65A.49.49,0,0,1,535.23,710.23Z" transform="translate(-277.57 -227.08)"/><path class="cls-5" d="M560.12,710.23h-16a.53.53,0,0,1-.55-.51.59.59,0,0,1,.09-.31l2.88-4.65a.56.56,0,0,1,.46-.25h15.31a.54.54,0,0,1,.54.54.59.59,0,0,1-.05.23l-2.18,4.64A.52.52,0,0,1,560.12,710.23Z" transform="translate(-277.57 -227.08)"/><path class="cls-5" d="M585,710.23H568.88a.54.54,0,0,1-.54-.54.71.71,0,0,1,0-.2l1.87-4.65a.56.56,0,0,1,.51-.33h15.4a.55.55,0,0,1,.54.55.5.5,0,0,1,0,.12l-1.17,4.64A.51.51,0,0,1,585,710.23Z" transform="translate(-277.57 -227.08)"/><path class="cls-5" d="M609.84,710.23H593.68a.54.54,0,0,1-.54-.54.38.38,0,0,1,0-.1L594,705a.55.55,0,0,1,.53-.44H610a.53.53,0,0,1,.54.52v0l-.15,4.65A.53.53,0,0,1,609.84,710.23Z" transform="translate(-277.57 -227.08)"/><path class="cls-5" d="M634.66,710.23H618.5a.54.54,0,0,1-.54-.52l-.15-4.65a.54.54,0,0,1,.51-.55H633.8a.55.55,0,0,1,.53.44l.86,4.64a.55.55,0,0,1-.43.64Z" transform="translate(-277.57 -227.08)"/><path class="cls-5" d="M659.46,710.23H643.35a.51.51,0,0,1-.52-.41l-1.17-4.64a.55.55,0,0,1,.39-.65l.13,0h15.41a.58.58,0,0,1,.5.33l1.87,4.65a.55.55,0,0,1-.3.71A.64.64,0,0,1,659.46,710.23Z" transform="translate(-277.57 -227.08)"/><path class="cls-5" d="M684.23,710.23h-16a.52.52,0,0,1-.49-.31l-2.18-4.64a.53.53,0,0,1,.26-.71.46.46,0,0,1,.23-.06h15.31a.56.56,0,0,1,.46.25l2.88,4.65a.54.54,0,0,1-.15.74A.53.53,0,0,1,684.23,710.23Z" transform="translate(-277.57 -227.08)"/><path class="cls-5" d="M709,710.23H693.11a.49.49,0,0,1-.44-.23l-3.2-4.65a.52.52,0,0,1,.15-.74.54.54,0,0,1,.3-.1H705.1a.53.53,0,0,1,.41.19l3.9,4.65a.53.53,0,0,1,0,.75A.51.51,0,0,1,709,710.23Z" transform="translate(-277.57 -227.08)"/><path class="cls-5" d="M733.75,710.23H718a.48.48,0,0,1-.4-.17l-4.21-4.62a.54.54,0,0,1,0-.76.6.6,0,0,1,.36-.14h15a.67.67,0,0,1,.37.14l4.91,4.65a.54.54,0,0,1-.34.9Z" transform="translate(-277.57 -227.08)"/><path class="cls-5" d="M502.47,718.92h-17a.55.55,0,0,1-.37-.94l5.84-5.52a.56.56,0,0,1,.37-.15h16.2a.55.55,0,0,1,.55.54.54.54,0,0,1-.14.36l-5,5.53A.55.55,0,0,1,502.47,718.92Z" transform="translate(-277.57 -227.08)"/><path class="cls-5" d="M529.26,718.92h-17.2a.54.54,0,0,1-.54-.54.58.58,0,0,1,.13-.35l4.63-5.53a.57.57,0,0,1,.42-.19h16.36a.55.55,0,0,1,.54.55.54.54,0,0,1-.1.3l-3.79,5.52A.54.54,0,0,1,529.26,718.92Z" transform="translate(-277.57 -227.08)"/><path class="cls-5" d="M556,718.92H538.72a.55.55,0,0,1-.46-.83l3.43-5.52a.56.56,0,0,1,.46-.26h16.49a.56.56,0,0,1,.54.57.65.65,0,0,1,0,.2l-2.6,5.52A.53.53,0,0,1,556,718.92Z" transform="translate(-277.57 -227.08)"/><path class="cls-5" d="M493.32,729H474.75a.54.54,0,0,1-.55-.53.56.56,0,0,1,.17-.4l7-6.62a.56.56,0,0,1,.37-.15h17.57a.56.56,0,0,1,.53.57.51.51,0,0,1-.13.34l-6,6.61A.5.5,0,0,1,493.32,729Z" transform="translate(-277.57 -227.08)"/><path class="cls-5" d="M522.32,729H503.59a.54.54,0,0,1-.54-.54.58.58,0,0,1,.13-.35l5.55-6.61a.54.54,0,0,1,.41-.2h17.73a.55.55,0,0,1,.54.55.54.54,0,0,1-.1.3l-4.55,6.62A.52.52,0,0,1,522.32,729Z" transform="translate(-277.57 -227.08)"/><path class="cls-5" d="M551.3,729H532.45a.53.53,0,0,1-.55-.51.59.59,0,0,1,.09-.31l4.1-6.62a.59.59,0,0,1,.46-.26h17.86a.54.54,0,0,1,.54.54.59.59,0,0,1-.05.23l-3.11,6.62A.52.52,0,0,1,551.3,729Z" transform="translate(-277.57 -227.08)"/><path class="cls-5" d="M582.81,718.92H565.39a.52.52,0,0,1-.54-.53.54.54,0,0,1,0-.22l2.22-5.52a.54.54,0,0,1,.5-.34h16.58a.55.55,0,0,1,.55.54.59.59,0,0,1,0,.13l-1.39,5.53A.51.51,0,0,1,582.81,718.92Z" transform="translate(-277.57 -227.08)"/><path class="cls-5" d="M667,729H561.32a.54.54,0,0,1-.54-.54.71.71,0,0,1,0-.2l2.66-6.62a.56.56,0,0,1,.5-.34H664.36a.56.56,0,0,1,.5.34l2.66,6.62a.55.55,0,0,1-.3.71A.64.64,0,0,1,667,729Z" transform="translate(-277.57 -227.08)"/><path class="cls-5" d="M609.55,718.92H592.08a.54.54,0,0,1-.54-.54.38.38,0,0,1,0-.1l1-5.53a.55.55,0,0,1,.53-.44h16.63a.54.54,0,0,1,.54.54v0l-.18,5.52A.54.54,0,0,1,609.55,718.92Z" transform="translate(-277.57 -227.08)"/><path class="cls-5" d="M636.26,718.92H618.79a.54.54,0,0,1-.54-.53l-.18-5.52a.55.55,0,0,1,.52-.56h16.65a.55.55,0,0,1,.53.44l1,5.53a.55.55,0,0,1-.43.64Z" transform="translate(-277.57 -227.08)"/><path class="cls-5" d="M663,718.92H645.53a.51.51,0,0,1-.52-.41L643.62,713a.55.55,0,0,1,.39-.65l.14,0h16.58a.54.54,0,0,1,.5.34l2.22,5.52a.53.53,0,0,1-.29.71A.45.45,0,0,1,663,718.92Z" transform="translate(-277.57 -227.08)"/><path class="cls-5" d="M689.62,718.92H672.3a.53.53,0,0,1-.49-.32l-2.6-5.52a.55.55,0,0,1,.28-.72.8.8,0,0,1,.21-.05h16.49a.56.56,0,0,1,.46.26l3.43,5.52a.54.54,0,0,1-.16.75A.47.47,0,0,1,689.62,718.92Z" transform="translate(-277.57 -227.08)"/><path class="cls-5" d="M716.28,718.92h-17.2a.54.54,0,0,1-.45-.24l-3.79-5.52a.54.54,0,0,1,.13-.75.57.57,0,0,1,.31-.1h16.36a.55.55,0,0,1,.42.19l4.63,5.53a.53.53,0,0,1-.41.89Z" transform="translate(-277.57 -227.08)"/><path class="cls-5" d="M721.13,724.71H703.06a.54.54,0,0,1-.45-.24l-1.58-2.3a.54.54,0,0,1,.13-.75.67.67,0,0,1,.31-.1H719.2a.54.54,0,0,1,.41.2l1.94,2.3a.56.56,0,0,1-.09.78A.57.57,0,0,1,721.13,724.71Z" transform="translate(-277.57 -227.08)"/><path class="cls-5" d="M724.75,729H706a.53.53,0,0,1-.44-.23l-1.77-2.58a.54.54,0,0,1,.13-.75.67.67,0,0,1,.31-.1h18.34a.54.54,0,0,1,.41.2l2.16,2.57a.53.53,0,0,1-.41.89Z" transform="translate(-277.57 -227.08)"/><path class="cls-5" d="M753.59,729H735a.49.49,0,0,1-.4-.18l-2.33-2.57a.55.55,0,0,1,0-.76.61.61,0,0,1,.38-.15h18.18a.64.64,0,0,1,.38.15l2.72,2.58a.55.55,0,0,1,0,.77A.51.51,0,0,1,753.59,729Z" transform="translate(-277.57 -227.08)"/><path class="cls-5" d="M695.89,729H677a.52.52,0,0,1-.49-.31l-1.21-2.58a.53.53,0,0,1,.26-.71.46.46,0,0,1,.23-.06h18.46a.54.54,0,0,1,.46.26l1.6,2.58a.54.54,0,0,1-.15.74A.48.48,0,0,1,695.89,729Z" transform="translate(-277.57 -227.08)"/><path class="cls-5" d="M743,718.92H725.87a.52.52,0,0,1-.4-.18l-5-5.53a.54.54,0,0,1,0-.76.57.57,0,0,1,.37-.14h16.2a.56.56,0,0,1,.37.15l5.84,5.52a.55.55,0,0,1,0,.78A.54.54,0,0,1,743,718.92Z" transform="translate(-277.57 -227.08)"/><polygon class="cls-13" points="0 79.27 56.31 121.54 40.15 141.54 0 79.27"/><polygon class="cls-12" points="0 79.27 43.42 122.21 40.15 141.54 0 79.27"/><polygon class="cls-6" points="0 79.27 77.84 116.41 56.31 121.54 0 79.27"/><polygon class="cls-6" points="0 79.27 43.42 122.21 17.23 126.46 0 79.27"/><path class="cls-6" d="M523.78,479.08a1.24,1.24,0,0,1-.32-.12c-1.74-1-3.47-2.06-5.14-3.2a1.1,1.1,0,0,1-.4-1.5,1.12,1.12,0,0,1,1.51-.4l.13.09c1.62,1.1,3.29,2.14,5,3.09a1.11,1.11,0,0,1,.29,1.53,1.07,1.07,0,0,1-1.05.47Zm-11.59-8.17a.94.94,0,0,1-.49-.24,77.41,77.41,0,0,1-6-5.77,1.09,1.09,0,0,1,0-1.54h0a1.1,1.1,0,0,1,1.56,0h0a73.86,73.86,0,0,0,5.86,5.61,1.11,1.11,0,0,1,.11,1.56,1.09,1.09,0,0,1-1.05.35ZM500.88,459a1.07,1.07,0,0,1-.64-.4c-1.68-2.14-3.31-4.42-4.85-6.77a1.1,1.1,0,0,1,1.83-1.22h0c1.51,2.31,3.1,4.54,4.74,6.63a1.1,1.1,0,0,1-.19,1.54A1.08,1.08,0,0,1,500.88,459Zm-9-13.76a1.05,1.05,0,0,1-.74-.54c-1.31-2.37-2.58-4.87-3.77-7.42a1.1,1.1,0,1,1,2-.92c1.16,2.5,2.4,5,3.69,7.27a1.11,1.11,0,0,1-.43,1.5,1,1,0,0,1-.75.11Zm-86.2-30.35h0c-2.72-.61-5.42-1.28-8.05-2a1.11,1.11,0,0,1-.77-1.35,1.09,1.09,0,0,1,1.33-.77h0c2.59.7,5.27,1.36,8,2a1.1,1.1,0,0,1,.8,1.34,1.09,1.09,0,0,1-1.26.81Zm8.07,1.63a1.1,1.1,0,0,1,.42-2.15c2.65.48,5.37.92,8.09,1.3a1.12,1.12,0,0,1,.94,1.25,1.1,1.1,0,0,1-1.25.93h0c-2.74-.39-5.49-.83-8.17-1.32Zm71.16,13.8a1.07,1.07,0,0,1-.8-.67c-1-2.54-1.94-5.17-2.8-7.81a1.1,1.1,0,0,1,2.09-.69h0c.85,2.61,1.77,5.2,2.75,7.7a1.1,1.1,0,0,1-.61,1.42h0a1,1,0,0,1-.65.05Zm-95.13-19.75h-.12c-2.66-.86-5.29-1.79-7.82-2.76a1.11,1.11,0,0,1-.64-1.42,1.09,1.09,0,0,1,1.39-.64h0c2.5.95,5.09,1.87,7.72,2.72a1.12,1.12,0,0,1,.67,1.41,1.09,1.09,0,0,1-1.23.71Zm40.28,8.26a1.1,1.1,0,0,1,.34-2.17l3.19.31c1.65.14,3.32.25,5,.33a1.1,1.1,0,0,1,.08,2.2.55.55,0,0,1-.18,0c-1.66-.07-3.36-.19-5-.33l-3.23-.31Zm16.44.71a1.08,1.08,0,0,1-.87-1.28,1.11,1.11,0,0,1,1.06-.9c2.72-.07,5.46-.25,8.14-.53a1.1,1.1,0,0,1,.42,2.16.68.68,0,0,1-.2,0c-2.73.29-5.52.47-8.29.55Zm-72.12-14.88a.62.62,0,0,1-.23-.07c-2.57-1.16-5.07-2.4-7.46-3.67a1.1,1.1,0,0,1,1-1.94c2.34,1.26,4.8,2.47,7.32,3.61a1.09,1.09,0,0,1,.61,1.42,1.08,1.08,0,0,1-1.28.65Zm-14.5-7.77a1.31,1.31,0,0,1-.37-.15c-2.37-1.51-4.67-3.1-6.84-4.74a1.08,1.08,0,0,1-.14-1.54,1.1,1.1,0,0,1,1.47-.21c2.12,1.6,4.37,3.16,6.69,4.63a1.11,1.11,0,0,1,.34,1.52A1.08,1.08,0,0,1,359.88,396.87Zm103,20.94a1.06,1.06,0,0,1-.86-.88,1.11,1.11,0,0,1,.88-1.27c2.68-.49,5.35-1.09,8-1.78a1.12,1.12,0,0,1,1.35.78,1.1,1.1,0,0,1-.78,1.34c-2.66.71-5.39,1.32-8.12,1.82a1,1,0,0,1-.51,0Zm16.92-3.15a1.09,1.09,0,0,1-.84-.8l-.06-.25a1.05,1.05,0,0,1-.93-.73,1.09,1.09,0,0,1,.42-1.27c-.49-2-.93-3.93-1.31-5.83a1.1,1.1,0,0,1,.75-1.36,1.11,1.11,0,0,1,1.37.76l0,.17c.36,1.79.77,3.62,1.22,5.47,1.94-.72,3.87-1.51,5.75-2.35a1.1,1.1,0,0,1,1.49.44,1.09,1.09,0,0,1-.43,1.49.46.46,0,0,1-.16.07c-2,.9-4.05,1.73-6.1,2.5l.09.33a1.11,1.11,0,0,1-.8,1.35,1,1,0,0,1-.49,0Zm-133-27.75a1.09,1.09,0,0,1-.52-.27,76.15,76.15,0,0,1-5.84-5.94,1.1,1.1,0,1,1,1.55-1.56l.09.1a79.73,79.73,0,0,0,5.69,5.79,1.09,1.09,0,0,1,.08,1.54h0a1.1,1.1,0,0,1-1,.33ZM336,374.59a1.11,1.11,0,0,1-.67-.45,67.3,67.3,0,0,1-4.4-7.11,1.1,1.1,0,0,1,1.94-1,68.53,68.53,0,0,0,4.25,6.89,1.1,1.1,0,0,1-.26,1.53A1,1,0,0,1,336,374.59Zm157.85,32.3a1.14,1.14,0,0,1-.75-.55,1.1,1.1,0,0,1,.44-1.49c2.37-1.3,4.72-2.72,7-4.2a1.11,1.11,0,0,1,1.5.43,1.1,1.1,0,0,1-.29,1.4c-2.31,1.52-4.7,3-7.12,4.29a1.07,1.07,0,0,1-.82.12Zm-17.2-8.38a1.09,1.09,0,0,1-.87-.94c-.35-2.8-.59-5.59-.7-8.3a1.1,1.1,0,0,1,2.19-.09c.11,2.65.35,5.38.69,8.12a1.09,1.09,0,0,1-.94,1.22h0a.9.9,0,0,1-.4,0Zm30.92-.68a1.07,1.07,0,0,1-.64-.4,1.1,1.1,0,0,1,.19-1.54c2.12-1.66,4.21-3.44,6.2-5.28a1.11,1.11,0,0,1,1.56.07,1.09,1.09,0,0,1-.07,1.55c-2,1.88-4.17,3.69-6.34,5.39a1.06,1.06,0,0,1-.94.21ZM476,382.07a1.09,1.09,0,0,1-.87-1.13,77.08,77.08,0,0,1,.88-8.3,1.09,1.09,0,0,1,1.24-.91h0a1.07,1.07,0,0,1,.92,1.21.43.43,0,0,1,0,.05,75.18,75.18,0,0,0-.86,8.06,1.1,1.1,0,0,1-1.15,1Zm43.68,4.61a1.08,1.08,0,0,1-.53-.27,1.1,1.1,0,0,1-.06-1.55c1.83-2,3.61-4.06,5.29-6.2a1.12,1.12,0,0,1,1.55-.18,1.1,1.1,0,0,1,.18,1.55c-1.72,2.17-3.54,4.3-5.41,6.32a1.08,1.08,0,0,1-1.07.33Zm-41-20.83h-.08a1.08,1.08,0,0,1-.75-1.34h0l.09-.33a60.11,60.11,0,0,1,2.79-7.56,1.1,1.1,0,0,1,2,.9,57.06,57.06,0,0,0-2.68,7.27l-.09.31a1.1,1.1,0,0,1-1.36.77h.08Zm51.23,7.92a.85.85,0,0,1-.39-.17,1.09,1.09,0,0,1-.31-1.51h0c1.5-2.24,3-4.57,4.29-6.93a1.12,1.12,0,0,1,1.5-.41,1.1,1.1,0,0,1,.41,1.5c-1.37,2.41-2.85,4.78-4.38,7.07a1.08,1.08,0,0,1-1.21.46Zm-44.54-22.92a.93.93,0,0,1-.36-.14,1.1,1.1,0,0,1-.35-1.51,64,64,0,0,1,4.87-6.82,1.11,1.11,0,0,1,1.56-.06,1.1,1.1,0,0,1,.14,1.45,61.94,61.94,0,0,0-4.7,6.58,1.1,1.1,0,0,1-1.24.5ZM538,359.44a1.14,1.14,0,0,1-.26-.09,1.09,1.09,0,0,1-.51-1.45h0l.58-1.23a31.22,31.22,0,0,0,2.13-6.26,1.11,1.11,0,0,1,1.29-.84h0a1.11,1.11,0,0,1,.83,1.32,32.77,32.77,0,0,1-2.28,6.71l-.59,1.25A1.09,1.09,0,0,1,538,359.44Zm-42.25-21.3a1.14,1.14,0,0,1-.59-.34,1.1,1.1,0,0,1,.08-1.55,51.06,51.06,0,0,1,6.66-5.13,1.1,1.1,0,0,1,1.19,1.85,48.2,48.2,0,0,0-6.37,4.91,1.08,1.08,0,0,1-1,.3Zm45.66,5.39a1.11,1.11,0,0,1-.87-1,18.13,18.13,0,0,0-2.15-7.39,1.1,1.1,0,1,1,1.83-1.21l.08.13a20.18,20.18,0,0,1,2.43,8.29,1.09,1.09,0,0,1-1,1.19.93.93,0,0,1-.33,0Zm-31.83-14.09a1.12,1.12,0,0,1-.8-.68,1.1,1.1,0,0,1,.62-1.42,38,38,0,0,1,8.18-2.18,1.11,1.11,0,0,1,1.24.93,1.09,1.09,0,0,1-.9,1.24h0a35.9,35.9,0,0,0-7.7,2A1,1,0,0,1,509.54,329.44Zm23.86.46a1,1,0,0,1-.35-.14,19.35,19.35,0,0,0-7.3-2.55,1.1,1.1,0,1,1,.13-2.19l.18,0a21.46,21.46,0,0,1,8.14,2.85,1.09,1.09,0,0,1,.37,1.5h0a1.09,1.09,0,0,1-1.16.48Z" transform="translate(-277.57 -227.08)"/><polygon class="cls-4" points="381.82 273.91 342.72 306.92 300.03 276.39 310.22 248.54 312.32 237.91 316.46 216.86 359.29 215.69 361.13 223.19 366.13 243.42 381.82 273.91"/><path class="cls-14" d="M638.71,450.27c-4.34,7.66-16.25,18-48.82,14.72L594,444l42.83-1.18Z" transform="translate(-277.57 -227.08)"/><path class="cls-4" d="M655.63,388.81c0,36.93-17.81,66.87-39.78,66.87s-39.78-29.94-39.78-66.87,17.81-47.88,39.78-47.88S655.63,351.88,655.63,388.81Z" transform="translate(-277.57 -227.08)"/><path class="cls-14" d="M635.46,344.66s.15,21.34-19.11,23.22-36.78-9.73-41.22,15.48V360.77l21.34-12.55Z" transform="translate(-277.57 -227.08)"/><path class="cls-15" d="M659.78,357.2c3.6,12.61-6,68.92-11.4,80.33s-17.32,18-33.64,18.15c-20.81.19-27.86-10.09-32.06-16.09s-4.57-17.54-10-60.77,28.88-49,41.49-49,18.56-.19,21,8.21C653.13,337,656.18,344.59,659.78,357.2ZM620,363.44c-11.49,5.35-31.84-5.44-39.62,3.31s-3,36.66-.44,48.38c1,4.63,14.2,1,22.31,5.26-11.16,10.53,0,19.52,12.28,19.52,11.66,0,22.72-3.72,15.28-18,5.71-6.2,18-.31,20.45-5.58,3.56-7.56,1.57-42.81,1.57-42.81-4.86-1.46-16-15.07-16-25.27A33.47,33.47,0,0,1,620,363.44Z" transform="translate(-277.57 -227.08)"/><path class="cls-15" d="M602.19,386.44c0,3.15-1.74,5.7-3.88,5.7s-3.89-2.55-3.89-5.7,1.74-5.7,3.89-5.7S602.19,383.24,602.19,386.44Z" transform="translate(-277.57 -227.08)"/><path class="cls-15" d="M635.46,386.44c0,3.15-1.74,5.7-3.89,5.7s-3.89-2.55-3.89-5.7,1.75-5.7,3.89-5.7S635.46,383.24,635.46,386.44Z" transform="translate(-277.57 -227.08)"/><path class="cls-16" d="M603.89,425.72h22.9s-2.47,9.91-10.52,9.91S604.86,429.83,603.89,425.72Z" transform="translate(-277.57 -227.08)"/><path class="cls-14" d="M615.34,392.09s-14.61,23.4,0,23.37Z" transform="translate(-277.57 -227.08)"/><path class="cls-15" d="M626.79,332.91s-3.1,10.17-21,10.2-23.5,1.55-23.5,1.55S595.49,330.44,626.79,332.91Z" transform="translate(-277.57 -227.08)"/><path class="cls-17" d="M683.18,563.17c-1.22.4-2.32.77-3.27,1.12.56,5.24,1.2,17.49,1.85,28.92l.08,1.3c.18,3.18.38,6.26.57,9.09.35,5.17.7,9.51,1.06,12,1.06,6,1.91,12.27,2.59,18.12,1.72,14.77,2.34,27.06,2.34,27.06-2.85-.08-141,0-141,0l.71-23.86.48-15.73.45-14.92L550.27,565a47.17,47.17,0,0,0-6-1.31c-10.07-1.74-27.85-3.64-34.65-4.33l-2.75-.29s15.28-63.78,24.67-73.89c17.09-10.75,34.83-14.94,58.24-20.19,0,0-1.46,8.84,2.89,16.45,10.49,18.3,45.18,15,49.81-5.53,1.11-4.93-.17-10.91-.17-10.91s48,10,57.31,21.07c7.28,12.3,20.66,66.68,20.66,66.68s-1.32.33-3.5.92C709.56,555.56,692.73,560.05,683.18,563.17Z" transform="translate(-277.57 -227.08)"/><polygon class="cls-18" points="392.61 298.3 402.33 337.21 404.27 367.43 392.61 335.77 392.61 298.3"/><polygon class="cls-18" points="279.21 359.17 274 381.42 271.05 394.06 271.5 379.15 272.73 337.89 279.21 295.37 279.21 359.17"/><path class="cls-15" d="M527,687.1s-49,2.62-60.24,7.65,1.7,30.46,9.55,31.53c5.74.79,54.34-4.12,61.21-11.21Z" transform="translate(-277.57 -227.08)"/><path class="cls-4" d="M527,687.1s-21.27,4.52-25.23,9.68S497.08,716,500,716.57s6.66,5.2,37.46-1.5Z" transform="translate(-277.57 -227.08)"/><path class="cls-19" d="M526.42,686.85l10.88,28.7,201.87-37c19.68-4.35,53.78-22.39,49.39-37.88-5.33-18.79-20.71-30.8-40.13-25.35Z" transform="translate(-277.57 -227.08)"/><path class="cls-4" d="M551.58,608.5l-2.51-2.27-13-11.7,8.18-30.86c-10.07-1.74-27.85-3.64-34.65-4.33L502,598.8a12.13,12.13,0,0,0,5.45,12.64l40.73,25.44L562,645.5l10.79-17.88Z" transform="translate(-277.57 -227.08)"/><path class="cls-4" d="M726.36,598.16l-9.55-44.51c-7.25,1.91-24.08,6.4-33.63,9.52l8.92,31.34-9.69,9.09-26.34,24.67L667.18,646l18.88-12.27,35-22.77A12.16,12.16,0,0,0,726.36,598.16Z" transform="translate(-277.57 -227.08)"/><path class="cls-20" d="M710.13,686.44,699.65,715.3,490.8,678.57c-19.75-4.07-42.56-19.77-42.91-31.4-.48-16.09,22.82-36.65,42.31-31.47Z" transform="translate(-277.57 -227.08)"/><path class="cls-15" d="M710.13,686.44s51.58,3.42,63,8-4.07,28.24-11.87,29.63c-5.7,1-54.46-1.94-61.61-8.75Z" transform="translate(-277.57 -227.08)"/><path class="cls-4" d="M710.13,686.44s20.35,4.15,24.51,9.15,5.41,19,2.5,19.71-6.44,5.46-37.49,0Z" transform="translate(-277.57 -227.08)"/><path class="cls-21" d="M692.72,562.87,682,647.77H545.27l-1.6-12.65-9.18-72.25a9.58,9.58,0,0,1,9.57-9.57H683.15a9.56,9.56,0,0,1,9.57,9.55Z" transform="translate(-277.57 -227.08)"/><rect class="cls-22" x="265.01" y="420.69" width="142.06" height="8.02" rx="2.71"/><path class="cls-22" d="M613.61,589.69a11.87,11.87,0,0,0-2.45.28,8.55,8.55,0,0,1,.07,1,8.78,8.78,0,0,1-8.74,8.79v1.09a11.17,11.17,0,1,0,11.17-11.17h0Z" transform="translate(-277.57 -227.08)"/><path class="cls-23" d="M414.84,433.94c-7.15,0-10,2.95-10,9.3,0,.59-1.12.59-1.12,0,0-6.35-2.26-9.3-10-9.3-.57,0-.57-1.11,0-1.11,7.95,0,10-3.68,10-9.3,0-.58,1.11-.58,1.11,0,0,6.69,2.7,9.3,10,9.3C415.41,432.83,415.41,433.94,414.84,433.94Z" transform="translate(-277.57 -227.08)"/><path class="cls-23" d="M468.39,385.28c-10.67,0-14.88,4.41-14.88,13.89,0,.87-1.66.87-1.66,0,0-9.48-3.37-13.89-14.88-13.89-.86,0-.86-1.66,0-1.66,11.86,0,14.88-5.49,14.88-13.87,0-.87,1.66-.87,1.66,0,0,10,4,13.87,14.88,13.87C469.25,383.62,469.25,385.28,468.39,385.28Z" transform="translate(-277.57 -227.08)"/><path class="cls-23" d="M458.46,488.05c-8.16,0-11.38,3.37-11.38,10.63,0,.66-1.27.66-1.27,0,0-7.26-2.58-10.63-11.39-10.63-.66,0-.66-1.27,0-1.27,9.08,0,11.39-4.2,11.39-10.61,0-.67,1.27-.67,1.27,0,0,7.63,3.08,10.61,11.38,10.61C459.12,486.78,459.12,488.05,458.46,488.05Z" transform="translate(-277.57 -227.08)"/><path class="cls-24" d="M805.71,296.13c0-12.65-11.68-22.91-26.1-22.91s-26.1,10.22-26.1,22.91S765.2,319,779.61,319s26.1-10.25,26.1-22.9Z" transform="translate(-277.57 -227.08)"/><path class="cls-25" d="M805.71,296.13c0-12.65-11.68-22.91-26.1-22.91s-26.1,10.22-26.1,22.91S765.2,319,779.61,319s26.1-10.25,26.1-22.9Z" transform="translate(-277.57 -227.08)"/><polygon class="cls-24" points="484.35 67.72 495.12 63.72 496.1 66.38 488.23 69.08 496.1 71.77 495.12 74.43 484.35 70.43 484.35 67.72 484.35 67.72"/><polygon class="cls-24" points="500.54 79.73 496.71 79.73 505.13 58.44 508.91 58.44 500.54 79.73 500.54 79.73"/><polygon class="cls-24" points="521.27 70.43 510.49 74.43 509.51 71.77 517.39 69.08 509.51 66.38 510.49 63.72 521.27 67.72 521.27 70.43 521.27 70.43"/><path class="cls-24" d="M763.69,254.85c0-15-13.89-27.22-31-27.22s-31,12.19-31,27.22,13.89,27.23,31,27.23S763.69,269.89,763.69,254.85Z" transform="translate(-277.57 -227.08)"/><path class="cls-25" d="M763.69,254.85c0-15-13.89-27.22-31-27.22s-31,12.19-31,27.22,13.89,27.23,31,27.23S763.69,269.89,763.69,254.85Z" transform="translate(-277.57 -227.08)"/><path class="cls-24" d="M731.13,335.12c0-8.89-8.21-16.09-18.34-16.09s-18.33,7.2-18.33,16.09,8.21,16.09,18.33,16.09S731.13,344,731.13,335.12Z" transform="translate(-277.57 -227.08)"/><path class="cls-25" d="M731.13,335.12c0-8.89-8.21-16.09-18.34-16.09s-18.33,7.2-18.33,16.09,8.21,16.09,18.33,16.09S731.13,344,731.13,335.12Z" transform="translate(-277.57 -227.08)"/><path class="cls-24" d="M693.24,374.65c0-4.44-4.1-8-9.17-8s-9.16,3.61-9.16,8,4.1,8,9.16,8S693.24,379.05,693.24,374.65Z" transform="translate(-277.57 -227.08)"/><path class="cls-25" d="M693.24,374.65c0-4.44-4.1-8-9.17-8s-9.16,3.61-9.16,8,4.1,8,9.16,8S693.24,379.05,693.24,374.65Z" transform="translate(-277.57 -227.08)"/><path class="cls-24" d="M696.23,416.64a4.27,4.27,0,1,0-4.78,3.69,5.07,5.07,0,0,0,.55,0A4,4,0,0,0,696.23,416.64Z" transform="translate(-277.57 -227.08)"/><path class="cls-25" d="M696.23,416.64a4.27,4.27,0,1,0-4.78,3.69,5.07,5.07,0,0,0,.55,0A4,4,0,0,0,696.23,416.64Z" transform="translate(-277.57 -227.08)"/><path class="cls-24" d="M772,338.36c0-10.68-9.86-19.33-22-19.33s-22,8.65-22,19.33,9.87,19.33,22,19.33S772,349,772,338.36Z" transform="translate(-277.57 -227.08)"/><path class="cls-25" d="M772,338.36c0-10.68-9.86-19.33-22-19.33s-22,8.65-22,19.33,9.87,19.33,22,19.33S772,349,772,338.36Z" transform="translate(-277.57 -227.08)"/><path class="cls-24" d="M724.5,354.52c0-8.51-7.86-15.41-17.56-15.41s-17.57,6.9-17.57,15.41,7.87,15.42,17.59,15.42,17.56-6.9,17.56-15.42Z" transform="translate(-277.57 -227.08)"/><path class="cls-25" d="M724.5,354.52c0-8.51-7.86-15.41-17.56-15.41s-17.57,6.9-17.57,15.41,7.87,15.42,17.59,15.42,17.56-6.9,17.56-15.42Z" transform="translate(-277.57 -227.08)"/><path class="cls-24" d="M736.28,377.69c0-7.52-7-13.62-15.52-13.62s-15.53,6.1-15.53,13.62,7,13.63,15.53,13.63S736.28,385.22,736.28,377.69Z" transform="translate(-277.57 -227.08)"/><path class="cls-25" d="M736.28,377.69c0-7.52-7-13.62-15.52-13.62s-15.53,6.1-15.53,13.62,7,13.63,15.53,13.63S736.28,385.22,736.28,377.69Z" transform="translate(-277.57 -227.08)"/><path class="cls-24" d="M706.54,402.16c0-5.45-5-9.86-11.23-9.86s-11.24,4.41-11.24,9.86,5,9.85,11.24,9.85S706.54,407.6,706.54,402.16Z" transform="translate(-277.57 -227.08)"/><path class="cls-25" d="M706.54,402.16c0-5.45-5-9.86-11.23-9.86s-11.24,4.41-11.24,9.86,5,9.85,11.24,9.85S706.54,407.6,706.54,402.16Z" transform="translate(-277.57 -227.08)"/><path class="cls-24" d="M712.79,424.44c0-3.67-3.38-6.64-7.56-6.64s-7.56,3-7.56,6.64,3.38,6.63,7.56,6.63S712.79,428.07,712.79,424.44Z" transform="translate(-277.57 -227.08)"/><path class="cls-25" d="M712.79,424.44c0-3.67-3.38-6.64-7.56-6.64s-7.56,3-7.56,6.64,3.38,6.63,7.56,6.63S712.79,428.07,712.79,424.44Z" transform="translate(-277.57 -227.08)"/><path class="cls-16" d="M714.81,260.64l-2.46-10.3h2.13l1.55,7.08,1.88-7.08h2.48l1.8,7.2,1.58-7.2h2.1l-2.5,10.3h-2.21l-2-7.7-2.05,7.7Z" transform="translate(-277.57 -227.08)"/><path class="cls-16" d="M728.39,260.64l-2.46-10.3h2.13l1.55,7.08,1.89-7.08H734l1.81,7.2,1.58-7.2h2.09l-2.5,10.3h-2.21l-2-7.7-2,7.7Z" transform="translate(-277.57 -227.08)"/><path class="cls-16" d="M742,260.64l-2.46-10.3h2.13l1.56,7.08,1.88-7.08h2.47l1.81,7.2,1.58-7.2H753l-2.5,10.3h-2.2l-2.06-7.7-2,7.7Z" transform="translate(-277.57 -227.08)"/><path class="cls-16" d="M777.41,300.41,769.56,297v-1.89l7.85-3.4v2.23L771.93,296l5.48,2.17Z" transform="translate(-277.57 -227.08)"/><path class="cls-16" d="M778.13,301.91,781,290.07h1.65l-2.87,11.84Z" transform="translate(-277.57 -227.08)"/><path class="cls-16" d="M783.35,300.42v-2.21l5.48-2.15-5.48-2.14v-2.19l7.85,3.4V297Z" transform="translate(-277.57 -227.08)"/><path class="cls-16" d="M738.2,341.1v-6.45h1.31v2.54h2.54v-2.54h1.31v6.45h-1.31v-2.82h-2.54v2.82Z" transform="translate(-277.57 -227.08)"/><path class="cls-16" d="M746.15,341.1v-5.36h-1.91v-1.09h5.12v1.09h-1.91v5.36Z" transform="translate(-277.57 -227.08)"/><path class="cls-16" d="M750.18,341.1v-6.45h2l1.17,4.4,1.15-4.4h1.95v6.45h-1.2V336l-1.28,5.07h-1.26L751.39,336v5.07Z" transform="translate(-277.57 -227.08)"/><path class="cls-16" d="M757.73,341.1v-6.39H759V340h3.24v1.09Z" transform="translate(-277.57 -227.08)"/><path class="cls-16" d="M701.66,356.2l1.54.48A3.5,3.5,0,0,1,702,358.6a3.72,3.72,0,0,1-4.67-.45,4.06,4.06,0,0,1-1-2.93,4.33,4.33,0,0,1,1-3.05,3.48,3.48,0,0,1,2.67-1.09,3.27,3.27,0,0,1,2.35.86,3.07,3.07,0,0,1,.81,1.45l-1.58.37a1.63,1.63,0,0,0-.58-1,1.66,1.66,0,0,0-1.08-.36,1.79,1.79,0,0,0-1.42.63,3.11,3.11,0,0,0-.54,2,3.34,3.34,0,0,0,.53,2.12,1.77,1.77,0,0,0,1.4.64,1.59,1.59,0,0,0,1.09-.41A2.43,2.43,0,0,0,701.66,356.2Z" transform="translate(-277.57 -227.08)"/><path class="cls-16" d="M704.16,356.53l1.55-.15a1.87,1.87,0,0,0,.56,1.14,1.69,1.69,0,0,0,1.15.37,1.75,1.75,0,0,0,1.16-.33,1,1,0,0,0,.39-.76.71.71,0,0,0-.16-.47,1.26,1.26,0,0,0-.57-.34c-.19-.07-.62-.18-1.28-.35a4.24,4.24,0,0,1-1.79-.78,2.06,2.06,0,0,1-.73-1.58,2.05,2.05,0,0,1,1.33-1.92,3.8,3.8,0,0,1,1.55-.28,3.33,3.33,0,0,1,2.23.65,2.32,2.32,0,0,1,.79,1.74l-1.59.07a1.39,1.39,0,0,0-.44-.88,1.67,1.67,0,0,0-1-.26,1.8,1.8,0,0,0-1.08.28.58.58,0,0,0-.26.49.6.6,0,0,0,.24.48,4.3,4.3,0,0,0,1.46.53,8,8,0,0,1,1.72.56,2.24,2.24,0,0,1,.87.8,2.35,2.35,0,0,1,.31,1.26,2.29,2.29,0,0,1-1.44,2.14,4.49,4.49,0,0,1-1.71.29,3.39,3.39,0,0,1-2.29-.69A3,3,0,0,1,704.16,356.53Z" transform="translate(-277.57 -227.08)"/><path class="cls-16" d="M711.5,356.53l1.54-.15a1.93,1.93,0,0,0,.57,1.14,1.67,1.67,0,0,0,1.15.37,1.76,1.76,0,0,0,1.16-.33,1,1,0,0,0,.39-.76.71.71,0,0,0-.17-.47,1.26,1.26,0,0,0-.57-.34c-.18-.07-.61-.18-1.27-.35a4.24,4.24,0,0,1-1.79-.78,2.06,2.06,0,0,1-.39-2.71,2.15,2.15,0,0,1,1-.79,3.83,3.83,0,0,1,1.55-.28,3.36,3.36,0,0,1,2.24.65,2.28,2.28,0,0,1,.78,1.74l-1.59.07a1.39,1.39,0,0,0-.43-.88,1.67,1.67,0,0,0-1-.26,1.83,1.83,0,0,0-1.09.28.57.57,0,0,0-.25.49.6.6,0,0,0,.24.48,4.21,4.21,0,0,0,1.46.53,7.88,7.88,0,0,1,1.71.56,2.24,2.24,0,0,1,.87.8,2.36,2.36,0,0,1,.32,1.26,2.3,2.3,0,0,1-.38,1.26,2.19,2.19,0,0,1-1.06.88,4.51,4.51,0,0,1-1.72.29,3.42,3.42,0,0,1-2.29-.69A3,3,0,0,1,711.5,356.53Z" transform="translate(-277.57 -227.08)"/><path class="cls-16" d="M713.19,380.36v-5.73H715a6.55,6.55,0,0,1,1.38.09,1.47,1.47,0,0,1,.82.56,1.79,1.79,0,0,1,.33,1.11,1.86,1.86,0,0,1-.19.89,1.5,1.5,0,0,1-.49.56,1.64,1.64,0,0,1-.6.28,7,7,0,0,1-1.19.08h-.76v2.16Zm1.15-4.76v1.62H715a3,3,0,0,0,.92-.09.77.77,0,0,0,.36-.28.72.72,0,0,0,.13-.44.77.77,0,0,0-.18-.52.8.8,0,0,0-.47-.25,5,5,0,0,0-.83,0Z" transform="translate(-277.57 -227.08)"/><path class="cls-16" d="M718.53,380.36v-5.73h1.15v2.25H722v-2.25h1.15v5.73H722v-2.51h-2.27v2.51Z" transform="translate(-277.57 -227.08)"/><path class="cls-16" d="M724.3,380.36v-5.73h1.85a6.42,6.42,0,0,1,1.38.09,1.44,1.44,0,0,1,.82.56,1.73,1.73,0,0,1,.34,1.11,1.86,1.86,0,0,1-.2.89,1.48,1.48,0,0,1-.48.56,1.8,1.8,0,0,1-.6.28,7.18,7.18,0,0,1-1.2.08h-.76v2.16Zm1.15-4.76v1.62h.64a3,3,0,0,0,.91-.09.68.68,0,0,0,.36-.28.72.72,0,0,0,.13-.44.77.77,0,0,0-.18-.52.81.81,0,0,0-.46-.25,5.12,5.12,0,0,0-.84,0Z" transform="translate(-277.57 -227.08)"/><path class="cls-16" d="M693.06,399.73h1.15v3.63a3.81,3.81,0,0,1-.12,1.09,1.59,1.59,0,0,1-.61.81,2,2,0,0,1-1.16.3,1.73,1.73,0,0,1-1.31-.48,1.94,1.94,0,0,1-.46-1.39l1.09-.12a1.52,1.52,0,0,0,.14.69.73.73,0,0,0,1.12.09,1.71,1.71,0,0,0,.16-.92Z" transform="translate(-277.57 -227.08)"/><path class="cls-16" d="M695.15,403.6l1.13-.11a1.34,1.34,0,0,0,.41.83,1.23,1.23,0,0,0,.84.27,1.28,1.28,0,0,0,.84-.24.7.7,0,0,0,.28-.55.53.53,0,0,0-.12-.35,1,1,0,0,0-.41-.25l-.93-.25a3.13,3.13,0,0,1-1.3-.56,1.48,1.48,0,0,1-.53-1.16,1.41,1.41,0,0,1,.25-.81,1.47,1.47,0,0,1,.71-.58,2.75,2.75,0,0,1,1.13-.2,2.37,2.37,0,0,1,1.62.47,1.67,1.67,0,0,1,.57,1.26l-1.15.05a1,1,0,0,0-.32-.63,1.16,1.16,0,0,0-.73-.2,1.3,1.3,0,0,0-.79.21.44.44,0,0,0-.19.36.42.42,0,0,0,.18.34,3,3,0,0,0,1.06.39,5.66,5.66,0,0,1,1.25.41,1.54,1.54,0,0,1,.63.58,1.73,1.73,0,0,1,.23.91,1.71,1.71,0,0,1-1,1.56,3.23,3.23,0,0,1-1.25.21,2.47,2.47,0,0,1-1.66-.5A2.18,2.18,0,0,1,695.15,403.6Z" transform="translate(-277.57 -227.08)"/></svg>