<?xml version="1.0" encoding="utf-8"?>
<!-- Generator: Adobe Illustrator 24.0.1, SVG Export Plug-In . SVG Version: 6.00 Build 0)  -->
<svg version="1.1" xmlns="http://www.w3.org/2000/svg" xmlns:xlink="http://www.w3.org/1999/xlink" x="0px" y="0px"
	 viewBox="0 0 960 640" style="enable-background:new 0 0 960 640;" xml:space="preserve">
<style type="text/css">
	.st0{fill:#D4CCFF;}
	.st1{fill:#8550FC;}
	.st2{fill:#A796FF;}
	.st3{fill:#F4D37E;}
	.st4{fill:#FEF3F9;}
	.st5{fill:#7862EC;}
	.st6{fill:#FC8E53;}
	.st7{fill:#FDEAB1;}
	.st8{fill:#380F8F;}
	.st9{fill:#7B0F8F;}
	.st10{fill:#DE50FC;}
	.st11{fill:#D396FF;}
	.st12{display:none;}
	.st13{display:inline;fill:#FC8E53;}
	.st14{display:inline;}
	.st15{fill:#FFFFFF;}
	.st16{fill:#DEB449;}
	.st17{fill:#232323;}
	.st18{display:inline;fill:#808285;}
	.st19{fill:#808285;}
	.st20{fill:#1A0845;}
	.st21{fill:#0B53FF;}
	.st22{fill:#2175FB;}
	.st23{fill:#E6E7E8;}
	.st24{fill:#D1D3D4;}
	.st25{fill:#FBF3FE;}
	.st26{display:inline;fill:#F4D87D;}
	.st27{display:inline;fill:#D31D25;}
	.st28{display:inline;fill:#414042;}
	.st29{display:inline;fill:#E52528;}
	.st30{display:inline;fill:#E62928;}
	.st31{display:inline;fill:#3359A5;}
	.st32{display:inline;fill:#3B6AB2;}
	.st33{fill:#F28C55;}
	.st34{fill:none;stroke:#FFFFFF;stroke-width:1.0977;stroke-miterlimit:10;}
	.st35{fill:url(#SVGID_1_);}
	.st36{fill:url(#SVGID_2_);}
	.st37{fill:url(#SVGID_3_);}
	.st38{fill:#2D2D2D;}
	.st39{fill:#F34F46;}
</style>
<g id="Design">
	<g>
		<path class="st0" d="M588.2,78.2c1.1-0.6,2.3-1.1,3.4-1.6c35.4-15.1,73.3,8.5,109.7,8.2c33.6-0.3,65.5-17.5,99.1-16.9
			c10,0.2,20.3,2.1,28.5,8.1c8.9,6.5,14.3,16.8,21.8,25c17.5,18.8,47.1,26.5,56,51c7,19.3-2.4,40.2-9.8,59.4
			c-12.7,32.7-19.8,69.6-9.5,103.2c7.4,24,23.4,45.2,26.8,70.2c3,22-4.2,44.4-14.6,63.6c-13.8,25.5-13.7,54.6-20.4,82.1
			c-4.4,18-13.4,36.2-29.6,45.2c-14.5,8.1-31.6,7.2-47.7,8.1c-16.6,0.9-32.5,1.8-49.2-0.2c-28.1-3.3-55.8-10.1-84.1-12.1
			C617,567.8,565.7,580.3,514,583c-28.5,1.5-58.7-0.6-82.6-16.8c-20.3-13.9-33.8-37.1-39-61.7c-5.2-24.6-2.4-50.6,4.9-74.6
			c9-29.3,24.9-58,21.5-88.5c-2.1-19.1-11.7-36.4-17.2-54.8c-7.5-25.3-6.9-53.5,4.3-77.3c6.6-14.2,17.2-26.4,30.1-34.8
			c14.9-9.6,31.7-7.6,48-13.7C526.2,144.8,548.5,97.7,588.2,78.2z"/>
		<path class="st1" d="M857.8,300.5h-10.2c-1.7-6.6-4.3-12.9-7.7-18.6l7.2-7.2c2.4-2.4,2.4-6.3,0-8.7l-14.9-14.9
			c-2.4-2.4-6.3-2.4-8.7,0l-7.2,7.2c-5.7-3.4-12-6.1-18.6-7.7v-10.2c0-3.4-2.7-6.1-6.1-6.1h-21c-3.4,0-6.1,2.7-6.1,6.1v10.2
			c-6.6,1.7-12.9,4.3-18.6,7.7l-7.2-7.2c-2.4-2.4-6.3-2.4-8.7,0L715,266c-2.4,2.4-2.4,6.3,0,8.7l7.2,7.2c-3.4,5.7-6.1,12-7.7,18.6
			h-10.2c-3.4,0-6.1,2.7-6.1,6.1v21c0,3.4,2.7,6.1,6.1,6.1h10.2c1.7,6.6,4.3,12.9,7.7,18.6l-7.2,7.2c-2.4,2.4-2.4,6.3,0,8.7
			l14.9,14.9c2.4,2.4,6.3,2.4,8.7,0l7.2-7.2c5.7,3.4,12,6.1,18.6,7.7v10.2c0,3.4,2.7,6.1,6.1,6.1h21c3.4,0,6.1-2.7,6.1-6.1v-10.2
			c6.6-1.7,12.9-4.3,18.6-7.7l7.2,7.2c2.4,2.4,6.3,2.4,8.7,0l14.9-14.9c2.4-2.4,2.4-6.3,0-8.7l-7.2-7.2c3.4-5.7,6.1-12,7.7-18.6
			h10.2c3.4,0,6.1-2.7,6.1-6.1v-21C863.9,303.3,861.2,300.5,857.8,300.5z M781,358.7c-22.9,0-41.5-18.6-41.5-41.5
			c0-22.9,18.6-41.5,41.5-41.5c22.9,0,41.5,18.6,41.5,41.5C822.5,340.1,804,358.7,781,358.7z"/>
		<path class="st2" d="M642.8,282h-7.6c-1.2-4.9-3.2-9.6-5.7-13.9l5.4-5.4c1.8-1.8,1.8-4.7,0-6.5l-11.1-11.1c-1.8-1.8-4.7-1.8-6.5,0
			l-5.4,5.4c-4.3-2.6-8.9-4.5-13.9-5.7v-7.6c0-2.5-2-4.6-4.6-4.6h-15.7c-2.5,0-4.6,2-4.6,4.6v7.6c-4.9,1.2-9.6,3.2-13.9,5.7
			l-5.4-5.4c-1.8-1.8-4.7-1.8-6.5,0l-11.1,11.1c-1.8,1.8-1.8,4.7,0,6.5l5.4,5.4c-2.6,4.3-4.5,8.9-5.7,13.9h-7.6
			c-2.5,0-4.6,2-4.6,4.6v15.7c0,2.5,2,4.6,4.6,4.6h7.6c1.2,4.9,3.2,9.6,5.7,13.9l-5.4,5.4c-1.8,1.8-1.8,4.7,0,6.5l11.1,11.1
			c1.8,1.8,4.7,1.8,6.5,0l5.4-5.4c4.3,2.6,8.9,4.5,13.9,5.7v7.6c0,2.5,2,4.6,4.6,4.6h15.7c2.5,0,4.6-2,4.6-4.6V344
			c4.9-1.2,9.6-3.2,13.9-5.7l5.4,5.4c1.8,1.8,4.7,1.8,6.5,0l11.1-11.1c1.8-1.8,1.8-4.7,0-6.5l-5.4-5.4c2.6-4.3,4.5-8.9,5.7-13.9h7.6
			c2.5,0,4.6-2,4.6-4.6v-15.7C647.4,284.1,645.4,282,642.8,282z M585.7,325.4c-17.1,0-30.9-13.8-30.9-30.9
			c0-17.1,13.8-30.9,30.9-30.9c17.1,0,30.9,13.8,30.9,30.9C616.6,311.5,602.7,325.4,585.7,325.4z"/>
		<g>
			<g>
				<g>
					<path class="st3" d="M511.3,384.6c-0.6-1.9-1.3-3.8-2-5.6L511.3,384.6z"/>
					<path class="st3" d="M509.2,395.5l0-16.6c-3.5-9.1-7.8-17-11.6-22.9c-4.3,4.5-5.7,18.6-5.7,18.6c0.4-14.5,2-18.9,2.1-23.6
						c-6.3-8.2-15.9-12.6-23.4-17.5c3,17.3,2.8,21.6,2.8,21.6c-1-10.3-4.4-17.5-6.1-23.6c-19.3-11.4-29.3-8.4-29.3-8.4
						c0.2,7.3,2.6,23.5,3.3,29.7c8.1,6.9,19.4,13.8,19.4,13.8c-5.9-1.9-13.5-6.4-19-9.9c1.2,9,1.1,7.5,3.4,14.7
						c8.1,7.4,24.6,15.9,24.6,15.9c-7.2-1.7-17.1-7.1-22.6-10.3c4.7,12.2,11,21.8,18.7,30.5c8.4,3.7,17.4,6.5,17.4,6.5
						c-4.1-0.2-9.3-1.5-14.1-2.9c9,9.4,19.6,17.8,31.4,27.3l11.9,4.8l3.7-17.7c1.7-14.1-0.8-28.3-4.9-40.7L509.2,395.5z"/>
				</g>
				<path class="st4" d="M499.8,412.7c2.2,4.2,4.4,8.5,6.3,12.9c1.9,4.4,3.6,9,4.7,13.7l-0.2,0.1c-1.2-4.7-3-9.2-5.1-13.5
					c-2-4.3-4.3-8.5-6.7-12.6c-4.7-8.3-9.7-16.2-14.8-24.2c-5.1-8-10.4-15.8-15.1-24.1c-2.4-4.1-4.7-8.3-6.9-12.5
					c-2.2-4.2-4.3-8.6-6.1-13l0.2-0.1c4.7,8.3,9.7,16.3,14.6,24.4c5,8,9.8,16.2,14.8,24.3C490.4,396.1,495.3,404.3,499.8,412.7z"/>
			</g>
			<g>
				<path class="st2" d="M484.3,439.6c0.1-17.5,1.3-24.9,0-30.7c-10.1-7.5-21-12.3-31.6-15.3c8.9,19.6,6.7,33.5,6.7,33.5
					c-0.5-14.2-7.4-27.9-11.3-34.7c-26.7-6.4-50.1-2.1-50.1-2.1c2.5,8.7,5.1,16.6,7.9,23.9c11.9,5.3,27.6,9.2,27.6,9.2
					c-7.6,0-18.2-2.6-25.8-4.8c4.3,10.4,8.9,19.3,13.8,27c12,5.9,34.5,9.8,34.5,9.8c-9.1,0.6-22.8-2.1-30.3-3.8
					c9.4,12.9,20,22.1,31.8,29.6c11.3,1.3,23,1.3,23,1.3c-5,1.3-11.6,1.7-17.8,1.9c13.7,8,29.1,14,46.1,20.9l15.8,1.3l-0.9-22.8
					c-4.4-34.1-17.3-56.2-33.4-70.4C486.4,420.7,484.3,439.6,484.3,439.6z"/>
				<path class="st5" d="M521,502.9c-2.9-5.2-6.4-9.9-10.2-14.3c-3.8-4.4-7.8-8.6-11.9-12.7c-8.2-8.2-16.7-15.9-25.3-23.5
					c-8.6-7.7-17.3-15.1-25.6-23.2c-4.1-4.1-8.2-8.2-12.2-12.5c-4-4.3-7.8-8.7-11.4-13.4l0.2-0.2c8.2,8.2,16.6,16,25.1,23.8
					c8.5,7.8,16.8,15.8,25.2,23.7c8.4,7.9,16.8,15.9,24.8,24.3c4,4.2,7.9,8.6,11.6,13.2c3.7,4.6,7.1,9.4,9.9,14.8L521,502.9z"/>
			</g>
		</g>
		<g>
			<g>
				<g>
					<path class="st2" d="M828.6,440c1.3-1.2,2.6-2.4,3.9-3.6L828.6,440z"/>
					<path class="st2" d="M819,441.4l13.6-5c6.2-6,11.1-12.3,14.6-17.6c-5.3-2.5-17.3,0.5-17.3,0.5c12.1-4.1,16.2-4,20.2-5.3
						c4.4-8.3,4.6-18.4,5.8-26.8c-13.1,8.1-16.7,9.2-16.7,9.2c8.1-4.1,12.8-9.4,17.2-12.8c2.3-21.1-3.8-29.4-3.8-29.4
						c-5.9,2.4-18.3,9.5-23.2,12.1c-2.7,9.6-4.3,22-4.3,22c-0.6-5.9,0.4-14.3,1.3-20.4c-7,3.9-5.8,3.3-10.8,7.7
						c-3.1,9.7-4.1,27.4-4.1,27.4c-1.2-7.1-0.4-17.9,0.2-23.8c-8.3,8-13.9,16.8-18.2,26.4c0,8.9,1,18,1,18c-1.3-3.8-2.2-9-2.8-13.8
						c-4.5,11.1-7.5,23.4-11,37.1L781,459l15.9-2c12.2-2.8,22.9-9.4,31.6-16.9L819,441.4z"/>
				</g>
				<path class="st5" d="M801.5,438c-2.6,3.3-5.4,6.6-8.3,9.7c-2.9,3.1-6.1,6.1-9.6,8.5l-0.1-0.2c3.4-2.5,6.4-5.6,9.2-8.8
					c2.8-3.2,5.4-6.5,7.9-10c5.1-6.8,9.8-13.9,14.5-21c4.7-7.1,9.2-14.3,14.3-21.2c2.5-3.4,5.1-6.9,7.8-10.2
					c2.7-3.3,5.5-6.5,8.5-9.6l0.2,0.1c-5.1,6.9-9.9,13.8-14.7,20.9c-4.8,7-9.7,14-14.6,21C811.6,424.3,806.7,431.3,801.5,438z"/>
			</g>
			<path class="st6" d="M806.7,411.6c-0.6,1.1-1.3,2.3-2,3.4L806.7,411.6z M804.7,415.1c-4.5,7.3-10.6,14.3-18.6,18.9l-10.8,4.9
				l-3-8.7c-0.5-10.4-1.1-19.7-0.3-28.6c1.5,3.3,3.2,6.7,5,9.1c0,0-2.7-6.2-4.6-12.5c1-7.8,3-15.2,7.1-22.7
				c0.9,4.3,2.7,12.1,5.1,16.9c0,0-3.2-12.7-3.1-20.3c2.6-4.1,1.9-3.5,6-7.8c0.7,4.5,1.9,10.6,3.6,14.7c0,0-1.6-9.1-1.8-16.5
				c2.9-2.9,10.1-10.6,13.8-13.6c0,0,6.1,4.5,9.1,20c-2.4,3.4-4.5,8.2-9.4,12.8c0,0,2.3-1.6,9.8-10.2c1,6.2,3.1,13.4,1.7,20.2
				c-2.5,1.8-5.5,2.6-13.1,8.2c0,0,7.9-4.8,12.1-4.1c-1.3,4.5-3.4,10.1-6.5,15.7l-8.5,6.5L804.7,415.1z M791.2,401.7
				c1.9-6,3.9-12,5.7-18c1.8-6,3.7-12,5.8-18l-0.1-0.1c-1.4,2.8-2.7,5.7-3.9,8.6c-1.2,2.9-2.2,5.9-3.3,8.9c-2.1,6-3.7,12.1-5.4,18.1
				c-1.8,6-3.6,12.1-5.7,18c-1,3-2.2,5.9-3.4,8.8c-1.3,2.9-2.8,5.7-4.6,8.2l0.1,0.1c1.9-2.5,3.5-5.3,4.9-8.1
				c1.4-2.8,2.6-5.8,3.8-8.7C787.4,413.7,789.3,407.7,791.2,401.7z"/>
			<g>
				<path class="st3" d="M815.2,475.2c11.6,3.8,16.2,6.1,20.3,6.4c7.3-5.9,13-12.9,17.5-20.1c-15.1,2.5-23.8-2-23.8-2
					c9.5,2.6,20.2,0.4,25.6-1.1c10.4-18.4,13-36.5,13-36.5c-6.3,0-12.2,0.3-17.6,0.8c-6.3,7.7-12.5,18.4-12.5,18.4
					c1.8-5.6,6-12.9,9.2-18.1c-7.9,1-14.9,2.5-21.1,4.6c-6.7,7.7-14.5,23.4-14.5,23.4c1.7-6.9,6.7-16.4,9.6-21.6
					c-10.7,4.2-19.3,10.1-27,17.3c-3.5,8.1-6.2,16.7-6.2,16.7c0.3-4,1.5-8.9,2.9-13.5c-8.5,8.5-16.1,18.5-24.6,29.6l-4.5,11.4
					l15.3,4.1c23.6,3.9,41.3-1.1,54.4-9.9C827.3,480.7,815.2,475.2,815.2,475.2z"/>
				<path class="st7" d="M764.7,489c4.1-1.1,8-2.7,11.9-4.5c3.8-1.9,7.5-3.9,11.2-6.1c7.3-4.3,14.4-9,21.5-13.7
					c7.1-4.7,14-9.6,21.3-14c3.6-2.2,7.3-4.4,11.1-6.4c3.7-2,7.6-3.9,11.5-5.6l0.1,0.2c-7.3,4.4-14.5,8.9-21.6,13.5
					c-7.1,4.6-14.4,9.1-21.5,13.6c-7.2,4.5-14.4,9.1-21.9,13.2c-3.7,2.1-7.5,4-11.4,5.8c-3.9,1.8-7.9,3.3-12.1,4.2L764.7,489z"/>
			</g>
		</g>
		<g>
			<g>
				<path class="st8" d="M794.5,496.9H510.4V332.1c0-7.8,6.3-14.1,14.1-14.1h256.1c7.8,0,14.1,6.3,14.1,14.1V496.9z"/>
				<rect x="523.8" y="331.2" class="st1" width="257.2" height="150.3"/>
			</g>
			<g>
				<polygon class="st2" points="846.7,541 458.2,541 510.4,496.9 794.5,496.9 				"/>
				<path class="st8" d="M832.8,557.7H472.1c-7.7,0-13.9-6.2-13.9-13.9V541h388.4v2.9C846.7,551.5,840.4,557.7,832.8,557.7z"/>
				<g>
					<path class="st4" d="M547.4,508.8h-15.7c-0.5,0-0.7-0.6-0.4-0.9l4.9-4.6c0.1-0.1,0.2-0.1,0.4-0.1h15c0.5,0,0.7,0.6,0.4,0.9
						l-4.2,4.6C547.7,508.7,547.5,508.8,547.4,508.8z"/>
					<path class="st4" d="M572.3,508.8h-15.9c-0.5,0-0.7-0.5-0.4-0.9l3.9-4.6c0.1-0.1,0.3-0.2,0.4-0.2h15.2c0.4,0,0.7,0.5,0.4,0.8
						l-3.2,4.6C572.6,508.7,572.4,508.8,572.3,508.8z"/>
					<path class="st4" d="M597.2,508.8h-16c-0.4,0-0.7-0.5-0.5-0.8l2.9-4.6c0.1-0.2,0.3-0.3,0.5-0.3h15.3c0.4,0,0.7,0.4,0.5,0.8
						l-2.2,4.6C597.6,508.7,597.4,508.8,597.2,508.8z"/>
					<path class="st4" d="M622,508.8h-16.1c-0.4,0-0.6-0.4-0.5-0.7l1.9-4.6c0.1-0.2,0.3-0.3,0.5-0.3h15.4c0.4,0,0.6,0.3,0.5,0.7
						l-1.2,4.6C622.5,508.6,622.3,508.8,622,508.8z"/>
					<path class="st4" d="M646.9,508.8h-16.2c-0.3,0-0.6-0.3-0.5-0.6l0.9-4.6c0-0.3,0.3-0.4,0.5-0.4H647c0.3,0,0.6,0.3,0.5,0.6
						l-0.2,4.6C647.4,508.6,647.2,508.8,646.9,508.8z"/>
					<path class="st4" d="M671.7,508.8h-16.2c-0.3,0-0.5-0.2-0.5-0.5l-0.2-4.6c0-0.3,0.2-0.6,0.5-0.6h15.5c0.3,0,0.5,0.2,0.5,0.4
						l0.9,4.6C672.3,508.5,672,508.8,671.7,508.8z"/>
					<path class="st4" d="M696.5,508.8h-16.1c-0.2,0-0.5-0.2-0.5-0.4l-1.2-4.6c-0.1-0.3,0.2-0.7,0.5-0.7h15.4c0.2,0,0.4,0.1,0.5,0.3
						l1.9,4.6C697.1,508.4,696.9,508.8,696.5,508.8z"/>
					<path class="st4" d="M721.3,508.8h-16c-0.2,0-0.4-0.1-0.5-0.3l-2.2-4.6c-0.2-0.4,0.1-0.8,0.5-0.8h15.3c0.2,0,0.4,0.1,0.5,0.3
						l2.9,4.6C722,508.3,721.7,508.8,721.3,508.8z"/>
					<path class="st4" d="M746,508.8h-15.9c-0.2,0-0.3-0.1-0.4-0.2l-3.2-4.6c-0.2-0.4,0-0.8,0.4-0.8h15.2c0.2,0,0.3,0.1,0.4,0.2
						l3.9,4.6C746.7,508.3,746.5,508.8,746,508.8z"/>
					<path class="st4" d="M770.8,508.8h-15.7c-0.2,0-0.3-0.1-0.4-0.2l-4.2-4.6c-0.3-0.3-0.1-0.9,0.4-0.9h15c0.1,0,0.3,0.1,0.4,0.1
						l4.9,4.6C771.5,508.2,771.3,508.8,770.8,508.8z"/>
					<path class="st4" d="M539.5,517.5h-17c-0.5,0-0.7-0.6-0.4-0.9l5.8-5.5c0.1-0.1,0.2-0.1,0.4-0.1h16.2c0.5,0,0.7,0.6,0.4,0.9
						l-5,5.5C539.8,517.4,539.7,517.5,539.5,517.5z"/>
					<path class="st4" d="M566.3,517.5h-17.2c-0.5,0-0.7-0.5-0.4-0.9l4.6-5.5c0.1-0.1,0.3-0.2,0.4-0.2h16.4c0.4,0,0.7,0.5,0.4,0.8
						l-3.8,5.5C566.6,517.4,566.5,517.5,566.3,517.5z"/>
					<path class="st4" d="M593.1,517.5h-17.3c-0.4,0-0.7-0.5-0.5-0.8l3.4-5.5c0.1-0.2,0.3-0.3,0.5-0.3h16.5c0.4,0,0.7,0.4,0.5,0.8
						l-2.6,5.5C593.5,517.4,593.3,517.5,593.1,517.5z"/>
					<path class="st4" d="M530.4,527.6h-18.6c-0.5,0-0.7-0.6-0.4-0.9l7-6.6c0.1-0.1,0.2-0.1,0.4-0.1h17.6c0.5,0,0.7,0.6,0.4,0.9
						l-6,6.6C530.7,527.5,530.5,527.6,530.4,527.6z"/>
					<path class="st4" d="M559.4,527.6h-18.7c-0.5,0-0.7-0.5-0.4-0.9l5.5-6.6c0.1-0.1,0.3-0.2,0.4-0.2h17.7c0.4,0,0.7,0.5,0.4,0.8
						l-4.5,6.6C559.7,527.5,559.5,527.6,559.4,527.6z"/>
					<path class="st4" d="M588.3,527.6h-18.9c-0.4,0-0.7-0.5-0.5-0.8l4.1-6.6c0.1-0.2,0.3-0.3,0.5-0.3h17.9c0.4,0,0.7,0.4,0.5,0.8
						l-3.1,6.6C588.7,527.5,588.6,527.6,588.3,527.6z"/>
					<path class="st4" d="M619.8,517.5h-17.4c-0.4,0-0.6-0.4-0.5-0.7l2.2-5.5c0.1-0.2,0.3-0.3,0.5-0.3h16.6c0.4,0,0.6,0.3,0.5,0.7
						l-1.4,5.5C620.3,517.3,620.1,517.5,619.8,517.5z"/>
					<path class="st4" d="M704.1,527.6H598.4c-0.4,0-0.6-0.4-0.5-0.7l2.7-6.6c0.1-0.2,0.3-0.3,0.5-0.3h100.4c0.2,0,0.4,0.1,0.5,0.3
						l2.7,6.6C704.7,527.2,704.4,527.6,704.1,527.6z"/>
					<path class="st4" d="M646.6,517.5h-17.5c-0.3,0-0.6-0.3-0.5-0.6l1-5.5c0-0.3,0.3-0.4,0.5-0.4h16.6c0.3,0,0.6,0.3,0.5,0.6
						l-0.2,5.5C647.1,517.2,646.9,517.5,646.6,517.5z"/>
					<path class="st4" d="M673.3,517.5h-17.5c-0.3,0-0.5-0.2-0.5-0.5l-0.2-5.5c0-0.3,0.2-0.6,0.5-0.6h16.6c0.3,0,0.5,0.2,0.5,0.4
						l1,5.5C673.9,517.2,673.6,517.5,673.3,517.5z"/>
					<path class="st4" d="M700,517.5h-17.4c-0.2,0-0.5-0.2-0.5-0.4l-1.4-5.5c-0.1-0.3,0.2-0.7,0.5-0.7h16.6c0.2,0,0.4,0.1,0.5,0.3
						l2.2,5.5C700.6,517.1,700.4,517.5,700,517.5z"/>
					<path class="st4" d="M726.7,517.5h-17.3c-0.2,0-0.4-0.1-0.5-0.3l-2.6-5.5c-0.2-0.4,0.1-0.8,0.5-0.8h16.5c0.2,0,0.4,0.1,0.5,0.3
						l3.4,5.5C727.3,517,727.1,517.5,726.7,517.5z"/>
					<path class="st4" d="M753.3,517.5h-17.2c-0.2,0-0.3-0.1-0.4-0.2l-3.8-5.5c-0.2-0.4,0-0.8,0.4-0.8h16.4c0.2,0,0.3,0.1,0.4,0.2
						l4.6,5.5C754,516.9,753.8,517.5,753.3,517.5z"/>
					<path class="st4" d="M758.2,523.3h-18.1c-0.2,0-0.3-0.1-0.4-0.2l-1.6-2.3c-0.2-0.4,0-0.8,0.4-0.8h17.7c0.2,0,0.3,0.1,0.4,0.2
						l1.9,2.3C758.9,522.7,758.6,523.3,758.2,523.3z"/>
					<path class="st4" d="M761.8,527.6h-18.7c-0.2,0-0.3-0.1-0.4-0.2l-1.8-2.6c-0.2-0.4,0-0.8,0.4-0.8h18.3c0.2,0,0.3,0.1,0.4,0.2
						l2.2,2.6C762.5,527,762.2,527.6,761.8,527.6z"/>
					<path class="st4" d="M790.6,527.6h-18.6c-0.2,0-0.3-0.1-0.4-0.2l-2.3-2.6c-0.3-0.3-0.1-0.9,0.4-0.9h18.2c0.1,0,0.3,0.1,0.4,0.1
						l2.7,2.6C791.4,527,791.1,527.6,790.6,527.6z"/>
					<path class="st4" d="M732.9,527.6h-18.9c-0.2,0-0.4-0.1-0.5-0.3l-1.2-2.6c-0.2-0.4,0.1-0.8,0.5-0.8h18.5c0.2,0,0.4,0.1,0.5,0.3
						l1.6,2.6C733.6,527.1,733.4,527.6,732.9,527.6z"/>
					<path class="st4" d="M780,517.5h-17c-0.2,0-0.3-0.1-0.4-0.2l-5-5.5c-0.3-0.3-0.1-0.9,0.4-0.9h16.2c0.1,0,0.3,0.1,0.4,0.1
						l5.8,5.5C780.7,516.9,780.4,517.5,780,517.5z"/>
				</g>
			</g>
		</g>
		<g>
			<g>
				<g>
					<polygon class="st9" points="314.6,104.9 370.9,147.2 354.8,167.2 					"/>
				</g>
				<g>
					<polygon class="st10" points="314.6,104.9 358,147.9 354.8,167.2 					"/>
				</g>
				<g>
					<polygon class="st11" points="314.6,104.9 392.5,142.1 370.9,147.2 					"/>
				</g>
				<g>
					<polygon class="st11" points="314.6,104.9 358,147.9 331.8,152.1 					"/>
				</g>
			</g>
			<g>
				<path class="st1" d="M560.8,277.6c-0.1,0-0.2-0.1-0.3-0.1c-1.7-1-3.5-2.1-5.1-3.2c-0.5-0.3-0.6-1-0.3-1.5c0.3-0.5,1-0.6,1.5-0.3
					c1.6,1.1,3.3,2.1,5,3.1c0.5,0.3,0.7,1,0.4,1.5C561.8,277.5,561.3,277.7,560.8,277.6z M549.2,269.5c-0.2,0-0.3-0.1-0.5-0.2
					c-2.1-1.8-4.1-3.7-6-5.8c-0.4-0.4-0.4-1.1,0-1.6c0.4-0.4,1.1-0.4,1.6,0c1.9,2,3.9,3.9,5.9,5.6c0.5,0.4,0.5,1.1,0.1,1.5
					C550,269.4,549.6,269.6,549.2,269.5z M537.9,257.5c-0.2-0.1-0.5-0.2-0.6-0.4c-1.7-2.1-3.3-4.4-4.8-6.8c-0.3-0.5-0.2-1.2,0.3-1.5
					c0.5-0.3,1.2-0.2,1.5,0.3c1.5,2.3,3.1,4.5,4.7,6.6c0.4,0.5,0.3,1.2-0.2,1.5C538.6,257.5,538.2,257.6,537.9,257.5z M528.9,243.8
					c-0.3-0.1-0.6-0.3-0.7-0.5c-1.3-2.4-2.6-4.9-3.8-7.4c-0.3-0.5,0-1.2,0.5-1.5c0.6-0.3,1.2,0,1.5,0.5c1.2,2.5,2.4,5,3.7,7.3
					c0.3,0.5,0.1,1.2-0.4,1.5C529.4,243.8,529.1,243.8,528.9,243.8z M442.7,213.4C442.7,213.4,442.7,213.4,442.7,213.4
					c-2.7-0.6-5.4-1.3-8.1-2c-0.6-0.2-0.9-0.8-0.8-1.3c0.2-0.6,0.8-0.9,1.3-0.8c2.6,0.7,5.3,1.4,8,2c0.6,0.1,1,0.7,0.8,1.3
					C443.9,213.2,443.3,213.6,442.7,213.4z M450.8,215.1c-0.6-0.1-1-0.7-0.9-1.3c0.1-0.6,0.7-1,1.3-0.9c2.7,0.5,5.4,0.9,8.1,1.3
					c0.6,0.1,1,0.6,0.9,1.2c-0.1,0.6-0.6,1-1.2,0.9C456.2,216,453.5,215.6,450.8,215.1C450.8,215.1,450.8,215.1,450.8,215.1z
					 M521.9,228.9c-0.4-0.1-0.7-0.3-0.8-0.7c-1-2.5-1.9-5.2-2.8-7.8c-0.2-0.6,0.1-1.2,0.7-1.4c0.6-0.2,1.2,0.1,1.4,0.7
					c0.9,2.6,1.8,5.2,2.8,7.7c0.2,0.6-0.1,1.2-0.6,1.4C522.3,228.9,522.1,228.9,521.9,228.9z M426.8,209.1c0,0-0.1,0-0.1,0
					c-2.7-0.9-5.3-1.8-7.8-2.8c-0.6-0.2-0.8-0.9-0.6-1.4c0.2-0.6,0.8-0.9,1.4-0.6c2.5,1,5.1,1.9,7.7,2.7c0.6,0.2,0.9,0.8,0.7,1.4
					C427.9,208.9,427.3,209.2,426.8,209.1z M467.1,217.4c-0.5-0.1-0.9-0.6-0.9-1.2c0.1-0.6,0.6-1,1.2-1c1.1,0.1,2.1,0.2,3.2,0.3
					c1.6,0.1,3.3,0.3,4.9,0.3c0.6,0,1.1,0.5,1,1.1c0,0.6-0.5,1.1-1.1,1c-1.7-0.1-3.4-0.2-5-0.3c-1.1-0.1-2.1-0.2-3.2-0.3
					C467.1,217.4,467.1,217.4,467.1,217.4z M483.5,218.1c-0.5-0.1-0.9-0.5-0.9-1c0-0.6,0.5-1.1,1.1-1.1c2.7-0.1,5.5-0.3,8.1-0.5
					c0.6-0.1,1.1,0.4,1.2,1c0.1,0.6-0.4,1.1-1,1.2c-2.7,0.3-5.5,0.5-8.3,0.5C483.7,218.1,483.6,218.1,483.5,218.1z M411.4,203.2
					c-0.1,0-0.2,0-0.2-0.1c-2.6-1.2-5.1-2.4-7.5-3.7c-0.5-0.3-0.7-1-0.5-1.5c0.3-0.5,1-0.7,1.5-0.5c2.3,1.3,4.8,2.5,7.3,3.6
					c0.6,0.3,0.8,0.9,0.5,1.5C412.4,203.1,411.9,203.3,411.4,203.2z M396.9,195.4c-0.1,0-0.3-0.1-0.4-0.1c-2.4-1.5-4.7-3.1-6.8-4.7
					c-0.5-0.4-0.6-1.1-0.2-1.5c0.4-0.5,1.1-0.6,1.5-0.2c2.1,1.6,4.4,3.2,6.7,4.6c0.5,0.3,0.7,1,0.3,1.5
					C397.8,195.3,397.4,195.5,396.9,195.4z M499.9,216.4c-0.4-0.1-0.8-0.4-0.9-0.9c-0.1-0.6,0.3-1.2,0.9-1.3
					c2.7-0.5,5.3-1.1,7.9-1.8c0.6-0.2,1.2,0.2,1.3,0.8c0.2,0.6-0.2,1.2-0.8,1.3c-2.7,0.7-5.4,1.3-8.1,1.8
					C500.2,216.4,500,216.4,499.9,216.4z M516.8,213.2c-0.4-0.1-0.7-0.4-0.8-0.8c0-0.1,0-0.2-0.1-0.3c-0.4,0-0.8-0.3-0.9-0.7
					c-0.2-0.5,0-1,0.4-1.3c-0.5-2-0.9-3.9-1.3-5.8c-0.1-0.6,0.3-1.2,0.9-1.3c0.6-0.1,1.2,0.3,1.3,0.9c0.4,1.8,0.8,3.6,1.2,5.5
					c1.9-0.7,3.9-1.5,5.8-2.4c0.6-0.2,1.2,0,1.5,0.6c0.2,0.6,0,1.2-0.6,1.5c-2,0.9-4,1.7-6.1,2.5c0,0.1,0.1,0.2,0.1,0.3
					c0.2,0.6-0.2,1.2-0.8,1.3C517.1,213.2,517,213.3,516.8,213.2z M383.8,185.5c-0.2,0-0.4-0.1-0.5-0.3c-2.1-1.9-4-3.9-5.8-5.9
					c-0.4-0.5-0.4-1.1,0.1-1.6c0.5-0.4,1.1-0.4,1.6,0.1c1.8,2,3.7,3.9,5.7,5.8c0.4,0.4,0.5,1.1,0.1,1.6
					C384.6,185.4,384.2,185.5,383.8,185.5z M373,173.1c-0.3-0.1-0.5-0.2-0.7-0.4c-1.6-2.3-3.1-4.7-4.4-7.1c-0.3-0.5-0.1-1.2,0.4-1.5
					c0.5-0.3,1.2-0.1,1.5,0.4c1.3,2.4,2.7,4.7,4.3,6.9c0.3,0.5,0.2,1.2-0.3,1.5C373.6,173.2,373.3,173.2,373,173.1z M530.8,205.4
					c-0.3-0.1-0.6-0.3-0.7-0.5c-0.3-0.5-0.1-1.2,0.4-1.5c2.4-1.3,4.7-2.7,7-4.2c0.5-0.3,1.2-0.2,1.5,0.3c0.3,0.5,0.2,1.2-0.3,1.5
					c-2.3,1.5-4.7,3-7.1,4.3C531.3,205.5,531.1,205.5,530.8,205.4z M513.6,197.1c-0.4-0.1-0.8-0.5-0.9-0.9c-0.4-2.8-0.6-5.6-0.7-8.3
					c0-0.6,0.4-1.1,1.1-1.1c0.6,0,1.1,0.4,1.1,1.1c0.1,2.6,0.3,5.4,0.7,8.1c0.1,0.6-0.4,1.2-1,1.2
					C513.8,197.1,513.7,197.1,513.6,197.1z M544.5,196.4c-0.2-0.1-0.5-0.2-0.6-0.4c-0.4-0.5-0.3-1.2,0.2-1.5
					c2.1-1.7,4.2-3.4,6.2-5.3c0.4-0.4,1.1-0.4,1.6,0.1c0.4,0.4,0.4,1.1-0.1,1.6c-2,1.9-4.2,3.7-6.3,5.4
					C545.2,196.4,544.8,196.5,544.5,196.4z M513,180.6c-0.5-0.1-0.9-0.6-0.9-1.1c0.1-2.8,0.4-5.6,0.9-8.3c0.1-0.6,0.7-1,1.3-0.9
					c0.7,0.1,1,0.7,0.9,1.3c-0.4,2.6-0.7,5.3-0.9,8.1c0,0.6-0.5,1.1-1.2,1C513.1,180.6,513,180.6,513,180.6z M556.6,185.2
					c-0.2,0-0.4-0.1-0.5-0.3c-0.4-0.4-0.5-1.1-0.1-1.6c1.8-2,3.6-4.1,5.3-6.2c0.4-0.5,1.1-0.6,1.5-0.2c0.5,0.4,0.6,1.1,0.2,1.5
					c-1.7,2.2-3.5,4.3-5.4,6.3C557.4,185.2,557,185.3,556.6,185.2z M515.6,164.4C515.6,164.4,515.5,164.4,515.6,164.4
					c-0.7-0.2-1-0.8-0.8-1.4l0.1-0.3c0.7-2.5,1.7-5,2.8-7.6c0.2-0.6,0.9-0.8,1.5-0.6c0.6,0.2,0.8,0.9,0.6,1.5
					c-1.1,2.4-2,4.9-2.7,7.3l-0.1,0.3C516.7,164.2,516.2,164.5,515.6,164.4z M566.8,172.3c-0.1,0-0.3-0.1-0.4-0.2
					c-0.5-0.3-0.6-1-0.3-1.5c1.5-2.2,3-4.6,4.3-6.9c0.3-0.5,1-0.7,1.5-0.4c0.5,0.3,0.7,1,0.4,1.5c-1.4,2.4-2.8,4.8-4.4,7.1
					C567.7,172.2,567.2,172.4,566.8,172.3z M522.3,149.4c-0.1,0-0.2-0.1-0.4-0.1c-0.5-0.3-0.7-1-0.4-1.5c1.5-2.4,3.1-4.7,4.9-6.8
					c0.4-0.5,1.1-0.5,1.5-0.2c0.5,0.4,0.5,1.1,0.2,1.5c-1.7,2.1-3.3,4.3-4.7,6.6C523.2,149.3,522.7,149.5,522.3,149.4z M575,158
					c-0.1,0-0.2,0-0.3-0.1c-0.5-0.3-0.8-0.9-0.5-1.5l0.6-1.2c0.9-2,1.6-4.1,2.1-6.3c0.1-0.6,0.7-1,1.3-0.8c0,0,0,0,0,0
					c0.6,0.1,1,0.7,0.8,1.3c-0.5,2.3-1.3,4.6-2.3,6.7l-0.6,1.3C576,157.9,575.5,158.1,575,158z M532.7,136.7c-0.2,0-0.4-0.2-0.6-0.3
					c-0.4-0.4-0.4-1.1,0.1-1.6c2.1-1.9,4.4-3.7,6.7-5.1c0.5-0.3,1.2-0.2,1.5,0.3c0.3,0.5,0.2,1.2-0.3,1.5c-2.2,1.4-4.3,3.1-6.4,4.9
					C533.4,136.7,533.1,136.8,532.7,136.7z M578.4,142.1c-0.5-0.1-0.8-0.5-0.9-1c-0.2-2.8-1-5.3-2.2-7.4c-0.3-0.5-0.1-1.2,0.4-1.5
					c0.5-0.3,1.2-0.1,1.5,0.4c1.4,2.4,2.2,5.2,2.4,8.3c0,0.6-0.4,1.1-1,1.2C578.6,142.2,578.5,142.2,578.4,142.1z M546.6,128
					c-0.4-0.1-0.7-0.3-0.8-0.7c-0.2-0.6,0.1-1.2,0.6-1.4c2.7-1,5.4-1.8,8.2-2.2c0.6-0.1,1.2,0.3,1.2,0.9c0.1,0.6-0.3,1.2-0.9,1.2
					c-2.6,0.4-5.2,1.1-7.7,2C547,128,546.8,128,546.6,128z M570.4,128.4c-0.1,0-0.2-0.1-0.4-0.1c-2.1-1.3-4.6-2.2-7.3-2.6
					c-0.6-0.1-1-0.6-0.9-1.2c0.1-0.6,0.6-1,1.2-0.9c3,0.4,5.8,1.4,8.1,2.9c0.5,0.3,0.7,1,0.4,1.5
					C571.4,128.3,570.9,128.5,570.4,128.4z"/>
			</g>
		</g>
		<g class="st12">
			<path class="st13" d="M822.4,202.3h-55.7c-11.1,0-20-9-20-20v-39.4c0-11.1,9-20,20-20h55.7c11.1,0,20,9,20,20v39.4
				C842.4,193.3,833.4,202.3,822.4,202.3z"/>
			<g class="st14">
				<path class="st15" d="M838.2,130.5l-26.1,26.1c-0.4,0.4-0.9,0.9-1.4,1.3c-4.6,4-10.4,6-16.2,6c-5.8,0-11.5-2-16.2-6
					c-0.5-0.4-0.9-0.8-1.4-1.3l-1.8-1.8l-24.2-24.2c0.9-1.2,2-2.3,3.1-3.2l24.3,24.2l1.8,1.8c0.4,0.4,0.9,0.9,1.4,1.3
					c7.5,6.3,18.5,6.3,26,0c0.5-0.4,1-0.8,1.4-1.3l1.8-1.8l24.2-24.3C836.2,128.3,837.2,129.3,838.2,130.5z"/>
				<path class="st15" d="M780.1,153.4c0.4,0.4,0.9,0.9,1.4,1.3l-3.2,3.2l-30.7,30.7c-0.6-1.7-0.9-3.5-1-5.4l28.4-28.4l3.2-3.2
					L780.1,153.4z"/>
				<path class="st15" d="M842.4,183.2c-0.1,1.9-0.4,3.7-1,5.4l-30.7-30.7l-3.2-3.2c0.5-0.4,1-0.8,1.4-1.3l1.8-1.8l3.2,3.2
					L842.4,183.2z"/>
			</g>
		</g>
		<g>
			<polygon class="st3" points="696.4,299.6 657.3,332.6 614.6,302 624.8,274.2 626.9,263.6 631.1,242.5 673.9,241.3 675.7,248.8 
				680.7,269.1 			"/>
			<g>
				<path class="st16" d="M675.7,248.8c-4.3,7.7-16.2,18-48.8,14.7l4.1-21l42.8-1.2L675.7,248.8z"/>
				<g>
					<path class="st3" d="M692.7,187.4c0,36.9-17.8,66.9-39.8,66.9c-22,0-39.8-29.9-39.8-66.9s17.8-47.9,39.8-47.9
						C674.9,139.5,692.7,150.4,692.7,187.4z"/>
					<path class="st16" d="M672.5,143.2c0,0,0.1,21.3-19.1,23.2c-19.3,1.9-36.8-9.7-41.2,15.5v-22.6l21.3-12.6L672.5,143.2z"/>
					<path class="st17" d="M696.8,155.8c3.6,12.6-6,68.9-11.4,80.3c-5.4,11.4-17.3,18-33.6,18.2c-20.8,0.2-27.9-10.1-32.1-16.1
						c-4.2-6-4.6-17.5-10-60.8s28.9-49,41.5-49c12.6,0,18.6-0.2,21,8.2C690.2,135.5,693.2,143.1,696.8,155.8z M657,162
						c-11.5,5.3-31.8-5.4-39.6,3.3c-7.8,8.7-3,36.7-0.4,48.4c1,4.6,14.2,1,22.3,5.3c-11.2,10.5,0,19.5,12.3,19.5
						c11.7,0,22.7-3.7,15.3-18c5.7-6.2,18-0.3,20.4-5.6c3.6-7.6,1.6-42.8,1.6-42.8c-4.9-1.5-16-15.1-16-25.3
						C672.8,146.8,668.5,156.7,657,162z"/>
					<path class="st17" d="M639.2,184.9c0,3.1-1.7,5.7-3.9,5.7c-2.1,0-3.9-2.6-3.9-5.7c0-3.1,1.7-5.7,3.9-5.7
						C637.5,179.2,639.2,181.8,639.2,184.9z"/>
					<path class="st17" d="M672.5,184.9c0,3.1-1.7,5.7-3.9,5.7s-3.9-2.6-3.9-5.7c0-3.1,1.7-5.7,3.9-5.7S672.5,181.8,672.5,184.9z"/>
					<path class="st15" d="M640.9,224.3h22.9c0,0-2.5,9.9-10.5,9.9C645.3,234.2,641.9,228.4,640.9,224.3z"/>
					<path class="st16" d="M652.4,190.6c0,0-14.6,23.4,0,23.4V190.6z"/>
				</g>
				<g class="st12">
					<path class="st18" d="M607.3,188.6c-0.4-2.2-0.6-4.5-0.6-6.8c0-23,20.3-37.7,45.3-37.7c25,0,45.3,14.8,45.3,37.7
						c0,2.3-0.2,4.6-0.6,6.8h5.2c1.2-4.1,2.4-8.4,1.9-12.8c-2.2-21.6-20.1-42.4-51.8-42.4c-28.6,0-51.2,22.5-51.2,45.2
						c0,4.4,0.1,5.9,1.4,10H607.3z"/>
					<g class="st14">
						<path class="st19" d="M609.3,213.5l-4.6,0.5c-5.3,0.6-10.1-3.1-10.7-8.1l-2.6-22.3c-0.6-5.1,3.2-9.6,8.5-10.2l4.6-0.5
							c2.8-0.3,5.4,1.6,5.7,4.4l3.6,30.8C614.2,210.7,612.1,213.2,609.3,213.5z"/>
						<path class="st19" d="M695.5,213.5l4.6,0.5c5.3,0.6,10.1-3.1,10.7-8.1l2.6-22.3c0.6-5.1-3.2-9.6-8.5-10.2l-4.6-0.5
							c-2.8-0.3-5.4,1.6-5.7,4.4l-3.6,30.8C690.6,210.7,692.6,213.2,695.5,213.5z"/>
					</g>
				</g>
				<path class="st17" d="M663.8,131.5c0,0-3.1,10.2-21,10.2c-17.9,0-23.5,1.6-23.5,1.6S632.5,129,663.8,131.5z"/>
			</g>
			<g>
				<path class="st8" d="M720.2,361.7c-1.2,0.4-2.3,0.8-3.3,1.1c0.6,5.2,1.2,17.5,1.9,28.9l0.1,1.3c0.2,3.2,0.4,6.3,0.6,9.1
					c0.3,5.2,0.7,9.5,1.1,12c1.1,6,1.9,12.3,2.6,18.1c1.7,14.8,2.3,27.1,2.3,27.1c-2.9-0.1-141,0-141,0l0.7-23.9l0.5-15.7l0.5-14.9
					l1.2-41.3c-1.2-0.4-3.4-0.9-6-1.3c-10.1-1.7-27.8-3.6-34.6-4.3c-1.7-0.2-2.7-0.3-2.7-0.3s15.3-63.8,24.7-73.9
					c17.1-10.7,34.8-14.9,58.2-20.2c0,0-1.5,8.8,2.9,16.5c10.5,18.3,45.2,15,49.8-5.5c1.1-4.9-0.2-10.9-0.2-10.9s48,10,57.3,21.1
					c7.3,12.3,20.7,66.7,20.7,66.7s-1.3,0.3-3.5,0.9C746.6,354.1,729.8,358.6,720.2,361.7z"/>
				<polygon class="st20" points="707.2,323.9 716.9,362.9 718.9,393.1 707.2,361.4 				"/>
				<polygon class="st20" points="593.8,384.8 588.6,407.1 585.7,419.7 586.1,404.8 587.3,363.5 593.8,321 				"/>
			</g>
			<g>
				<g>
					<path class="st17" d="M564,485.7c0,0-49,2.6-60.2,7.6c-11.2,5,1.7,30.5,9.5,31.5c5.7,0.8,54.3-4.1,61.2-11.2L564,485.7z"/>
					<path class="st3" d="M564,485.7c0,0-21.3,4.5-25.2,9.7c-4,5.2-4.6,19.2-1.7,19.8s6.7,5.2,37.5-1.5L564,485.7z"/>
				</g>
				<path class="st21" d="M563.5,485.4l10.9,28.7l201.9-37c19.7-4.3,53.8-22.4,49.4-37.9c-5.3-18.8-20.7-30.8-40.1-25.4L563.5,485.4
					z"/>
			</g>
			<path class="st3" d="M588.6,407.1l-2.5-2.3l-13-11.7l8.2-30.9c-10.1-1.7-27.8-3.6-34.6-4.3l-7.7,39.5c-1,4.9,1.2,10,5.5,12.6
				l40.7,25.4l13.8,8.6l10.8-17.9L588.6,407.1z"/>
			<path class="st3" d="M763.4,396.7l-9.5-44.5c-7.3,1.9-24.1,6.4-33.6,9.5l8.9,31.3l-9.7,9.1l-26.3,24.7l11.1,17.7l18.9-12.3
				l35-22.8C762.4,406.7,764.5,401.7,763.4,396.7z"/>
			<g>
				<path class="st22" d="M747.2,485l-10.5,28.9l-208.9-36.7c-19.7-4.1-42.6-19.8-42.9-31.4c-0.5-16.1,22.8-36.6,42.3-31.5
					L747.2,485z"/>
				<g>
					<path class="st17" d="M747.2,485c0,0,51.6,3.4,63,8c11.4,4.6-4.1,28.2-11.9,29.6c-5.7,1-54.5-1.9-61.6-8.7L747.2,485z"/>
					<path class="st3" d="M747.2,485c0,0,20.3,4.2,24.5,9.1c4.2,5,5.4,19,2.5,19.7c-2.9,0.7-6.4,5.5-37.5,0L747.2,485z"/>
				</g>
			</g>
			<g>
				<path class="st23" d="M729.8,361.4L719,446.3H582.3l-1.6-12.6l-9.2-72.2c0-5.3,4.3-9.6,9.6-9.6h139.1
					C725.5,351.9,729.8,356.1,729.8,361.4z"/>
				<path class="st24" d="M719,454.4H582.3c-1.5,0-2.7-1.2-2.7-2.7V449c0-1.5,1.2-2.7,2.7-2.7H719c1.5,0,2.7,1.2,2.7,2.7v2.6
					C721.7,453.1,720.5,454.4,719,454.4z"/>
				<path class="st24" d="M650.6,388.3c-0.8,0-1.7,0.1-2.4,0.3c0,0.3,0.1,0.7,0.1,1c0,4.8-3.9,8.8-8.7,8.8c0,0.4-0.1,0.7-0.1,1.1
					c0,6.2,5,11.2,11.2,11.2c6.2,0,11.2-5,11.2-11.2C661.8,393.3,656.8,388.3,650.6,388.3z"/>
			</g>
		</g>
		<g>
			<g>
				<path class="st25" d="M451.9,232.5c-7.1,0-10,3-10,9.3c0,0.6-1.1,0.6-1.1,0c0-6.4-2.3-9.3-10-9.3c-0.6,0-0.6-1.1,0-1.1
					c7.9,0,10-3.7,10-9.3c0-0.6,1.1-0.6,1.1,0c0,6.7,2.7,9.3,10,9.3C452.5,231.4,452.5,232.5,451.9,232.5z"/>
			</g>
			<g>
				<path class="st25" d="M505.4,183.8c-10.7,0-14.9,4.4-14.9,13.9c0,0.9-1.7,0.9-1.7,0c0-9.5-3.4-13.9-14.9-13.9
					c-0.9,0-0.9-1.7,0-1.7c11.9,0,14.9-5.5,14.9-13.9c0-0.9,1.7-0.9,1.7,0c0,10,4,13.9,14.9,13.9
					C506.3,182.2,506.3,183.8,505.4,183.8z"/>
			</g>
			<g>
				<path class="st25" d="M495.5,286.6c-8.2,0-11.4,3.4-11.4,10.6c0,0.7-1.3,0.7-1.3,0c0-7.3-2.6-10.6-11.4-10.6
					c-0.7,0-0.7-1.3,0-1.3c9.1,0,11.4-4.2,11.4-10.6c0-0.7,1.3-0.7,1.3,0c0,7.6,3.1,10.6,11.4,10.6
					C496.2,285.3,496.2,286.6,495.5,286.6z"/>
			</g>
		</g>
	</g>
	<g class="st12">
		<path class="st26" d="M599.5,792.7l5.3-2.6l6.4,1.8l22.6-2l0,6.6l-22.1-1.9l-2.4,0.3c-0.7,0.1-1.4-0.1-2-0.5l-2.8-1.9l-4.6,2
			L599.5,792.7L599.5,792.7z"/>
		<path class="st27" d="M643.5,762.4c-5.7,0.4-3.5,7.9-7.9,26.4l-21.9,1.8l0.5,4.7c0,0,23.4,2.4,27,2.2
			C646.3,788.2,652.2,761.8,643.5,762.4L643.5,762.4z"/>
		<path class="st26" d="M653,762.7c-1.1,2.9-2.5,4.5-5.7,4c-4.1,1.7-5.2-6.2-5.2-6.2c-2.1,0.4-4.8-0.1-7.2-4.8
			c-2.7-5.3-3.1-9.9-3.1-14.2c0-2.7,1.3-4.3,6-5.1c4.7-0.7,7.9,1,11.1,6.3c2.6,4.3,2,13.7,2,13.7C651.5,758.3,653,762.7,653,762.7
			L653,762.7z"/>
		<path class="st28" d="M651.6,758.8c-3.6-0.4-6.2-4.7-6.2-4.7c1.8-1.7,3.7-6.4,0.6-6.8c-2.2-0.3-2.4,5.2-2.4,5.2
			c-0.7,0.8-1.7,1.3-2,0.7c-1.2-2.6-0.9-6.4,1-9.5c-3.3,1.3-11.3,6.2-16.8,2.2c-0.7-11.2,18.1-14.7,23.5-8.9
			C658.1,735.6,657.2,751.8,651.6,758.8L651.6,758.8z"/>
		<path class="st29" d="M669.6,808.7c0,0-14.3,0-19.8-1.2c-0.2-17.1-4.5-24.7-6.1-29.3c-3-8.6-2.9-14.4-2.9-14.4
			c0.9-1.2,1.8-1.2,1.8-1.2s0.6,4.5,4.7,4.2c6.2-0.4,5.1-5.8,5.1-5.8c2.5-1.3,7.4-0.4,10,2.9C668.5,771.3,669.5,807.3,669.6,808.7
			L669.6,808.7z"/>
		<path class="st26" d="M615.5,799.1l3.4-4.4c0.4-0.5,1-0.7,1.6-0.7l5.9-0.2l24.8-1.3l-0.5,6.3l-22.4-1.4l-2.3,1.1
			c-0.7,0.3-1.4,0.4-2.2,0.1l-3.4-1.2l-4.4,2.9L615.5,799.1L615.5,799.1z"/>
		<path class="st30" d="M653.2,765.3c1.2-2.1,2.4-3.6,5.1-3.2c7.5,1.1,1,7,3.8,29.4c0.3,2.3-0.1,8.2-6.4,7.8
			c-6.3-0.4-25.5-1.1-25.5-1.1l-0.3-6.2l22.1-1.2C652,790.9,650,770.8,653.2,765.3L653.2,765.3z"/>
		<path class="st26" d="M610.6,854.7l-0.1,2.6c0,0-2.3,2.2-4.7,1.1c-2.4-1.1-2.8-2-2.8-2l1.4-4.8l6.9,0.4L610.6,854.7L610.6,854.7z"
			/>
		<path class="st28" d="M602.5,856.1c0,0,5.1,2.5,8.1,1.1c0,0,1.3,4.6,0,5.2c-1.2,0.6-9.7,1.6-12.6,1.3c-2.9-0.3-7.8-0.9-7.4-2.8
			c0.4-2,7.6-0.1,8.9-1.4C601,858.1,602.5,856.1,602.5,856.1L602.5,856.1z"/>
		<path class="st26" d="M624.1,860.8l0.4,2.6c0,0-1.8,2.6-4.4,2c-2.6-0.6-3.1-1.5-3.1-1.5l0.5-5l6.9-0.9L624.1,860.8L624.1,860.8z"
			/>
		<path class="st28" d="M616.5,863.7c0,0,5.5,1.5,8.1-0.4c0,0,2.1,4.3,1,5.1c-1.1,0.8-9.2,3.3-12.1,3.6c-2.9,0.3-7.8,0.6-7.7-1.4
			c0.1-2,7.5-1.5,8.5-3.1C615.4,866,616.5,863.7,616.5,863.7L616.5,863.7z"/>
		<path class="st31" d="M662.8,809.2c-1.5,7.9-5.3,13.1-23.3,10.4c-4.8-0.7-19.3-3-19.3-3l-9.2,38.8l-9.3-1.2
			c0,0,6.5-43.1,10.6-48.1c4.1-5,26.8-2.9,33.2-2.5C651.9,804.1,662.8,809.2,662.8,809.2L662.8,809.2z"/>
		<path class="st32" d="M669.6,808.6c-0.5,8-3.5,13.7-21.8,13.3c-4.9-0.1-19.5-0.5-19.5-0.5l-3.4,40.6h-9.4c0,0,0.2-44.5,3.7-50
			c3.4-5.5,26.2-6.4,32.6-6.7C658.2,805,669.6,808.6,669.6,808.6L669.6,808.6z"/>
	</g>
	<g>
		<path class="st33" d="M842.8,94.7c0-12.6-11.7-22.9-26.1-22.9c-14.4,0-26.1,10.3-26.1,22.9s11.7,22.9,26.1,22.9
			C831.1,117.6,842.8,107.3,842.8,94.7L842.8,94.7z"/>
		<path class="st34" d="M842.8,94.7c0-12.6-11.7-22.9-26.1-22.9c-14.4,0-26.1,10.3-26.1,22.9s11.7,22.9,26.1,22.9
			C831.1,117.6,842.8,107.3,842.8,94.7L842.8,94.7z"/>
		<polygon class="st33" points="799,93.4 809.7,89.4 810.7,92 802.8,94.7 810.7,97.4 809.7,100.1 799,96.1 799,93.4 		"/>
		<polygon class="st34" points="799,93.4 809.7,89.4 810.7,92 802.8,94.7 810.7,97.4 809.7,100.1 799,96.1 799,93.4 		"/>
		<polygon class="st33" points="815.1,105.4 811.3,105.4 819.7,84.1 823.5,84.1 815.1,105.4 		"/>
		<polygon class="st34" points="815.1,105.4 811.3,105.4 819.7,84.1 823.5,84.1 815.1,105.4 		"/>
		<polygon class="st33" points="835.9,96.1 825.1,100.1 824.1,97.4 832,94.7 824.1,92 825.1,89.4 835.9,93.4 835.9,96.1 		"/>
		<polygon class="st34" points="835.9,96.1 825.1,100.1 824.1,97.4 832,94.7 824.1,92 825.1,89.4 835.9,93.4 835.9,96.1 		"/>
		<path class="st33" d="M800.7,53.4c0-15-13.9-27.2-31-27.2c-17.1,0-31,12.2-31,27.2s13.9,27.2,31,27.2
			C786.8,80.6,800.7,68.4,800.7,53.4L800.7,53.4z"/>
		<path class="st34" d="M800.7,53.4c0-15-13.9-27.2-31-27.2c-17.1,0-31,12.2-31,27.2s13.9,27.2,31,27.2
			C786.8,80.6,800.7,68.4,800.7,53.4L800.7,53.4z"/>
		<path class="st33" d="M753.7,48.6c0.1,0.4,0.3,0.9,0.5,1.4c0.2,0.5,0.4,1.1,0.5,1.6c0.2,0.6,0.4,1.1,0.6,1.7
			c0.2,0.6,0.4,1.1,0.6,1.6c0.2-0.5,0.3-1.1,0.5-1.7c0.2-0.6,0.3-1.3,0.5-1.9c0.1-0.7,0.3-1.3,0.4-2c0.1-0.7,0.3-1.3,0.4-1.9h2.9
			c-0.4,1.8-0.9,3.6-1.4,5.5c-0.5,1.8-1.1,3.6-1.7,5.3h-2.5c-0.4-1-0.8-2-1.2-3.1c-0.4-1.1-0.8-2.2-1.1-3.3
			c-0.4,1.1-0.8,2.2-1.1,3.3c-0.4,1.1-0.8,2.1-1.2,3.1h-2.5c-0.6-1.7-1.2-3.4-1.7-5.3c-0.5-1.8-1-3.7-1.4-5.5h3
			c0.1,0.6,0.2,1.2,0.4,1.9c0.1,0.7,0.3,1.3,0.4,2c0.2,0.7,0.3,1.3,0.5,1.9c0.2,0.6,0.3,1.2,0.5,1.7c0.2-0.5,0.4-1,0.6-1.6
			c0.2-0.6,0.4-1.1,0.6-1.7c0.2-0.6,0.4-1.1,0.5-1.6c0.2-0.5,0.3-1,0.4-1.4H753.7L753.7,48.6z"/>
		<path class="st34" d="M753.7,48.6c0.1,0.4,0.3,0.9,0.5,1.4c0.2,0.5,0.4,1.1,0.5,1.6c0.2,0.6,0.4,1.1,0.6,1.7
			c0.2,0.6,0.4,1.1,0.6,1.6c0.2-0.5,0.3-1.1,0.5-1.7c0.2-0.6,0.3-1.3,0.5-1.9c0.1-0.7,0.3-1.3,0.4-2c0.1-0.7,0.3-1.3,0.4-1.9h2.9
			c-0.4,1.8-0.9,3.6-1.4,5.5c-0.5,1.8-1.1,3.6-1.7,5.3h-2.5c-0.4-1-0.8-2-1.2-3.1c-0.4-1.1-0.8-2.2-1.1-3.3
			c-0.4,1.1-0.8,2.2-1.1,3.3c-0.4,1.1-0.8,2.1-1.2,3.1h-2.5c-0.6-1.7-1.2-3.4-1.7-5.3c-0.5-1.8-1-3.7-1.4-5.5h3
			c0.1,0.6,0.2,1.2,0.4,1.9c0.1,0.7,0.3,1.3,0.4,2c0.2,0.7,0.3,1.3,0.5,1.9c0.2,0.6,0.3,1.2,0.5,1.7c0.2-0.5,0.4-1,0.6-1.6
			c0.2-0.6,0.4-1.1,0.6-1.7c0.2-0.6,0.4-1.1,0.5-1.6c0.2-0.5,0.3-1,0.4-1.4H753.7L753.7,48.6z"/>
		<path class="st33" d="M770.8,48.6c0.1,0.4,0.3,0.9,0.5,1.4c0.2,0.5,0.4,1.1,0.5,1.6c0.2,0.6,0.4,1.1,0.6,1.7
			c0.2,0.6,0.4,1.1,0.6,1.6c0.2-0.5,0.3-1.1,0.5-1.7c0.2-0.6,0.3-1.3,0.5-1.9c0.1-0.7,0.3-1.3,0.4-2c0.1-0.7,0.3-1.3,0.4-1.9h2.9
			c-0.4,1.8-0.9,3.6-1.4,5.5c-0.5,1.8-1.1,3.6-1.7,5.3h-2.5c-0.4-1-0.8-2-1.2-3.1c-0.4-1.1-0.8-2.2-1.1-3.3
			c-0.4,1.1-0.8,2.2-1.1,3.3c-0.4,1.1-0.8,2.1-1.2,3.1h-2.5c-0.6-1.7-1.2-3.4-1.7-5.3c-0.5-1.8-1-3.7-1.4-5.5h3
			c0.1,0.6,0.2,1.2,0.4,1.9c0.1,0.7,0.3,1.3,0.4,2c0.2,0.7,0.3,1.3,0.5,1.9c0.2,0.6,0.3,1.2,0.5,1.7c0.2-0.5,0.4-1,0.6-1.6
			c0.2-0.6,0.4-1.1,0.6-1.7c0.2-0.6,0.4-1.1,0.5-1.6c0.2-0.5,0.3-1,0.4-1.4H770.8L770.8,48.6z"/>
		<path class="st34" d="M770.8,48.6c0.1,0.4,0.3,0.9,0.5,1.4c0.2,0.5,0.4,1.1,0.5,1.6c0.2,0.6,0.4,1.1,0.6,1.7
			c0.2,0.6,0.4,1.1,0.6,1.6c0.2-0.5,0.3-1.1,0.5-1.7c0.2-0.6,0.3-1.3,0.5-1.9c0.1-0.7,0.3-1.3,0.4-2c0.1-0.7,0.3-1.3,0.4-1.9h2.9
			c-0.4,1.8-0.9,3.6-1.4,5.5c-0.5,1.8-1.1,3.6-1.7,5.3h-2.5c-0.4-1-0.8-2-1.2-3.1c-0.4-1.1-0.8-2.2-1.1-3.3
			c-0.4,1.1-0.8,2.2-1.1,3.3c-0.4,1.1-0.8,2.1-1.2,3.1h-2.5c-0.6-1.7-1.2-3.4-1.7-5.3c-0.5-1.8-1-3.7-1.4-5.5h3
			c0.1,0.6,0.2,1.2,0.4,1.9c0.1,0.7,0.3,1.3,0.4,2c0.2,0.7,0.3,1.3,0.5,1.9c0.2,0.6,0.3,1.2,0.5,1.7c0.2-0.5,0.4-1,0.6-1.6
			c0.2-0.6,0.4-1.1,0.6-1.7c0.2-0.6,0.4-1.1,0.5-1.6c0.2-0.5,0.3-1,0.4-1.4H770.8L770.8,48.6z"/>
		<path class="st33" d="M788,48.6c0.1,0.4,0.3,0.9,0.5,1.4c0.2,0.5,0.4,1.1,0.5,1.6c0.2,0.6,0.4,1.1,0.6,1.7
			c0.2,0.6,0.4,1.1,0.6,1.6c0.2-0.5,0.3-1.1,0.5-1.7c0.2-0.6,0.3-1.3,0.5-1.9c0.1-0.7,0.3-1.3,0.4-2c0.1-0.7,0.3-1.3,0.4-1.9h2.9
			c-0.4,1.8-0.9,3.6-1.4,5.5c-0.5,1.8-1.1,3.6-1.7,5.3h-2.5c-0.4-1-0.8-2-1.2-3.1c-0.4-1.1-0.8-2.2-1.1-3.3
			c-0.4,1.1-0.8,2.2-1.1,3.3c-0.4,1.1-0.8,2.1-1.2,3.1h-2.5c-0.6-1.7-1.2-3.4-1.7-5.3c-0.5-1.8-1-3.7-1.4-5.5h3
			c0.1,0.6,0.2,1.2,0.4,1.9c0.1,0.7,0.3,1.3,0.4,2c0.2,0.7,0.3,1.3,0.5,1.9c0.2,0.6,0.3,1.2,0.5,1.7c0.2-0.5,0.4-1,0.6-1.6
			c0.2-0.6,0.4-1.1,0.6-1.7c0.2-0.6,0.4-1.1,0.5-1.6c0.2-0.5,0.3-1,0.4-1.4H788L788,48.6z"/>
		<path class="st34" d="M788,48.6c0.1,0.4,0.3,0.9,0.5,1.4c0.2,0.5,0.4,1.1,0.5,1.6c0.2,0.6,0.4,1.1,0.6,1.7
			c0.2,0.6,0.4,1.1,0.6,1.6c0.2-0.5,0.3-1.1,0.5-1.7c0.2-0.6,0.3-1.3,0.5-1.9c0.1-0.7,0.3-1.3,0.4-2c0.1-0.7,0.3-1.3,0.4-1.9h2.9
			c-0.4,1.8-0.9,3.6-1.4,5.5c-0.5,1.8-1.1,3.6-1.7,5.3h-2.5c-0.4-1-0.8-2-1.2-3.1c-0.4-1.1-0.8-2.2-1.1-3.3
			c-0.4,1.1-0.8,2.2-1.1,3.3c-0.4,1.1-0.8,2.1-1.2,3.1h-2.5c-0.6-1.7-1.2-3.4-1.7-5.3c-0.5-1.8-1-3.7-1.4-5.5h3
			c0.1,0.6,0.2,1.2,0.4,1.9c0.1,0.7,0.3,1.3,0.4,2c0.2,0.7,0.3,1.3,0.5,1.9c0.2,0.6,0.3,1.2,0.5,1.7c0.2-0.5,0.4-1,0.6-1.6
			c0.2-0.6,0.4-1.1,0.6-1.7c0.2-0.6,0.4-1.1,0.5-1.6c0.2-0.5,0.3-1,0.4-1.4H788L788,48.6z"/>
		<path class="st33" d="M768.2,133.7c0-8.9-8.2-16.1-18.3-16.1c-10.1,0-18.3,7.2-18.3,16.1c0,8.9,8.2,16.1,18.3,16.1
			C760,149.8,768.2,142.6,768.2,133.7L768.2,133.7z"/>
		<path class="st34" d="M768.2,133.7c0-8.9-8.2-16.1-18.3-16.1c-10.1,0-18.3,7.2-18.3,16.1c0,8.9,8.2,16.1,18.3,16.1
			C760,149.8,768.2,142.6,768.2,133.7L768.2,133.7z"/>
		<path class="st33" d="M730.3,173.2c0-4.4-4.1-8-9.2-8c-5.1,0-9.2,3.6-9.2,8s4.1,8,9.2,8C726.2,181.3,730.3,177.7,730.3,173.2
			L730.3,173.2z"/>
		<path class="st34" d="M730.3,173.2c0-4.4-4.1-8-9.2-8c-5.1,0-9.2,3.6-9.2,8s4.1,8,9.2,8C726.2,181.3,730.3,177.7,730.3,173.2
			L730.3,173.2z"/>
		<path class="st33" d="M733.3,215.2c0-2.1-1.9-3.7-4.2-3.7s-4.2,1.7-4.2,3.7c0,2.1,1.9,3.7,4.2,3.7S733.3,217.3,733.3,215.2
			L733.3,215.2z"/>
		<path class="st34" d="M733.3,215.2c0-2.1-1.9-3.7-4.2-3.7s-4.2,1.7-4.2,3.7c0,2.1,1.9,3.7,4.2,3.7S733.3,217.3,733.3,215.2
			L733.3,215.2z"/>
		<path class="st33" d="M809,136.9c0-10.7-9.9-19.3-22-19.3c-12.2,0-22,8.7-22,19.3c0,10.7,9.9,19.3,22,19.3
			C799.1,156.2,809,147.6,809,136.9L809,136.9z"/>
		<path class="st34" d="M809,136.9c0-10.7-9.9-19.3-22-19.3c-12.2,0-22,8.7-22,19.3c0,10.7,9.9,19.3,22,19.3
			C799.1,156.2,809,147.6,809,136.9L809,136.9z"/>
		<polygon class="st33" points="777.1,132.6 779,132.6 779,140.1 777.1,140.1 777.1,136.9 773.9,136.9 773.9,140.1 772,140.1 
			772,132.6 773.9,132.6 773.9,135.5 777.1,135.5 777.1,132.6 		"/>
		<polygon class="st34" points="777.1,132.6 779,132.6 779,140.1 777.1,140.1 777.1,136.9 773.9,136.9 773.9,140.1 772,140.1 
			772,132.6 773.9,132.6 773.9,135.5 777.1,135.5 777.1,132.6 		"/>
		<polygon class="st33" points="787.3,132.6 787.3,134 784.8,134 784.8,140.1 782.8,140.1 782.8,134 780.3,134 780.3,132.6 
			787.3,132.6 		"/>
		<polygon class="st34" points="787.3,132.6 787.3,134 784.8,134 784.8,140.1 782.8,140.1 782.8,134 780.3,134 780.3,132.6 
			787.3,132.6 		"/>
		<path class="st33" d="M790.7,132.6c0.1,0.2,0.3,0.5,0.5,0.9c0.2,0.3,0.4,0.7,0.6,1.1c0.2,0.4,0.4,0.8,0.6,1.2
			c0.2,0.4,0.4,0.8,0.6,1.2c0.2-0.4,0.4-0.8,0.6-1.2c0.2-0.4,0.4-0.8,0.6-1.2c0.2-0.4,0.4-0.8,0.6-1.1c0.2-0.3,0.4-0.6,0.5-0.9h1.7
			c0.1,0.5,0.2,1.1,0.2,1.7c0.1,0.6,0.1,1.3,0.2,1.9c0.1,0.7,0.1,1.3,0.1,2c0,0.7,0.1,1.3,0.1,1.9h-1.9c0-0.7-0.1-1.5-0.1-2.4
			c0-0.9-0.1-1.7-0.2-2.6c-0.2,0.3-0.3,0.6-0.5,1c-0.2,0.4-0.4,0.7-0.5,1.1c-0.2,0.4-0.3,0.7-0.5,1.1c-0.2,0.3-0.3,0.6-0.4,0.9h-1.3
			c-0.1-0.2-0.3-0.5-0.4-0.9c-0.2-0.3-0.3-0.7-0.5-1.1c-0.2-0.4-0.4-0.7-0.5-1.1c-0.2-0.4-0.3-0.7-0.5-1c-0.1,0.9-0.1,1.7-0.2,2.6
			c0,0.9-0.1,1.6-0.1,2.4h-1.9c0-0.6,0.1-1.2,0.1-1.9c0-0.7,0.1-1.3,0.1-2c0.1-0.7,0.1-1.3,0.2-1.9c0.1-0.6,0.1-1.2,0.2-1.7H790.7
			L790.7,132.6z"/>
		<path class="st34" d="M790.7,132.6c0.1,0.2,0.3,0.5,0.5,0.9c0.2,0.3,0.4,0.7,0.6,1.1c0.2,0.4,0.4,0.8,0.6,1.2
			c0.2,0.4,0.4,0.8,0.6,1.2c0.2-0.4,0.4-0.8,0.6-1.2c0.2-0.4,0.4-0.8,0.6-1.2c0.2-0.4,0.4-0.8,0.6-1.1c0.2-0.3,0.4-0.6,0.5-0.9h1.7
			c0.1,0.5,0.2,1.1,0.2,1.7c0.1,0.6,0.1,1.3,0.2,1.9c0.1,0.7,0.1,1.3,0.1,2c0,0.7,0.1,1.3,0.1,1.9h-1.9c0-0.7-0.1-1.5-0.1-2.4
			c0-0.9-0.1-1.7-0.2-2.6c-0.2,0.3-0.3,0.6-0.5,1c-0.2,0.4-0.4,0.7-0.5,1.1c-0.2,0.4-0.3,0.7-0.5,1.1c-0.2,0.3-0.3,0.6-0.4,0.9h-1.3
			c-0.1-0.2-0.3-0.5-0.4-0.9c-0.2-0.3-0.3-0.7-0.5-1.1c-0.2-0.4-0.4-0.7-0.5-1.1c-0.2-0.4-0.3-0.7-0.5-1c-0.1,0.9-0.1,1.7-0.2,2.6
			c0,0.9-0.1,1.6-0.1,2.4h-1.9c0-0.6,0.1-1.2,0.1-1.9c0-0.7,0.1-1.3,0.1-2c0.1-0.7,0.1-1.3,0.2-1.9c0.1-0.6,0.1-1.2,0.2-1.7H790.7
			L790.7,132.6z"/>
		<polygon class="st33" points="805.2,138.6 805.2,140.1 799.5,140.1 799.5,132.6 801.4,132.6 801.4,138.6 805.2,138.6 		"/>
		<polygon class="st34" points="805.2,138.6 805.2,140.1 799.5,140.1 799.5,132.6 801.4,132.6 801.4,138.6 805.2,138.6 		"/>
		<path class="st33" d="M761.5,153.1c0-8.5-7.9-15.4-17.6-15.4c-9.7,0-17.6,6.9-17.6,15.4c0,8.5,7.9,15.4,17.6,15.4
			C753.7,168.5,761.5,161.6,761.5,153.1L761.5,153.1z"/>
		<path class="st34" d="M761.5,153.1c0-8.5-7.9-15.4-17.6-15.4c-9.7,0-17.6,6.9-17.6,15.4c0,8.5,7.9,15.4,17.6,15.4
			C753.7,168.5,761.5,161.6,761.5,153.1L761.5,153.1z"/>
		<path class="st33" d="M737.4,157.1c-1.4,0-2.5-0.4-3.3-1.1c-0.8-0.7-1.1-1.7-1.1-3c0-0.6,0.1-1.2,0.3-1.7c0.2-0.5,0.5-0.9,0.9-1.3
			c0.4-0.3,0.9-0.6,1.4-0.8c0.6-0.2,1.2-0.3,1.8-0.3c0.4,0,0.7,0,1,0.1c0.3,0,0.6,0.1,0.8,0.2c0.2,0.1,0.4,0.1,0.6,0.2
			c0.2,0.1,0.3,0.1,0.3,0.2l-0.6,1.4c-0.3-0.1-0.6-0.2-1-0.3c-0.4-0.1-0.8-0.1-1.2-0.1c-0.3,0-0.6,0-0.9,0.1
			c-0.3,0.1-0.6,0.2-0.8,0.4c-0.2,0.2-0.4,0.5-0.5,0.8c-0.1,0.3-0.2,0.7-0.2,1.1c0,0.4,0,0.7,0.1,1c0.1,0.3,0.2,0.6,0.4,0.8
			c0.2,0.2,0.5,0.4,0.8,0.5c0.3,0.1,0.7,0.2,1.2,0.2c0.3,0,0.5,0,0.8,0c0.2,0,0.4-0.1,0.6-0.1c0.2,0,0.3-0.1,0.5-0.1
			c0.1-0.1,0.3-0.1,0.4-0.1l0.5,1.4c-0.3,0.2-0.7,0.3-1.2,0.4C738.7,157,738.1,157.1,737.4,157.1L737.4,157.1z"/>
		<path class="st34" d="M737.4,157.1c-1.4,0-2.5-0.4-3.3-1.1c-0.8-0.7-1.1-1.7-1.1-3c0-0.6,0.1-1.2,0.3-1.7c0.2-0.5,0.5-0.9,0.9-1.3
			c0.4-0.3,0.9-0.6,1.4-0.8c0.6-0.2,1.2-0.3,1.8-0.3c0.4,0,0.7,0,1,0.1c0.3,0,0.6,0.1,0.8,0.2c0.2,0.1,0.4,0.1,0.6,0.2
			c0.2,0.1,0.3,0.1,0.3,0.2l-0.6,1.4c-0.3-0.1-0.6-0.2-1-0.3c-0.4-0.1-0.8-0.1-1.2-0.1c-0.3,0-0.6,0-0.9,0.1
			c-0.3,0.1-0.6,0.2-0.8,0.4c-0.2,0.2-0.4,0.5-0.5,0.8c-0.1,0.3-0.2,0.7-0.2,1.1c0,0.4,0,0.7,0.1,1c0.1,0.3,0.2,0.6,0.4,0.8
			c0.2,0.2,0.5,0.4,0.8,0.5c0.3,0.1,0.7,0.2,1.2,0.2c0.3,0,0.5,0,0.8,0c0.2,0,0.4-0.1,0.6-0.1c0.2,0,0.3-0.1,0.5-0.1
			c0.1-0.1,0.3-0.1,0.4-0.1l0.5,1.4c-0.3,0.2-0.7,0.3-1.2,0.4C738.7,157,738.1,157.1,737.4,157.1L737.4,157.1z"/>
		<path class="st33" d="M744.3,155.6c0.3,0,0.5,0,0.7-0.1c0.2,0,0.3-0.1,0.4-0.2c0.1-0.1,0.2-0.2,0.2-0.3c0-0.1,0.1-0.2,0.1-0.3
			c0-0.3-0.1-0.5-0.4-0.6c-0.3-0.2-0.7-0.3-1.4-0.5c-0.3-0.1-0.6-0.2-0.9-0.3c-0.3-0.1-0.5-0.3-0.8-0.4c-0.2-0.2-0.4-0.4-0.6-0.6
			c-0.1-0.3-0.2-0.6-0.2-0.9c0-0.4,0.1-0.7,0.2-1c0.2-0.3,0.4-0.5,0.7-0.7c0.3-0.2,0.6-0.4,1-0.5c0.4-0.1,0.9-0.2,1.4-0.2
			c0.6,0,1.1,0.1,1.5,0.2c0.4,0.1,0.8,0.2,1.1,0.4l-0.6,1.4c-0.2-0.1-0.5-0.2-0.8-0.3c-0.3-0.1-0.7-0.1-1.1-0.1
			c-0.5,0-0.8,0.1-1,0.2c-0.2,0.1-0.3,0.3-0.3,0.5c0,0.1,0,0.3,0.1,0.4c0.1,0.1,0.2,0.2,0.3,0.3c0.1,0.1,0.3,0.1,0.5,0.2
			c0.2,0.1,0.4,0.1,0.6,0.2c0.5,0.1,0.9,0.3,1.2,0.4c0.3,0.1,0.6,0.3,0.8,0.5c0.2,0.2,0.4,0.4,0.5,0.7c0.1,0.3,0.2,0.6,0.2,1
			c0,0.7-0.3,1.3-0.9,1.7c-0.6,0.4-1.5,0.6-2.6,0.6c-0.4,0-0.7,0-1.1-0.1c-0.3,0-0.6-0.1-0.8-0.2c-0.2-0.1-0.5-0.1-0.6-0.2
			c-0.2-0.1-0.3-0.1-0.4-0.2l0.6-1.4c0.3,0.1,0.6,0.2,1,0.3C743.2,155.5,743.7,155.6,744.3,155.6L744.3,155.6z"/>
		<path class="st34" d="M744.3,155.6c0.3,0,0.5,0,0.7-0.1c0.2,0,0.3-0.1,0.4-0.2c0.1-0.1,0.2-0.2,0.2-0.3c0-0.1,0.1-0.2,0.1-0.3
			c0-0.3-0.1-0.5-0.4-0.6c-0.3-0.2-0.7-0.3-1.4-0.5c-0.3-0.1-0.6-0.2-0.9-0.3c-0.3-0.1-0.5-0.3-0.8-0.4c-0.2-0.2-0.4-0.4-0.6-0.6
			c-0.1-0.3-0.2-0.6-0.2-0.9c0-0.4,0.1-0.7,0.2-1c0.2-0.3,0.4-0.5,0.7-0.7c0.3-0.2,0.6-0.4,1-0.5c0.4-0.1,0.9-0.2,1.4-0.2
			c0.6,0,1.1,0.1,1.5,0.2c0.4,0.1,0.8,0.2,1.1,0.4l-0.6,1.4c-0.2-0.1-0.5-0.2-0.8-0.3c-0.3-0.1-0.7-0.1-1.1-0.1
			c-0.5,0-0.8,0.1-1,0.2c-0.2,0.1-0.3,0.3-0.3,0.5c0,0.1,0,0.3,0.1,0.4c0.1,0.1,0.2,0.2,0.3,0.3c0.1,0.1,0.3,0.1,0.5,0.2
			c0.2,0.1,0.4,0.1,0.6,0.2c0.5,0.1,0.9,0.3,1.2,0.4c0.3,0.1,0.6,0.3,0.8,0.5c0.2,0.2,0.4,0.4,0.5,0.7c0.1,0.3,0.2,0.6,0.2,1
			c0,0.7-0.3,1.3-0.9,1.7c-0.6,0.4-1.5,0.6-2.6,0.6c-0.4,0-0.7,0-1.1-0.1c-0.3,0-0.6-0.1-0.8-0.2c-0.2-0.1-0.5-0.1-0.6-0.2
			c-0.2-0.1-0.3-0.1-0.4-0.2l0.6-1.4c0.3,0.1,0.6,0.2,1,0.3C743.2,155.5,743.7,155.6,744.3,155.6L744.3,155.6z"/>
		<path class="st33" d="M751.7,155.6c0.3,0,0.5,0,0.7-0.1c0.2,0,0.3-0.1,0.4-0.2c0.1-0.1,0.2-0.2,0.2-0.3c0-0.1,0.1-0.2,0.1-0.3
			c0-0.3-0.1-0.5-0.4-0.6c-0.3-0.2-0.7-0.3-1.4-0.5c-0.3-0.1-0.6-0.2-0.9-0.3c-0.3-0.1-0.5-0.3-0.8-0.4c-0.2-0.2-0.4-0.4-0.6-0.6
			c-0.1-0.3-0.2-0.6-0.2-0.9c0-0.4,0.1-0.7,0.2-1c0.2-0.3,0.4-0.5,0.7-0.7c0.3-0.2,0.6-0.4,1-0.5c0.4-0.1,0.9-0.2,1.4-0.2
			c0.6,0,1.1,0.1,1.5,0.2c0.4,0.1,0.8,0.2,1.1,0.4l-0.6,1.4c-0.2-0.1-0.5-0.2-0.8-0.3c-0.3-0.1-0.7-0.1-1.1-0.1
			c-0.5,0-0.8,0.1-1,0.2s-0.3,0.3-0.3,0.5c0,0.1,0,0.3,0.1,0.4c0.1,0.1,0.2,0.2,0.3,0.3c0.1,0.1,0.3,0.1,0.5,0.2
			c0.2,0.1,0.4,0.1,0.6,0.2c0.5,0.1,0.9,0.3,1.2,0.4c0.3,0.1,0.6,0.3,0.8,0.5c0.2,0.2,0.4,0.4,0.5,0.7c0.1,0.3,0.2,0.6,0.2,1
			c0,0.7-0.3,1.3-0.9,1.7c-0.6,0.4-1.5,0.6-2.6,0.6c-0.4,0-0.7,0-1.1-0.1c-0.3,0-0.6-0.1-0.8-0.2c-0.2-0.1-0.5-0.1-0.6-0.2
			c-0.2-0.1-0.3-0.1-0.4-0.2l0.6-1.4c0.3,0.1,0.6,0.2,1,0.3C750.7,155.5,751.2,155.6,751.7,155.6L751.7,155.6z"/>
		<path class="st34" d="M751.7,155.6c0.3,0,0.5,0,0.7-0.1c0.2,0,0.3-0.1,0.4-0.2c0.1-0.1,0.2-0.2,0.2-0.3c0-0.1,0.1-0.2,0.1-0.3
			c0-0.3-0.1-0.5-0.4-0.6c-0.3-0.2-0.7-0.3-1.4-0.5c-0.3-0.1-0.6-0.2-0.9-0.3c-0.3-0.1-0.5-0.3-0.8-0.4c-0.2-0.2-0.4-0.4-0.6-0.6
			c-0.1-0.3-0.2-0.6-0.2-0.9c0-0.4,0.1-0.7,0.2-1c0.2-0.3,0.4-0.5,0.7-0.7c0.3-0.2,0.6-0.4,1-0.5c0.4-0.1,0.9-0.2,1.4-0.2
			c0.6,0,1.1,0.1,1.5,0.2c0.4,0.1,0.8,0.2,1.1,0.4l-0.6,1.4c-0.2-0.1-0.5-0.2-0.8-0.3c-0.3-0.1-0.7-0.1-1.1-0.1
			c-0.5,0-0.8,0.1-1,0.2s-0.3,0.3-0.3,0.5c0,0.1,0,0.3,0.1,0.4c0.1,0.1,0.2,0.2,0.3,0.3c0.1,0.1,0.3,0.1,0.5,0.2
			c0.2,0.1,0.4,0.1,0.6,0.2c0.5,0.1,0.9,0.3,1.2,0.4c0.3,0.1,0.6,0.3,0.8,0.5c0.2,0.2,0.4,0.4,0.5,0.7c0.1,0.3,0.2,0.6,0.2,1
			c0,0.7-0.3,1.3-0.9,1.7c-0.6,0.4-1.5,0.6-2.6,0.6c-0.4,0-0.7,0-1.1-0.1c-0.3,0-0.6-0.1-0.8-0.2c-0.2-0.1-0.5-0.1-0.6-0.2
			c-0.2-0.1-0.3-0.1-0.4-0.2l0.6-1.4c0.3,0.1,0.6,0.2,1,0.3C750.7,155.5,751.2,155.6,751.7,155.6L751.7,155.6z"/>
		<path class="st33" d="M773.3,176.3c0-7.5-7-13.6-15.5-13.6c-8.6,0-15.5,6.1-15.5,13.6s7,13.6,15.5,13.6
			C766.4,189.9,773.3,183.8,773.3,176.3L773.3,176.3z"/>
		<path class="st34" d="M773.3,176.3c0-7.5-7-13.6-15.5-13.6c-8.6,0-15.5,6.1-15.5,13.6s7,13.6,15.5,13.6
			C766.4,189.9,773.3,183.8,773.3,176.3L773.3,176.3z"/>
		<path class="st33" d="M750.2,174c-0.1,0-0.3,0-0.4,0c-0.1,0-0.2,0-0.3,0v2h0.6c0.6,0,1.1-0.1,1.4-0.2c0.3-0.1,0.5-0.4,0.5-0.8
			c0-0.2,0-0.3-0.1-0.5c-0.1-0.1-0.2-0.2-0.3-0.3c-0.1-0.1-0.3-0.1-0.5-0.2C750.7,174,750.4,174,750.2,174L750.2,174z M750.1,172.7
			c1.2,0,2.1,0.2,2.7,0.5c0.6,0.4,0.9,1,0.9,1.8c0,0.8-0.3,1.4-0.9,1.8c-0.6,0.4-1.5,0.5-2.7,0.5h-0.6v2.3h-1.8v-6.8
			c0.4-0.1,0.8-0.1,1.2-0.1C749.4,172.7,749.7,172.7,750.1,172.7L750.1,172.7z"/>
		<path class="st34" d="M750.2,174c-0.1,0-0.3,0-0.4,0c-0.1,0-0.2,0-0.3,0v2h0.6c0.6,0,1.1-0.1,1.4-0.2c0.3-0.1,0.5-0.4,0.5-0.8
			c0-0.2,0-0.3-0.1-0.5c-0.1-0.1-0.2-0.2-0.3-0.3c-0.1-0.1-0.3-0.1-0.5-0.2C750.7,174,750.4,174,750.2,174L750.2,174z M750.1,172.7
			c1.2,0,2.1,0.2,2.7,0.5c0.6,0.4,0.9,1,0.9,1.8c0,0.8-0.3,1.4-0.9,1.8c-0.6,0.4-1.5,0.5-2.7,0.5h-0.6v2.3h-1.8v-6.8
			c0.4-0.1,0.8-0.1,1.2-0.1C749.4,172.7,749.7,172.7,750.1,172.7L750.1,172.7z"/>
		<polygon class="st33" points="759.7,172.8 761.5,172.8 761.5,179.6 759.7,179.6 759.7,176.7 756.7,176.7 756.7,179.6 755,179.6 
			755,172.8 756.7,172.8 756.7,175.4 759.7,175.4 759.7,172.8 		"/>
		<polygon class="st34" points="759.7,172.8 761.5,172.8 761.5,179.6 759.7,179.6 759.7,176.7 756.7,176.7 756.7,179.6 755,179.6 
			755,172.8 756.7,172.8 756.7,175.4 759.7,175.4 759.7,172.8 		"/>
		<path class="st33" d="M765.7,174c-0.1,0-0.3,0-0.4,0c-0.1,0-0.2,0-0.3,0v2h0.6c0.6,0,1.1-0.1,1.4-0.2c0.3-0.1,0.5-0.4,0.5-0.8
			c0-0.2,0-0.3-0.1-0.5c-0.1-0.1-0.2-0.2-0.3-0.3c-0.1-0.1-0.3-0.1-0.5-0.2S766,174,765.7,174L765.7,174z M765.6,172.7
			c1.2,0,2.1,0.2,2.7,0.5c0.6,0.4,0.9,1,0.9,1.8c0,0.8-0.3,1.4-0.9,1.8c-0.6,0.4-1.5,0.5-2.7,0.5H765v2.3h-1.8v-6.8
			c0.4-0.1,0.8-0.1,1.2-0.1C764.9,172.7,765.3,172.7,765.6,172.7L765.6,172.7z"/>
		<path class="st34" d="M765.7,174c-0.1,0-0.3,0-0.4,0c-0.1,0-0.2,0-0.3,0v2h0.6c0.6,0,1.1-0.1,1.4-0.2c0.3-0.1,0.5-0.4,0.5-0.8
			c0-0.2,0-0.3-0.1-0.5c-0.1-0.1-0.2-0.2-0.3-0.3c-0.1-0.1-0.3-0.1-0.5-0.2S766,174,765.7,174L765.7,174z M765.6,172.7
			c1.2,0,2.1,0.2,2.7,0.5c0.6,0.4,0.9,1,0.9,1.8c0,0.8-0.3,1.4-0.9,1.8c-0.6,0.4-1.5,0.5-2.7,0.5H765v2.3h-1.8v-6.8
			c0.4-0.1,0.8-0.1,1.2-0.1C764.9,172.7,765.3,172.7,765.6,172.7L765.6,172.7z"/>
		<path class="st33" d="M743.6,200.7c0-5.4-5-9.9-11.2-9.9c-6.2,0-11.2,4.4-11.2,9.9c0,5.4,5,9.9,11.2,9.9
			C738.6,210.6,743.6,206.2,743.6,200.7L743.6,200.7z"/>
		<path class="st34" d="M743.6,200.7c0-5.4-5-9.9-11.2-9.9c-6.2,0-11.2,4.4-11.2,9.9c0,5.4,5,9.9,11.2,9.9
			C738.6,210.6,743.6,206.2,743.6,200.7L743.6,200.7z"/>
		<path class="st33" d="M730.8,201.8c0,0.4-0.1,0.7-0.1,1.1c-0.1,0.3-0.3,0.6-0.5,0.9c-0.2,0.3-0.6,0.5-1,0.6
			c-0.4,0.1-0.9,0.2-1.6,0.2c-0.6,0-1.1-0.1-1.5-0.2c-0.4-0.1-0.8-0.3-1-0.4l0.7-1.4c0.2,0.1,0.5,0.2,0.8,0.3
			c0.3,0.1,0.6,0.1,0.9,0.1c0.5,0,0.8-0.1,1-0.3c0.2-0.2,0.3-0.6,0.3-1.1v-5.1h2V201.8L730.8,201.8z"/>
		<path class="st34" d="M730.8,201.8c0,0.4-0.1,0.7-0.1,1.1c-0.1,0.3-0.3,0.6-0.5,0.9c-0.2,0.3-0.6,0.5-1,0.6
			c-0.4,0.1-0.9,0.2-1.6,0.2c-0.6,0-1.1-0.1-1.5-0.2c-0.4-0.1-0.8-0.3-1-0.4l0.7-1.4c0.2,0.1,0.5,0.2,0.8,0.3
			c0.3,0.1,0.6,0.1,0.9,0.1c0.5,0,0.8-0.1,1-0.3c0.2-0.2,0.3-0.6,0.3-1.1v-5.1h2V201.8L730.8,201.8z"/>
		<path class="st33" d="M735.1,203.1c0.3,0,0.5,0,0.7-0.1c0.2,0,0.3-0.1,0.4-0.2c0.1-0.1,0.2-0.2,0.2-0.3c0-0.1,0.1-0.2,0.1-0.3
			c0-0.3-0.1-0.5-0.4-0.6c-0.3-0.2-0.7-0.4-1.4-0.5c-0.3-0.1-0.6-0.2-0.9-0.3c-0.3-0.1-0.5-0.3-0.8-0.4c-0.2-0.2-0.4-0.4-0.6-0.6
			c-0.1-0.3-0.2-0.6-0.2-0.9c0-0.4,0.1-0.7,0.2-1c0.2-0.3,0.4-0.5,0.7-0.7c0.3-0.2,0.6-0.4,1-0.5c0.4-0.1,0.9-0.2,1.4-0.2
			c0.6,0,1.1,0.1,1.5,0.2c0.4,0.1,0.8,0.2,1.1,0.4l-0.6,1.4c-0.2-0.1-0.5-0.2-0.8-0.3c-0.3-0.1-0.7-0.1-1.1-0.1
			c-0.5,0-0.8,0.1-1,0.2c-0.2,0.1-0.3,0.3-0.3,0.5c0,0.1,0,0.3,0.1,0.4c0.1,0.1,0.2,0.2,0.3,0.3c0.1,0.1,0.3,0.2,0.5,0.2
			c0.2,0.1,0.4,0.1,0.6,0.2c0.5,0.1,0.9,0.3,1.2,0.4c0.3,0.1,0.6,0.3,0.9,0.5c0.2,0.2,0.4,0.4,0.5,0.7c0.1,0.3,0.2,0.6,0.2,1
			c0,0.7-0.3,1.3-0.9,1.7c-0.6,0.4-1.5,0.6-2.6,0.6c-0.4,0-0.7,0-1.1-0.1c-0.3,0-0.6-0.1-0.8-0.2c-0.2-0.1-0.5-0.1-0.6-0.2
			c-0.2-0.1-0.3-0.1-0.4-0.2l0.6-1.4c0.3,0.1,0.6,0.2,1,0.3C734.1,203,734.6,203.1,735.1,203.1L735.1,203.1z"/>
		<path class="st34" d="M735.1,203.1c0.3,0,0.5,0,0.7-0.1c0.2,0,0.3-0.1,0.4-0.2c0.1-0.1,0.2-0.2,0.2-0.3c0-0.1,0.1-0.2,0.1-0.3
			c0-0.3-0.1-0.5-0.4-0.6c-0.3-0.2-0.7-0.4-1.4-0.5c-0.3-0.1-0.6-0.2-0.9-0.3c-0.3-0.1-0.5-0.3-0.8-0.4c-0.2-0.2-0.4-0.4-0.6-0.6
			c-0.1-0.3-0.2-0.6-0.2-0.9c0-0.4,0.1-0.7,0.2-1c0.2-0.3,0.4-0.5,0.7-0.7c0.3-0.2,0.6-0.4,1-0.5c0.4-0.1,0.9-0.2,1.4-0.2
			c0.6,0,1.1,0.1,1.5,0.2c0.4,0.1,0.8,0.2,1.1,0.4l-0.6,1.4c-0.2-0.1-0.5-0.2-0.8-0.3c-0.3-0.1-0.7-0.1-1.1-0.1
			c-0.5,0-0.8,0.1-1,0.2c-0.2,0.1-0.3,0.3-0.3,0.5c0,0.1,0,0.3,0.1,0.4c0.1,0.1,0.2,0.2,0.3,0.3c0.1,0.1,0.3,0.2,0.5,0.2
			c0.2,0.1,0.4,0.1,0.6,0.2c0.5,0.1,0.9,0.3,1.2,0.4c0.3,0.1,0.6,0.3,0.9,0.5c0.2,0.2,0.4,0.4,0.5,0.7c0.1,0.3,0.2,0.6,0.2,1
			c0,0.7-0.3,1.3-0.9,1.7c-0.6,0.4-1.5,0.6-2.6,0.6c-0.4,0-0.7,0-1.1-0.1c-0.3,0-0.6-0.1-0.8-0.2c-0.2-0.1-0.5-0.1-0.6-0.2
			c-0.2-0.1-0.3-0.1-0.4-0.2l0.6-1.4c0.3,0.1,0.6,0.2,1,0.3C734.1,203,734.6,203.1,735.1,203.1L735.1,203.1z"/>
		<path class="st33" d="M749.8,223c0-3.7-3.4-6.6-7.6-6.6s-7.6,3-7.6,6.6s3.4,6.6,7.6,6.6S749.8,226.7,749.8,223L749.8,223z"/>
		<path class="st34" d="M749.8,223c0-3.7-3.4-6.6-7.6-6.6s-7.6,3-7.6,6.6s3.4,6.6,7.6,6.6S749.8,226.7,749.8,223L749.8,223z"/>
		<path class="st33" d="M739,222.6c0.3,0,0.4-0.1,0.6-0.2c0.1-0.1,0.2-0.3,0.2-0.5v-1.1c0-0.2,0-0.4,0.1-0.6
			c0.1-0.2,0.2-0.3,0.3-0.4c0.1-0.1,0.3-0.2,0.6-0.3c0.2-0.1,0.5-0.1,0.9-0.1h0.2v0.9h-0.2c-0.3,0-0.4,0.1-0.5,0.2
			c-0.1,0.1-0.1,0.3-0.1,0.5v1c0,0.3,0,0.5-0.1,0.7c-0.1,0.2-0.2,0.3-0.5,0.5c0.2,0.1,0.4,0.3,0.5,0.5c0.1,0.2,0.1,0.4,0.1,0.7v1
			c0,0.2,0,0.4,0.1,0.5c0.1,0.1,0.3,0.2,0.5,0.2h0.2v0.9h-0.2c-0.4,0-0.7,0-0.9-0.1c-0.2-0.1-0.4-0.1-0.6-0.3
			c-0.1-0.1-0.3-0.3-0.3-0.4c-0.1-0.2-0.1-0.4-0.1-0.6v-1.1c0-0.2-0.1-0.4-0.2-0.5c-0.1-0.1-0.3-0.2-0.6-0.2V222.6L739,222.6z"/>
		<path class="st34" d="M739,222.6c0.3,0,0.4-0.1,0.6-0.2c0.1-0.1,0.2-0.3,0.2-0.5v-1.1c0-0.2,0-0.4,0.1-0.6
			c0.1-0.2,0.2-0.3,0.3-0.4c0.1-0.1,0.3-0.2,0.6-0.3c0.2-0.1,0.5-0.1,0.9-0.1h0.2v0.9h-0.2c-0.3,0-0.4,0.1-0.5,0.2
			c-0.1,0.1-0.1,0.3-0.1,0.5v1c0,0.3,0,0.5-0.1,0.7c-0.1,0.2-0.2,0.3-0.5,0.5c0.2,0.1,0.4,0.3,0.5,0.5c0.1,0.2,0.1,0.4,0.1,0.7v1
			c0,0.2,0,0.4,0.1,0.5c0.1,0.1,0.3,0.2,0.5,0.2h0.2v0.9h-0.2c-0.4,0-0.7,0-0.9-0.1c-0.2-0.1-0.4-0.1-0.6-0.3
			c-0.1-0.1-0.3-0.3-0.3-0.4c-0.1-0.2-0.1-0.4-0.1-0.6v-1.1c0-0.2-0.1-0.4-0.2-0.5c-0.1-0.1-0.3-0.2-0.6-0.2V222.6L739,222.6z"/>
		<path class="st33" d="M745.6,223.5c-0.3,0-0.4,0.1-0.6,0.2c-0.1,0.1-0.2,0.3-0.2,0.5v1.1c0,0.2,0,0.4-0.1,0.6
			c-0.1,0.2-0.2,0.3-0.3,0.4c-0.1,0.1-0.3,0.2-0.6,0.3c-0.2,0.1-0.5,0.1-0.9,0.1h-0.2v-0.9h0.2c0.3,0,0.4-0.1,0.5-0.2
			c0.1-0.1,0.1-0.3,0.1-0.5v-1c0-0.3,0-0.5,0.1-0.7c0.1-0.2,0.2-0.3,0.5-0.5c-0.2-0.1-0.4-0.3-0.5-0.5c-0.1-0.2-0.1-0.4-0.1-0.7v-1
			c0-0.2,0-0.4-0.1-0.5c-0.1-0.1-0.3-0.2-0.5-0.2h-0.2v-0.9h0.2c0.4,0,0.7,0,0.9,0.1c0.2,0.1,0.4,0.1,0.6,0.3
			c0.1,0.1,0.3,0.3,0.3,0.4c0.1,0.2,0.1,0.4,0.1,0.6v1.1c0,0.2,0.1,0.4,0.2,0.5c0.1,0.1,0.3,0.2,0.6,0.2V223.5L745.6,223.5z"/>
		<path class="st34" d="M745.6,223.5c-0.3,0-0.4,0.1-0.6,0.2c-0.1,0.1-0.2,0.3-0.2,0.5v1.1c0,0.2,0,0.4-0.1,0.6
			c-0.1,0.2-0.2,0.3-0.3,0.4c-0.1,0.1-0.3,0.2-0.6,0.3c-0.2,0.1-0.5,0.1-0.9,0.1h-0.2v-0.9h0.2c0.3,0,0.4-0.1,0.5-0.2
			c0.1-0.1,0.1-0.3,0.1-0.5v-1c0-0.3,0-0.5,0.1-0.7c0.1-0.2,0.2-0.3,0.5-0.5c-0.2-0.1-0.4-0.3-0.5-0.5c-0.1-0.2-0.1-0.4-0.1-0.7v-1
			c0-0.2,0-0.4-0.1-0.5c-0.1-0.1-0.3-0.2-0.5-0.2h-0.2v-0.9h0.2c0.4,0,0.7,0,0.9,0.1c0.2,0.1,0.4,0.1,0.6,0.3
			c0.1,0.1,0.3,0.3,0.3,0.4c0.1,0.2,0.1,0.4,0.1,0.6v1.1c0,0.2,0.1,0.4,0.2,0.5c0.1,0.1,0.3,0.2,0.6,0.2V223.5L745.6,223.5z"/>
		<path class="st15" d="M764.8,38.2c3.8,0,3.8-5.1,0-5.1C761,33.1,761,38.2,764.8,38.2L764.8,38.2L764.8,38.2z"/>
		<path class="st15" d="M770.8,36.1c3.8,0,3.8-5.1,0-5.1C767,31,767,36.1,770.8,36.1L770.8,36.1L770.8,36.1z"/>
		<path class="st33" d="M765.7,35.4c-2,0.1-4,1-5.1,2.5c1.1-0.3,2.2-0.6,3.3-0.9"/>
		<path class="st15" d="M765.7,32.8c-1.6,0.1-3,0.4-4.4,1.1c-1.3,0.7-2.4,1.6-3.3,2.7c-0.1,0.2-0.2,0.4-0.3,0.6
			c0,0.2-0.1,0.5-0.1,0.7c0,0.6,0.2,1.1,0.6,1.6c0.3,0.4,0.7,0.6,1.2,0.8c0.6,0.2,1.3,0.3,1.9,0.1c1.1-0.3,2.2-0.6,3.3-0.9
			c0.7-0.2,1.4-0.6,1.8-1.2c0.4-0.5,0.5-1.4,0.3-2c-0.2-0.6-0.7-1.2-1.4-1.5c-0.7-0.3-1.5-0.5-2.3-0.3c-1.1,0.3-2.2,0.6-3.3,0.9
			c1.1,1.3,2.2,2.5,3.3,3.8c0.1-0.1,0.1-0.2,0.2-0.3c-0.2,0.2-0.3,0.3-0.5,0.5c0.4-0.4,0.8-0.7,1.2-1.1c-0.2,0.1-0.4,0.3-0.6,0.4
			c0.5-0.3,1-0.6,1.5-0.8c-0.2,0.1-0.5,0.2-0.7,0.3c0.5-0.2,1.1-0.3,1.7-0.4c-0.3,0-0.5,0.1-0.8,0.1c0.2,0,0.4,0,0.5,0
			c0.8,0,1.5-0.3,2.1-0.8c0.5-0.4,0.9-1.2,0.9-1.8c0-0.7-0.3-1.4-0.9-1.8C767.2,33.1,766.4,32.8,765.7,32.8L765.7,32.8L765.7,32.8z"
			/>
		<path class="st33" d="M772.6,34.5c-2.9,0.5-5.7,1.3-8.4,2.4"/>
		<path class="st15" d="M771.8,32.1c-3.2,0.5-6.2,1.5-9.1,2.7c-0.6,0.3-1.2,1-1.4,1.5c-0.2,0.6-0.1,1.4,0.3,2c0.4,0.5,1,1,1.8,1.2
			c0.8,0.2,1.5,0.1,2.3-0.3c0.5-0.2,1-0.4,1.6-0.6c-0.2,0.1-0.5,0.2-0.7,0.3c2.2-0.8,4.5-1.4,6.8-1.8c0.7-0.1,1.4-0.7,1.8-1.2
			c0.4-0.5,0.5-1.4,0.3-2C774.9,32.5,773.4,31.8,771.8,32.1L771.8,32.1L771.8,32.1z"/>
		<path class="st33" d="M776.2,35.1c-3.1,0-6.2,0-9.3,0c-0.8,0-1.6,0-2.3,0.2c-0.8,0.3-1.4,0.8-2,1.3c-1.1,0.9-2.2,1.8-3.3,2.8
			c-0.3,0.2-0.5,0.6-0.3,0.8c0.1,0.1,0.4,0.1,0.6,0.1c2,0,4.1-0.1,6.1-0.4c1.5-0.2,3.3-0.7,3.8-2c0.3-0.8-0.2-1.7-0.4-2.6
			c-0.2-0.9-0.2-2,0.7-2.4c0.9-0.4,2.4-0.2,2.6-1c0.1-0.4-0.2-0.9-0.7-1.1c-0.5-0.2-1-0.2-1.5-0.1c-2.9,0.2-5.7,0.7-8.4,1.6
			c-1.4,0.5-2.9,1.1-3.8,2.1c-0.3,0.4-0.5,0.9-0.3,1.3c0.2,0.3,0.6,0.4,0.9,0.5c3.5,1.1,7.2,1.5,10.8,1.4c2.3-0.1,4.8-0.4,6.6,0.8"
			/>
		<path class="st33" d="M776.2,32.6c-3.3,0-6.7-0.1-10,0c-2.1,0.1-3.7,0.7-5.3,1.9c-1.2,0.9-2.4,1.9-3.5,2.9
			c-0.8,0.7-1.4,1.5-1.5,2.5c-0.1,1.1,0.6,2.1,1.7,2.6c1.5,0.8,3.9,0.4,5.5,0.3c3.1-0.2,7.1-0.5,8.7-3.2c0.9-1.5,0.8-3.5,0-5
			c-0.1-0.2,0,0.1,0,0.2c0-0.1,0-0.3,0-0.4c0,0-0.1,0.5,0,0.2c0.1-0.3,0,0.1-0.1,0.2c-0.1,0.1-0.6,0.7-0.9,0.6
			c0.1,0,0.2-0.1,0.3-0.1c0.3,0,0.6-0.1,0.9-0.1c2-0.4,3.5-1.9,3.2-3.7c-0.3-2-2.4-3.2-4.6-3.2c-3.2,0-6.7,0.8-9.7,1.7
			c-3.1,1-7.5,3.4-5.8,6.9c0.9,1.8,3.4,2.2,5.3,2.7c1.9,0.4,3.8,0.7,5.7,0.8c1.7,0.1,3.4,0,5.2,0c0.3,0,0.7,0,1,0c0.2,0,0.4,0,0.6,0
			c0.1,0,0.6,0.1,0.3,0c-0.3,0,0.2,0,0.3,0.1c0.2,0,0.4,0.1,0.5,0.1c0.3,0.1,0,0-0.1,0c0.3,0.1,0.5,0.2,0.7,0.4
			c1.2,0.8,3.3,0.2,4-0.9c0.8-1.3,0.3-2.7-1.1-3.5c-3.1-2-7.1-1.1-10.7-1.2c-1.9-0.1-3.3-0.3-5.2-0.7c-0.4-0.1-0.9-0.2-1.3-0.3
			c-0.2-0.1-0.4-0.1-0.7-0.2c-0.9-0.2,0,0-0.1,0c0.3,0.5,0.6,0.9,0.8,1.4c-0.1,0.2-0.1,0.4-0.2,0.6c0.1-0.3,0.2-0.2,0-0.1
			c0.1-0.1,0.3-0.2,0.4-0.3c-0.4,0.3,0.3-0.2,0.3-0.2c0.3-0.2,0.7-0.3,1-0.5c-0.5,0.2,0.6-0.2,0.7-0.2c0.9-0.3,1.9-0.5,2.8-0.7
			c0.8-0.2,1.7-0.3,2.5-0.5c0.2,0,0.5-0.1,0.7-0.1c-0.3,0,0.2,0,0.2,0c0.4,0,1.2,0,1.6-0.1c-0.4,0.1-1.5-1.6-1.1-0.7
			c0.1-0.4,0.2-0.8,0.4-1.2c-0.2-0.7,0.1-1.2,0.7-1.3c0,0-0.8,0.1-0.8,0.1c-1,0.2-1.9,0.5-2.6,1.1c-1.5,1.3-1.6,3.3-1.1,5
			c0.1,0.2,0.1,0.4,0.2,0.6c0,0.1,0.1,0.3,0.1,0.4c0.1,0.2,0,0.2,0,0c0,0,0.2-0.5,0.1-0.3c-0.2,0.4,0.1-0.2,0,0c0,0-0.1,0-0.1,0.1
			c0.3-0.2,0.3-0.2,0.1-0.1c0,0-0.6,0.2-0.1,0.1c-0.4,0.1-0.8,0.2-1.2,0.3c-0.7,0.1-1.7,0.2-2.6,0.3c-0.6,0-1.2,0.1-1.8,0.1
			c-0.2,0-0.5,0-0.7,0c-0.1,0-0.2,0-0.4,0c-0.7,0-0.5,0,0.6,0.2c0.4,0.3,0.7,0.6,1.1,0.9c0-0.1-0.1-0.1-0.1-0.2
			c0.1,0.4,0.3,0.9,0.4,1.3c-0.7,1.1-0.8,1.5-0.2,0.9c0.1-0.1,0.3-0.2,0.4-0.3c0.3-0.2,0.6-0.5,0.9-0.7c0.5-0.4,1-0.9,1.5-1.3
			c0.5-0.4,0.8-0.7,1.3-0.9c0,0,0.5-0.1,0.3-0.1c0.3,0,0.7,0,1,0c3.1,0,6.2,0,9.3,0c1.5,0,3-1.2,2.9-2.6
			C779,33.7,777.8,32.6,776.2,32.6L776.2,32.6L776.2,32.6z"/>
		<path class="st15" d="M1046.8,96.8c3.8,0,3.8-5.1,0-5.1C1043,91.7,1043,96.8,1046.8,96.8L1046.8,96.8L1046.8,96.8z"/>
	</g>
	<g>
		<path class="st6" d="M922.3-74.3"/>
		<g>
			<path class="st6" d="M922.3-71.8c3.2,0,3.2-5,0-5C919-76.8,919-71.8,922.3-71.8L922.3-71.8z"/>
		</g>
	</g>
	<g>
		<path class="st6" d="M969-194.9"/>
		<g>
			<path class="st6" d="M969-192.4c3.2,0,3.2-5,0-5C965.8-197.4,965.8-192.4,969-192.4L969-192.4z"/>
		</g>
	</g>
	<g>
		<path class="st6" d="M969-194.9"/>
		<g>
			<path class="st6" d="M969-192.4c3.2,0,3.2-5,0-5C965.8-197.4,965.8-192.4,969-192.4L969-192.4z"/>
		</g>
	</g>
	<g>
		<linearGradient id="SVGID_1_" gradientUnits="userSpaceOnUse" x1="403.8994" y1="767.8965" x2="403.8994" y2="767.8965">
			<stop  offset="0" style="stop-color:#FFFFFF"/>
			<stop  offset="1" style="stop-color:#000000"/>
		</linearGradient>
		<path class="st35" d="M403.9,767.9"/>
		<g>
			<path d="M403.9,770.4c3.2,0,3.2-5,0-5C400.7,765.4,400.7,770.4,403.9,770.4L403.9,770.4z"/>
		</g>
	</g>
	<g>
		<linearGradient id="SVGID_2_" gradientUnits="userSpaceOnUse" x1="403.8994" y1="767.8965" x2="403.8994" y2="767.8965">
			<stop  offset="0" style="stop-color:#FFFFFF"/>
			<stop  offset="1" style="stop-color:#000000"/>
		</linearGradient>
		<path class="st36" d="M403.9,767.9"/>
		<g>
			<path d="M403.9,770.4c3.2,0,3.2-5,0-5C400.7,765.4,400.7,770.4,403.9,770.4L403.9,770.4z"/>
		</g>
	</g>
	<g>
		<linearGradient id="SVGID_3_" gradientUnits="userSpaceOnUse" x1="403.8994" y1="767.8965" x2="403.8994" y2="767.8965">
			<stop  offset="0" style="stop-color:#FFFFFF"/>
			<stop  offset="1" style="stop-color:#000000"/>
		</linearGradient>
		<path class="st37" d="M403.9,767.9"/>
		<g>
			<path d="M403.9,770.4c3.2,0,3.2-5,0-5C400.7,765.4,400.7,770.4,403.9,770.4L403.9,770.4z"/>
		</g>
	</g>
	<g>
		<g>
			<path class="st6" d="M-138.4,495.5c3.2,0,3.2-5,0-5C-141.6,490.5-141.6,495.5-138.4,495.5L-138.4,495.5z"/>
		</g>
	</g>
</g>
<g id="Text" class="st12">
	<g class="st14">
		<g>
			<path class="st38" d="M61.7,268.3v-46.6h31.2v8.8H72.2v9.7h18.4v8.8H72.2v19.2H61.7z"/>
			<path class="st38" d="M119.6,241.9c-0.9-0.2-1.9-0.5-3.2-0.7c-1.2-0.2-2.5-0.4-3.9-0.4c-0.6,0-1.4,0.1-2.3,0.2
				c-0.9,0.1-1.5,0.2-2,0.4v27h-10v-33.5c1.8-0.6,3.9-1.2,6.3-1.8c2.4-0.6,5.2-0.8,8.2-0.8c0.5,0,1.2,0,1.9,0.1
				c0.8,0.1,1.5,0.2,2.3,0.3c0.8,0.1,1.5,0.2,2.3,0.4c0.8,0.2,1.4,0.3,1.9,0.6L119.6,241.9z"/>
			<path class="st38" d="M124.3,250.9c0-3.1,0.5-5.9,1.4-8.2c1-2.4,2.2-4.3,3.8-5.9c1.6-1.6,3.4-2.8,5.4-3.6c2-0.8,4.1-1.2,6.3-1.2
				c5,0,9,1.5,11.9,4.6c2.9,3.1,4.4,7.6,4.4,13.5c0,0.6,0,1.2-0.1,1.9c0,0.7-0.1,1.3-0.1,1.8h-22.7c0.2,2.1,1.2,3.7,2.9,4.9
				c1.7,1.2,4,1.8,6.9,1.8c1.8,0,3.6-0.2,5.4-0.5c1.8-0.3,3.2-0.7,4.3-1.2l1.3,8.1c-0.5,0.3-1.3,0.5-2.2,0.8c-0.9,0.3-1.9,0.5-3,0.7
				c-1.1,0.2-2.3,0.4-3.5,0.5c-1.3,0.1-2.5,0.2-3.8,0.2c-3.2,0-5.9-0.5-8.3-1.4c-2.4-0.9-4.3-2.2-5.8-3.9c-1.5-1.6-2.7-3.6-3.4-5.8
				C124.7,255.9,124.3,253.5,124.3,250.9z M147.8,247.1c0-0.9-0.2-1.7-0.4-2.5c-0.2-0.8-0.6-1.5-1.1-2.1c-0.5-0.6-1.2-1.1-1.9-1.5
				c-0.8-0.4-1.8-0.6-2.9-0.6c-1.1,0-2.1,0.2-2.9,0.6c-0.8,0.4-1.5,0.9-2,1.5c-0.5,0.6-1,1.4-1.2,2.2c-0.3,0.8-0.5,1.7-0.6,2.5
				H147.8z"/>
			<path class="st38" d="M163.5,250.9c0-3.1,0.5-5.9,1.4-8.2c1-2.4,2.2-4.3,3.8-5.9c1.6-1.6,3.4-2.8,5.4-3.6c2-0.8,4.1-1.2,6.3-1.2
				c5,0,9,1.5,11.9,4.6c2.9,3.1,4.4,7.6,4.4,13.5c0,0.6,0,1.2-0.1,1.9c0,0.7-0.1,1.3-0.1,1.8h-22.7c0.2,2.1,1.2,3.7,2.9,4.9
				c1.7,1.2,4,1.8,6.9,1.8c1.8,0,3.6-0.2,5.4-0.5c1.8-0.3,3.2-0.7,4.3-1.2l1.3,8.1c-0.5,0.3-1.3,0.5-2.1,0.8c-0.9,0.3-1.9,0.5-3,0.7
				c-1.1,0.2-2.3,0.4-3.5,0.5c-1.3,0.1-2.5,0.2-3.8,0.2c-3.2,0-5.9-0.5-8.3-1.4c-2.4-0.9-4.3-2.2-5.8-3.9c-1.5-1.6-2.7-3.6-3.4-5.8
				C163.9,255.9,163.5,253.5,163.5,250.9z M187,247.1c0-0.9-0.2-1.7-0.4-2.5c-0.2-0.8-0.6-1.5-1.1-2.1c-0.5-0.6-1.2-1.1-1.9-1.5
				c-0.8-0.4-1.8-0.6-2.9-0.6c-1.1,0-2.1,0.2-2.9,0.6c-0.8,0.4-1.5,0.9-2,1.5c-0.5,0.6-1,1.4-1.2,2.2c-0.3,0.8-0.5,1.7-0.6,2.5H187z
				"/>
			<path class="st38" d="M218.6,269c-2.9,0-5.3-0.4-7.1-0.9c-1.8-0.6-3.2-1.4-4.3-2.5c-1.1-1.1-1.8-2.3-2.2-3.8
				c-0.4-1.5-0.6-3.2-0.6-5.1v-38.9l10-1.6v38.5c0,0.9,0.1,1.7,0.2,2.4c0.1,0.7,0.4,1.3,0.8,1.8c0.4,0.5,0.9,0.9,1.6,1.2
				c0.7,0.3,1.7,0.5,2.9,0.6L218.6,269z"/>
			<path class="st38" d="M239.4,232c3,0,5.4,0.3,7.4,1c2,0.7,3.5,1.6,4.7,2.9c1.2,1.3,2,2.8,2.5,4.6c0.5,1.8,0.7,3.8,0.7,6v20.8
				c-1.4,0.3-3.4,0.7-6,1.1c-2.6,0.4-5.6,0.6-9.3,0.6c-2.3,0-4.4-0.2-6.2-0.6c-1.9-0.4-3.5-1.1-4.8-2c-1.3-0.9-2.4-2.1-3.1-3.6
				c-0.7-1.5-1.1-3.3-1.1-5.4c0-2.1,0.4-3.8,1.2-5.2c0.8-1.4,1.9-2.6,3.3-3.4c1.4-0.9,3-1.5,4.8-1.8c1.8-0.4,3.7-0.6,5.6-0.6
				c1.3,0,2.5,0.1,3.5,0.2c1,0.1,1.8,0.3,2.5,0.4V246c0-1.7-0.5-3.1-1.5-4.1c-1-1-2.8-1.5-5.4-1.5c-1.7,0-3.4,0.1-5,0.4
				c-1.7,0.2-3.1,0.6-4.3,1l-1.3-8.1c0.6-0.2,1.3-0.4,2.2-0.6c0.9-0.2,1.8-0.4,2.9-0.5c1-0.2,2.1-0.3,3.3-0.4
				C237.1,232.1,238.2,232,239.4,232z M240.2,261.3c1,0,1.9,0,2.8-0.1c0.9,0,1.6-0.1,2.2-0.2v-7.6c-0.4-0.1-1-0.2-1.8-0.3
				c-0.8-0.1-1.5-0.1-2.2-0.1c-0.9,0-1.8,0.1-2.7,0.2c-0.8,0.1-1.6,0.3-2.2,0.6c-0.6,0.3-1.1,0.7-1.5,1.3c-0.4,0.5-0.5,1.2-0.5,2
				c0,1.6,0.5,2.7,1.6,3.3C236.9,261,238.4,261.3,240.2,261.3z"/>
			<path class="st38" d="M263.8,234.2c1.7-0.5,3.9-1,6.6-1.4c2.7-0.4,5.5-0.6,8.5-0.6c3,0,5.5,0.4,7.5,1.2c2,0.8,3.6,1.9,4.7,3.3
				c1.2,1.4,2,3.1,2.5,5.1c0.5,2,0.7,4.2,0.7,6.6v20h-10v-18.7c0-3.2-0.4-5.5-1.3-6.9c-0.9-1.3-2.4-2-4.8-2c-0.7,0-1.5,0-2.3,0.1
				c-0.8,0.1-1.5,0.1-2.2,0.2v27.3h-10V234.2z"/>
			<path class="st38" d="M301.7,250.7c0-2.6,0.4-5,1.2-7.2c0.8-2.3,2-4.2,3.6-5.9c1.6-1.7,3.5-3,5.7-4c2.2-1,4.8-1.5,7.7-1.5
				c1.9,0,3.6,0.2,5.2,0.5c1.6,0.3,3.1,0.8,4.6,1.4l-2.1,8c-0.9-0.4-2-0.7-3.1-0.9c-1.1-0.3-2.4-0.4-3.8-0.4c-3,0-5.2,0.9-6.6,2.8
				c-1.5,1.8-2.2,4.3-2.2,7.3c0,3.2,0.7,5.6,2,7.4c1.4,1.7,3.8,2.6,7.2,2.6c1.2,0,2.5-0.1,3.9-0.3c1.4-0.2,2.7-0.6,3.8-1.1l1.4,8.2
				c-1.2,0.5-2.6,0.9-4.4,1.3c-1.7,0.4-3.7,0.5-5.8,0.5c-3.2,0-6-0.5-8.3-1.4c-2.3-1-4.2-2.3-5.7-3.9c-1.5-1.7-2.6-3.6-3.3-5.9
				C302.1,255.8,301.7,253.3,301.7,250.7z"/>
			<path class="st38" d="M333.7,250.9c0-3.1,0.5-5.9,1.4-8.2c1-2.4,2.2-4.3,3.8-5.9c1.6-1.6,3.4-2.8,5.4-3.6c2-0.8,4.1-1.2,6.3-1.2
				c5,0,9,1.5,11.9,4.6c2.9,3.1,4.4,7.6,4.4,13.5c0,0.6,0,1.2-0.1,1.9c0,0.7-0.1,1.3-0.1,1.8h-22.7c0.2,2.1,1.2,3.7,2.9,4.9
				c1.7,1.2,4,1.8,6.9,1.8c1.8,0,3.6-0.2,5.4-0.5c1.8-0.3,3.2-0.7,4.3-1.2l1.3,8.1c-0.5,0.3-1.3,0.5-2.2,0.8c-0.9,0.3-1.9,0.5-3,0.7
				c-1.1,0.2-2.3,0.4-3.5,0.5c-1.3,0.1-2.5,0.2-3.8,0.2c-3.2,0-5.9-0.5-8.3-1.4c-2.4-0.9-4.3-2.2-5.8-3.9c-1.5-1.6-2.7-3.6-3.4-5.8
				C334,255.9,333.7,253.5,333.7,250.9z M357.2,247.1c0-0.9-0.2-1.7-0.4-2.5c-0.2-0.8-0.6-1.5-1.1-2.1c-0.5-0.6-1.2-1.1-1.9-1.5
				c-0.8-0.4-1.8-0.6-2.9-0.6c-1.1,0-2.1,0.2-2.9,0.6c-0.8,0.4-1.5,0.9-2,1.5c-0.5,0.6-1,1.4-1.2,2.2c-0.3,0.8-0.5,1.7-0.6,2.5
				H357.2z"/>
			<path class="st38" d="M80.9,305.1c0,1.8-0.3,3.5-0.8,4.9c-0.5,1.5-1.3,2.8-2.3,3.8c-1,1.1-2.2,1.9-3.6,2.5
				c-1.4,0.6-2.9,0.9-4.6,0.9c-1.7,0-3.2-0.3-4.6-0.9c-1.4-0.6-2.6-1.4-3.6-2.5c-1-1.1-1.8-2.3-2.3-3.8c-0.6-1.5-0.8-3.1-0.8-4.9
				c0-1.8,0.3-3.4,0.9-4.9c0.6-1.5,1.4-2.7,2.4-3.8c1-1,2.2-1.9,3.6-2.4c1.4-0.6,2.9-0.9,4.5-0.9c1.7,0,3.2,0.3,4.6,0.9
				c1.4,0.6,2.6,1.4,3.6,2.4c1,1,1.8,2.3,2.3,3.8C80.6,301.6,80.9,303.3,80.9,305.1z M74.2,305.1c0-2-0.4-3.6-1.2-4.7
				c-0.8-1.1-1.9-1.7-3.4-1.7c-1.5,0-2.6,0.6-3.4,1.7c-0.8,1.1-1.2,2.7-1.2,4.7c0,2,0.4,3.6,1.2,4.8c0.8,1.2,2,1.8,3.4,1.8
				c1.5,0,2.6-0.6,3.4-1.8C73.8,308.7,74.2,307.1,74.2,305.1z"/>
			<path class="st38" d="M85.9,294.4c1.1-0.3,2.5-0.6,4.3-0.9c1.7-0.3,3.6-0.4,5.5-0.4c1.9,0,3.6,0.3,4.9,0.8
				c1.3,0.5,2.3,1.2,3.1,2.2c0.8,0.9,1.3,2,1.6,3.3c0.3,1.3,0.5,2.7,0.5,4.3v12.9h-6.5v-12.2c0-2.1-0.3-3.6-0.8-4.4
				c-0.6-0.9-1.6-1.3-3.1-1.3c-0.5,0-1,0-1.5,0.1c-0.5,0-1,0.1-1.4,0.2v17.7h-6.5V294.4z"/>
			<path class="st38" d="M120.7,317c-1.9,0-3.4-0.2-4.6-0.6c-1.2-0.4-2.1-0.9-2.8-1.6c-0.7-0.7-1.1-1.5-1.4-2.5
				c-0.2-1-0.4-2.1-0.4-3.3v-25.2l6.5-1v25c0,0.6,0,1.1,0.1,1.6c0.1,0.5,0.3,0.9,0.5,1.2c0.2,0.3,0.6,0.6,1.1,0.8
				c0.5,0.2,1.1,0.3,1.9,0.4L120.7,317z"/>
			<path class="st38" d="M132.4,287c0,1.2-0.4,2.1-1.2,2.8c-0.8,0.7-1.7,1-2.7,1c-1,0-2-0.3-2.7-1c-0.8-0.7-1.2-1.6-1.2-2.8
				c0-1.2,0.4-2.1,1.2-2.8c0.8-0.7,1.7-1,2.7-1c1,0,2,0.3,2.7,1C132.1,284.9,132.4,285.8,132.4,287z M131.8,316.6h-6.5v-22.9h6.5
				V316.6z"/>
			<path class="st38" d="M137.9,294.4c1.1-0.3,2.5-0.6,4.3-0.9c1.7-0.3,3.6-0.4,5.5-0.4c1.9,0,3.6,0.3,4.9,0.8
				c1.3,0.5,2.3,1.2,3.1,2.2c0.8,0.9,1.3,2,1.6,3.3c0.3,1.3,0.5,2.7,0.5,4.3v12.9h-6.5v-12.2c0-2.1-0.3-3.6-0.8-4.4
				c-0.6-0.9-1.6-1.3-3.1-1.3c-0.5,0-1,0-1.5,0.1c-0.5,0-1,0.1-1.4,0.2v17.7h-6.5V294.4z"/>
			<path class="st38" d="M162.5,305.3c0-2,0.3-3.8,0.9-5.3c0.6-1.5,1.4-2.8,2.5-3.8c1-1,2.2-1.8,3.5-2.3c1.3-0.5,2.7-0.8,4.1-0.8
				c3.3,0,5.8,1,7.7,3c1.9,2,2.8,4.9,2.8,8.8c0,0.4,0,0.8,0,1.2c0,0.5-0.1,0.9-0.1,1.2h-14.7c0.1,1.3,0.8,2.4,1.9,3.2
				c1.1,0.8,2.6,1.2,4.4,1.2c1.2,0,2.4-0.1,3.5-0.3c1.1-0.2,2.1-0.5,2.8-0.8l0.9,5.3c-0.3,0.2-0.8,0.3-1.4,0.5
				c-0.6,0.2-1.2,0.3-1.9,0.5c-0.7,0.1-1.5,0.2-2.3,0.3c-0.8,0.1-1.6,0.1-2.4,0.1c-2.1,0-3.9-0.3-5.4-0.9c-1.5-0.6-2.8-1.4-3.8-2.5
				c-1-1.1-1.7-2.3-2.2-3.8C162.8,308.5,162.5,307,162.5,305.3z M177.8,302.8c0-0.6-0.1-1.1-0.3-1.6c-0.2-0.5-0.4-1-0.7-1.4
				c-0.3-0.4-0.8-0.7-1.3-1c-0.5-0.3-1.1-0.4-1.9-0.4c-0.7,0-1.4,0.1-1.9,0.4c-0.5,0.2-1,0.6-1.3,1c-0.3,0.4-0.6,0.9-0.8,1.4
				c-0.2,0.5-0.3,1.1-0.4,1.6H177.8z"/>
			<path class="st38" d="M197.4,324.6c-0.4,0-1,0-1.8-0.1c-0.8-0.1-1.5-0.2-2.2-0.5l0.9-5.3c0.4,0.1,0.8,0.2,1.2,0.3
				c0.4,0.1,0.8,0.1,1.4,0.1c1,0,1.7-0.3,2.1-0.9c0.4-0.6,0.6-1.5,0.6-2.7v-21.9h6.5v22.1c0,3-0.7,5.3-2.2,6.7
				C202.3,323.9,200.2,324.6,197.4,324.6z M206.7,287c0,1.2-0.4,2.1-1.2,2.8c-0.8,0.7-1.7,1-2.7,1c-1,0-2-0.3-2.7-1
				c-0.8-0.7-1.2-1.6-1.2-2.8c0-1.2,0.4-2.1,1.2-2.8c0.8-0.7,1.7-1,2.7-1c1,0,2,0.3,2.7,1C206.3,284.9,206.7,285.8,206.7,287z"/>
			<path class="st38" d="M233.6,305.1c0,1.8-0.3,3.5-0.8,4.9c-0.5,1.5-1.3,2.8-2.3,3.8c-1,1.1-2.2,1.9-3.6,2.5
				c-1.4,0.6-2.9,0.9-4.6,0.9c-1.7,0-3.2-0.3-4.6-0.9c-1.4-0.6-2.6-1.4-3.6-2.5c-1-1.1-1.8-2.3-2.3-3.8c-0.6-1.5-0.8-3.1-0.8-4.9
				c0-1.8,0.3-3.4,0.9-4.9c0.6-1.5,1.4-2.7,2.4-3.8c1-1,2.2-1.9,3.6-2.4c1.4-0.6,2.9-0.9,4.5-0.9c1.7,0,3.2,0.3,4.6,0.9
				c1.4,0.6,2.6,1.4,3.6,2.4c1,1,1.8,2.3,2.3,3.8C233.3,301.6,233.6,303.3,233.6,305.1z M227,305.1c0-2-0.4-3.6-1.2-4.7
				c-0.8-1.1-1.9-1.7-3.4-1.7c-1.5,0-2.6,0.6-3.4,1.7c-0.8,1.1-1.2,2.7-1.2,4.7c0,2,0.4,3.6,1.2,4.8c0.8,1.2,2,1.8,3.4,1.8
				c1.5,0,2.6-0.6,3.4-1.8C226.6,308.7,227,307.1,227,305.1z"/>
			<path class="st38" d="M259.9,305.1c0,1.8-0.3,3.5-0.8,5c-0.5,1.5-1.3,2.7-2.3,3.8c-1,1-2.3,1.9-3.7,2.4c-1.5,0.6-3.2,0.9-5.1,0.9
				c-0.8,0-1.6,0-2.5-0.1c-0.9-0.1-1.7-0.2-2.5-0.3c-0.8-0.1-1.6-0.3-2.4-0.4c-0.8-0.2-1.4-0.3-2-0.5v-32l6.5-1v11.4
				c0.7-0.3,1.5-0.6,2.3-0.7c0.8-0.2,1.6-0.3,2.5-0.3c1.6,0,3.1,0.3,4.3,0.9c1.2,0.6,2.3,1.4,3.1,2.4c0.8,1,1.5,2.3,1.9,3.8
				C259.7,301.7,259.9,303.3,259.9,305.1z M253.3,304.9c0-4.2-1.5-6.3-4.6-6.3c-0.7,0-1.3,0.1-2,0.3c-0.7,0.2-1.2,0.4-1.6,0.7v11.8
				c0.3,0.1,0.7,0.1,1.2,0.2c0.5,0,1,0.1,1.6,0.1c1.8,0,3.1-0.6,4-1.8C252.9,308.5,253.3,306.9,253.3,304.9z"/>
			<path class="st38" d="M271.5,311.9c1.2,0,2-0.1,2.5-0.3c0.5-0.2,0.7-0.7,0.7-1.4c0-0.5-0.3-1-1-1.4c-0.6-0.4-1.6-0.8-2.9-1.3
				c-1-0.4-1.9-0.8-2.8-1.2c-0.8-0.4-1.5-0.9-2.1-1.5c-0.6-0.6-1-1.2-1.4-2c-0.3-0.8-0.5-1.7-0.5-2.8c0-2.2,0.8-3.9,2.4-5.1
				c1.6-1.2,3.8-1.9,6.6-1.9c1.4,0,2.7,0.1,4,0.4c1.3,0.2,2.3,0.5,3.1,0.8l-1.1,5.1c-0.8-0.3-1.6-0.5-2.5-0.7
				c-0.9-0.2-1.9-0.3-3-0.3c-2,0-3.1,0.6-3.1,1.7c0,0.3,0,0.5,0.1,0.7c0.1,0.2,0.3,0.4,0.5,0.6c0.3,0.2,0.6,0.4,1.1,0.6
				c0.5,0.2,1,0.5,1.7,0.7c1.4,0.5,2.6,1,3.5,1.6c0.9,0.5,1.7,1.1,2.2,1.7c0.5,0.6,0.9,1.3,1.1,2c0.2,0.7,0.3,1.6,0.3,2.5
				c0,2.3-0.9,4-2.6,5.1c-1.7,1.2-4.1,1.7-7.2,1.7c-2,0-3.7-0.2-5.1-0.5c-1.4-0.3-2.3-0.6-2.8-0.9l1.1-5.3c1.1,0.4,2.2,0.8,3.4,1
				C269.2,311.8,270.4,311.9,271.5,311.9z"/>
		</g>
	</g>
	<g class="st14">
		<path class="st19" d="M59.2,348.2c0-0.4,0.1-0.8,0.3-1.2c0.1-0.4,0.3-0.8,0.5-1.1c0.2-0.4,0.4-0.7,0.7-1c0.2-0.3,0.5-0.6,0.7-0.9
			l1.2,0.5c-0.4,0.6-0.7,1.2-0.9,1.8c-0.2,0.6-0.4,1.2-0.5,1.9H59.2z M62.4,348.2c0-0.4,0.1-0.8,0.3-1.2c0.1-0.4,0.3-0.8,0.5-1.1
			s0.4-0.7,0.7-1c0.2-0.3,0.5-0.6,0.7-0.9l1.2,0.5c-0.4,0.6-0.7,1.2-0.9,1.8c-0.2,0.6-0.4,1.2-0.5,1.9H62.4z"/>
		<path class="st19" d="M74.3,346.5c0,0.6,0.1,1.2,0.1,1.8c0,0.6,0.1,1.3,0.2,1.9c0.1,0.6,0.1,1.2,0.2,1.8c0.1,0.6,0.1,1.2,0.2,1.7
			c0.3-0.6,0.6-1.2,0.9-1.9c0.3-0.7,0.6-1.4,1-2.1c0.3-0.7,0.6-1.5,1-2.2c0.3-0.8,0.6-1.5,0.9-2.3h2.2c-0.8,2.1-1.7,4-2.6,5.9
			c-0.9,1.8-1.8,3.6-2.7,5.3h-2c-0.1-0.6-0.2-1.1-0.2-1.7c-0.1-0.6-0.2-1.1-0.2-1.7c-0.1-0.6-0.1-1.2-0.2-1.8
			c-0.1-0.6-0.1-1.2-0.2-1.9c-0.7,1.2-1.3,2.4-2,3.6c-0.7,1.2-1.3,2.3-2.1,3.4h-2c-0.1-0.9-0.1-1.9-0.2-2.8c0-0.9-0.1-1.9-0.1-2.8
			c0-1.8,0.1-3.6,0.2-5.5h2c-0.1,1-0.1,2.1-0.2,3.1c0,1-0.1,2-0.1,3.1c0,0.4,0,0.8,0,1.2c0,0.4,0,0.8,0,1.2c0.3-0.5,0.7-1.1,1-1.7
			c0.4-0.6,0.7-1.2,1-1.8c0.3-0.6,0.7-1.2,1-1.9c0.3-0.6,0.6-1.2,0.9-1.8H74.3z"/>
		<path class="st19" d="M83.2,356.6c-1,0-1.8-0.3-2.3-0.9c-0.5-0.6-0.8-1.4-0.8-2.3c0-0.6,0.1-1.3,0.3-1.9c0.2-0.7,0.5-1.3,0.9-1.8
			c0.4-0.5,0.9-1,1.5-1.4c0.6-0.4,1.3-0.5,2.1-0.5c1,0,1.8,0.3,2.3,0.9c0.5,0.6,0.8,1.4,0.8,2.3c0,0.6-0.1,1.3-0.3,1.9
			c-0.2,0.7-0.5,1.3-0.9,1.8c-0.4,0.5-0.9,1-1.5,1.4C84.8,356.4,84,356.6,83.2,356.6z M84.7,349.4c-0.4,0-0.8,0.1-1.1,0.4
			c-0.3,0.2-0.6,0.5-0.8,0.9c-0.2,0.4-0.4,0.8-0.5,1.2c-0.1,0.4-0.2,0.9-0.2,1.3c0,0.5,0.1,1,0.3,1.3c0.2,0.3,0.6,0.5,1.1,0.5
			c0.4,0,0.8-0.1,1.1-0.4c0.3-0.2,0.6-0.5,0.8-0.9c0.2-0.4,0.4-0.8,0.5-1.2c0.1-0.5,0.2-0.9,0.2-1.3c0-0.5-0.1-1-0.3-1.3
			C85.6,349.6,85.2,349.4,84.7,349.4z"/>
		<path class="st19" d="M95,349.7c-0.2-0.1-0.4-0.1-0.7-0.2c-0.2,0-0.5-0.1-0.9-0.1c-0.2,0-0.4,0-0.6,0c-0.2,0-0.4,0.1-0.5,0.1
			l-1.6,6.8h-1.9l1.9-8c0.5-0.2,0.9-0.3,1.5-0.4c0.5-0.1,1.1-0.2,1.7-0.2c0.1,0,0.3,0,0.4,0c0.2,0,0.3,0,0.5,0.1
			c0.2,0,0.3,0,0.4,0.1c0.1,0,0.2,0.1,0.3,0.1L95,349.7z"/>
		<path class="st19" d="M98.4,351.2c0.3-0.3,0.7-0.5,1-0.8c0.3-0.3,0.7-0.6,1-0.9c0.3-0.3,0.6-0.6,0.9-0.8c0.3-0.3,0.5-0.5,0.7-0.7
			h2.2c-0.3,0.3-0.6,0.6-0.9,0.9c-0.3,0.3-0.7,0.7-1,1c-0.4,0.3-0.7,0.7-1.1,1c-0.4,0.3-0.8,0.6-1.1,0.9c0.3,0.3,0.5,0.6,0.8,1
			c0.3,0.4,0.5,0.8,0.8,1.2c0.2,0.4,0.5,0.8,0.7,1.2c0.2,0.4,0.4,0.8,0.5,1.2h-2.1c-0.2-0.4-0.3-0.7-0.5-1.1
			c-0.2-0.4-0.4-0.7-0.6-1.1c-0.2-0.3-0.4-0.7-0.7-1c-0.2-0.3-0.5-0.6-0.7-0.8l-1,3.9h-1.9l2.9-12.2l2-0.3L98.4,351.2z"/>
		<path class="st19" d="M106.2,356.4h-1.9l2-8.4h1.9L106.2,356.4z M107.6,346.7c-0.3,0-0.5-0.1-0.8-0.3c-0.2-0.2-0.3-0.4-0.3-0.8
			c0-0.4,0.1-0.7,0.4-1c0.3-0.3,0.6-0.4,0.9-0.4c0.3,0,0.5,0.1,0.8,0.3c0.2,0.2,0.3,0.4,0.3,0.8c0,0.4-0.1,0.7-0.4,1
			C108.3,346.6,108,346.7,107.6,346.7z"/>
		<path class="st19" d="M110.5,348.3c0.4-0.1,0.9-0.2,1.5-0.4c0.6-0.1,1.2-0.2,1.8-0.2c1,0,1.7,0.2,2.2,0.7c0.5,0.5,0.7,1.1,0.7,1.9
			c0,0.2,0,0.5-0.1,0.7c0,0.3-0.1,0.5-0.1,0.8l-1.1,4.4h-1.9l1-4.2c0.1-0.2,0.1-0.5,0.2-0.7c0.1-0.2,0.1-0.5,0.1-0.7
			c0-0.4-0.1-0.7-0.3-0.9c-0.2-0.2-0.6-0.4-1.1-0.4c-0.5,0-0.9,0-1.2,0.1l-1.6,6.8h-2L110.5,348.3z"/>
		<path class="st19" d="M120,357.8c0.8,0,1.4-0.2,1.8-0.5c0.4-0.4,0.7-0.9,0.8-1.5l0-0.2c-0.2,0.1-0.5,0.2-0.8,0.3
			c-0.3,0.1-0.6,0.1-0.9,0.1c-0.9,0-1.6-0.3-2.1-0.8c-0.5-0.5-0.7-1.2-0.7-2c0-0.8,0.1-1.5,0.4-2.1c0.3-0.7,0.6-1.2,1.1-1.7
			c0.5-0.5,1.1-0.8,1.8-1.1c0.7-0.3,1.4-0.4,2.3-0.4c0.4,0,0.8,0,1.3,0.1c0.5,0.1,0.9,0.2,1.3,0.4l-1.7,7.1
			c-0.2,0.6-0.3,1.2-0.6,1.7c-0.2,0.5-0.5,0.9-0.9,1.2s-0.8,0.6-1.4,0.7c-0.6,0.2-1.2,0.3-2,0.3c-0.6,0-1.1-0.1-1.5-0.2
			c-0.5-0.1-0.9-0.3-1.2-0.5l0.7-1.6c0.3,0.2,0.6,0.3,1,0.4C119.1,357.7,119.5,357.8,120,357.8z M121.4,354.4c0.3,0,0.6-0.1,0.9-0.2
			c0.3-0.1,0.6-0.2,0.8-0.4l1-4.3c-0.2-0.1-0.5-0.1-0.7-0.1c-0.5,0-0.9,0.1-1.3,0.3c-0.4,0.2-0.7,0.4-1,0.7
			c-0.3,0.3-0.5,0.7-0.7,1.1c-0.2,0.4-0.2,0.9-0.2,1.3c0,0.5,0.1,0.8,0.3,1.1C120.6,354.2,120.9,354.4,121.4,354.4z"/>
		<path class="st19" d="M137.9,356.4c0-0.5-0.1-0.9-0.1-1.3c0-0.4-0.1-0.9-0.1-1.3h-4.5c-0.2,0.4-0.5,0.8-0.7,1.3
			c-0.2,0.4-0.5,0.9-0.7,1.4h-2.2c0.7-1.1,1.3-2.2,1.9-3.2c0.6-1,1.2-2,1.7-2.9c0.6-0.9,1.1-1.8,1.7-2.6c0.6-0.8,1.1-1.6,1.7-2.4
			h1.9c0.3,1.6,0.6,3.3,0.9,5.2c0.2,1.9,0.5,3.9,0.7,5.9H137.9z M137,347.4c-0.4,0.6-0.9,1.3-1.4,2.1c-0.5,0.8-1,1.7-1.6,2.6h3.5
			c-0.1-0.8-0.1-1.5-0.2-2.3C137.2,349,137.1,348.2,137,347.4z"/>
		<path class="st19" d="M143.1,348.3c0.4-0.1,0.9-0.2,1.5-0.4c0.6-0.1,1.2-0.2,1.8-0.2c1,0,1.7,0.2,2.2,0.7c0.5,0.5,0.7,1.1,0.7,1.9
			c0,0.2,0,0.5-0.1,0.7c0,0.3-0.1,0.5-0.1,0.8l-1.1,4.4H146l1-4.2c0.1-0.2,0.1-0.5,0.2-0.7c0.1-0.2,0.1-0.5,0.1-0.7
			c0-0.4-0.1-0.7-0.3-0.9c-0.2-0.2-0.6-0.4-1.1-0.4c-0.5,0-0.9,0-1.2,0.1l-1.6,6.8h-2L143.1,348.3z"/>
		<path class="st19" d="M158.3,348c-0.2,0.6-0.5,1.2-0.7,1.9c-0.3,0.7-0.5,1.3-0.9,2c-0.3,0.7-0.7,1.3-1,2c-0.4,0.7-0.8,1.3-1.2,1.9
			c-0.3,0.5-0.6,0.9-1,1.4c-0.3,0.4-0.7,0.8-1.1,1.2c-0.4,0.3-0.8,0.6-1.3,0.8c-0.5,0.2-1,0.3-1.6,0.3c-0.3,0-0.6,0-0.9-0.1
			c-0.3-0.1-0.5-0.2-0.7-0.3l0.6-1.6c0.2,0.1,0.3,0.2,0.5,0.2c0.2,0.1,0.4,0.1,0.6,0.1c0.5,0,0.9-0.1,1.3-0.4c0.4-0.3,0.7-0.6,1-1.1
			c-0.3-1.2-0.6-2.5-0.9-3.9c-0.2-1.4-0.4-2.9-0.5-4.4h2c0,0.5,0,0.9,0.1,1.5c0,0.5,0.1,1.1,0.1,1.7c0.1,0.6,0.1,1.1,0.2,1.7
			c0.1,0.6,0.2,1.1,0.3,1.5c0.3-0.5,0.6-1.1,0.9-1.6c0.3-0.6,0.5-1.1,0.8-1.7c0.2-0.6,0.4-1.1,0.6-1.6c0.2-0.5,0.3-1,0.5-1.5H158.3z
			"/>
		<path class="st19" d="M164.9,351.1c-0.2,0.5-0.4,0.9-0.7,1.4c-0.3,0.5-0.5,1-0.8,1.4c-0.3,0.5-0.6,0.9-0.8,1.3
			c-0.3,0.4-0.5,0.8-0.8,1.1h-1.6c-0.1-0.5-0.2-1.1-0.3-1.7c-0.1-0.6-0.2-1.3-0.3-2c-0.1-0.7-0.1-1.5-0.2-2.3
			c-0.1-0.8-0.1-1.6-0.1-2.4h1.9c0,0.5,0,0.9,0,1.5c0,0.5,0,1.1,0.1,1.6c0,0.5,0.1,1.1,0.1,1.6c0,0.5,0.1,1,0.2,1.5
			c0.3-0.5,0.6-1,0.9-1.5c0.3-0.5,0.6-1,0.8-1.6c0.3-0.5,0.5-1.1,0.7-1.6c0.2-0.5,0.4-1,0.6-1.5h1.7c0,0.4,0,0.9,0,1.4
			c0,0.5,0,1,0.1,1.5c0,0.5,0.1,1.1,0.1,1.6c0,0.5,0.1,1.1,0.2,1.6c0.3-0.4,0.6-0.9,0.9-1.4c0.3-0.5,0.6-1.1,0.8-1.6
			c0.3-0.6,0.5-1.1,0.7-1.6c0.2-0.5,0.4-1,0.5-1.5h2c-0.2,0.6-0.5,1.3-0.8,2.1c-0.3,0.7-0.7,1.5-1.1,2.2c-0.4,0.7-0.8,1.5-1.3,2.2
			c-0.5,0.7-1,1.4-1.5,2h-1.6c-0.1-0.9-0.2-1.8-0.3-2.7C164.9,352.9,164.9,352,164.9,351.1z"/>
		<path class="st19" d="M171.2,356.4l2.9-12.2l2-0.3l-1,4.1c0.2-0.1,0.4-0.1,0.7-0.2c0.3,0,0.5-0.1,0.7-0.1c0.5,0,0.9,0.1,1.2,0.2
			c0.3,0.1,0.6,0.3,0.8,0.6c0.2,0.2,0.4,0.5,0.5,0.9c0.1,0.3,0.2,0.7,0.2,1.1c0,0.5-0.1,0.9-0.2,1.5l-1.1,4.4h-1.9l1-4.2
			c0.1-0.2,0.1-0.5,0.2-0.8c0.1-0.3,0.1-0.5,0.1-0.7c0-0.4-0.1-0.7-0.3-0.9c-0.2-0.2-0.5-0.4-1.1-0.4c-0.2,0-0.4,0-0.6,0.1
			c-0.2,0-0.4,0.1-0.6,0.1l-1.6,6.8H171.2z"/>
		<path class="st19" d="M180.7,353.3c0-0.7,0.1-1.4,0.3-2.1c0.2-0.7,0.6-1.3,1-1.8c0.4-0.5,1-0.9,1.6-1.2c0.6-0.3,1.3-0.5,2.1-0.5
			c0.8,0,1.4,0.2,1.9,0.6c0.5,0.4,0.7,1,0.7,1.6c0,0.7-0.2,1.2-0.5,1.6c-0.3,0.4-0.8,0.7-1.3,1c-0.5,0.2-1.1,0.4-1.8,0.5
			c-0.7,0.1-1.3,0.1-2,0.2c0,0,0,0,0,0.1v0.2c0,1,0.6,1.5,1.8,1.5c0.7,0,1.5-0.1,2.2-0.4l0.2,1.6c-0.3,0.1-0.6,0.2-1.1,0.4
			c-0.5,0.1-1,0.2-1.6,0.2c-0.6,0-1.1-0.1-1.5-0.3c-0.4-0.2-0.8-0.4-1.1-0.7c-0.3-0.3-0.5-0.6-0.6-1
			C180.7,354.2,180.7,353.8,180.7,353.3z M185.3,349.4c-0.3,0-0.6,0.1-0.9,0.2c-0.3,0.1-0.5,0.3-0.8,0.5c-0.2,0.2-0.4,0.5-0.6,0.8
			c-0.2,0.3-0.3,0.6-0.4,1c1.3,0,2.2-0.2,2.8-0.5c0.6-0.3,0.9-0.7,0.9-1.2c0-0.2-0.1-0.4-0.2-0.6C186,349.4,185.7,349.4,185.3,349.4
			z"/>
		<path class="st19" d="M194.9,349.7c-0.2-0.1-0.4-0.1-0.7-0.2c-0.2,0-0.5-0.1-0.9-0.1c-0.2,0-0.4,0-0.6,0c-0.2,0-0.4,0.1-0.5,0.1
			l-1.6,6.8h-1.9l1.9-8c0.5-0.2,0.9-0.3,1.5-0.4c0.5-0.1,1.1-0.2,1.7-0.2c0.1,0,0.3,0,0.4,0c0.2,0,0.3,0,0.5,0.1
			c0.2,0,0.3,0,0.4,0.1c0.1,0,0.2,0.1,0.3,0.1L194.9,349.7z"/>
		<path class="st19" d="M195.5,353.3c0-0.7,0.1-1.4,0.3-2.1c0.2-0.7,0.6-1.3,1-1.8c0.4-0.5,1-0.9,1.6-1.2c0.6-0.3,1.3-0.5,2.1-0.5
			c0.8,0,1.4,0.2,1.9,0.6c0.5,0.4,0.7,1,0.7,1.6c0,0.7-0.2,1.2-0.5,1.6c-0.3,0.4-0.8,0.7-1.3,1c-0.5,0.2-1.1,0.4-1.8,0.5
			c-0.7,0.1-1.3,0.1-2,0.2c0,0,0,0,0,0.1v0.2c0,1,0.6,1.5,1.8,1.5c0.7,0,1.5-0.1,2.2-0.4l0.2,1.6c-0.3,0.1-0.6,0.2-1.1,0.4
			c-0.5,0.1-1,0.2-1.6,0.2c-0.6,0-1.1-0.1-1.5-0.3c-0.4-0.2-0.8-0.4-1.1-0.7c-0.3-0.3-0.5-0.6-0.6-1
			C195.6,354.2,195.5,353.8,195.5,353.3z M200.2,349.4c-0.3,0-0.6,0.1-0.9,0.2c-0.3,0.1-0.5,0.3-0.8,0.5c-0.2,0.2-0.4,0.5-0.6,0.8
			c-0.2,0.3-0.3,0.6-0.4,1c1.3,0,2.2-0.2,2.8-0.5c0.6-0.3,0.9-0.7,0.9-1.2c0-0.2-0.1-0.4-0.2-0.6
			C200.8,349.4,200.6,349.4,200.2,349.4z"/>
		<path class="st19" d="M205.9,354.2c-0.1,0.9-0.3,1.7-0.7,2.5c-0.4,0.8-0.9,1.6-1.5,2.2l-1.4-0.4c0.4-0.7,0.8-1.4,1-2.1
			c0.3-0.8,0.4-1.5,0.5-2.2H205.9z"/>
		<path class="st19" d="M221,346.5c0,0.6,0.1,1.2,0.1,1.8c0,0.6,0.1,1.3,0.2,1.9c0.1,0.6,0.1,1.2,0.2,1.8c0.1,0.6,0.1,1.2,0.2,1.7
			c0.3-0.6,0.6-1.2,0.9-1.9c0.3-0.7,0.6-1.4,1-2.1c0.3-0.7,0.6-1.5,1-2.2c0.3-0.8,0.6-1.5,0.9-2.3h2.2c-0.8,2.1-1.7,4-2.6,5.9
			c-0.9,1.8-1.8,3.6-2.7,5.3h-2c-0.1-0.6-0.2-1.1-0.2-1.7c-0.1-0.6-0.2-1.1-0.2-1.7c-0.1-0.6-0.1-1.2-0.2-1.8
			c-0.1-0.6-0.1-1.2-0.2-1.9c-0.7,1.2-1.3,2.4-2,3.6c-0.7,1.2-1.3,2.3-2.1,3.4h-2c-0.1-0.9-0.1-1.9-0.2-2.8c0-0.9-0.1-1.9-0.1-2.8
			c0-1.8,0.1-3.6,0.2-5.5h2c-0.1,1-0.1,2.1-0.2,3.1c0,1-0.1,2-0.1,3.1c0,0.4,0,0.8,0,1.2c0,0.4,0,0.8,0,1.2c0.3-0.5,0.7-1.1,1-1.7
			c0.4-0.6,0.7-1.2,1-1.8c0.3-0.6,0.7-1.2,1-1.9c0.3-0.6,0.6-1.2,0.9-1.8H221z"/>
		<path class="st19" d="M229.9,356.6c-1,0-1.8-0.3-2.3-0.9c-0.5-0.6-0.8-1.4-0.8-2.3c0-0.6,0.1-1.3,0.3-1.9c0.2-0.7,0.5-1.3,0.9-1.8
			c0.4-0.5,0.9-1,1.5-1.4c0.6-0.4,1.3-0.5,2.1-0.5c1,0,1.8,0.3,2.3,0.9c0.5,0.6,0.8,1.4,0.8,2.3c0,0.6-0.1,1.3-0.3,1.9
			c-0.2,0.7-0.5,1.3-0.9,1.8c-0.4,0.5-0.9,1-1.5,1.4C231.5,356.4,230.7,356.6,229.9,356.6z M231.4,349.4c-0.4,0-0.8,0.1-1.1,0.4
			c-0.3,0.2-0.6,0.5-0.8,0.9c-0.2,0.4-0.4,0.8-0.5,1.2c-0.1,0.4-0.2,0.9-0.2,1.3c0,0.5,0.1,1,0.3,1.3c0.2,0.3,0.6,0.5,1.1,0.5
			c0.4,0,0.8-0.1,1.1-0.4c0.3-0.2,0.6-0.5,0.8-0.9c0.2-0.4,0.4-0.8,0.5-1.2c0.1-0.5,0.2-0.9,0.2-1.3c0-0.5-0.1-1-0.3-1.3
			C232.3,349.6,231.9,349.4,231.4,349.4z"/>
		<path class="st19" d="M241.7,349.7c-0.2-0.1-0.4-0.1-0.7-0.2c-0.2,0-0.5-0.1-0.9-0.1c-0.2,0-0.4,0-0.6,0c-0.2,0-0.4,0.1-0.5,0.1
			l-1.6,6.8h-1.9l1.9-8c0.5-0.2,0.9-0.3,1.5-0.4c0.5-0.1,1.1-0.2,1.7-0.2c0.1,0,0.3,0,0.4,0c0.2,0,0.3,0,0.5,0.1
			c0.2,0,0.3,0,0.4,0.1c0.1,0,0.2,0.1,0.3,0.1L241.7,349.7z"/>
		<path class="st19" d="M245.1,351.2c0.3-0.3,0.7-0.5,1-0.8c0.3-0.3,0.7-0.6,1-0.9c0.3-0.3,0.6-0.6,0.9-0.8c0.3-0.3,0.5-0.5,0.7-0.7
			h2.2c-0.3,0.3-0.6,0.6-0.9,0.9c-0.3,0.3-0.7,0.7-1,1c-0.4,0.3-0.7,0.7-1.1,1c-0.4,0.3-0.8,0.6-1.1,0.9c0.3,0.3,0.5,0.6,0.8,1
			c0.3,0.4,0.5,0.8,0.8,1.2c0.2,0.4,0.5,0.8,0.7,1.2c0.2,0.4,0.4,0.8,0.5,1.2h-2.1c-0.2-0.4-0.3-0.7-0.5-1.1
			c-0.2-0.4-0.4-0.7-0.6-1.1c-0.2-0.3-0.4-0.7-0.7-1c-0.2-0.3-0.5-0.6-0.7-0.8l-1,3.9h-1.9l2.9-12.2l2-0.3L245.1,351.2z"/>
		<path class="st19" d="M252.8,356.4h-1.9l2-8.4h1.9L252.8,356.4z M254.3,346.7c-0.3,0-0.5-0.1-0.8-0.3c-0.2-0.2-0.3-0.4-0.3-0.8
			c0-0.4,0.1-0.7,0.4-1c0.3-0.3,0.6-0.4,0.9-0.4c0.3,0,0.5,0.1,0.8,0.3c0.2,0.2,0.3,0.4,0.3,0.8c0,0.4-0.1,0.7-0.4,1
			C255,346.6,254.7,346.7,254.3,346.7z"/>
		<path class="st19" d="M257.2,348.3c0.4-0.1,0.9-0.2,1.5-0.4c0.6-0.1,1.2-0.2,1.8-0.2c1,0,1.7,0.2,2.2,0.7c0.5,0.5,0.7,1.1,0.7,1.9
			c0,0.2,0,0.5-0.1,0.7c0,0.3-0.1,0.5-0.1,0.8l-1.1,4.4h-1.9l1-4.2c0.1-0.2,0.1-0.5,0.2-0.7c0.1-0.2,0.1-0.5,0.1-0.7
			c0-0.4-0.1-0.7-0.3-0.9c-0.2-0.2-0.6-0.4-1.1-0.4c-0.5,0-0.9,0-1.2,0.1l-1.6,6.8h-2L257.2,348.3z"/>
		<path class="st19" d="M266.7,357.8c0.8,0,1.4-0.2,1.8-0.5c0.4-0.4,0.7-0.9,0.8-1.5l0-0.2c-0.2,0.1-0.5,0.2-0.8,0.3
			c-0.3,0.1-0.6,0.1-0.9,0.1c-0.9,0-1.6-0.3-2.1-0.8c-0.5-0.5-0.7-1.2-0.7-2c0-0.8,0.1-1.5,0.4-2.1c0.3-0.7,0.6-1.2,1.1-1.7
			c0.5-0.5,1.1-0.8,1.8-1.1c0.7-0.3,1.4-0.4,2.3-0.4c0.4,0,0.8,0,1.3,0.1c0.5,0.1,0.9,0.2,1.3,0.4l-1.7,7.1
			c-0.2,0.6-0.3,1.2-0.6,1.7c-0.2,0.5-0.5,0.9-0.9,1.2c-0.4,0.3-0.8,0.6-1.4,0.7c-0.6,0.2-1.2,0.3-2,0.3c-0.6,0-1.1-0.1-1.5-0.2
			c-0.5-0.1-0.9-0.3-1.2-0.5l0.7-1.6c0.3,0.2,0.6,0.3,1,0.4C265.8,357.7,266.2,357.8,266.7,357.8z M268.1,354.4
			c0.3,0,0.6-0.1,0.9-0.2c0.3-0.1,0.6-0.2,0.8-0.4l1-4.3c-0.2-0.1-0.5-0.1-0.7-0.1c-0.5,0-0.9,0.1-1.3,0.3c-0.4,0.2-0.7,0.4-1,0.7
			c-0.3,0.3-0.5,0.7-0.7,1.1c-0.2,0.4-0.2,0.9-0.2,1.3c0,0.5,0.1,0.8,0.3,1.1C267.3,354.2,267.6,354.4,268.1,354.4z"/>
		<path class="st19" d="M277.4,356.4l2.7-11.1h6.9l-0.4,1.7h-4.9l-0.7,2.8h4.4l-0.4,1.7h-4.3l-0.8,3.3h5.3l-0.4,1.7H277.4z"/>
		<path class="st19" d="M288.5,356.4c-0.3-1.1-0.5-2.4-0.7-3.8c-0.2-1.4-0.4-3-0.4-4.6h2c0,0.5,0,1,0.1,1.5c0,0.5,0.1,1.1,0.1,1.6
			c0,0.6,0.1,1.1,0.2,1.6c0.1,0.5,0.1,1,0.2,1.4c0.3-0.4,0.6-0.8,0.9-1.3c0.3-0.5,0.6-1,0.9-1.6c0.3-0.6,0.6-1.1,0.8-1.7
			c0.2-0.6,0.4-1.1,0.6-1.6h2c-0.3,0.7-0.6,1.5-1,2.3c-0.4,0.8-0.8,1.5-1.3,2.3c-0.5,0.7-0.9,1.4-1.4,2.1c-0.5,0.7-0.9,1.2-1.4,1.7
			H288.5z"/>
		<path class="st19" d="M295.1,353.3c0-0.7,0.1-1.4,0.3-2.1c0.2-0.7,0.6-1.3,1-1.8c0.4-0.5,1-0.9,1.6-1.2c0.6-0.3,1.3-0.5,2.1-0.5
			c0.8,0,1.4,0.2,1.9,0.6c0.5,0.4,0.7,1,0.7,1.6c0,0.7-0.2,1.2-0.5,1.6c-0.3,0.4-0.8,0.7-1.3,1c-0.5,0.2-1.1,0.4-1.8,0.5
			c-0.7,0.1-1.3,0.1-2,0.2c0,0,0,0,0,0.1v0.2c0,1,0.6,1.5,1.9,1.5c0.7,0,1.5-0.1,2.2-0.4l0.2,1.6c-0.3,0.1-0.6,0.2-1.1,0.4
			c-0.5,0.1-1,0.2-1.6,0.2c-0.6,0-1.1-0.1-1.5-0.3c-0.4-0.2-0.8-0.4-1.1-0.7c-0.3-0.3-0.5-0.6-0.6-1
			C295.2,354.2,295.1,353.8,295.1,353.3z M299.8,349.4c-0.3,0-0.6,0.1-0.9,0.2c-0.3,0.1-0.5,0.3-0.8,0.5c-0.2,0.2-0.4,0.5-0.6,0.8
			c-0.2,0.3-0.3,0.6-0.4,1c1.3,0,2.2-0.2,2.8-0.5c0.6-0.3,0.9-0.7,0.9-1.2c0-0.2-0.1-0.4-0.2-0.6
			C300.4,349.4,300.2,349.4,299.8,349.4z"/>
		<path class="st19" d="M309.4,349.7c-0.2-0.1-0.4-0.1-0.7-0.2c-0.2,0-0.5-0.1-0.9-0.1c-0.2,0-0.4,0-0.6,0c-0.2,0-0.4,0.1-0.5,0.1
			l-1.6,6.8h-1.9l1.9-8c0.5-0.2,0.9-0.3,1.5-0.4c0.5-0.1,1.1-0.2,1.7-0.2c0.1,0,0.3,0,0.4,0c0.2,0,0.3,0,0.5,0.1
			c0.2,0,0.3,0,0.4,0.1c0.1,0,0.2,0.1,0.3,0.1L309.4,349.7z"/>
		<path class="st19" d="M317.8,348c-0.2,0.6-0.5,1.2-0.7,1.9c-0.3,0.7-0.5,1.3-0.9,2c-0.3,0.7-0.7,1.3-1,2c-0.4,0.7-0.8,1.3-1.2,1.9
			c-0.3,0.5-0.6,0.9-1,1.4c-0.3,0.4-0.7,0.8-1.1,1.2c-0.4,0.3-0.8,0.6-1.3,0.8c-0.5,0.2-1,0.3-1.6,0.3c-0.3,0-0.6,0-0.9-0.1
			c-0.3-0.1-0.5-0.2-0.7-0.3l0.6-1.6c0.2,0.1,0.3,0.2,0.5,0.2c0.2,0.1,0.4,0.1,0.6,0.1c0.5,0,0.9-0.1,1.3-0.4c0.4-0.3,0.7-0.6,1-1.1
			c-0.3-1.2-0.6-2.5-0.9-3.9c-0.2-1.4-0.4-2.9-0.5-4.4h2c0,0.5,0,0.9,0.1,1.5c0,0.5,0.1,1.1,0.1,1.7c0.1,0.6,0.1,1.1,0.2,1.7
			c0.1,0.6,0.2,1.1,0.3,1.5c0.3-0.5,0.6-1.1,0.9-1.6c0.3-0.6,0.5-1.1,0.8-1.7c0.2-0.6,0.4-1.1,0.6-1.6c0.2-0.5,0.3-1,0.5-1.5H317.8z
			"/>
		<path class="st19" d="M324.3,351.1c-0.2,0.5-0.4,0.9-0.7,1.4c-0.3,0.5-0.5,1-0.8,1.4c-0.3,0.5-0.6,0.9-0.8,1.3
			c-0.3,0.4-0.5,0.8-0.8,1.1h-1.6c-0.1-0.5-0.2-1.1-0.3-1.7c-0.1-0.6-0.2-1.3-0.3-2c-0.1-0.7-0.1-1.5-0.2-2.3
			c-0.1-0.8-0.1-1.6-0.1-2.4h1.9c0,0.5,0,0.9,0,1.5c0,0.5,0,1.1,0.1,1.6c0,0.5,0.1,1.1,0.1,1.6c0,0.5,0.1,1,0.2,1.5
			c0.3-0.5,0.6-1,0.9-1.5c0.3-0.5,0.6-1,0.8-1.6c0.3-0.5,0.5-1.1,0.7-1.6c0.2-0.5,0.4-1,0.6-1.5h1.7c0,0.4,0,0.9,0,1.4
			c0,0.5,0,1,0.1,1.5c0,0.5,0.1,1.1,0.1,1.6c0,0.5,0.1,1.1,0.2,1.6c0.3-0.4,0.6-0.9,0.9-1.4c0.3-0.5,0.6-1.1,0.8-1.6
			c0.3-0.6,0.5-1.1,0.7-1.6c0.2-0.5,0.4-1,0.5-1.5h2c-0.2,0.6-0.5,1.3-0.8,2.1c-0.3,0.7-0.7,1.5-1.1,2.2c-0.4,0.7-0.8,1.5-1.3,2.2
			c-0.5,0.7-1,1.4-1.5,2h-1.6c-0.1-0.9-0.2-1.8-0.3-2.7C324.4,352.9,324.3,352,324.3,351.1z"/>
		<path class="st19" d="M330.7,356.4l2.9-12.2l2-0.3l-1,4.1c0.2-0.1,0.4-0.1,0.7-0.2c0.3,0,0.5-0.1,0.7-0.1c0.5,0,0.9,0.1,1.2,0.2
			c0.3,0.1,0.6,0.3,0.8,0.6c0.2,0.2,0.4,0.5,0.5,0.9c0.1,0.3,0.2,0.7,0.2,1.1c0,0.5-0.1,0.9-0.2,1.5l-1.1,4.4h-1.9l1-4.2
			c0.1-0.2,0.1-0.5,0.2-0.8c0.1-0.3,0.1-0.5,0.1-0.7c0-0.4-0.1-0.7-0.3-0.9c-0.2-0.2-0.5-0.4-1.1-0.4c-0.2,0-0.4,0-0.6,0.1
			c-0.2,0-0.4,0.1-0.6,0.1l-1.6,6.8H330.7z"/>
		<path class="st19" d="M340.1,353.3c0-0.7,0.1-1.4,0.3-2.1c0.2-0.7,0.6-1.3,1-1.8c0.4-0.5,1-0.9,1.6-1.2c0.6-0.3,1.3-0.5,2.1-0.5
			c0.8,0,1.4,0.2,1.9,0.6c0.5,0.4,0.7,1,0.7,1.6c0,0.7-0.2,1.2-0.5,1.6c-0.3,0.4-0.8,0.7-1.3,1c-0.5,0.2-1.1,0.4-1.8,0.5
			c-0.7,0.1-1.3,0.1-2,0.2c0,0,0,0,0,0.1v0.2c0,1,0.6,1.5,1.8,1.5c0.7,0,1.5-0.1,2.2-0.4l0.2,1.6c-0.3,0.1-0.6,0.2-1.1,0.4
			c-0.5,0.1-1,0.2-1.6,0.2c-0.6,0-1.1-0.1-1.5-0.3c-0.4-0.2-0.8-0.4-1.1-0.7c-0.3-0.3-0.5-0.6-0.6-1
			C340.2,354.2,340.1,353.8,340.1,353.3z M344.8,349.4c-0.3,0-0.6,0.1-0.9,0.2c-0.3,0.1-0.5,0.3-0.8,0.5c-0.2,0.2-0.4,0.5-0.6,0.8
			c-0.2,0.3-0.3,0.6-0.4,1c1.3,0,2.2-0.2,2.8-0.5c0.6-0.3,0.9-0.7,0.9-1.2c0-0.2-0.1-0.4-0.2-0.6
			C345.5,349.4,345.2,349.4,344.8,349.4z"/>
		<path class="st19" d="M354.4,349.7c-0.2-0.1-0.4-0.1-0.7-0.2c-0.2,0-0.5-0.1-0.9-0.1c-0.2,0-0.4,0-0.6,0c-0.2,0-0.4,0.1-0.5,0.1
			l-1.6,6.8h-1.9l1.9-8c0.5-0.2,0.9-0.3,1.5-0.4c0.5-0.1,1.1-0.2,1.7-0.2c0.1,0,0.3,0,0.4,0c0.2,0,0.3,0,0.5,0.1
			c0.2,0,0.3,0,0.4,0.1c0.1,0,0.2,0.1,0.3,0.1L354.4,349.7z"/>
		<path class="st19" d="M355,353.3c0-0.7,0.1-1.4,0.3-2.1c0.2-0.7,0.6-1.3,1-1.8c0.4-0.5,1-0.9,1.6-1.2c0.6-0.3,1.3-0.5,2.1-0.5
			c0.8,0,1.4,0.2,1.9,0.6c0.5,0.4,0.7,1,0.7,1.6c0,0.7-0.2,1.2-0.5,1.6c-0.3,0.4-0.8,0.7-1.3,1c-0.5,0.2-1.1,0.4-1.8,0.5
			c-0.7,0.1-1.3,0.1-2,0.2c0,0,0,0,0,0.1v0.2c0,1,0.6,1.5,1.8,1.5c0.7,0,1.5-0.1,2.2-0.4l0.2,1.6c-0.3,0.1-0.6,0.2-1.1,0.4
			c-0.5,0.1-1,0.2-1.6,0.2c-0.6,0-1.1-0.1-1.5-0.3c-0.4-0.2-0.8-0.4-1.1-0.7c-0.3-0.3-0.5-0.6-0.6-1C355,354.2,355,353.8,355,353.3z
			 M359.6,349.4c-0.3,0-0.6,0.1-0.9,0.2c-0.3,0.1-0.5,0.3-0.8,0.5c-0.2,0.2-0.4,0.5-0.6,0.8c-0.2,0.3-0.3,0.6-0.4,1
			c1.3,0,2.2-0.2,2.8-0.5c0.6-0.3,0.9-0.7,0.9-1.2c0-0.2-0.1-0.4-0.2-0.6C360.3,349.4,360,349.4,359.6,349.4z"/>
		<path class="st19" d="M365.6,344.2h2c0,0.4-0.1,0.8-0.3,1.2c-0.1,0.4-0.3,0.8-0.5,1.1c-0.2,0.4-0.4,0.7-0.7,1
			c-0.2,0.3-0.5,0.6-0.7,0.9l-1.2-0.5c0.4-0.6,0.7-1.2,0.9-1.8S365.5,344.9,365.6,344.2z M368.8,344.2h2c0,0.4-0.1,0.8-0.3,1.2
			c-0.1,0.4-0.3,0.8-0.5,1.1c-0.2,0.4-0.4,0.7-0.7,1c-0.2,0.3-0.5,0.6-0.7,0.9l-1.2-0.5c0.4-0.6,0.7-1.2,0.9-1.8
			C368.5,345.5,368.7,344.9,368.8,344.2z"/>
	</g>
	<g class="st14">
		<path class="st39" d="M238.9,447.5h-86.1c-10.9,0-19.7-8.8-19.7-19.7l0,0c0-10.9,8.8-19.7,19.7-19.7h86.1
			c10.9,0,19.7,8.8,19.7,19.7l0,0C258.5,438.7,249.7,447.5,238.9,447.5z"/>
		<g>
			<path class="st15" d="M161.8,430.3c0,0.8-0.1,1.5-0.3,2.2c-0.2,0.7-0.5,1.3-0.9,1.8c-0.4,0.5-1,0.9-1.7,1.2
				c-0.7,0.3-1.6,0.4-2.8,0.4c-1,0-1.9-0.1-2.6-0.4c-0.7-0.2-1.3-0.5-1.8-0.9l1.2-2.7c0.4,0.3,0.9,0.5,1.4,0.7
				c0.5,0.2,1,0.3,1.6,0.3c0.9,0,1.5-0.2,1.8-0.6c0.4-0.4,0.6-1.1,0.6-2.1V420h3.5V430.3z"/>
			<path class="st15" d="M180,427.7c0,1.3-0.2,2.5-0.6,3.5c-0.4,1-0.9,1.9-1.6,2.5c-0.7,0.7-1.5,1.2-2.5,1.5c-1,0.3-2,0.5-3.1,0.5
				c-1.1,0-2.1-0.2-3-0.5c-0.9-0.3-1.8-0.9-2.5-1.5c-0.7-0.7-1.3-1.5-1.7-2.5c-0.4-1-0.6-2.2-0.6-3.5c0-1.3,0.2-2.5,0.6-3.5
				c0.4-1,1-1.9,1.7-2.5c0.7-0.7,1.5-1.2,2.5-1.5c0.9-0.3,1.9-0.5,3-0.5c1.1,0,2.1,0.2,3,0.5c0.9,0.3,1.8,0.9,2.5,1.5
				c0.7,0.7,1.3,1.5,1.7,2.5C179.7,425.2,180,426.4,180,427.7z M168.1,427.7c0,0.8,0.1,1.5,0.3,2.1c0.2,0.6,0.5,1.1,0.8,1.6
				c0.4,0.4,0.8,0.8,1.3,1c0.5,0.2,1.1,0.4,1.8,0.4c0.6,0,1.2-0.1,1.7-0.4c0.5-0.2,1-0.6,1.3-1c0.4-0.4,0.6-1,0.8-1.6
				c0.2-0.6,0.3-1.3,0.3-2.1c0-0.8-0.1-1.5-0.3-2.1c-0.2-0.6-0.5-1.2-0.8-1.6c-0.4-0.4-0.8-0.8-1.3-1c-0.5-0.2-1.1-0.4-1.7-0.4
				c-0.7,0-1.2,0.1-1.8,0.4c-0.5,0.2-0.9,0.6-1.3,1c-0.4,0.4-0.6,1-0.8,1.6C168.2,426.3,168.1,427,168.1,427.7z"/>
			<path class="st15" d="M182.9,420h3.5v15.6h-3.5V420z"/>
			<path class="st15" d="M200.4,435.5c-1-1.8-2.1-3.5-3.3-5.3c-1.2-1.7-2.4-3.4-3.7-4.9v10.2H190V420h2.9c0.5,0.5,1,1.1,1.6,1.8
				c0.6,0.7,1.2,1.5,1.8,2.3c0.6,0.8,1.2,1.7,1.9,2.5c0.6,0.9,1.2,1.7,1.7,2.5V420h3.5v15.6H200.4z"/>
			<path class="st15" d="M218.4,435.8c-1.1,0-2-0.2-2.8-0.5c-0.8-0.3-1.4-0.7-2-1.3c-0.5-0.5-0.9-1.2-1.1-2
				c-0.2-0.8-0.4-1.6-0.4-2.5V420h3.5v9.4c0,0.6,0.1,1.2,0.2,1.6c0.1,0.4,0.3,0.8,0.6,1.1c0.2,0.3,0.5,0.5,0.9,0.6
				c0.4,0.1,0.7,0.2,1.2,0.2c0.9,0,1.5-0.3,2.1-0.8c0.5-0.5,0.8-1.4,0.8-2.7V420h3.5v9.7c0,0.9-0.1,1.8-0.4,2.5
				c-0.3,0.8-0.6,1.4-1.2,2c-0.5,0.5-1.2,1-2,1.3C220.5,435.7,219.5,435.8,218.4,435.8z"/>
			<path class="st15" d="M232.5,432.9c0.5,0,0.9,0,1.2-0.1c0.3-0.1,0.6-0.2,0.8-0.3c0.2-0.1,0.3-0.3,0.4-0.5
				c0.1-0.2,0.1-0.4,0.1-0.7c0-0.5-0.2-0.9-0.7-1.3c-0.5-0.3-1.3-0.7-2.5-1.1c-0.5-0.2-1-0.4-1.5-0.6c-0.5-0.2-1-0.5-1.4-0.9
				c-0.4-0.4-0.7-0.8-1-1.3c-0.3-0.5-0.4-1.1-0.4-1.8c0-0.7,0.1-1.4,0.4-1.9c0.3-0.6,0.7-1.1,1.1-1.5c0.5-0.4,1.1-0.7,1.8-0.9
				c0.7-0.2,1.5-0.3,2.4-0.3c1,0,2,0.1,2.7,0.3c0.8,0.2,1.4,0.5,1.9,0.7l-1,2.8c-0.4-0.2-0.9-0.4-1.4-0.6c-0.5-0.2-1.2-0.3-1.9-0.3
				c-0.8,0-1.4,0.1-1.8,0.3c-0.4,0.2-0.6,0.6-0.6,1.1c0,0.3,0.1,0.5,0.2,0.7c0.1,0.2,0.3,0.4,0.6,0.5c0.2,0.2,0.5,0.3,0.9,0.4
				c0.3,0.1,0.7,0.3,1.1,0.4c0.8,0.3,1.5,0.6,2.1,0.9c0.6,0.3,1.1,0.6,1.5,1c0.4,0.4,0.7,0.8,0.9,1.4c0.2,0.5,0.3,1.2,0.3,1.9
				c0,1.5-0.5,2.6-1.5,3.4c-1,0.8-2.6,1.2-4.6,1.2c-0.7,0-1.3,0-1.9-0.1c-0.6-0.1-1-0.2-1.5-0.3c-0.4-0.1-0.8-0.2-1.1-0.4
				c-0.3-0.1-0.6-0.3-0.8-0.4l1-2.8c0.5,0.3,1,0.5,1.7,0.7C230.6,432.8,231.5,432.9,232.5,432.9z"/>
		</g>
	</g>
</g>
</svg>
