<?xml version="1.0" encoding="utf-8"?>
<!-- Generator: Adobe Illustrator 24.0.1, SVG Export Plug-In . SVG Version: 6.00 Build 0)  -->
<svg version="1.1" id="Calque_1" xmlns="http://www.w3.org/2000/svg" xmlns:xlink="http://www.w3.org/1999/xlink" x="0px" y="0px"
	 viewBox="0 0 1366 768" style="enable-background:new 0 0 1366 768;" xml:space="preserve">
<style type="text/css">
	.st0{fill:#585858;}
</style>
<path class="st0" d="M684,549c81.6,0.2,150.6-67.1,149.2-153.4c-1.4-82-67.4-146.2-148.5-146.6c-84.2-0.4-154.1,67.6-151.5,155.4
	C535.6,483.7,600.6,550,684,549z M723.9,528.5c-13.2,4.1-26.6,6.5-35.9,6.4c-16.9-0.1-29.1-1.3-41-4.8c-2.6-0.8-3.3-2-2.4-4.5
	c3.4-9.5,6.8-19.1,10.2-28.6c6.7-19.1,13.3-38.2,19.9-57.3c3-8.7,6.1-17.4,9.2-26.1c0.3-0.9,0.3-2.4,1.4-2.4
	c1.4-0.1,1.4,1.5,1.8,2.4c3.7,10.4,7.4,20.7,11.1,31.1c7.4,20.7,14.9,41.4,22.3,62.2c2,5.6,4,11.2,5.9,16.8
	C727.6,527,727.3,527.5,723.9,528.5z M799.2,373.6c2-8.7,3.2-17.6,3.1-25.6c-0.1-4.2,0.1-7.5-0.5-10.8c-0.1-0.8-0.6-2,0.5-2.3
	c1.1-0.3,1.3,1,1.7,1.8c5.7,11,9.6,22.6,12.1,34.7c3.4,16.7,3.7,33.5,0.7,50.3c-5.7,31.8-20.8,58.3-44.9,79.7
	c-5.9,5.2-12.2,9.8-19,13.8c-0.7,0.4-1.5,1.4-2.4,0.7c-0.9-0.7-0.2-1.7,0.1-2.5c6.9-19.3,13.8-38.7,20.6-58
	c5.9-16.7,11.6-33.6,17.5-50.3C792.4,394.8,796.7,384.5,799.2,373.6z M572.2,320.9c5.8-8,12.2-15.4,19.5-22
	c22.8-20.7,49.6-32.4,80.3-35.3c3.9-0.4,7.7-0.5,11.6-0.5c33.7,0.2,63.4,11.3,88.9,33.2c0.8,0.7,2.1,1.3,1.7,2.5
	c-0.4,1.1-1.7,0.8-2.6,0.9c-15,1.4-24.3,16.3-19.1,33.1c2,6.6,5.6,12.5,9.3,18.3c8.4,13.4,14,27.6,13.1,43.7
	c-0.6,10.8-3.2,21.2-6.8,31.3c-5,13.9-9.1,28.1-13.4,42.3c-1,3.3-2,6.7-3,10c-0.3,0.9-0.2,2.5-1.6,2.4c-1.1-0.1-1.1-1.5-1.4-2.4
	c-5.3-16-10.5-32.1-15.8-48.1c-10-30.4-20.1-60.9-30.1-91.3c-1.3-3.8-1-4.2,3.1-4.4c3.9-0.2,7.7-0.5,11.5-1.1
	c3.2-0.4,4.8-2.4,4.7-5.1c-0.1-2.8-2.2-4.9-5.4-4.9c-3.7,0-7.3,0.3-11,0.6c-18.8,1.7-37.7,1-56.5-0.6c-1.4-0.1-2.8-0.2-4.2-0.1
	c-3.3,0.1-5.1,1.6-5.3,4.4c-0.3,3,1.3,5.1,4.5,5.5c3.8,0.5,7.7,0.9,11.5,1.2c1.9,0.2,3.1,1,3.7,2.8c6.4,17.8,12.8,35.7,19.2,53.5
	c0.6,1.7,0.4,3.2-0.1,4.9c-9.3,27.6-18.6,55.3-28,82.9c-0.4,1.1-0.3,2.9-1.6,2.9c-1.5,0-1.5-1.8-1.9-3
	c-5.9-17.9-11.7-35.8-17.6-53.8c-9.3-28.5-18.7-56.9-28.1-85.4c-1.5-4.4-1.4-4.7,3.2-5.2c3.3-0.4,6.5-0.6,9.8-0.9
	c4-0.4,6.3-2.5,6-5.5c-0.3-3.2-2.8-4.9-6.7-4.6c-12.8,0.8-25.5,1.7-38.4,1.3c-0.5,0-1,0-1.5,0c-1-0.1-2.2,0.2-2.7-0.8
	C570.5,322.7,571.6,321.8,572.2,320.9z M547.5,393.5c0.7-16.6,4.2-32.6,11-47.9c0.3-0.7,0.4-1.6,1.3-2c1.1,0.2,1.2,1.2,1.5,2
	c2.9,8.1,5.9,16.2,8.8,24.4c10,27.7,19.9,55.4,29.9,83.2c6.8,19,13.6,38.1,20.4,57.1c0.7,1.9,1.5,3.7,2.1,5.6c0.4,1.4,2,3.2,0.6,4.4
	c-1.2,1-2.7-0.5-4-1.2c-7.7-4.1-14.9-9-21.7-14.5c-14.7-11.9-26.3-26.4-34.9-43.2C551.5,440,546.5,417.4,547.5,393.5z"/>
</svg>
